<svg id="Calque_1" data-name="Calque 1" xmlns="http://www.w3.org/2000/svg" width="400" height="900" viewBox="0 0 400 900">
  <defs>
    <style>
      .cls-1 {
        fill: #911829;
      }

      .cls-2 {
        fill: #b61f34;
      }

      .cls-3, .cls-4, .cls-5, .cls-6, .cls-7, .cls-8 {
        fill: #fff;
      }

      .cls-4 {
        opacity: 0.6;
      }

      .cls-5 {
        opacity: 0.2;
      }

      .cls-6 {
        opacity: 0.4;
      }

      .cls-7 {
        opacity: 0.5;
      }

      .cls-8 {
        opacity: 0.3;
      }
    </style>
  </defs>
  <title>balle</title>
  <g>
    <path class="cls-1" d="M116.07,833.74c-33-25.6-31.24-82.6-7.59-116.47,24.82-35.54,74.92-57.22,115.81-32,24,14.83,41.47,35.18,58.34,54.86,12.46,14.53,25.28,29.46,40.83,42.29.1-2.07.16-4.16.16-6.26,0-68.39-56-123.84-125-123.84s-125,55.45-125,123.84,56,123.84,125,123.84a125.49,125.49,0,0,0,61.26-15.86c-37.62-25.81-66.57-29.62-90.45-32.75C149.66,848.8,132.62,846.57,116.07,833.74Z"/>
    <path class="cls-2" d="M275.55,746.08c-17.16-20-33.38-38.93-56.17-53-39.88-24.6-84.39,2.39-103.26,29.42-25.82,37-18.3,85.4,5.67,104,14.56,11.29,29.68,13.27,48.82,15.78,25.62,3.36,56.87,7.47,97.83,36.62a123.7,123.7,0,0,0,54-85.5C304,779.22,289.55,762.41,275.55,746.08Z"/>
    <path class="cls-3" d="M282.63,740.13c-16.87-19.68-34.31-40-58.34-54.86-40.89-25.22-91-3.54-115.81,32-23.65,33.87-25.42,90.87,7.59,116.47,16.55,12.83,33.59,15.06,53.32,17.65,23.88,3.13,52.83,6.94,90.45,32.75q4.41-2.46,8.6-5.25c-41-29.15-72.21-33.26-97.83-36.62-19.14-2.51-34.26-4.49-48.82-15.78-24-18.58-31.49-67-5.67-104,18.87-27,63.38-54,103.26-29.42,22.79,14.06,39,33,56.17,53,14,16.33,28.44,33.14,46.86,47.31q.76-5.42,1-11C307.91,769.59,295.09,754.66,282.63,740.13Z"/>
  </g>
  <path class="cls-4" d="M254.73,638.32c-.79-13.69-1.34-38.82-1.64-52.91a235.89,235.89,0,0,0-109.36.09c-.25,14.1-.75,39.23-1.5,52.9a151.88,151.88,0,0,1,112.5-.08Z"/>
  <path class="cls-5" d="M95.87,189.7c24-16.31,61.08-26.77,102.71-26.77,42,0,79.33,10.63,103.3,27.17q5-18.18,10.5-35.76L400,198.08l-76.89-76.15L285.89,85.07,200,0,114.11,85.07,76.19,122.62,0,198.08,86.25,155Q91.26,172.06,95.87,189.7Z"/>
  <path class="cls-6" d="M268.27,352.06c-20.18-6.84-44.07-10.8-69.69-10.8-25.84,0-49.93,4-70.23,11,2.72,19,5.11,38.07,7.14,57.16a223.71,223.71,0,0,1,63.09-8.71A224.17,224.17,0,0,1,261,409.22Q264.11,380.57,268.27,352.06Z"/>
  <path class="cls-7" d="M140.57,467.43q2,29.58,2.83,58.71A235.49,235.49,0,0,1,253.25,526c.49-19.42,1.4-39,2.72-58.75a234.65,234.65,0,0,0-115.4.17Z"/>
  <path class="cls-8" d="M288.86,241.8c-23.5-12-55.28-19.43-90.28-19.43s-66.7,7.38-90.19,19.39c3.93,17.89,7.57,36.08,10.89,54.45,22-9,49.49-14.39,79.3-14.39s57,5.31,79,14.27Q282.71,268.6,288.86,241.8Z"/>
</svg>
