<svg id="compost" xmlns="http://www.w3.org/2000/svg" width="190" height="185" viewBox="0 0 190 185">
  <defs>
    <style>
      .clsz-1 {
        fill: #655444;
      }

      .clsz-2 {
        fill: #7b6a58;
      }

      .clsz-3 {
        fill: #cbbba0;
      }

      .clsz-4 {
        fill: #c0b09b;
      }

      .clsz-5 {
        fill: #aa9782;
      }

      .clsz-6 {
        fill: #4b9b66;
      }

      .clsz-7 {
        fill: #063;
      }
    </style>
  </defs>
  <title>compost_triman</title>
  <g>
    <ellipse class="clsz-1" cx="25.16" cy="47.16" rx="11.52" ry="11.55"/>
    <ellipse class="clsz-2" cx="166.08" cy="47.16" rx="11.52" ry="11.55"/>
    <path class="clsz-2" d="M32.22,54.25H159.31c7.45-14.93-6.61-29.86-16.54-29,3.86-18.8-32-39.54-45.49-11.61C83,1.44,61.44,6.7,57.58,27.43c-7.85-2.75-15.47-1.6-20.71,2.32C30.52,34.51,27.68,43.34,32.22,54.25Z"/>
    <path class="clsz-1" d="M118.2,54.25h-86c-4.54-10.91-1.7-19.74,4.65-24.5C33.1,54,94.57,48.89,118.2,54.25Z"/>
    <rect class="clsz-3" x="17.74" y="53" width="154.84" height="34.94"/>
    <rect class="clsz-3" x="17.74" y="97.65" width="154.84" height="34.94"/>
    <rect class="clsz-3" x="17.74" y="142.3" width="154.84" height="34.94"/>
    <path class="clsz-4" d="M172.58,87.94H17.74V53C53.55,87.36,126.23,69.34,172.58,87.94Z"/>
    <path class="clsz-4" d="M172.58,132.59H17.74V97.65C53.55,132,126.23,114,172.58,132.59Z"/>
    <path class="clsz-4" d="M172.58,177.24H17.74V142.3C53.55,176.65,126.23,158.63,172.58,177.24Z"/>
    <rect class="clsz-3" y="39.42" width="19.36" height="145.58" rx="9.68"/>
    <path class="clsz-5" d="M9.68,185h0a9.7,9.7,0,0,0,9.68-9.71V49.12a9.69,9.69,0,0,0-9.68-9.7h0Z"/>
    <rect class="clsz-3" x="170.64" y="39.42" width="19.36" height="145.58" rx="9.68"/>
    <path class="clsz-5" d="M180.32,185h0a9.69,9.69,0,0,0,9.68-9.71V49.12a9.69,9.69,0,0,0-9.68-9.7h0Z"/>
    <path class="clsz-4" d="M62.79,148.43c-1.11-46.64,21-70.86,73.76-64.41,10,44.42-18.39,79.74-64,73.52,13.29-14.44,32.21-35.74,37.1-45.84C97.08,116,75.2,137.1,62.79,148.43Z"/>
    <ellipse class="clsz-1" cx="84" cy="17.56" rx="5.62" ry="4.8"/>
    <ellipse class="clsz-1" cx="70.46" cy="24.66" rx="3.12" ry="2.92"/>
    <ellipse class="clsz-1" cx="79.31" cy="27.57" rx="2.29" ry="2.3"/>
    <ellipse class="clsz-1" cx="142.56" cy="33.81" rx="2.92" ry="3.13" transform="translate(52.81 149.61) rotate(-65.56)"/>
    <ellipse class="clsz-1" cx="149.51" cy="40.01" rx="2.29" ry="2.3"/>
    <rect class="clsz-5" x="17.74" y="87.94" width="154.84" height="9.71"/>
    <rect class="clsz-5" x="17.74" y="132.59" width="154.84" height="9.71"/>
    <path class="clsz-6" d="M57.31,142.93c-1.11-46.65,21-70.86,73.75-64.42,10,44.43-18.38,79.75-64,73.53,13.29-14.44,32.22-35.74,37.1-45.85C91.59,110.45,69.71,131.6,57.31,142.93Z"/>
    <g>
      <path class="clsz-7" d="M131.06,78.51c10,44.43-18.38,79.75-64,73.53,2.65-2.88,5.53-6,8.47-9.32C109.14,144.39,132.66,119.82,131.06,78.51Z"/>
      <path class="clsz-7" d="M104.15,106.19c-12.56,4.26-34.44,25.41-46.84,36.74a117.28,117.28,0,0,1,.62-15.85C67.67,130.17,88.75,106.76,104.15,106.19Z"/>
    </g>
  </g>
</svg>
