<?xml version="1.0" encoding="utf-8"?>
<!-- Generator: Adobe Illustrator 17.0.2, SVG Export Plug-In . SVG Version: 6.00 Build 0)  -->
<!DOCTYPE svg PUBLIC "-//W3C//DTD SVG 1.1//EN" "http://www.w3.org/Graphics/SVG/1.1/DTD/svg11.dtd">
<svg version="1.1" id="Calque_1" xmlns="http://www.w3.org/2000/svg" xmlns:xlink="http://www.w3.org/1999/xlink" x="0px" y="0px"
	 width="339.5px" height="163.783px" viewBox="904.612 259.024 339.5 163.783"
	 enable-background="new 904.612 259.024 339.5 163.783" xml:space="preserve">
<path fill="#FFFFFF" d="M1229.383,334.521c2.767,0.629,5.911,2.767,8.427,4.402c-0.126-8.804-6.666-22.514-12.163-26.538V295.94
	c0-0.296-0.024-0.564-0.059-0.819v-15.463c0-3.175-2.239-5.749-5-5.749h-280c-0.401,0-0.789,0.06-1.162,0.163l0,0
	c-0.631,0.173-1.216,0.482-1.729,0.901c-9.002,5.611-16.051,24.652-16.201,35.346c3.25-2.11,7.31-4.87,10.89-5.68
	c-3.25,6.01-13,25.02-12.68,38.51c2.86-3.04,5.82-5.14,9.15-6.1c-1.1,2.53-0.82,5.41-0.24,7.14c1.607-3.106,4.337-5.271,6.972-6.536
	v55.772c-2.942,2.136-5.075,4.424-5.055,7.323c1.218-1.882,2.436-2.878,3.653-3.211c-0.886,3.1-5.741,13.189-2.074,19.935
	c1.771-3.1,3.868-7.236,5.75-7.678l0,0c-0.443,2.878,0.088,4.903,0.863,6.564c1.346-1.436,5.012-4.905,9.479-5.631h272.384
	c2.761,0,5-2.574,5-5.749v-45.498l0.059,0.069c2.381,0.829,5.146,2.684,6.651,5.583c0.446-1.338,0.669-3.568-0.183-5.521
	c2.574,0.737,4.867,2.363,7.079,4.717C1239.445,353.891,1231.898,339.175,1229.383,334.521z"/>
</svg>
