<svg xmlns="http://www.w3.org/2000/svg" viewBox="0 0 55.4 131"><defs><style>.clsflower-1{fill:#8ec549;}.clsflower-2{fill:#3f5d28;}.clsflower-3{fill:#2a4613;}.clsflower-4{fill:#81a83a;}.clsflower-5{fill:#ce703c;}.clsflower-6{fill:#bf5236;}.clsflower-7{fill:#d6ad51;}.clsflower-8{fill:#faaf4c;}.clsflower-9{fill:#96c144;}.clsflower-10{fill:#6e9231;}.clsflower-11{fill:#91dc5a;}.clsflower-12{fill:#9e4329;}.clsflower-13{fill:#6d2b12;}</style></defs><title>flower</title><g id="Calque_2" data-name="Calque 2"><g id="Calque_1-2" data-name="Calque 1"><g id="Calque_7" data-name="Calque 7"><circle class="clsflower-1" cx="32.7" cy="72.9" r="2.7"/><path class="clsflower-2" d="M36.9,130.1c.2-4.9.3-9.8.1-14.6a83.45,83.45,0,0,0-1.7-14.3c-1-4.7-2.7-9.2-4.2-14.1a68.66,68.66,0,0,1-1.9-7.5,50.28,50.28,0,0,1-.8-7.7c-.1-2.6-.1-5.1,0-7.6s.3-5.1.6-7.6A92.46,92.46,0,0,1,32.5,42a130.75,130.75,0,0,1,5.4-14c2.1-4.6,4.3-9.1,6.8-13.4a138.54,138.54,0,0,0-6.2,13.6,139.38,139.38,0,0,0-4.8,14.2c-2.6,9.6-4.1,19.5-2.3,29.3a50.52,50.52,0,0,0,4,13.9c1.9,4.5,4.2,9.1,5.8,14.1a90,90,0,0,1,3.4,15.2c.8,5.1,1.2,10.2,1.5,15.3Z"/><path class="clsflower-3" d="M30.3,66.4c-.8-10.1-4.9-14.5-9.6-13.2s9.2,11.2,11.7,23.9"/><path class="clsflower-4" d="M35.3,101.6c-2.6-11.5.5-17.8,6.2-18s-6.4,15.7-4.8,30.7"/><path class="clsflower-5" d="M42.1,19.5c2.5-5.1,3.9-5.2,5-5.1a23.62,23.62,0,0,1-.9,11.4c-1.7,4.9-3.8,8.2-8.1,8.1s0-11.7,0-11.7Z"/><path class="clsflower-6" d="M34.2,36.6c-8,0-1.4-18.8,4.6-24.3s5-8.9,4.1-12.3c5,8.1,2.1,19.2-1.4,27.7S37.5,36.6,34.2,36.6Z"/><path class="clsflower-7" d="M37,24.4c1.3-3.1,3.2-7,4-6.9s-1.6,7.5-2.6,8.9S37,24.4,37,24.4Z"/><circle class="clsflower-1" cx="17.5" cy="119.5" r="5.3"/><circle class="clsflower-7" cx="34.1" cy="106.2" r="5.3"/><circle class="clsflower-1" cx="49.8" cy="119.7" r="3.3"/><circle class="clsflower-1" cx="26" cy="46.2" r="2.7"/><path class="clsflower-8" d="M38.6,127.4c-5.2-2.1-10.3-4.6-14.6-8.6a20.82,20.82,0,0,1-5-7.1,24.42,24.42,0,0,1-1.9-8.3,65.54,65.54,0,0,0-1-7.9,15.81,15.81,0,0,0-1.4-3.6,18.52,18.52,0,0,0-2.1-3.3A32.15,32.15,0,0,0,0,78.8a33.43,33.43,0,0,1,7.4,3.5,29.53,29.53,0,0,1,6.3,5.4A26,26,0,0,1,16.2,91,15.26,15.26,0,0,1,18,94.9a58.94,58.94,0,0,1,1.5,8.2,25.34,25.34,0,0,0,2.1,7.4,17.8,17.8,0,0,0,4.7,5.9c3.9,3.3,8.8,5.4,13.8,7.2Z"/><path class="clsflower-6" d="M22.6,115.5a22.81,22.81,0,0,0,3.4-6.8,8.74,8.74,0,0,0,.1-3.6,12.45,12.45,0,0,0-1.3-3.5,28.35,28.35,0,0,1-1.9-3.9,5.93,5.93,0,0,1-.5-2.3V93.2a16.93,16.93,0,0,1,3-7.9,15.92,15.92,0,0,0-1.7,7.9,6.93,6.93,0,0,0,.3,2,6.36,6.36,0,0,0,.6,1.8c.5,1.1,1.4,2.2,2.1,3.4a14.22,14.22,0,0,1,2,4.1,12.46,12.46,0,0,1,.3,4.7,23.53,23.53,0,0,1-3.1,8.4Z"/><path class="clsflower-9" d="M36.3,115.8a36.57,36.57,0,0,0,8.6-8.5,11.15,11.15,0,0,0,2-5.1,14.76,14.76,0,0,0-.5-5.8A39.43,39.43,0,0,1,45,89.7a11.37,11.37,0,0,1,.3-3.7,18.54,18.54,0,0,1,1.2-3.3,25.21,25.21,0,0,1,8.6-10.2,23.92,23.92,0,0,0-6.5,11,15.67,15.67,0,0,0-.5,3c0,.5-.1,1-.1,1.4a6.75,6.75,0,0,0,.2,1.4,46.79,46.79,0,0,0,2,6,18.47,18.47,0,0,1,1.3,7.2,18,18,0,0,1-2,7.3c-2.3,4.4-5.6,7.8-8.9,11Z"/><circle class="clsflower-8" cx="35.7" cy="65.2" r="1.3"/><circle class="clsflower-8" cx="16.5" cy="34.9" r="1.7"/><circle class="clsflower-8" cx="22.8" cy="81.9" r="1.7"/><circle class="clsflower-6" cx="16.7" cy="66.9" r="0.6"/><circle class="clsflower-6" cx="43.1" cy="79.8" r="1.5"/><path class="clsflower-3" d="M11.7,120.6a1.27,1.27,0,0,1,1.4-.7,25.36,25.36,0,0,1,9.1,4.2,46.14,46.14,0,0,1,7.5,6.8l.1.1H21.2c-.8-.9-1.7-1.8-2.4-2.6-3.8-3.9-6.7-6.3-6.7-6.3A1.15,1.15,0,0,1,11.7,120.6Z"/><path class="clsflower-2" d="M13.7,111.4a1.2,1.2,0,0,1,1.5-.4,23.63,23.63,0,0,1,8,6,51.24,51.24,0,0,1,6,8.2c1.2,2.1,2.3,4.1,3.1,5.7H24.7A96.1,96.1,0,0,0,19,120.4c-2.9-4.6-5.2-7.6-5.2-7.6A.9.9,0,0,1,13.7,111.4Z"/><path class="clsflower-10" d="M18.5,104.4a1.2,1.2,0,0,1,1.5-.1,23.25,23.25,0,0,1,6.7,7.4,51.45,51.45,0,0,1,4.4,9.1,74.36,74.36,0,0,1,3,10.2H26.8A92,92,0,0,0,22,114.3c-2-5-3.8-8.4-3.8-8.4A1.1,1.1,0,0,1,18.5,104.4Z"/><path class="clsflower-1" d="M29.1,130.9v-.1a86.36,86.36,0,0,0-1.4-19.5c-.9-5.3-2-8.9-2-9a1.28,1.28,0,0,1,.5-1.4,1.21,1.21,0,0,1,1.5.2,23.91,23.91,0,0,1,5,8.5,48.47,48.47,0,0,1,2.4,9.8,70.38,70.38,0,0,1,.9,11.5Z"/><path class="clsflower-3" d="M55.3,120.6a1.27,1.27,0,0,0-1.4-.7,25.36,25.36,0,0,0-9.1,4.2,46.14,46.14,0,0,0-7.5,6.8l-.1.1h8.6c.8-.9,1.7-1.8,2.4-2.6,3.8-3.9,6.7-6.3,6.7-6.3A1.27,1.27,0,0,0,55.3,120.6Z"/><path class="clsflower-2" d="M53.3,111.4a1.2,1.2,0,0,0-1.5-.4,23.63,23.63,0,0,0-8,6,51.24,51.24,0,0,0-6,8.2c-1.2,2.1-2.3,4.1-3.1,5.7h7.6A96.1,96.1,0,0,1,48,120.4c2.9-4.6,5.2-7.6,5.2-7.6A1.07,1.07,0,0,0,53.3,111.4Z"/><path class="clsflower-10" d="M48.5,104.4a1.2,1.2,0,0,0-1.5-.1,23.25,23.25,0,0,0-6.7,7.4,51.45,51.45,0,0,0-4.4,9.1,74.36,74.36,0,0,0-3,10.2h7.3A92,92,0,0,1,45,114.3c2-5,3.8-8.4,3.8-8.4A1.36,1.36,0,0,0,48.5,104.4Z"/><path class="clsflower-11" d="M38,130.9v-.1a85.75,85.75,0,0,1,1.5-19.5c1-5.3,2.1-8.9,2.1-9a1.28,1.28,0,0,0-.5-1.4,1.21,1.21,0,0,0-1.5.2,23.25,23.25,0,0,0-5.2,8.5,55.44,55.44,0,0,0-2.6,9.8,77.93,77.93,0,0,0-1,11.5Z"/><path class="clsflower-3" d="M21.8,130.9H15.7a.7.7,0,0,1,0-1.4h6.1a.7.7,0,0,1,0,1.4Z"/><path class="clsflower-3" d="M49.6,130.9H44.7a.7.7,0,0,1,0-1.4h4.9a.7.7,0,1,1,0,1.4Z"/><path class="clsflower-12" d="M32,36.1c-6.3-4.2,3-26.2,4-28.8s.6,11.2,3.4,20.1S37,39.4,32,36.1Z"/><path class="clsflower-13" d="M32,36.1c-3-2-2.5-7.9-1-13.9,1-3.9.9,4.5,3.2,8.9,1.6,3.1,6,2.1,5.8,2.8C39.1,37.6,35.5,38.4,32,36.1Z"/></g></g></g></svg>