<svg xmlns="http://www.w3.org/2000/svg" xmlns:xlink="http://www.w3.org/1999/xlink" height="300px" width="300px" fill="#000000" version="1.1" x="0px" y="0px" viewBox="0 0 100 100" enable-background="new 0 0 100 100" xml:space="preserve"><path d="M75.085,34.219H53.5V21.813h-7v12.406H24.915C12.831,34.219,3,44.05,3,56.134c0,12.085,9.831,21.917,21.915,21.917h50.17  C87.169,78.051,97,68.219,97,56.134C97,44.05,87.169,34.219,75.085,34.219z M75.085,71.051h-50.17C16.69,71.051,10,64.359,10,56.134  c0-8.224,6.69-14.915,14.915-14.915h50.17C83.31,41.219,90,47.91,90,56.134C90,64.359,83.31,71.051,75.085,71.051z M67.117,66.708h7  v-6.495h-7V66.708z M32.883,45.562h-7v7.073H18.81v7h7.073v7.073h7v-7.073h7.073v-7h-7.073V45.562z M60.044,59.635h6.495v-7h-6.495  V59.635z M74.695,59.635h6.495v-7h-6.495V59.635z M67.117,52.057h7v-6.495h-7V52.057z"/></svg>