<svg version="1.1" id="Calque_1" xmlns="http://www.w3.org/2000/svg" xmlns:xlink="http://www.w3.org/1999/xlink" x="0px" y="0px"
	 width="32.5px" height="24px" viewBox="817.695 236.64 32.5 24" enable-background="new 817.695 236.64 32.5 24"
	 xml:space="preserve">
<path fill="#B61F34" d="M842.131,248.049c0,1.52-0.46,2.92-1.24,4.1c-0.88,1.31-2.17,2.32-3.69,2.85c-0.77,0.28-1.59,0.43-2.45,0.43
	c-0.56,0-1.12-0.06-1.64-0.19c-1.6-0.36-3-1.25-4.02-2.46c-0.84-1-1.41-2.23-1.61-3.58c-0.07-0.37-0.1-0.76-0.1-1.15
	c0-1.25,0.31-2.42,0.86-3.45c0.82-1.56,2.19-2.78,3.85-3.42c0.83-0.32,1.72-0.5,2.66-0.5c0.69,0,1.35,0.09,1.98,0.28
	c1.53,0.41,2.85,1.31,3.8,2.52c0.97,1.21,1.56,2.73,1.59,4.4C842.131,247.939,842.131,247.989,842.131,248.049z"/>
<g>
	<path fill="#FFFFFF" d="M837.011,246.949l-1.96-1.4c-0.18-0.13-0.41-0.13-0.59-0.01l-1.95,1.4c-0.18,0.13-0.25,0.35-0.18,0.56
		l0.84,2.54c0.07,0.2,0.26,0.34,0.47,0.34h0.03l2.52-0.14c0.22-0.01,0.41-0.16,0.46-0.38l0.56-2.39
		C837.251,247.269,837.181,247.069,837.011,246.949z"/>
</g>
<g>
	<path fill="#FFFFFF" d="M837.031,241.929l-0.3-0.97c-0.63-0.19-1.29-0.28-1.98-0.28c-0.94,0-1.83,0.18-2.66,0.5v1.4
		c0,0.2,0.11,0.39,0.28,0.47l2.12,1.06c0.07,0.04,0.14,0.05,0.22,0.05c0.11,0,0.22-0.04,0.31-0.11l1.85-1.54
		C837.031,242.369,837.101,242.139,837.031,241.929z"/>
</g>
<g>
	<path fill="#FFFFFF" d="M840.531,243.479l-1.24,0.39c-0.19,0.06-0.34,0.22-0.37,0.41l-0.38,2.34c-0.01,0.08-0.01,0.15,0.01,0.22
		c0.04,0.11,0.11,0.2,0.2,0.27l2.03,1.3c0.17,0.12,0.41,0.11,0.59-0.01l0.75-0.52C842.091,246.209,841.501,244.689,840.531,243.479z
		"/>
</g>
<g>
	<path fill="#FFFFFF" d="M830.891,246.909l-1.13-2.12c-0.1-0.19-0.31-0.3-0.53-0.28l-0.99,0.09c-0.55,1.03-0.86,2.2-0.86,3.45
		c0,0.39,0.03,0.78,0.1,1.15l1.38,0.28c0.19,0.04,0.4-0.03,0.52-0.18l1.47-1.86c0.04-0.06,0.07-0.13,0.09-0.2
		C830.961,247.129,830.951,247.019,830.891,246.909z"/>
</g>
<g>
	<path fill="#FFFFFF" d="M840.201,251.119c-0.11-0.17-0.3-0.26-0.5-0.24l-2.34,0.3c-0.08,0.01-0.15,0.03-0.21,0.08
		c-0.09,0.06-0.16,0.15-0.2,0.26l-0.68,2.31c-0.06,0.21,0.01,0.43,0.18,0.57l0.75,0.6c1.52-0.53,2.81-1.54,3.69-2.85
		L840.201,251.119z"/>
</g>
<g>
	<path fill="#FFFFFF" d="M833.821,253.649l-1.17-2.05c-0.04-0.07-0.09-0.13-0.16-0.17c-0.09-0.06-0.2-0.09-0.32-0.07l-2.39,0.26
		c-0.21,0.02-0.39,0.17-0.46,0.38l-0.23,0.78c1.02,1.21,2.42,2.1,4.02,2.46l0.69-1.04
		C833.911,254.029,833.921,253.819,833.821,253.649z"/>
</g>
</svg>
