<svg version="1.1" id="Calque_1" xmlns="http://www.w3.org/2000/svg" xmlns:xlink="http://www.w3.org/1999/xlink" x="0px" y="0px"
	 width="32.5px" height="24px" viewBox="778.195 236.64 32.5 24" enable-background="new 778.195 236.64 32.5 24"
	 xml:space="preserve">
<g>
	<path fill="#9E9E9E" d="M801.432,246.175l-0.594,0l-0.004-2.963c-0.002-3.228-2.629-5.852-5.856-5.85
		c-3.228,0.002-5.852,2.629-5.85,5.856l0.004,2.963h-0.21c-1.11,0-2.01,0.901-2.009,2.011l0.002,8.822
		c0,1.11,0.901,2.01,2.011,2.009l12.51-0.006c1.11,0,2.01-0.901,2.009-2.011l-0.002-8.822
		C803.443,247.074,802.542,246.175,801.432,246.175z M798.681,246.177l-7.392,0.004l-0.004-2.963
		c-0.001-2.038,1.656-3.697,3.694-3.698c2.038-0.001,3.697,1.656,3.698,3.694L798.681,246.177z"/>
</g>
</svg>
