<svg version="1.1" id="Calque_1" xmlns="http://www.w3.org/2000/svg" xmlns:xlink="http://www.w3.org/1999/xlink" x="0px" y="0px"
	 width="32.5px" height="24px" viewBox="565.445 236.64 32.5 24" enable-background="new 565.445 236.64 32.5 24"
	 xml:space="preserve">
<path fill="#B61F34" d="M594.43,252.619c-0.129-1.22-0.668-6.634-0.879-8.555c-0.285-2.602-2.446-4.554-5.042-4.556
	c-1.212-0.001-2.295,0.388-3.241,1.153c-0.091,0.073-0.218,0.169-0.314,0.156c-0.805-0.114-2.598-0.385-4.095-0.385
	c-1.284,0-3.291,0.271-4.096,0.385c-0.096,0.013-0.224-0.083-0.314-0.156c-0.946-0.765-2.029-1.154-3.241-1.153
	c-2.596,0.002-4.757,1.954-5.042,4.556c-0.21,1.921-0.749,7.335-0.878,8.555c-0.19,1.803,0.047,4.233,2.351,4.786
	c2.141,0.513,4.012-0.341,5.19-2.001c0.718-1.013,1.505-1.977,2.272-2.954c0.073-0.093,0.228-0.174,0.345-0.174h6.826
	c0.118,0.001,0.272,0.081,0.345,0.174c0.767,0.977,1.554,1.941,2.272,2.954c1.178,1.661,3.048,2.515,5.19,2.001
	C594.383,256.852,594.62,254.422,594.43,252.619z"/>
<circle fill="#FFFFFF" cx="573.867" cy="246.77" r="3.52"/>
<circle fill="#FFFFFF" cx="587.932" cy="246.761" r="3.52"/>
<path fill="#921427" d="M575.789,246.142h-1.248v-1.248c0-0.092-0.075-0.166-0.166-0.166h-0.888c-0.092,0-0.167,0.074-0.167,0.166
	v1.248h-1.248c-0.092,0-0.167,0.075-0.167,0.166v0.888c0,0.092,0.075,0.166,0.167,0.166h1.248v1.248
	c0,0.092,0.075,0.167,0.167,0.167h0.888c0.092,0,0.166-0.075,0.166-0.167v-1.248h1.248c0.092,0,0.167-0.075,0.167-0.166v-0.888
	C575.956,246.217,575.881,246.142,575.789,246.142z"/>
<circle fill="#921427" cx="587.932" cy="246.761" r="1.634"/>
</svg>
