<svg version="1.1" id="Calque_1" xmlns="http://www.w3.org/2000/svg" xmlns:xlink="http://www.w3.org/1999/xlink" x="0px" y="0px"
	 width="32.5px" height="24px" viewBox="601.945 236.64 32.5 24" enable-background="new 601.945 236.64 32.5 24"
	 xml:space="preserve">
<path fill="#921427" d="M622.545,237.343c-1.137,1.137-2.673,1.763-4.265,1.763c-1.621,0-3.128-0.626-4.265-1.763
	c-0.085-0.085-0.227-0.114-0.341-0.085l-8.758,2.502c-0.171,0.057-0.284,0.227-0.256,0.426l1.336,5.886
	c0.057,0.199,0.227,0.313,0.427,0.256l3.867-0.881l0.142,14.586c0,0.199,0.171,0.341,0.37,0.341h14.814
	c0.199,0,0.37-0.171,0.37-0.341l0.114-14.586l3.867,0.881c0.199,0.057,0.398-0.085,0.427-0.256l1.336-5.886
	c0.028-0.199-0.057-0.37-0.256-0.426l-8.587-2.502C622.772,237.23,622.63,237.258,622.545,237.343z"/>
<g>
	<path fill="#FFFFFF" d="M621.107,253.697c-0.071,0-0.141-0.017-0.206-0.051l-2.707-1.423l-2.707,1.423
		c-0.149,0.078-0.33,0.066-0.466-0.034c-0.137-0.099-0.205-0.267-0.176-0.433l0.517-3.014l-2.19-2.135
		c-0.121-0.118-0.164-0.294-0.112-0.454c0.052-0.16,0.191-0.277,0.357-0.301l3.027-0.44l1.353-2.742
		c0.149-0.303,0.645-0.303,0.794,0l1.353,2.742l3.027,0.44c0.166,0.024,0.305,0.141,0.357,0.301c0.052,0.16,0.009,0.336-0.112,0.454
		l-2.19,2.135l0.517,3.014c0.029,0.166-0.04,0.334-0.176,0.433C621.291,253.668,621.199,253.697,621.107,253.697z"/>
</g>
</svg>
