<svg width="55px" height="56px" viewBox="0 0 55 56" version="1.1" xmlns="http://www.w3.org/2000/svg" xmlns:xlink="http://www.w3.org/1999/xlink">
    <!-- Generator: Sketch 52.2 (67145) - http://www.bohemiancoding.com/sketch -->
    <title>Icon-LOGO</title>
    <desc>Created with Sketch.</desc>
    <defs>
        <circle id="path-1" cx="27" cy="27" r="27"></circle>
    </defs>
    <g id="Icon-LOGO" stroke="none" stroke-width="1" fill="none" fill-rule="evenodd">
        <g id="Group-91-Copy-4" transform="translate(1.000000, 1.000000)">
            <mask id="mask-2" fill="white">
                <use xlink:href="#path-1"></use>
            </mask>
            <use id="Mask" fill="#FFFFFF" fill-rule="nonzero" xlink:href="#path-1"></use>
            <g id="Group-91-Copy" mask="url(#mask-2)">
                <g transform="translate(-21.000000, -11.000000)" id="Group-90">
                    <g>
                        <path d="M3.86329404,41.6414093 C5.73385724,35.4682869 11.5805855,30.9647543 18.5031688,30.9647543 L20.4115931,30.9647543 L20.4115931,56.4834289 L20.4115931,84.2824474 C20.4115931,88.9178765 16.5670047,92.6754612 11.8242461,92.6754612 C7.08148743,92.6754612 3.23689903,88.9178765 3.23689903,84.2824474 L3.23689903,54.8636667 C2.22851927,54.797352 1.57438444,55.117201 1.0120909,55.716231 C0.430304508,53.8788395 1.30298409,50.1490997 2.12430753,49.1459535 C1.40569638,49.2965354 0.379323226,49.9483239 0.0202050814,50.449897 C0.43067937,47.0894673 1.65085637,43.9671842 3.86329404,41.6414093" id="Fill-8" fill="#921427"></path>
                        <path d="M90.8825312,41.6414093 C89.011968,35.4682869 83.1652397,30.9647543 76.2426565,30.9647543 L74.3342322,30.9647543 L74.3342322,56.4834289 L74.3342322,84.2824474 C74.3342322,88.9178765 78.1788206,92.6754612 82.9215792,92.6754612 C87.6643378,92.6754612 91.5089262,88.9178765 91.5089262,84.2824474 L91.5089262,54.8636667 C92.517306,54.797352 93.1714408,55.117201 93.7337344,55.716231 C94.3155208,53.8788395 93.4424663,50.1490997 92.6215177,49.1459535 C93.3401289,49.2965354 94.366502,49.9483239 94.7256202,50.449897 C94.3151459,47.0894673 93.0949689,43.9671842 90.8825312,41.6414093" id="Fill-20" fill="#921427"></path>
                        <path d="M21.102202,28.0901434 C19.6612311,31.4197972 18.8616497,35.0769939 18.8616497,38.9232423 L18.8616497,43.3139301 C17.3599511,44.3881538 15.573357,48.048648 15.5388697,50.3989703 C16.2263673,49.9626127 17.0851769,49.391794 17.8408995,49.2236259 C17.1537768,50.466384 15.0924086,54.3950677 15.1610084,57.182114 C15.7652866,56.5534073 16.3916816,56.119248 17.0949234,55.9228688 C16.8621338,56.4442264 16.9228615,57.0395925 17.0446918,57.3968122 C17.4559158,56.622653 18.2112635,56.1273084 18.8616497,55.9060154 L18.8616497,85.5515848 C18.8616497,90.9139102 17.3337107,94.2311071 18.0024651,96.9954378 C18.5677576,96.1410416 19.1334249,95.6885634 19.6990922,95.5379815 C19.2878682,96.9452439 18.4136892,100.21188 18.8766442,102.976211 C19.6990922,101.568949 20.5732712,100.965889 21.4474503,100.764747 C21.2420257,102.071621 21.4474503,103.327935 21.807693,104.081943 C22.5787849,103.277741 24.4853349,102.476104 26.8233514,104.912525 C32.0331886,110.222458 39.3647467,113.528297 47.4861398,113.528297 C56.6942589,113.528297 64.8868759,109.278665 70.1229534,102.676879 C70.9588965,103.153539 71.5534282,104.380542 71.7464823,105.342288 C71.9399113,104.998624 72.0276291,104.672547 72.014134,103.923301 C72.5123261,104.517568 72.8789415,105.305283 73.1154797,106.332244 C74.2550612,104.770004 75.2630661,101.3341 74.4098794,97.7974418 C74.7461309,96.938649 75.4437498,96.6100069 76.3722839,96.4740803 C76.3198031,95.3445333 74.901324,93.3935643 75.37515,91.8811512 C76.0004204,89.8847511 76.1110048,87.7282434 76.1110048,85.5515848 L76.1110048,77.1061789 C76.8764737,77.525683 77.7487785,78.59148 78.04417,79.5876649 C78.7995177,75.220059 76.1110048,72.7451678 76.1110048,69.1590486 L76.1110048,47.6115576 C77.1696161,47.8170963 78.0846551,48.5330012 78.8489995,49.4559103 C78.9903226,46.8300709 78.4422738,44.064641 77.5264851,42.4236288 C78.4895065,42.4752882 78.9843248,42.7288226 79.5769822,43.2245336 C79.3438178,40.2619918 78.2012373,37.4837386 77.0905202,35.5895584 C75.7616331,33.3231369 75.0640142,30.954862 74.070629,28.5297984 C71.9084228,23.2517403 68.1481785,18.7672594 63.375056,15.64864 C62.1106452,14.7184033 61.2870726,13.4723478 60.9043381,11.9104735 C60.5054846,10.3453017 60.5624637,8.59767312 61.1671167,7.07976428 C59.837105,7.25892368 58.1670932,8.50278092 57.4938403,9.56015117 C56.8164641,8.95159539 56.4922081,7.65791058 56.7126272,6.43566972 C55.8249531,7.12372977 54.9065403,8.94903073 54.6969923,10.2416164 C53.6533754,8.55883693 53.6533754,7.02883757 53.5491637,5.601058 C52.3087441,5.78901051 51.1635396,6.42028179 50.4591732,7.19517371 C49.5782467,6.62142395 48.9031195,5.21526075 48.9184889,4.23373098 C48.4311678,4.47187744 47.9682128,4.97198499 47.6960627,5.79560533 C46.8335044,4.0611664 46.0815305,2.07355948 45.5660948,0.144573215 C44.9400746,3.05105907 43.1658511,7.74291055 42.2268208,9.83347002 C41.2353099,9.37476331 40.4529721,8.81383682 39.7744713,7.79383725 C38.2094209,10.2416164 33.3676986,14.4384896 31.1402664,15.9534675 C28.7775089,17.5607728 24.1078485,18.9984446 22.317131,19.3113324 C22.5727871,21.8118702 22.5739117,24.803356 21.102202,28.0901434" id="Fill-48" fill="#B61F34"></path>
                        <path d="M65.2997868,20.0968493 C65.081242,20.7904051 64.0957289,21.1091549 63.0982201,20.8090904 C62.1010862,20.5086595 61.469818,19.7029917 61.6883628,19.009436 C61.9069075,18.3158803 62.8927955,17.9971304 63.8899294,18.2975613 C64.8870633,18.5976258 65.5183315,19.4032936 65.2997868,20.0968493" id="Fill-50" fill="#D83547"></path>
                        <path d="M67.0548924,22.6072427 C67.0548924,23.0190529 66.778244,23.3528243 66.4371192,23.3528243 C66.0959945,23.3528243 65.819346,23.0190529 65.819346,22.6072427 C65.819346,22.1954325 66.0959945,21.8616611 66.4371192,21.8616611 C66.778244,21.8616611 67.0548924,22.1954325 67.0548924,22.6072427" id="Fill-52" fill="#D83547"></path>
                        <path d="M22.9783132,57.8168659 C22.9783132,59.2860463 22.4463835,60.4775113 21.7903744,60.4775113 C21.1343652,60.4775113 20.6028104,59.2860463 20.6028104,57.8168659 C20.6028104,56.3476854 21.1343652,55.1562204 21.7903744,55.1562204 C22.4463835,55.1562204 22.9783132,56.3476854 22.9783132,57.8168659" id="Fill-54" fill="#D83547"></path>
                        <path d="M25.4300255,62.1108662 C25.268085,62.7322453 24.8148764,63.1557796 24.4175223,63.0568572 C24.0201682,62.9583012 23.8293632,62.3742928 23.9909289,61.7529138 C24.1528694,61.1315347 24.606078,60.7080004 25.0034321,60.8069228 C25.4007863,60.9058452 25.5919661,61.4894872 25.4300255,62.1108662" id="Fill-56" fill="#D83547"></path>
                        <path d="M22.8561081,65.5585674 C22.6690517,66.448136 21.9961738,67.0647521 21.3536597,66.9357866 C20.7111456,66.8064548 20.3419062,65.9806362 20.5289625,65.0910676 C20.7163937,64.2011326 21.3888968,63.5845165 22.0314109,63.7138483 C22.673925,63.8428138 23.0431644,64.6689988 22.8561081,65.5585674" id="Fill-58" fill="#D83547"></path>
                        <path d="M29.0013393,88.8969929 C30.7002155,95.3657833 35.8601959,100.478238 42.437531,102.237224 C43.5415006,102.524099 44.5513799,103.276276 44.8160327,103.605284 C45.3209723,103.534939 46.1145559,102.876556 46.3548427,102.406492 C47.0041043,102.806211 47.53341,103.158668 47.966376,103.511491 C48.6898604,102.832591 50.1214597,102.832591 52.2529271,102.3105 C60.4856544,100.241557 66.5692957,92.938155 66.5692957,84.2458095 C66.5692957,80.2222336 65.2655244,76.4957912 63.0485883,73.4489822 C62.2040234,73.2841115 61.2586206,73.5013744 60.7581793,73.7190036 C61.1472864,72.523142 62.5376509,71.5445433 63.9834951,71.4903192 C62.7558208,70.7520652 61.4599216,70.6113756 60.1932617,71.0616556 C60.5673744,70.3578412 61.2586206,69.7390268 62.4390621,69.4854924 C61.4599216,68.8384668 59.2797221,68.5699109 58.1558848,68.7798462 C55.1101281,66.768791 51.4383512,65.5945458 47.4861773,65.5945458 C36.9469219,65.5945458 28.4030589,73.9450595 28.4030589,84.2458095 C27.5378766,84.8202921 26.8323856,85.7399037 26.6442047,86.4752267 C27.820148,86.1766277 29.5137761,86.3374681 30.2192671,86.8892351 C29.0901816,87.0731575 27.4906439,88.2455708 27.3965535,89.3721867 C27.8437643,88.9581782 28.5023975,88.8204197 29.0013393,88.8969929" id="Fill-62" fill="#FDD5A5"></path>
                        <path d="M69.4318571,42.1074802 C69.4318571,35.4119011 63.8782712,29.9839939 57.0280364,29.9839939 L53.6778914,29.9839939 C52.5525546,29.9839939 51.9096657,30.8625711 50.8188162,31.15714 C50.2565226,30.4379377 49.4318254,29.7619681 48.8436664,29.4553088 C48.2656286,30.496192 47.4139413,31.2992951 46.507899,31.7950061 C45.8012834,30.9424418 44.631338,29.9839939 43.4516461,29.9839939 L37.944918,29.9839939 C31.0943083,29.9839939 25.5407224,35.4119011 25.5407224,42.1074802 C24.8404795,43.0772858 24.1181197,44.5673499 24.2388254,45.4301728 C24.765507,44.9117463 25.852233,44.3804965 26.6465663,44.421531 C25.9778119,45.4019616 25.5530928,47.3514651 25.9358273,48.7110981 C26.1168858,48.1941371 26.7132918,47.9673484 27.1188929,48.0296329 C28.6442079,50.6873473 31.1640327,52.7258809 34.1857982,53.6638116 C34.1490617,53.8264839 34.1280694,53.9950183 34.1280694,54.1683157 C34.1280694,55.4561384 35.1960523,56.4995862 36.5136935,56.4995862 L58.4592609,56.4995862 C59.7765272,56.4995862 60.8445101,55.4561384 60.8445101,54.1683157 C60.8445101,53.9946519 60.8235178,53.8261175 60.7867813,53.6634452 C63.769936,52.7372387 66.2642702,50.7390068 67.7948332,48.1311199 C67.533929,47.9413355 66.9348989,47.9237493 66.6027709,48.0677363 C67.3903567,47.1147841 69.0521216,46.5388361 70.6021774,47.4496547 C71.0152758,46.2889655 71.0152758,43.7660786 69.4318571,42.1074802" id="Fill-72" fill="#921427"></path>
                        <path d="M58.4590735,49.7410266 L36.5135061,49.7410266 C35.1962397,49.7410266 34.1282568,50.7848408 34.1282568,52.0722971 C34.1282568,53.3601199 35.1962397,54.4039341 36.5135061,54.4039341 L58.4590735,54.4039341 C59.7763398,54.4039341 60.8443227,53.3601199 60.8443227,52.0722971 C60.8443227,50.7848408 59.7763398,49.7410266 58.4590735,49.7410266" id="Fill-74" fill="#F39655"></path>
                        <path d="M70.6022524,44.8251342 C71.0153507,43.6644451 71.0153507,41.1411918 69.4319321,39.4829598 C69.4319321,32.7873807 63.8783462,27.3594735 57.0277365,27.3594735 L53.6775915,27.3594735 C52.5526296,27.3594735 51.9093658,28.2380507 50.8188911,28.5326195 C50.2565976,27.8134172 49.4319004,27.1374477 48.8437414,26.8307883 C48.2657036,27.8716715 47.4136414,28.6744082 46.5075991,29.1701192 C45.8013584,28.3175549 44.631413,27.3594735 43.4513462,27.3594735 L37.9446181,27.3594735 C31.0943833,27.3594735 25.5407973,32.7873807 25.5407973,39.4829598 C24.8405545,40.452399 24.1181947,41.9428294 24.2385255,42.8052859 C24.765582,42.2868594 25.852308,41.755976 26.6466413,41.7966441 C25.9778869,42.7774411 25.5531678,44.7269446 25.9359023,46.0865777 C26.1165859,45.5692503 26.7133668,45.3424616 27.1189679,45.4051124 C29.2425632,49.1055419 33.2948253,51.6060797 37.9446181,51.6060797 L57.0277365,51.6060797 C61.6351698,51.6060797 65.6555687,49.1509729 67.7949082,45.5065995 C67.534004,45.3164487 66.9349739,45.2992289 66.6028459,45.4428495 C67.3900568,44.4902637 69.0521965,43.9139493 70.6022524,44.8251342" id="Fill-76" fill="#FDD5A5"></path>
                        <path d="M60.7677383,47.8083032 C62.2698118,46.6113425 63.2298343,44.7889726 63.2298343,42.7467752 L42.3338815,42.7467752 L42.3338815,45.0780458 C42.3338815,45.5931749 41.9065384,46.0108471 41.3798568,46.0108471 L39.4714325,46.0108471 C38.944376,46.0108471 38.5174078,45.5931749 38.5174078,45.0780458 L38.5174078,42.7467752 L31.7428952,42.7467752 C31.7428952,44.7889726 32.7025428,46.6113425 34.2049912,47.8083032 C36.2078808,46.9234976 41.3978502,46.2933254 47.4863647,46.2933254 C53.5748792,46.2933254 58.7648487,46.9234976 60.7677383,47.8083032" id="Fill-78" fill="#71131B"></path>
                        <path d="M56.5507991,49.2747358 C58.1503368,49.2747358 59.617923,48.7248007 60.7676258,47.8084864 C58.7647362,46.9236808 53.5747668,46.2931422 47.4862523,46.2931422 C41.3977378,46.2931422 36.2077683,46.9236808 34.2048787,47.8084864 C35.3549564,48.7248007 36.8225426,49.2747358 38.4217054,49.2747358 L56.5507991,49.2747358 Z" id="Fill-80" fill="#921427"></path>
                        <path d="M40.9026195,33.8874707 C40.9026195,35.6900562 39.4072936,37.1515426 37.5629707,37.1515426 C35.7186479,37.1515426 34.2236968,35.6900562 34.2236968,33.8874707 C34.2236968,32.0848853 35.7186479,30.6233988 37.5629707,30.6233988 C39.4072936,30.6233988 40.9026195,32.0848853 40.9026195,33.8874707" id="Fill-82" fill="#1D1D1B"></path>
                        <path d="M53.6883126,33.8874707 C53.6883126,35.6900562 55.1836386,37.1515426 57.0279614,37.1515426 C58.8722842,37.1515426 60.3672353,35.6900562 60.3672353,33.8874707 C60.3672353,32.0848853 58.8722842,30.6233988 57.0279614,30.6233988 C55.1836386,30.6233988 53.6883126,32.0848853 53.6883126,33.8874707" id="Fill-84" fill="#1D1D1B"></path>
                        <path d="M39.6622375,32.9548892 C39.6622375,33.5729708 39.1494258,34.0738112 38.5174078,34.0738112 C37.885015,34.0738112 37.3722033,33.5729708 37.3722033,32.9548892 C37.3722033,32.3368076 37.885015,31.8359673 38.5174078,31.8359673 C39.1494258,31.8359673 39.6622375,32.3368076 39.6622375,32.9548892" id="Fill-86" fill="#FFF5E9"></path>
                        <path d="M59.1270032,32.9548892 C59.1270032,33.5729708 58.6141915,34.0738112 57.9821736,34.0738112 C57.3497807,34.0738112 56.836969,33.5729708 56.836969,32.9548892 C56.836969,32.3368076 57.3497807,31.8359673 57.9821736,31.8359673 C58.6141915,31.8359673 59.1270032,32.3368076 59.1270032,32.9548892" id="Fill-88" fill="#FFF5E9"></path>
                    </g>
                </g>
            </g>
        </g>
    </g>
</svg>