<svg version="1.1" id="Calque_1" xmlns="http://www.w3.org/2000/svg" xmlns:xlink="http://www.w3.org/1999/xlink" x="0px" y="0px"
	 width="32.5px" height="24px" viewBox="854.07 236.64 32.5 24" enable-background="new 854.07 236.64 32.5 24"
	 xml:space="preserve">
<path fill="#921427" d="M869.521,238.437c-0.1-0.056-0.219-0.072-0.333-0.041l-9.893,2.86c-0.235,0.066-0.369,0.319-0.295,0.549
	l4.233,14.651c0.066,0.235,0.307,0.365,0.542,0.299l9.894-2.86c0.027-0.005,0.058-0.022,0.082-0.034
	c0.078-0.042,0.139-0.095,0.18-0.167c0.052-0.108,0.068-0.227,0.037-0.34l-4.233-14.651
	C869.703,238.589,869.621,238.493,869.521,238.437z"/>
<g>
	<path fill="#FFFFFF" d="M867.245,245.247c-0.868,0.234-0.952,1.083-0.952,1.083s-0.5-0.691-1.368-0.457
		c-0.867,0.234-1.167,1.202-0.983,1.884c0.308,1.142,3.328,2.195,3.328,2.195s2.08-2.429,1.772-3.571
		C868.858,245.699,868.113,245.013,867.245,245.247z"/>
</g>
<g>
	<path fill="#FFFFFF" d="M862.361,242.262c-0.294,0.079-0.322,0.366-0.322,0.366s-0.169-0.234-0.463-0.155
		c-0.293,0.079-0.395,0.407-0.333,0.637c0.104,0.386,1.126,0.743,1.126,0.743s0.704-0.822,0.6-1.208
		C862.906,242.415,862.654,242.182,862.361,242.262z"/>
</g>
<path fill="#B61F34" d="M883.575,240.56c-0.07-0.11-0.18-0.19-0.31-0.22l-11.42-2.47c-0.27-0.06-0.54,0.12-0.59,0.39l-3.66,16.91
	c-0.06,0.27,0.11,0.53,0.38,0.59l11.42,2.47c0.03,0.01,0.07,0.01,0.1,0.01c0.1,0,0.19-0.02,0.27-0.07c0.11-0.08,0.19-0.19,0.22-0.32
	l3.66-16.91C883.675,240.81,883.645,240.67,883.575,240.56z"/>
<path fill="#FFFFFF" d="M875.145,241.41l-0.17-0.67l-0.81,0.09l0.12-0.42l0.43,0.01c0.01,0.03,0.02,0.07,0.05,0.09
	c0.06,0.03,0.13,0.02,0.17-0.03c0.03-0.05,0.02-0.13-0.03-0.17c-0.05-0.03-0.11-0.02-0.15,0.02l-0.47-0.48l-1.01,0.75l-0.59-0.35
	l-0.43,0.54c-0.06-0.06-0.17-0.03-0.19,0.06c-0.01,0.06,0.03,0.12,0.09,0.14c0.09,0.02,0.14-0.04,0.14-0.12l0.45-0.06l0.15,0.38
	l0.107,0.023c-0.088,0.644,0.155,1.159,0.444,1.227c0.288,0.058,0.718-0.308,0.903-0.939l0.046,0.01l0.29-0.28l0.39,0.24
	c-0.03,0.07-0.01,0.15,0.08,0.17c0.06,0.01,0.12-0.03,0.13-0.09C875.305,241.46,875.225,241.38,875.145,241.41z"/>
<path fill="#FFFFFF" d="M878.965,248.44l-0.37-1.52l-1.84,0.21l0.26-0.97l0.99,0.03c0.01,0.08,0.05,0.15,0.12,0.2
	c0.12,0.08,0.28,0.05,0.37-0.07c0.08-0.12,0.05-0.29-0.07-0.37c-0.1-0.07-0.24-0.06-0.33,0.02l-1.08-1.09l-2.29,1.71l-1.34-0.8
	l-0.97,1.23c-0.15-0.13-0.39-0.06-0.44,0.14c-0.03,0.15,0.06,0.29,0.21,0.32c0.19,0.04,0.3-0.1,0.32-0.27l1.02-0.15l0.4,1.01
	l0.007,0.001c-0.32,1.6,0.266,2.908,0.973,3.058c0.707,0.159,1.779-0.793,2.154-2.38l0.096,0.021l0.79-0.75l0.86,0.55
	c-0.06,0.17-0.01,0.34,0.18,0.38c0.15,0.03,0.29-0.06,0.32-0.2C879.345,248.55,879.155,248.38,878.965,248.44z"/>
</svg>
