<svg xmlns="http://www.w3.org/2000/svg" width="590" height="850" viewBox="0 0 590 850">
  <defs>
    <style>
      .clsy-1 {
        fill: #fac18a;
      }

      .clsy-2 {
        fill: #921427;
      }

      .clsy-3 {
        fill: #71131b;
      }

      .clsy-4 {
        fill: #b61f34;
      }

      .clsy-5 {
        fill: #d83547;
      }

      .clsy-6 {
        fill: #fdd5a5;
      }

      .clsy-7 {
        fill: #fff5e9;
      }

      .clsy-8 {
        fill: #f39655;
      }

      .clsy-9 {
        opacity: 0.5;
      }

      .clsy-10 {
        fill: #1d1d1b;
      }

      .clsy-11 {
        fill: #73b7b1;
      }

      .clsy-12 {
        fill: #6dada8;
      }

      .clsy-13 {
        fill: #459a8c;
        opacity: 0.62;
      }

      .clsy-14 {
        fill: #3e8b7f;
      }

      .clsy-15 {
        fill: #d62c3d;
      }

      .clsy-16 {
        fill: #f8c68d;
      }

      .clsy-17 {
        fill: #77bdb7;
      }

      .clsy-18 {
        fill: #4caa9b;
      }

      .clsy-19 {
        opacity: 0.47;
      }

      .clsy-20 {
        fill: #9bd3d9;
      }

      .clsy-21 {
        fill: #7cc6c1;
      }

      .clsy-22 {
        fill: #00a099;
      }
    </style>
  </defs>
  <title>monstre</title>
  <g id="bras-G">
    <rect class="clsy-1" x="58.67" y="572.39" width="23.78" height="41.48" rx="11.87"/>
    <path class="clsy-1" d="M47.58,564.8h0A11.86,11.86,0,0,1,56,579.35L51.39,596.5a11.87,11.87,0,0,1-14.54,8.38h0a11.87,11.87,0,0,1-8.4-14.54L33,573.19A11.89,11.89,0,0,1,47.58,564.8Z"/>
    <path class="clsy-1" d="M93.23,564.8h0a11.86,11.86,0,0,0-8.4,14.54l4.61,17.15A11.87,11.87,0,0,0,104,604.88h0a11.87,11.87,0,0,0,8.4-14.54l-4.61-17.15A11.88,11.88,0,0,0,93.23,564.8Z"/>
    <path class="clsy-2" d="M23.94,263.7a95.12,95.12,0,0,1,91.21-67.85H127V534.67A53.41,53.41,0,0,1,73.54,588h0A53.42,53.42,0,0,1,20,534.67V347.72c-6.28-.42-10.36,1.61-13.86,5.42C2.55,341.46,8,317.76,13.11,311.39c-4.48.95-10.87,5.1-13.11,8.28C2.56,298.32,10.16,278.48,23.94,263.7Z"/>
    <path class="clsy-3" d="M127,425.21V534.67A53.41,53.41,0,0,1,73.54,588h0A53.42,53.42,0,0,1,20,534.67C62.87,570.89,116.75,565.8,127,425.21Z"/>
    <path class="clsy-4" d="M109.62,211.12c-30-6.48-58.31,13.11-63.23,44.85h0C61.88,230.92,81.08,216.64,109.62,211.12Z"/>
    <ellipse class="clsy-4" cx="49.88" cy="519.72" rx="8.53" ry="12.75"/>
    <ellipse class="clsy-4" cx="43.49" cy="483.59" rx="5.54" ry="8.5"/>
  </g>
  <g id="bras-D">
    <rect class="clsy-1" x="507.55" y="572.39" width="23.78" height="41.48" rx="11.87" transform="translate(1038.88 1186.27) rotate(-180)"/>
    <path class="clsy-1" d="M542.42,564.8h0a11.86,11.86,0,0,0-8.4,14.54l4.61,17.15a11.87,11.87,0,0,0,14.54,8.38h0a11.87,11.87,0,0,0,8.4-14.54L557,573.19A11.89,11.89,0,0,0,542.42,564.8Z"/>
    <path class="clsy-1" d="M496.77,564.8h0a11.86,11.86,0,0,1,8.4,14.54l-4.61,17.15A11.87,11.87,0,0,1,486,604.88h0a11.87,11.87,0,0,1-8.4-14.54l4.61-17.15A11.88,11.88,0,0,1,496.77,564.8Z"/>
    <path class="clsy-2" d="M566.06,263.7a95.12,95.12,0,0,0-91.21-67.85H463V534.67A53.41,53.41,0,0,0,516.46,588h0A53.42,53.42,0,0,0,570,534.67V347.72c6.28-.42,10.36,1.61,13.86,5.42,3.63-11.68-1.81-35.38-6.93-41.75,4.48.95,10.87,5.1,13.11,8.28C587.44,298.32,579.84,278.48,566.06,263.7Z"/>
    <path class="clsy-3" d="M463,425.21V534.67A53.41,53.41,0,0,0,516.46,588h0A53.42,53.42,0,0,0,570,534.67C527.13,570.89,473.25,565.8,463,425.21Z"/>
    <ellipse class="clsy-4" cx="536.86" cy="260.3" rx="8.53" ry="12.75"/>
    <ellipse class="clsy-4" cx="543.25" cy="296.43" rx="5.54" ry="8.5"/>
  </g>
  <g id="jambe-G">
    <path class="clsy-2" d="M168.26,687.22v1c-4.95,2.82-9.12,10.65-10.37,17.22a9,9,0,0,1,7.93,0c-4.39,5.64-7.13,16.26-6.82,21.9a10.2,10.2,0,0,1,9.26,0v80.27H295.6v-67A178.05,178.05,0,0,1,168.26,687.22Z"/>
    <path class="clsy-3" d="M168.26,776.19V756.85c27.13-3.3,63.07,1,91.21,16.07C236.68,767.89,191,764.51,168.26,776.19Z"/>
    <path class="clsy-2" d="M209.22,764.5c-23,0-42.58,3.82-56.94,10.5C135.66,782.73,126,794.3,126,808.26c0,14.89,8.84,26.4,26.29,33.53,12.82,5.24,30.31,8.11,52.39,8.21h2.47c56.23-.24,88.68-15.91,88.68-41.74C295.82,782.24,258.91,764.5,209.22,764.5Z"/>
    <path class="clsy-3" d="M295.6,807.65c-19.31,19.85-57.89,22.58-86.16,22.58-31.19,0-64.43-3.24-83.45-22,0,14.89,8.84,26.4,26.29,33.53,12.82,5.24,30.31,8.11,52.39,8.21h2.47c56.23-.24,88.68-15.91,88.68-41.74Z"/>
    <path class="clsy-3" d="M168.26,655.76v31.46A178.05,178.05,0,0,0,295.6,740.67V655.76Z"/>
    <ellipse class="clsy-4" cx="197.37" cy="785.82" rx="12.79" ry="8.5"/>
    <ellipse class="clsy-4" cx="161.13" cy="792.2" rx="8.53" ry="5.53"/>
  </g>
  <g id="jambe-D">
    <path class="clsy-2" d="M295.71,740.67h-.44v67H422.61V727.38a10.2,10.2,0,0,1,9.26,0c.31-5.64-2.42-16.26-6.82-21.9a9.07,9.07,0,0,1,7.94,0c-1.26-6.57-5.43-14.4-10.38-17.22v-.48A178,178,0,0,1,295.71,740.67Z"/>
    <path class="clsy-3" d="M295.27,655.76v84.9h.44a178,178,0,0,0,126.9-52.91v-32Z"/>
    <path class="clsy-3" d="M422.61,776.19V756.85c-27.12-3.3-63.07,1-91.21,16.07C354.19,767.89,399.88,764.51,422.61,776.19Z"/>
    <path class="clsy-2" d="M381.65,764.5c23,0,42.58,3.82,56.94,10.5,16.62,7.73,26.29,19.3,26.29,33.26,0,14.89-8.84,26.4-26.29,33.53C425.77,847,408.28,849.9,386.2,850h-2.46c-56.24-.24-88.69-15.91-88.69-41.74C295.05,782.24,332,764.5,381.65,764.5Z"/>
    <path class="clsy-3" d="M295.27,807.65c19.31,19.85,57.9,22.58,86.16,22.58,31.19,0,64.43-3.24,83.45-22,0,14.89-8.84,26.4-26.29,33.53C425.77,847,408.28,849.9,386.2,850h-2.46c-56.24-.24-88.69-15.91-88.69-41.74Z"/>
  </g>
  <g id="corps">
    <path class="clsy-4" d="M131.34,177.58a175.73,175.73,0,0,0-14,68.85v27.9c-9.36,6.82-20.49,30.08-20.7,45,4.28-2.77,9.63-6.4,14.34-7.47-4.28,7.9-17.12,32.86-16.69,50.57,3.76-4,7.66-6.75,12-8a13.78,13.78,0,0,0-.31,9.37,20.49,20.49,0,0,1,11.32-9.47V542.73c0,34.08-9.52,55.16-5.35,72.72,3.52-5.43,7-8.3,10.57-9.26-2.57,8.94-8,29.7-5.13,47.27,5.13-8.94,10.57-12.78,16-14.05-1.28,8.3,0,16.28,2.24,21.07,4.81-5.11,16.68-10.2,31.25,5.28a178,178,0,0,0,128.73,54.75h0a178.22,178.22,0,0,0,141-69c5.21,3,8.91,10.82,10.11,16.93,1.21-2.18,1.76-4.25,1.67-9,3.1,3.77,5.39,8.78,6.86,15.3,7.1-9.92,13.38-31.76,8.07-54.23,2.09-5.46,6.44-7.55,12.22-8.41-.32-7.18-9.16-19.58-6.21-29.19,3.9-12.68,4.58-26.39,4.58-40.22V489.06c4.77,2.67,10.21,9.44,12.05,15.77,4.7-27.75-12.05-43.48-12.05-66.27V301.64c6.6,1.3,12.3,5.85,17.06,11.72.88-16.69-2.53-34.26-8.24-44.69,6,.33,9.08,1.94,12.78,5.09-1.46-18.83-8.57-36.48-15.49-48.52-8.28-14.4-12.63-29.45-18.82-44.86a178.5,178.5,0,0,0-66.63-81.86A40.55,40.55,0,0,1,379.3,74.77a51.45,51.45,0,0,1,1.64-30.7c-8.29,1.14-18.69,9-22.89,15.76C353.83,56,351.81,47.75,353.19,40c-5.53,4.37-11.26,16-12.56,24.18-6.5-10.69-6.5-20.41-7.15-29.49A33.39,33.39,0,0,0,314.23,44.8c-5.49-3.64-9.7-12.58-9.6-18.81-3,1.51-5.92,4.69-7.62,9.92A199.37,199.37,0,0,1,283.74,0c-3.9,18.47-14.95,48.29-20.8,61.57-6.18-2.92-11.05-6.48-15.28-13-9.75,15.55-34.15,39.09-53.79,51.85-20.3,13.2-43.81,19.35-55,21.34C140.5,137.69,140.51,156.7,131.34,177.58Z"/>
    <ellipse class="clsy-5" cx="395.43" cy="123.34" rx="8.35" ry="11.77" transform="translate(162.04 465.54) rotate(-73.03)"/>
    <ellipse class="clsy-5" cx="413.77" cy="142.74" rx="3.85" ry="4.74"/>
    <ellipse class="clsy-5" cx="135.63" cy="366.49" rx="7.4" ry="16.91"/>
    <ellipse class="clsy-5" cx="153.82" cy="392.64" rx="7.38" ry="4.62" transform="translate(-264.71 444.18) rotate(-75.63)"/>
    <ellipse class="clsy-5" cx="135.02" cy="414.2" rx="10.45" ry="7.4" transform="translate(-297.97 462.25) rotate(-78.28)"/>
  </g>
  <g id="ventre">
    <path class="clsy-2" d="M180.55,579.84a118.9,118.9,0,0,0,83.7,84.77c6.88,1.82,13.17,6.6,14.82,8.69,3.15-.44,8.09-4.63,9.59-7.61a95.36,95.36,0,0,1,10,7c4.51-4.32,13.42-4.32,26.7-7.63a118.42,118.42,0,0,0,67.26-183.41,26.08,26.08,0,0,0-14.27,1.72c2.42-7.6,11.08-13.82,20.09-14.16-7.65-4.7-15.72-5.59-23.61-2.73,2.33-4.47,6.64-8.4,14-10-6.1-4.12-19.68-5.82-26.68-4.49a118.6,118.6,0,0,0-66.47-20.24c-65.66,0-118.89,53.06-118.89,118.52-5.39,3.65-9.79,9.5-11,14.17,7.33-1.9,17.88-.88,22.28,2.63-7,1.17-17,8.62-17.59,15.78A12.37,12.37,0,0,1,180.55,579.84Z"/>
    <path class="clsy-6" d="M180.55,564a118.9,118.9,0,0,0,83.7,84.77c6.88,1.83,13.17,6.6,14.82,8.7,3.15-.45,8.09-4.63,9.59-7.62a95.36,95.36,0,0,1,10,7c4.51-4.31,13.42-4.31,26.7-7.63a118.42,118.42,0,0,0,67.26-183.41,26.17,26.17,0,0,0-14.27,1.72c2.42-7.6,11.08-13.82,20.09-14.16-7.65-4.69-15.72-5.59-23.61-2.73,2.33-4.47,6.64-8.4,14-10-6.1-4.12-19.68-5.82-26.68-4.49a118.6,118.6,0,0,0-66.47-20.24c-65.66,0-118.89,53.07-118.89,118.52-5.39,3.65-9.79,9.5-11,14.17,7.33-1.9,17.88-.88,22.28,2.63-7,1.17-17,8.62-17.59,15.78A12.37,12.37,0,0,1,180.55,564Z"/>
    <path class="clsy-7" d="M283.52,440.58A79.38,79.38,0,0,0,204,519.85C214.89,485.18,247,453.14,283.52,440.58Z"/>
    <g>
      <path class="clsy-1" d="M184.81,552.18c-6.49,2.47-13.76,8.75-14.26,14.83a12.37,12.37,0,0,1,10-3,118.9,118.9,0,0,0,83.7,84.77c6.88,1.83,13.17,6.6,14.82,8.7,3.15-.45,8.09-4.63,9.59-7.62a95.36,95.36,0,0,1,10,7c4.51-4.31,13.42-4.31,26.7-7.63a118.64,118.64,0,0,0,89.19-114.8C365,647.74,238,655.35,184.81,552.18Z"/>
      <path class="clsy-1" d="M165.86,548.6a35.48,35.48,0,0,1,17.29.28c-2.25-4.61-4.38-9.41-6.33-14.45C171.43,538.08,167,543.93,165.86,548.6Z"/>
    </g>
    <path class="clsy-8" d="M302.43,536.68l10.09-10a4.75,4.75,0,0,0-6.73-6.71L295.71,530l-10.09-10.06a4.75,4.75,0,0,0-6.73,6.71l10.09,10-10.09,10.06a4.75,4.75,0,0,0,6.73,6.71l10.09-10.06,10.08,10.06a4.75,4.75,0,0,0,6.73-6.71Z"/>
  </g>
  <g id="Z_01">
    <g class="clsy-9">
      <path d="M447.32,115.85l16.75-20H449.68a3.41,3.41,0,0,1-2.28-.67,2.23,2.23,0,0,1-.77-1.76,2.36,2.36,0,0,1,.77-1.83,3.26,3.26,0,0,1,2.28-.7H467.1q3.6,0,3.6,3.35a4.75,4.75,0,0,1-.6,2.56,31.26,31.26,0,0,1-2.43,3.1L452,118.5h17.27a3.53,3.53,0,0,1,2.29.63,2.18,2.18,0,0,1,.75,1.77,2.43,2.43,0,0,1-.75,1.87,3.32,3.32,0,0,1-2.29.69h-20a4.75,4.75,0,0,1-3.24-1,3.29,3.29,0,0,1-1.09-2.59,2.89,2.89,0,0,1,.17-1,3.7,3.7,0,0,1,.48-.87q.3-.42.84-1Z"/>
    </g>
  </g>
  <g id="Z_02">
    <g class="clsy-9">
      <path d="M493.37,81.43,513.29,57.6H496.18a4.05,4.05,0,0,1-2.72-.79,2.67,2.67,0,0,1-.91-2.09,2.87,2.87,0,0,1,.91-2.19,4,4,0,0,1,2.72-.83h20.71c2.86,0,4.28,1.33,4.28,4a5.65,5.65,0,0,1-.71,3,38.28,38.28,0,0,1-2.88,3.67L499,84.58h20.53a4.14,4.14,0,0,1,2.73.76,2.58,2.58,0,0,1,.89,2.1,2.86,2.86,0,0,1-.89,2.22,3.93,3.93,0,0,1-2.73.82H495.65a5.68,5.68,0,0,1-3.87-1.15,3.92,3.92,0,0,1-1.29-3.08A3.43,3.43,0,0,1,490.7,85a4.22,4.22,0,0,1,.57-1c.24-.33.57-.74,1-1.25Z"/>
    </g>
  </g>
  <g id="Z_03">
    <g class="clsy-9">
      <path d="M548.94,41.06,576.45,8.15H552.81a5.57,5.57,0,0,1-3.74-1.1,3.64,3.64,0,0,1-1.26-2.89,3.89,3.89,0,0,1,1.26-3A5.37,5.37,0,0,1,552.81,0h28.61q5.91,0,5.91,5.52a7.91,7.91,0,0,1-1,4.2,53,53,0,0,1-4,5.07L556.65,45.41H585a5.72,5.72,0,0,1,3.76,1,3.56,3.56,0,0,1,1.24,2.9,4,4,0,0,1-1.24,3.07A5.45,5.45,0,0,1,585,53.55H552.08A7.8,7.8,0,0,1,546.75,52,5.42,5.42,0,0,1,545,47.71a4.78,4.78,0,0,1,.29-1.68,6.18,6.18,0,0,1,.79-1.45c.33-.45.78-1,1.37-1.71S548.5,41.57,548.94,41.06Z"/>
    </g>
  </g>
  <g id="visage">
    <path class="clsy-2" d="M432.42,265.71h0a77.15,77.15,0,0,0-77.27-77H334.28c-7,0-11,5.58-17.81,7.45a43.13,43.13,0,0,0-12.31-10.81,37.85,37.85,0,0,1-14.55,14.86c-4.4-5.42-11.69-11.5-19-11.5H236.26a77.16,77.16,0,0,0-77.27,77h0c-4.36,6.17-8.86,15.64-8.11,21.12,3.28-3.3,10.05-6.67,15-6.41-4.17,6.23-6.81,18.62-4.43,27.26a7,7,0,0,1,7.37-4.33,77.41,77.41,0,0,0,44,35.8,14.76,14.76,0,0,0-.36,3.21h0a14.83,14.83,0,0,0,14.86,14.81H364.07a14.84,14.84,0,0,0,14.86-14.81h0a14.69,14.69,0,0,0-.36-3.21A77.46,77.46,0,0,0,422.23,304c-1.63-1.2-5.36-1.32-7.43-.4a19.29,19.29,0,0,1,24.92-3.93C442.29,292.29,442.29,276.25,432.42,265.71Z"/>
    <rect class="clsy-8" x="212.49" y="315.17" width="166.44" height="29.63" rx="14.82"/>
    <path class="clsy-6" d="M439.72,283.93c2.57-7.38,2.57-23.41-7.3-34h0a77.15,77.15,0,0,0-77.27-77H334.28c-7,0-11,5.58-17.81,7.46a43.34,43.34,0,0,0-12.31-10.82,37.81,37.81,0,0,1-14.55,14.87c-4.4-5.42-11.69-11.51-19-11.51H236.26A77.16,77.16,0,0,0,159,250h0c-4.36,6.16-8.86,15.63-8.11,21.12,3.28-3.3,10.05-6.67,15-6.41-4.17,6.23-6.81,18.62-4.43,27.26a7,7,0,0,1,7.37-4.34A77.29,77.29,0,0,0,236.26,327H355.15a77.3,77.3,0,0,0,67.08-38.76c-1.63-1.21-5.36-1.32-7.43-.4A19.29,19.29,0,0,1,439.72,283.93Z"/>
    <ellipse class="clsy-7" cx="199.08" cy="242.65" rx="7.38" ry="4.62" transform="translate(-85.39 375.27) rotate(-75.63)"/>
    <ellipse class="clsy-7" cx="183.12" cy="261.38" rx="10.45" ry="7.4" transform="translate(-110.02 387.57) rotate(-78.28)"/>
  </g>
  <g id="bouche_normale">
    <path class="clsy-3" d="M378.45,302.89a41.68,41.68,0,0,0,13.21-19,10,10,0,0,0-9.5-13.14H263.61v14.82a5.93,5.93,0,0,1-5.95,5.92H245.77a5.93,5.93,0,0,1-5.94-5.92V270.72H209.25a10,10,0,0,0-9.49,13.14,41.53,41.53,0,0,0,13.21,19c12.47-5.63,44.81-9.63,82.74-9.63S366,297.26,378.45,302.89Z"/>
    <path class="clsy-7" d="M263.61,270.72v14.82a5.93,5.93,0,0,1-5.95,5.92H245.77a5.93,5.93,0,0,1-5.94-5.92V270.72Z"/>
    <path class="clsy-2" d="M352.18,312.21a41.55,41.55,0,0,0,26.27-9.32c-12.48-5.63-44.81-9.63-82.74-9.63s-70.27,4-82.74,9.63a41.5,41.5,0,0,0,26.27,9.32Z"/>
  </g>
  <g id="bouche_ouverte">
    <path class="clsy-3" d="M269.54,256.43h84.57c14.1,0,25.52,12.28,25.52,27.43a28.28,28.28,0,0,1-8.46,20.36,24.26,24.26,0,0,0-6-4.48c-15.91-7.73-21-13.24-69.35-13.24s-53.44,5.51-69.36,13.24a43.07,43.07,0,0,0-7.77,5.1,28.22,28.22,0,0,1-9.1-21c0-15.15,11.42-27.43,25.52-27.43h34.46Z"/>
    <path class="clsy-2" d="M365.14,299.74c-15.91-7.73-21-13.24-69.35-13.24s-53.44,5.51-69.36,13.24a43.07,43.07,0,0,0-7.77,5.1,24.34,24.34,0,0,0,16.42,6.45h119a24.45,24.45,0,0,0,17.06-7.07A24.26,24.26,0,0,0,365.14,299.74Z"/>
    <path class="clsy-7" d="M248.24,276.38h12.28a6.38,6.38,0,0,0,6.14-6.6V256.43H242.11v13.35A6.37,6.37,0,0,0,248.24,276.38Z"/>
  </g>
  <g id="bouche_dodo">
    <ellipse class="clsy-3" cx="313.61" cy="284.75" rx="11.74" ry="11.7"/>
    <ellipse class="clsy-7" cx="340.28" cy="274.81" rx="26.31" ry="26.23"/>
  </g>
  <g id="bouche_colere">
    <path class="clsy-1" d="M375.21,308.88c0,8.73-25.85,15.82-57.75,15.82s-57.76-7.09-57.76-15.82c0-12.83,33.26-23.08,57.76-15.82C336.58,285.45,375.43,294.28,375.21,308.88Z"/>
    <path class="clsy-3" d="M363.31,303.72a10,10,0,0,0,9.5-13.13,41.65,41.65,0,0,0-39.48-28.35H260.09a41.65,41.65,0,0,0-39.48,28.35,10,10,0,0,0,9.49,13.13Z"/>
    <path class="clsy-7" d="M284.46,262.24v12a5.94,5.94,0,0,1-5.94,5.93H266.63a5.94,5.94,0,0,1-5.95-5.93v-12Z"/>
    <path class="clsy-2" d="M369.54,303.22c0,8.74-25.86,15.82-57.75,15.82S254,312,254,303.22c0-12.82,33.26-23.08,57.76-15.82C330.91,279.79,369.76,288.62,369.54,303.22Z"/>
    <ellipse class="clsy-4" cx="349.57" cy="297.14" rx="4.4" ry="7.98" transform="translate(-29.86 555.07) rotate(-74.57)"/>
    <ellipse class="clsy-4" cx="332.08" cy="295.68" rx="3.03" ry="5.49" transform="translate(-41.28 537.14) rotate(-74.57)"/>
  </g>
  <g id="bouche_mefiant">
    <path class="clsy-3" d="M361.88,288H224.54a5,5,0,1,1,0-10H361.88a5,5,0,1,1,0,10Z"/>
    <path class="clsy-7" d="M263.61,278v14.82a5.93,5.93,0,0,1-5.95,5.92H245.77a5.93,5.93,0,0,1-5.94-5.92V278Z"/>
  </g>
  <g id="yeux_content">
    <path class="clsy-10" d="M254.69,227.89a5,5,0,0,1-5-5,15.81,15.81,0,0,0-31.61,0,5,5,0,0,1-10,0,25.81,25.81,0,0,1,51.61,0A5,5,0,0,1,254.69,227.89Z"/>
    <path class="clsy-10" d="M376,227.89a5,5,0,0,1-5-5,15.8,15.8,0,0,0-31.6,0,5,5,0,0,1-10,0,25.81,25.81,0,0,1,51.62,0A5,5,0,0,1,376,227.89Z"/>
  </g>
  <g id="yeux_dodo">
    <path class="clsy-10" d="M335.35,211.31a5,5,0,0,1,5,5,15.8,15.8,0,0,0,31.6,0,5,5,0,0,1,10,0,25.81,25.81,0,0,1-51.62,0A5,5,0,0,1,335.35,211.31Z"/>
    <path class="clsy-10" d="M214.08,211.31a5,5,0,0,1,5,5,15.8,15.8,0,0,0,31.6,0,5,5,0,0,1,10,0,25.81,25.81,0,0,1-51.61,0A5,5,0,0,1,214.08,211.31Z"/>
  </g>
  <g id="yeux_normaux">
    <ellipse class="clsy-10" cx="234.89" cy="214.42" rx="20.8" ry="20.74"/>
    <ellipse class="clsy-10" cx="356.15" cy="214.42" rx="20.8" ry="20.74"/>
    <ellipse class="clsy-7" cx="240.83" cy="208.5" rx="7.13" ry="7.11"/>
    <ellipse class="clsy-7" cx="362.09" cy="208.5" rx="7.13" ry="7.11"/>
  </g>
  <g id="yeux_colere">
    <ellipse class="clsy-1" cx="234.89" cy="214.42" rx="20.8" ry="20.74"/>
    <ellipse class="clsy-1" cx="356.15" cy="214.42" rx="20.8" ry="20.74"/>
    <g>
      <path class="clsy-10" d="M247.67,211.2c0,.13,0,.26,0,.4a7.13,7.13,0,0,1-14.26,0,7,7,0,0,1,.92-3.49c-1.29-.4-2.58-.84-3.89-1.31a91.74,91.74,0,0,1-11.86-5.26,20.77,20.77,0,1,0,37.09,12.88,19.33,19.33,0,0,0-.19-2.65A53,53,0,0,1,247.67,211.2Z"/>
      <path class="clsy-10" d="M369,208.77a7.14,7.14,0,0,1-14.27,0v-.05a69.11,69.11,0,0,1-19.16,3.05,21.06,21.06,0,0,0-.18,2.65,20.81,20.81,0,1,0,37.09-12.88q-2.49,1.34-5.24,2.57A7.08,7.08,0,0,1,369,208.77Z"/>
      <path class="clsy-7" d="M240.56,218.71a7.12,7.12,0,0,0,7.13-7.11c0-.14,0-.27,0-.4a82.84,82.84,0,0,1-13.32-3.09,7,7,0,0,0-.92,3.49A7.12,7.12,0,0,0,240.56,218.71Z"/>
      <path class="clsy-7" d="M361.82,215.88a7.09,7.09,0,0,0,5.38-11.77q-3.17,1.42-6.62,2.69c-2,.72-3.95,1.35-5.89,1.92v.05A7.12,7.12,0,0,0,361.82,215.88Z"/>
    </g>
  </g>
  <g id="pull">
    <g>
      <path class="clsy-11" d="M569.92,267.1a21,21,0,0,0-1.08-6.63,95.64,95.64,0,0,0-91-64.38l-12,.07L466.76,359l.94,168.07c.17,29.58,24.22,23.47,53.93,23.31h0c29.72-.17,53.83,4.32,53.72-14.57C575.35,535.83,570.39,308.27,569.92,267.1Z"/>
      <path class="clsy-12" d="M20.35,266.86a21.06,21.06,0,0,1,1-6.64,95.64,95.64,0,0,1,90.31-65.39l12-.06.91,162.85.95,168.07c.16,29.58-23.95,23.75-53.67,23.91h0c-29.71.17-53.77,4.93-53.87-14C18,535.63,20.35,308,20.35,266.86Z"/>
      <path class="clsy-13" d="M20.35,266.52a21.13,21.13,0,0,1,1-6.65c12.51-37.78,5.78,289.64,50.46,289.39h0c-29.71.17-53.77,4.92-53.87-14C18,535.29,20.35,307.7,20.35,266.52Z"/>
      <path class="clsy-14" d="M106.2,210.19c-30.17-6.34-58.55,13.49-63.33,45.4h0C58.31,230.34,77.53,215.9,106.2,210.19Z"/>
      <ellipse class="clsy-15" cx="133.23" cy="366.08" rx="7.44" ry="16.98" transform="translate(-2.06 0.76) rotate(-0.32)"/>
      <ellipse class="clsy-15" cx="151.67" cy="392.24" rx="7.41" ry="4.65" transform="translate(-265.7 443.87) rotate(-75.91)"/>
      <ellipse class="clsy-15" cx="132.89" cy="414" rx="10.5" ry="7.44" transform="translate(-299.25 462.12) rotate(-78.56)"/>
      <path class="clsy-16" d="M164.66,548.81a35.65,35.65,0,0,1,17.39.18c-2.29-4.62-4.45-9.43-6.45-14.47C170.2,538.22,165.82,544.11,164.66,548.81Z"/>
      <path class="clsy-17" d="M101.84,326.46l1.73,308.25c.27,48.68,381.84,40,381.64,4.16-.3-53.47,5.17-328.14,5.17-328.14l-196,110.2Z"/>
      <path class="clsy-18" d="M102,354.25c94.18,65,192.87,110.42,192.87,110.42l-193-138.21Z"/>
      <g class="clsy-19">
        <path class="clsy-20" d="M102.15,381.78l11.72,3.71c3.9,1.25,7.78,2.56,11.74,3.62l11.81,3.37c1,.27,2,.57,3,.83l3,.74,6,1.48c15.83,4.13,31.9,7.28,48,10.16,8.08,1.25,16.13,2.64,24.25,3.61l6.08.79,3,.4,3,.31L245.89,412c16.28,1.41,32.59,2.49,48.93,2.68s32.68,0,49-.82,32.6-2.35,48.84-4.3c8.12-1,16.21-2.15,24.29-3.41,4-.59,8.06-1.34,12.1-2s8.05-1.48,12.06-2.26a487,487,0,0,0,47.73-11.56c-7.7,2.83-15.55,5.23-23.45,7.44s-15.86,4.23-23.86,6.08c-16,3.66-32.19,6.59-48.45,8.89s-32.64,3.93-49,5-32.86,1.27-49.3,1l-12.33-.35c-4.11-.17-8.21-.43-12.31-.64-2.06-.12-4.11-.2-6.16-.36l-6.14-.49c-4.1-.37-8.21-.6-12.29-1.08l-12.25-1.39-3.06-.35-3.06-.44-6.1-.87c-8.15-1-16.23-2.6-24.32-4A539.21,539.21,0,0,1,102.15,381.78Z"/>
      </g>
      <g class="clsy-19">
        <path class="clsy-20" d="M102.25,400.65,114,404.36c3.9,1.25,7.78,2.56,11.73,3.62l11.81,3.37c1,.27,2,.57,3,.83l3,.74,5.95,1.48c15.84,4.14,31.9,7.29,48,10.17,8.08,1.24,16.13,2.64,24.25,3.6l6.07.8,3,.39,3.05.32L246,430.91c16.28,1.41,32.59,2.49,48.93,2.69s32.68,0,49-.83,32.61-2.35,48.84-4.29c8.12-1,16.21-2.15,24.29-3.42,4.05-.59,8.07-1.34,12.11-2s8-1.48,12.06-2.26A490.52,490.52,0,0,0,489,409.24c-7.7,2.82-15.55,5.23-23.46,7.43s-15.86,4.23-23.85,6.09q-24,5.48-48.46,8.88c-16.26,2.34-32.63,3.94-49,5s-32.86,1.28-49.3,1.05l-12.32-.35c-4.11-.17-8.21-.43-12.32-.65-2-.12-4.1-.2-6.15-.35l-6.15-.5c-4.09-.36-8.2-.6-12.28-1.08l-12.25-1.39-3.07-.35-3.05-.44-6.1-.87c-8.16-1-16.23-2.59-24.33-4A540.6,540.6,0,0,1,102.25,400.65Z"/>
      </g>
      <path class="clsy-18" d="M102.26,401.1c23.23,124.59,156.15,262.1,238.58,266.07-107.38,5.36-237.11-3.77-237.27-32.46Z"/>
      <path class="clsy-18" d="M282.37,439.67c-44.16.25-79.75,36.08-79.5,80.05C213.61,484.84,245.75,452.49,282.37,439.67Z"/>
      <g class="clsy-19">
        <path class="clsy-20" d="M102.36,419.52l11.72,3.71c3.9,1.26,7.78,2.56,11.74,3.63l11.81,3.36c1,.28,2,.57,3,.83l3,.74,6,1.48c15.83,4.14,31.9,7.29,48,10.17,8.08,1.24,16.13,2.64,24.25,3.6l6.08.8,3,.4,3,.31,12.2,1.24c16.27,1.4,32.58,2.48,48.93,2.68s32.68,0,49-.83,32.61-2.34,48.84-4.29c8.12-1,16.21-2.15,24.29-3.41,4.05-.6,8.07-1.35,12.1-2s8.05-1.48,12.07-2.26a486.8,486.8,0,0,0,47.72-11.56c-7.69,2.82-15.55,5.23-23.45,7.43s-15.86,4.23-23.86,6.09q-24,5.47-48.45,8.89c-16.27,2.33-32.64,3.93-49,5s-32.86,1.28-49.3,1.05l-12.33-.35c-4.1-.17-8.21-.43-12.31-.64-2.05-.12-4.11-.2-6.16-.36l-6.14-.5c-4.1-.36-8.2-.6-12.29-1.08l-12.25-1.38-3.06-.36-3-.43-6.11-.87c-8.15-1-16.23-2.6-24.32-4A540.1,540.1,0,0,1,102.36,419.52Z"/>
      </g>
      <g class="clsy-19">
        <path class="clsy-20" d="M102.47,438.4l11.72,3.7c3.9,1.26,7.78,2.56,11.74,3.63l11.81,3.36c1,.28,2,.58,2.95.83l3,.75,6,1.47c15.83,4.14,31.89,7.29,48,10.17,8.08,1.25,16.13,2.64,24.25,3.61l6.07.79,3,.4,3.05.31,12.19,1.24c16.28,1.41,32.59,2.49,48.93,2.68s32.68,0,49-.82,32.61-2.35,48.85-4.3c8.11-1,16.21-2.15,24.29-3.41,4-.59,8.06-1.35,12.1-2s8.05-1.48,12.06-2.26A487,487,0,0,0,489.17,447c-7.7,2.83-15.55,5.23-23.45,7.44s-15.86,4.23-23.86,6.08q-24,5.47-48.46,8.89c-16.26,2.33-32.63,3.93-49,5s-32.86,1.27-49.3,1l-12.33-.35c-4.11-.17-8.21-.43-12.32-.64-2.05-.12-4.1-.2-6.15-.36l-6.15-.5c-4.09-.36-8.2-.59-12.28-1.07l-12.25-1.39-3.06-.35-3.06-.44-6.1-.87c-8.15-1-16.23-2.6-24.32-4A539.21,539.21,0,0,1,102.47,438.4Z"/>
      </g>
      <g class="clsy-19">
        <path class="clsy-20" d="M102.57,457.27,114.29,461c3.9,1.25,7.78,2.56,11.74,3.62L137.84,468c1,.27,2,.57,3,.83l3,.74,5.95,1.48c15.84,4.14,31.9,7.28,48,10.16,8.07,1.25,16.13,2.64,24.24,3.61l6.08.79,3,.4,3,.32,12.19,1.23c16.27,1.41,32.59,2.49,48.93,2.69s32.68,0,49-.83,32.61-2.35,48.84-4.29c8.12-1,16.21-2.16,24.29-3.42,4.05-.59,8.07-1.34,12.11-2s8-1.48,12.06-2.26a490.52,490.52,0,0,0,47.73-11.55c-7.7,2.82-15.55,5.23-23.46,7.43S450,477.52,442,479.37c-16,3.66-32.18,6.59-48.45,8.89s-32.63,3.93-49,5-32.86,1.28-49.3,1.05L282.85,494c-4.11-.17-8.21-.43-12.32-.64-2-.12-4.1-.2-6.15-.35l-6.15-.5c-4.09-.36-8.2-.6-12.28-1.08L233.69,490l-3.06-.35-3-.44-6.1-.87c-8.16-1-16.23-2.59-24.33-4A540.35,540.35,0,0,1,102.57,457.27Z"/>
      </g>
      <g class="clsy-19">
        <path class="clsy-20" d="M102.68,476.14l11.72,3.71c3.9,1.25,7.78,2.56,11.74,3.62L138,486.84c1,.28,2,.57,3,.83l3,.74,6,1.48c15.83,4.14,31.9,7.29,48,10.17,8.08,1.24,16.13,2.64,24.25,3.6l6.08.8,3,.39,3,.32,12.19,1.24c16.28,1.4,32.59,2.48,48.93,2.68s32.69,0,49-.83S377,505.92,393.2,504c8.12-1,16.21-2.15,24.29-3.41,4.05-.6,8.07-1.35,12.1-2s8.05-1.47,12.06-2.26a486.94,486.94,0,0,0,47.73-11.55c-7.7,2.82-15.55,5.23-23.45,7.43s-15.86,4.23-23.86,6.09q-24,5.47-48.45,8.89c-16.27,2.33-32.64,3.93-49,5s-32.86,1.28-49.3,1L283,512.83c-4.1-.17-8.21-.43-12.31-.64-2.05-.13-4.11-.21-6.16-.36l-6.14-.5c-4.1-.36-8.2-.6-12.29-1.08l-12.25-1.39-3.06-.35-3.05-.43-6.11-.87c-8.15-1-16.23-2.6-24.32-4A540.1,540.1,0,0,1,102.68,476.14Z"/>
      </g>
      <g class="clsy-19">
        <path class="clsy-20" d="M102.78,495l11.73,3.71c3.9,1.26,7.78,2.56,11.73,3.63l11.81,3.36c1,.28,2,.57,3,.83l3,.74,5.95,1.48c15.84,4.14,31.9,7.29,48,10.17,8.08,1.25,16.13,2.64,24.25,3.61l6.07.79,3,.4,3.05.31,12.19,1.24c16.28,1.41,32.59,2.48,48.93,2.68s32.68,0,49-.82,32.61-2.35,48.84-4.3c8.12-1,16.21-2.15,24.3-3.41,4-.59,8.06-1.35,12.1-2s8-1.48,12.06-2.26a487.69,487.69,0,0,0,47.73-11.56c-7.7,2.83-15.55,5.23-23.45,7.43s-15.87,4.23-23.86,6.09q-24,5.48-48.46,8.89c-16.26,2.33-32.63,3.93-49,5s-32.85,1.27-49.29,1l-12.33-.35c-4.11-.17-8.21-.43-12.32-.64-2.05-.12-4.1-.2-6.15-.36l-6.15-.5c-4.09-.36-8.2-.6-12.28-1.07l-12.25-1.39-3.07-.35-3.05-.44-6.1-.87c-8.16-1-16.23-2.6-24.33-4A538.87,538.87,0,0,1,102.78,495Z"/>
      </g>
      <path class="clsy-18" d="M183.73,552.29c-6.51,2.52-13.78,8.87-14.25,15a12.46,12.46,0,0,1,10-3.09,119.49,119.49,0,0,0,84.65,84.67c6.93,1.79,13.28,6.56,14.95,8.65,3.16-.47,4.32-4.68,5.81-7.68,4.08,2.52,11.2,4.73,13.92,7,4.51-4.36,13.48-4.41,26.81-7.82,51.5-13.49,89.35-60.31,89-115.78C365.46,647.26,237.78,655.61,183.73,552.29Z"/>
      <g class="clsy-19">
        <path class="clsy-20" d="M102.89,513.89l11.72,3.71c3.9,1.25,7.78,2.56,11.74,3.62l11.81,3.37c1,.27,2,.57,3,.83l3,.74,6,1.48c15.83,4.14,31.9,7.28,48,10.16,8.08,1.25,16.14,2.64,24.25,3.61l6.08.79,3,.4,3,.31,12.2,1.24c16.27,1.41,32.59,2.49,48.93,2.68s32.68,0,49-.82,32.61-2.35,48.84-4.3c8.12-1,16.21-2.15,24.29-3.41,4.05-.59,8.07-1.34,12.1-2s8.05-1.48,12.07-2.26a486.8,486.8,0,0,0,47.72-11.56c-7.69,2.83-15.55,5.24-23.45,7.44s-15.86,4.23-23.86,6.08c-16,3.66-32.18,6.59-48.45,8.89s-32.64,3.93-49,5-32.86,1.28-49.3,1l-12.33-.35c-4.1-.17-8.21-.43-12.31-.64-2.05-.12-4.11-.2-6.16-.35l-6.14-.5c-4.1-.36-8.2-.6-12.29-1.08L234,546.61l-3.06-.35-3-.44-6.11-.87c-8.15-1-16.23-2.6-24.32-4A540.1,540.1,0,0,1,102.89,513.89Z"/>
      </g>
      <g class="clsy-19">
        <path class="clsy-20" d="M103,532.76l11.72,3.71c3.9,1.25,7.78,2.56,11.74,3.62l11.81,3.37c1,.27,2,.57,2.95.83l3,.74,6,1.48c15.83,4.14,31.89,7.29,48,10.17,8.08,1.24,16.13,2.64,24.25,3.6l6.07.8,3,.39,3.05.32L246.74,563c16.28,1.41,32.59,2.49,48.93,2.69s32.68,0,49-.83,32.6-2.35,48.84-4.29c8.11-1,16.21-2.15,24.29-3.41,4-.6,8.06-1.35,12.1-2s8-1.48,12.06-2.26a486.94,486.94,0,0,0,47.73-11.55c-7.7,2.82-15.55,5.23-23.45,7.43s-15.86,4.23-23.86,6.09q-24,5.48-48.45,8.88c-16.27,2.34-32.64,3.94-49,5s-32.86,1.28-49.3,1l-12.33-.35c-4.11-.17-8.21-.43-12.31-.65-2.06-.12-4.11-.2-6.16-.35l-6.15-.5c-4.09-.36-8.2-.6-12.28-1.08l-12.25-1.39-3.06-.35L228,564.7l-6.1-.88c-8.15-1-16.23-2.59-24.32-4A540.1,540.1,0,0,1,103,532.76Z"/>
      </g>
      <g class="clsy-19">
        <path class="clsy-20" d="M103.1,551.63l11.73,3.71c3.89,1.26,7.78,2.56,11.73,3.63l11.81,3.36c1,.28,2,.57,3,.83l3,.74,5.95,1.48c15.84,4.14,31.9,7.29,48,10.17,8.08,1.25,16.13,2.64,24.24,3.6l6.08.8,3,.4,3,.31,12.19,1.24c16.27,1.41,32.59,2.48,48.93,2.68s32.68,0,49-.82,32.61-2.35,48.84-4.3c8.12-1,16.21-2.15,24.29-3.41,4-.6,8.07-1.35,12.11-2s8-1.48,12.06-2.26a487.69,487.69,0,0,0,47.73-11.56c-7.7,2.83-15.55,5.23-23.46,7.43s-15.86,4.23-23.85,6.09q-24,5.47-48.46,8.89c-16.26,2.33-32.63,3.93-49,5s-32.86,1.28-49.3,1l-12.32-.35c-4.11-.17-8.21-.43-12.32-.64-2.05-.12-4.1-.2-6.15-.36l-6.15-.5c-4.09-.36-8.2-.6-12.28-1.08l-12.26-1.38-3.06-.36-3-.43-6.1-.87c-8.16-1.05-16.23-2.6-24.33-4A540.6,540.6,0,0,1,103.1,551.63Z"/>
      </g>
      <g class="clsy-19">
        <path class="clsy-20" d="M103.21,570.51l11.72,3.71c3.9,1.25,7.78,2.55,11.74,3.62l11.81,3.37c1,.27,2,.57,3,.83l3,.74,6,1.48c15.83,4.13,31.9,7.28,48,10.16,8.08,1.25,16.13,2.64,24.25,3.61l6.08.79,3,.4,3,.31,12.2,1.24c16.27,1.41,32.58,2.49,48.93,2.68s32.68,0,49-.82,32.6-2.35,48.84-4.3c8.12-1,16.21-2.15,24.29-3.41,4.05-.59,8.07-1.34,12.1-2s8.05-1.48,12.06-2.26a486.3,486.3,0,0,0,47.73-11.56c-7.7,2.83-15.55,5.23-23.45,7.44s-15.86,4.23-23.86,6.08c-16,3.66-32.18,6.59-48.45,8.89s-32.64,3.93-49,5-32.86,1.27-49.3,1l-12.33-.35c-4.1-.17-8.21-.43-12.31-.64-2.05-.12-4.11-.2-6.16-.36l-6.14-.49c-4.1-.37-8.2-.6-12.29-1.08l-12.25-1.39-3.06-.35-3.05-.44-6.11-.87c-8.15-1-16.23-2.6-24.32-4A539.21,539.21,0,0,1,103.21,570.51Z"/>
      </g>
      <g class="clsy-19">
        <path class="clsy-20" d="M103.32,589.38,115,593.09c3.9,1.25,7.78,2.56,11.74,3.62l11.81,3.37c1,.27,2,.57,2.95.83l3,.74,6,1.48c15.83,4.14,31.89,7.28,48,10.17,8.08,1.24,16.13,2.63,24.25,3.6l6.07.79,3,.4,3.05.32,12.19,1.23c16.28,1.41,32.59,2.49,48.93,2.69s32.68,0,49-.83,32.61-2.35,48.84-4.29c8.12-1,16.22-2.16,24.3-3.42,4-.59,8.06-1.34,12.1-2s8-1.48,12.06-2.26A489.82,489.82,0,0,0,490,598c-7.7,2.82-15.55,5.23-23.45,7.43s-15.86,4.23-23.86,6.09q-24,5.47-48.46,8.88c-16.26,2.34-32.63,3.94-49,5s-32.85,1.28-49.29,1l-12.33-.35c-4.11-.17-8.21-.44-12.32-.65-2-.12-4.1-.2-6.15-.35l-6.15-.5c-4.09-.36-8.2-.6-12.28-1.08l-12.25-1.39-3.07-.35-3.05-.44-6.1-.87c-8.16-1-16.23-2.59-24.32-4A540.1,540.1,0,0,1,103.32,589.38Z"/>
      </g>
      <g class="clsy-19">
        <path class="clsy-20" d="M103.42,608.25,115.14,612c3.9,1.26,7.78,2.56,11.74,3.62L138.69,619c1,.28,2,.57,3,.83l3,.74,6,1.48c15.83,4.14,31.9,7.29,48,10.17,8.08,1.24,16.14,2.64,24.25,3.6l6.08.8,3,.4,3,.31,12.19,1.24c16.27,1.4,32.59,2.48,48.93,2.68s32.68,0,49-.83,32.61-2.34,48.84-4.29c8.12-1,16.21-2.15,24.29-3.41,4-.6,8.07-1.35,12.11-2s8-1.48,12.06-2.26a487.69,487.69,0,0,0,47.73-11.56c-7.7,2.82-15.55,5.23-23.46,7.43s-15.86,4.23-23.86,6.09q-24,5.48-48.45,8.89c-16.27,2.33-32.64,3.93-49,5s-32.86,1.28-49.3,1l-12.32-.35c-4.11-.17-8.21-.43-12.32-.64-2.05-.12-4.11-.21-6.16-.36l-6.14-.5c-4.1-.36-8.2-.6-12.28-1.08L234.54,641l-3.06-.35-3-.43-6.1-.87c-8.16-1.05-16.24-2.6-24.33-4A540.35,540.35,0,0,1,103.42,608.25Z"/>
      </g>
      <g class="clsy-19">
        <path class="clsy-20" d="M103.53,627.12l11.72,3.71c3.9,1.26,7.78,2.56,11.74,3.63l11.81,3.36c1,.28,2,.58,2.95.83l3,.74,6,1.48c15.83,4.14,31.9,7.29,48,10.17,8.08,1.25,16.13,2.64,24.25,3.61l6.08.79,3,.4,3.05.31,12.19,1.24c16.28,1.41,32.59,2.49,48.93,2.68s32.68,0,49-.82,32.6-2.35,48.84-4.3c8.12-1,16.21-2.15,24.29-3.41,4.05-.59,8.06-1.35,12.1-2s8.05-1.48,12.06-2.26a487,487,0,0,0,47.73-11.56c-7.7,2.83-15.55,5.23-23.45,7.44s-15.86,4.22-23.86,6.08q-24,5.47-48.45,8.89c-16.27,2.33-32.64,3.93-49,5s-32.86,1.27-49.3,1l-12.33-.35c-4.11-.17-8.21-.43-12.31-.64-2.06-.12-4.11-.2-6.16-.36l-6.14-.5c-4.1-.36-8.21-.6-12.29-1.07l-12.25-1.39-3.06-.35-3.06-.44-6.1-.87c-8.15-1-16.23-2.6-24.32-4A538.38,538.38,0,0,1,103.53,627.12Z"/>
      </g>
      <path class="clsy-21" d="M114.36,273.63c35.66,49.84,141.45,119.52,179.91,136,29.88-18.16,152.83-91.33,187.57-143.7,16.42,25.55,26.51,42.78,17.68,56.51S305.7,464.61,294.86,464.67,117,357.46,96.78,327.79,114.36,273.63,114.36,273.63Z"/>
      <path class="clsy-22" d="M110.21,292.76a61.43,61.43,0,0,0-1.14,12c0,4,.15,8,.47,12s.82,8,1.49,11.94a78.69,78.69,0,0,0,2.88,11.78,35.16,35.16,0,0,1-5.21-11.24,63.35,63.35,0,0,1-2-24.65A31.74,31.74,0,0,1,110.21,292.76Z"/>
      <path class="clsy-22" d="M124.52,302.93a61.43,61.43,0,0,0-1.14,12c0,4,.15,8,.47,12s.82,8,1.49,11.94a79.93,79.93,0,0,0,2.88,11.78A35.16,35.16,0,0,1,123,339.46a63.35,63.35,0,0,1-2-24.65A31.68,31.68,0,0,1,124.52,302.93Z"/>
      <path class="clsy-22" d="M137.26,311.93a62.37,62.37,0,0,0-1.15,12c0,4,.16,8,.48,12s.81,8,1.49,11.94A80.2,80.2,0,0,0,141,359.71a35.18,35.18,0,0,1-5.2-11.25,63.56,63.56,0,0,1-2-24.65A32,32,0,0,1,137.26,311.93Z"/>
      <path class="clsy-22" d="M151.57,322.1a61.58,61.58,0,0,0-1.14,12c-.05,4,.15,8,.47,12s.81,8,1.49,11.93a79.59,79.59,0,0,0,2.87,11.78,35.25,35.25,0,0,1-5.2-11.24A63.56,63.56,0,0,1,148,334,32,32,0,0,1,151.57,322.1Z"/>
      <path class="clsy-22" d="M165.74,332.13a63.16,63.16,0,0,0-1.14,12c0,4,.16,8,.48,12s.81,8,1.49,11.93a78.36,78.36,0,0,0,2.87,11.78,35,35,0,0,1-5.2-11.24,63.56,63.56,0,0,1-2-24.65A32,32,0,0,1,165.74,332.13Z"/>
      <path class="clsy-22" d="M180.06,342.3a62.37,62.37,0,0,0-1.15,12c0,4,.16,8,.48,12s.81,8,1.49,11.93a78.36,78.36,0,0,0,2.87,11.78,35,35,0,0,1-5.2-11.24,63.56,63.56,0,0,1-2-24.65A31.8,31.8,0,0,1,180.06,342.3Z"/>
      <path class="clsy-22" d="M192.79,351.31a63.08,63.08,0,0,0-1.14,12c0,4,.16,8,.47,12s.82,8,1.5,11.94a78.36,78.36,0,0,0,2.87,11.78,35.06,35.06,0,0,1-5.21-11.24,63.82,63.82,0,0,1-2-24.65A31.74,31.74,0,0,1,192.79,351.31Z"/>
      <path class="clsy-22" d="M207.1,361.48a63.08,63.08,0,0,0-1.14,12c0,4,.16,8,.47,12s.82,8,1.5,11.94a78.36,78.36,0,0,0,2.87,11.78A35.16,35.16,0,0,1,205.59,398a63.82,63.82,0,0,1-2-24.65A31.74,31.74,0,0,1,207.1,361.48Z"/>
      <path class="clsy-22" d="M222.67,370.86a61.43,61.43,0,0,0-1.14,12c0,4,.15,8,.47,12s.82,8,1.49,11.94a79.89,79.89,0,0,0,2.87,11.78,35.35,35.35,0,0,1-5.2-11.24,63.35,63.35,0,0,1-2-24.65A31.68,31.68,0,0,1,222.67,370.86Z"/>
      <path class="clsy-22" d="M237,381a61.61,61.61,0,0,0-1.14,12.05c0,4,.15,8,.47,12s.82,8,1.49,11.94a79,79,0,0,0,2.88,11.78,35.25,35.25,0,0,1-5.21-11.24,62.94,62.94,0,0,1-2.22-12.23,62.23,62.23,0,0,1,.21-12.43A31.79,31.79,0,0,1,237,381Z"/>
      <path class="clsy-22" d="M251.61,390a61.58,61.58,0,0,0-1.14,12c0,4,.16,8,.47,12s.82,8,1.5,11.93a78.36,78.36,0,0,0,2.87,11.78,35.06,35.06,0,0,1-5.21-11.24,63.82,63.82,0,0,1-2-24.65A31.79,31.79,0,0,1,251.61,390Z"/>
      <path class="clsy-22" d="M265.92,400.19a63.08,63.08,0,0,0-1.14,12c0,4,.16,8,.47,12s.82,8,1.5,11.94A78.36,78.36,0,0,0,269.62,448a35.06,35.06,0,0,1-5.21-11.24,63.82,63.82,0,0,1-2-24.65A31.74,31.74,0,0,1,265.92,400.19Z"/>
      <path class="clsy-22" d="M281.88,408.58a61.43,61.43,0,0,0-1.14,12c-.05,4,.15,8,.47,12s.81,8,1.49,11.94a79.89,79.89,0,0,0,2.87,11.78,35.35,35.35,0,0,1-5.2-11.24,63.61,63.61,0,0,1-2-24.65A31.88,31.88,0,0,1,281.88,408.58Z"/>
      <path class="clsy-22" d="M478,289.92a31.81,31.81,0,0,1,3.66,11.84,63.64,63.64,0,0,1-1.74,24.67,35.15,35.15,0,0,1-5.08,11.3,80,80,0,0,0,2.74-11.81c.63-4,1.07-8,1.36-12s.42-8,.34-12A62.23,62.23,0,0,0,478,289.92Z"/>
      <path class="clsy-22" d="M463.75,300.25a31.64,31.64,0,0,1,3.66,11.83,61.52,61.52,0,0,1,.34,12.43,62.14,62.14,0,0,1-2.08,12.25,35.19,35.19,0,0,1-5.07,11.29,78.19,78.19,0,0,0,2.73-11.81c.64-4,1.08-7.95,1.36-11.95s.43-8,.34-12A61.46,61.46,0,0,0,463.75,300.25Z"/>
      <path class="clsy-22" d="M451.12,309.4a31.82,31.82,0,0,1,3.66,11.83A63.67,63.67,0,0,1,453,345.91,35,35,0,0,1,448,357.2a79.45,79.45,0,0,0,2.74-11.81c.63-4,1.07-7.95,1.36-11.95s.42-8,.34-12A62.23,62.23,0,0,0,451.12,309.4Z"/>
      <path class="clsy-22" d="M436.92,319.72a31.68,31.68,0,0,1,3.66,11.84,63.6,63.6,0,0,1-1.74,24.67,35.15,35.15,0,0,1-5.07,11.3,78.47,78.47,0,0,0,2.73-11.81c.64-4,1.08-8,1.36-12s.43-8,.34-12A61.64,61.64,0,0,0,436.92,319.72Z"/>
      <path class="clsy-22" d="M422.86,329.91a31.81,31.81,0,0,1,3.66,11.84,63.64,63.64,0,0,1-1.74,24.67,35,35,0,0,1-5.08,11.3,80,80,0,0,0,2.74-11.81c.63-4,1.07-8,1.36-12s.42-8,.34-12A62.33,62.33,0,0,0,422.86,329.91Z"/>
      <path class="clsy-22" d="M408.66,340.24a31.63,31.63,0,0,1,3.66,11.84,63.89,63.89,0,0,1-1.73,24.67,35.58,35.58,0,0,1-5.08,11.3,80,80,0,0,0,2.74-11.81c.63-4,1.07-8,1.35-12s.43-8,.34-12A61.47,61.47,0,0,0,408.66,340.24Z"/>
      <path class="clsy-22" d="M396,349.39a31.81,31.81,0,0,1,3.66,11.84A63.64,63.64,0,0,1,398,385.9a35.15,35.15,0,0,1-5.08,11.3,78.79,78.79,0,0,0,2.74-11.81c.63-4,1.07-8,1.36-12s.42-8,.34-12A62.25,62.25,0,0,0,396,349.39Z"/>
      <path class="clsy-22" d="M381.84,359.72a31.8,31.8,0,0,1,3.65,11.84,61.42,61.42,0,0,1,.34,12.42,62.13,62.13,0,0,1-2.07,12.25,35.58,35.58,0,0,1-5.08,11.3,79.87,79.87,0,0,0,2.74-11.82c.63-4,1.07-7.95,1.35-11.95s.43-8,.34-12A62.21,62.21,0,0,0,381.84,359.72Z"/>
      <path class="clsy-22" d="M366.38,369.27A31.8,31.8,0,0,1,370,381.1a63.92,63.92,0,0,1-1.73,24.68,35.58,35.58,0,0,1-5.08,11.3A79.87,79.87,0,0,0,366,405.26c.63-4,1.07-7.95,1.35-11.95s.43-8,.34-12A62.21,62.21,0,0,0,366.38,369.27Z"/>
      <path class="clsy-22" d="M352.18,379.59a31.87,31.87,0,0,1,3.66,11.84,63.6,63.6,0,0,1-1.74,24.67A35,35,0,0,1,349,427.4a79.75,79.75,0,0,0,2.74-11.81c.63-4,1.07-7.95,1.36-11.95s.42-8,.34-12A62.42,62.42,0,0,0,352.18,379.59Z"/>
      <path class="clsy-22" d="M337.65,388.75a31.87,31.87,0,0,1,3.66,11.84,63.6,63.6,0,0,1-1.74,24.67,35,35,0,0,1-5.08,11.3,79.75,79.75,0,0,0,2.74-11.81c.63-4,1.07-7.95,1.36-11.95s.42-8,.34-12A62.42,62.42,0,0,0,337.65,388.75Z"/>
      <path class="clsy-22" d="M323.46,399.08a31.85,31.85,0,0,1,3.65,11.84,63.85,63.85,0,0,1-1.73,24.67,35.48,35.48,0,0,1-5.08,11.3A79.75,79.75,0,0,0,323,435.08c.63-4,1.07-7.95,1.35-11.95s.43-8,.34-12A62.32,62.32,0,0,0,323.46,399.08Z"/>
      <path class="clsy-22" d="M307.6,407.64a31.85,31.85,0,0,1,3.65,11.84,61.52,61.52,0,0,1,.34,12.43,62.25,62.25,0,0,1-2.07,12.25,35.43,35.43,0,0,1-5.08,11.29,79.45,79.45,0,0,0,2.74-11.81c.63-4,1.07-7.95,1.35-11.95s.43-8,.34-12A62.4,62.4,0,0,0,307.6,407.64Z"/>
    </g>
  </g>
  <g id="lunette">
    <path class="clsy-10" d="M404.62,194c-3.16-2.17-5.65-6.49-9.15-9.82-14.5-13.81-23.8-14-42.61-14.15s-29.79,8.16-35.45,12.29-12,12.51-14.43,12.51-5.63-.55-7.9-.55-9,1.35-11.46-.72c-1.47-1-8.59-10.47-19.47-17.17s-22.86-8.57-43.08-6.7-30.13,17.58-33.61,21.94c-2.63,3.28-4.42,3.73-6.6,3.87a2.56,2.56,0,0,0-2.41,2.43c-.19,4.18-.5,12.61.11,13,.81.51,3.7,2.7,6.4,8.63s6.62,16.11,17.26,27,33.1,17.89,53.4,8.46,24.68-25.39,28-36.37S289.12,206,295.78,206s8.32,5.16,10.65,14.65,10.65,26.29,25.3,33.28c15.14,7.23,32.62,8.49,49.09-2s23-29.13,24.64-33.79,5.65-5.16,5.65-6.66v-14C411.11,196.18,407.79,196.18,404.62,194ZM233.71,254.16c-40.21-6.15-39.39-30-39.39-49.58,0-11.44,6.89-18.46,16.53-23.42s32.78-9.64,48.75,0,16.53,19.83,17.36,35S257.13,257.74,233.71,254.16Zm122.84,0c-23.41,3.58-44.07-22.87-43.24-38s1.37-25.34,17.35-35,39.12-5,48.76,0,16.53,12,16.53,23.42C396,224.19,396.76,248,356.55,254.16Z"/>
  </g>
</svg>
