<svg xmlns="http://www.w3.org/2000/svg" width="145" height="175" viewBox="0 0 145 175">
  <defs>
    <style>
      .clstriman-1 {
        fill: #435e68;
      }

      .clstriman-2 {
        fill: #254954;
      }

      .clstriman-3 {
        fill: #75848b;
      }

      .clstriman-4 {
        fill: #fff;
      }
    </style>
  </defs>
  <title>compost_triman</title>
  <g id="triman">
    <rect class="clstriman-1" x="16.85" width="111.3" height="12.13" rx="5.98"/>
    <path class="clstriman-1" d="M140,58.17,134.23,162.7A12.31,12.31,0,0,1,121.91,175H23.09a12.31,12.31,0,0,1-12.32-12.3L5,58.17Z"/>
    <rect class="clstriman-2" x="5.03" y="25.37" width="134.93" height="32.8"/>
    <rect class="clstriman-1" x="68.96" y="31.83" width="7.08" height="12.13"/>
    <rect class="clstriman-1" x="43.66" y="31.83" width="7.08" height="12.13"/>
    <rect class="clstriman-1" x="18.37" y="31.83" width="7.08" height="12.13"/>
    <rect class="clstriman-1" x="94.25" y="31.83" width="7.08" height="12.13"/>
    <rect class="clstriman-1" x="119.55" y="31.83" width="7.08" height="12.13"/>
    <path class="clstriman-3" d="M140.89,32.47H4.11a4.1,4.1,0,0,1-4-5L3.67,11.36a6.57,6.57,0,0,1,6.42-5.14H134.91a6.57,6.57,0,0,1,6.42,5.14l3.57,16.12A4.1,4.1,0,0,1,140.89,32.47Z"/>
    <path class="clstriman-1" d="M144.9,27.48a4.1,4.1,0,0,1-4,5H4.11a4.1,4.1,0,0,1-4-5L3.67,11.36a6.57,6.57,0,0,1,6.42-5.14C19.94,36.6,85.94,17.28,144.9,27.48Z"/>
    <g>
      <path class="clstriman-2" d="M76.11,80.79c2.58.53,5.22.91,7.75,1.64a34,34,0,0,1,15.6,9.45c.42.45.81.94,1.26,1.46l-2.83,3c-1-.74-1.89-1.36-2.71-2.1a32.79,32.79,0,0,0-54.27,17.5C38.82,121.35,41,130.14,47,138c.2.27.46.5.85.93.64-3.09,1.23-6,1.83-8.85,1.16-5.58,2.28-11.17,3.51-16.73a17.69,17.69,0,0,1,1.55-4.28,7.42,7.42,0,0,1,9.78-3.77,27.44,27.44,0,0,1,4.57,2.28c3.86,2.29,7.66,4.68,11.52,7a3.77,3.77,0,0,1,1.82,3.5,28.05,28.05,0,0,1-3.7-.78c-2.49-.9-4.91-2-7.38-3-4.72-1.85-7.21,0-6.66,5,1.07,9.77,2.21,19.53,3.35,29.29.23,2,.34,2.05,2.32,2.05,1.31,0,2.62-.07,3.91,0,1.07.07,1.58-.3,1.72-1.35a13.7,13.7,0,0,1,.51-1.86c2.08,1.59,4.08,3.09,6,4.65a1,1,0,0,1,.06,1,29.64,29.64,0,0,1-2.45,3c-1,1-2,1.91-3,2.86-.08-.06-.17-.1-.2-.16-.4-1-.53-2.35-1.26-2.83s-2.08-.13-3.16-.16A37.57,37.57,0,0,1,36,125.58c-.25-1.27-.44-2.56-.66-3.83V115a5.31,5.31,0,0,0,.22-.75c2.32-16.2,11.35-26.81,26.83-31.95a61.92,61.92,0,0,1,7.21-1.52Zm-12.64,68c-.09-.42-.14-.68-.21-.93-1.56-5.57-3.12-11.13-4.72-16.68a4.12,4.12,0,0,0-.84-1.16c-.41.32-1,.57-1.18,1-1.45,3.8-2.82,7.64-4.19,11.47a1.06,1.06,0,0,0,.12.93C55.53,146.28,58.92,148.53,63.47,148.82Z"/>
      <path class="clstriman-2" d="M116.31,125.52l-4.23,10.75c-.15.4-.32.8-.47,1.18-.13,0-.2,0-.21,0-1.37-2.08-3-1.72-5.11-1-9.2,3.07-18.64-1.08-22.25-9.57-.2-.47-.34-1-.47-1.34,2.52,1,4.93,2.24,7.49,3,4.56,1.35,8.56-.39,12.3-2.85a1.16,1.16,0,0,0,.28-1,24.86,24.86,0,0,0-.6-2.42c2.47.54,4.77,1,7.08,1.53,2.06.43,4.13.82,6.19,1.22Z"/>
      <path class="clstriman-2" d="M81.47,124.64c.17,9.17,3.75,14.87,10.77,17.42L94.09,139l4.63,12.69c-4.1,2-8.56,2.06-12.8,3.19,0-.23-.12-.38-.07-.48.88-1.94-.08-3.11-1.47-4.42-3.66-3.43-6.56-7.42-7.32-12.55C76.33,132.51,78.08,128.45,81.47,124.64Z"/>
      <path class="clstriman-2" d="M85.86,123.15c1.16-.59,2-1,2.9-1.48,5.63-3.21,7.8-8.29,7.83-14.51a1.5,1.5,0,0,0-.77-1,16.15,16.15,0,0,0-2.21-.79l9.87-9,7.37,10c-2.83,0-3.12,2.07-3.76,3.93A23.16,23.16,0,0,1,101,120C96.7,123.92,91.8,125.2,85.86,123.15Z"/>
      <path class="clstriman-2" d="M70.78,97.42a5.41,5.41,0,0,1-5.64,5.69,5.66,5.66,0,1,1,.08-11.31A5.39,5.39,0,0,1,70.78,97.42Z"/>
    </g>
    <g>
      <path class="clstriman-4" d="M72.77,77.45c2.59.54,5.22.92,7.75,1.65a33.9,33.9,0,0,1,15.6,9.45c.42.45.81.93,1.26,1.45l-2.83,3c-1-.74-1.88-1.37-2.71-2.1a32.78,32.78,0,0,0-54.26,17.49c-2.1,9.64.1,18.42,6.07,26.27.2.27.46.51.86.94.63-3.09,1.22-6,1.82-8.86,1.16-5.58,2.28-11.16,3.51-16.72a17.54,17.54,0,0,1,1.55-4.28A7.43,7.43,0,0,1,61.17,102a28.28,28.28,0,0,1,4.57,2.29c3.86,2.29,7.67,4.68,11.52,7a3.77,3.77,0,0,1,1.82,3.49,25.16,25.16,0,0,1-3.7-.78c-2.49-.9-4.91-2-7.38-2.94-4.72-1.85-7.21,0-6.66,5,1.07,9.77,2.22,19.53,3.35,29.29.23,2,.34,2,2.33,2,1.3,0,2.61-.07,3.91,0,1.06.08,1.57-.3,1.71-1.35a13.22,13.22,0,0,1,.51-1.85c2.08,1.58,4.08,3.08,6,4.64a1,1,0,0,1,.06,1,32.07,32.07,0,0,1-2.44,3c-1,1-2,1.91-3,2.86-.08-.06-.17-.09-.2-.15-.4-1-.53-2.35-1.26-2.83s-2.08-.14-3.15-.16A37.55,37.55,0,0,1,32.7,122.24c-.26-1.27-.45-2.55-.67-3.83v-6.73a5.5,5.5,0,0,0,.23-.76C34.57,94.72,43.6,84.12,59.08,79a64.56,64.56,0,0,1,7.21-1.53Zm-12.64,68c-.09-.42-.13-.69-.21-.94-1.56-5.56-3.12-11.12-4.72-16.68-.12-.43-.55-.77-.84-1.16-.4.33-1,.58-1.17,1-1.45,3.81-2.83,7.64-4.2,11.48a1.06,1.06,0,0,0,.12.93C52.19,143,55.58,145.19,60.13,145.49Z"/>
      <path class="clstriman-4" d="M113,122.19q-2.11,5.37-4.22,10.75c-.16.4-.33.8-.48,1.18-.13,0-.2,0-.21,0-1.36-2.09-3-1.73-5.11-1-9.19,3.07-18.64-1.09-22.25-9.57-.2-.47-.34-1-.47-1.34,2.52,1,4.94,2.24,7.49,3,4.56,1.36,8.56-.38,12.31-2.84a1.23,1.23,0,0,0,.28-1c-.12-.74-.36-1.46-.6-2.41,2.47.53,4.76,1,7.07,1.53,2.06.43,4.13.81,6.19,1.22Z"/>
      <path class="clstriman-4" d="M78.13,121.31c.18,9.17,3.75,14.86,10.78,17.42l1.84-3.11c1.58,4.33,3.09,8.45,4.63,12.68-4.09,2-8.56,2.07-12.8,3.2,0-.24-.12-.39-.07-.49.88-1.93-.08-3.1-1.47-4.41-3.66-3.44-6.55-7.43-7.32-12.56C73,129.18,74.74,125.11,78.13,121.31Z"/>
      <path class="clstriman-4" d="M82.52,119.81c1.17-.59,2.06-1,2.9-1.47,5.63-3.21,7.8-8.3,7.83-14.51a1.48,1.48,0,0,0-.77-1,15.68,15.68,0,0,0-2.21-.79l9.87-9,7.37,9.94c-2.83,0-3.12,2.07-3.76,3.93a23.09,23.09,0,0,1-6.1,9.71C93.36,120.59,88.46,121.87,82.52,119.81Z"/>
      <path class="clstriman-4" d="M67.44,94.09a5.42,5.42,0,0,1-5.64,5.69,5.66,5.66,0,1,1,.08-11.31A5.39,5.39,0,0,1,67.44,94.09Z"/>
    </g>
  </g>
</svg>
