<svg version="1.1" id="Calque_1" xmlns="http://www.w3.org/2000/svg" xmlns:xlink="http://www.w3.org/1999/xlink" x="0px" y="0px"
	 width="182.667px" height="174px" viewBox="0 0 182.667 174" enable-background="new 0 0 182.667 174" xml:space="preserve">
<path fill="#513200" d="M176.401,154.059c0,0,1.184-0.857,1.849-0.607s0.917,1.715,0.917,2.798s-0.383,2.531-0.883,3.114
	c-0.383,0.447-0.95,0.469-0.95,0.469s-0.417-3.333-0.5-3.917C176.75,155.333,176.401,154.059,176.401,154.059z"/>
<path fill="#513200" d="M11.074,131.644c0,0-1.08-0.451-2.323-0.473c-0.58-0.011-1.82,0.474-2.377,0.739
	c-1.75,0.833-0.309,1.633,0,1.923C6.684,134.124,11.074,131.644,11.074,131.644z"/>
<path fill="#513200" d="M99.891,6.481c0,0,9.859,2.269,11.555,0.828c1.259-1.069-4.129-3.172-6.363-3.172S97.273,5.981,99.891,6.481
	z"/>
<path fill="#FCE354" d="M99.207,6.417c0,0,1.816,7.158,2.46,13.25c0.403,3.81,0.237,9.414-0.333,11.75
	c-1.75,7.167-6.267,6.168-9.746,16.001c-4.527,12.796-2.451,61.494-5.588,71.916c-5.167,17.167-14.712,21.683-29.734,24.83
	c-35,7.333-41.956-13.497-45.599-12.497c0,0-6.287,1.333-3.643,2.667C9.667,135.667,19.667,153,36.333,157s29.333,1,37.667-2
	s22.423-15.417,23.5-23.417s6,34.75,39.5,39.083c27.621,3.573,36.144-6.682,40.333-10.833c0.886-0.878-0.182-6.275-0.932-5.775
	c-2.287,1.525-15.182,9.77-23.516,6.103c-8.333-3.667-14.244-20.773-15.309-23.322c-0.731-1.751-4.264-10.444-4.91-25.84
	c-0.685-16.333-0.333-44-4-56c-3.667-12-8-17-12.333-21.667C112,28.667,111.56,14.667,111.447,12c-0.113-2.667,0-4.691,0-4.691
	S105.421,7.489,99.207,6.417z"/>
<path opacity="0.1" fill="#513200" d="M118,52.667c1.333,9-1.094,58.017,2.978,71.215C125.333,138,134.427,147.957,142.333,155
	c6.801,6.058,13.75,6,13.75,6s-4.146,0-8.492-5.05c-1.371-1.594-4.625-6.602-6.171-10.178c-5.13-11.861-7.601-16.063-8.655-32.809
	c-1.455-23.128,0.068-38.131-2.984-53.226c-2.03-10.04-6.797-18.407-9.025-21.222c-1.526-1.928-3.099-3.946-4.422-5.183
	c-3.254-3.041-5.834-13.209-5.834-13.209S116.667,43.667,118,52.667z"/>
<path fill="#513200" d="M157.13,108.558c0,0,0.157-0.208,0.462-0.481c0.485-0.434,0.96-0.002,1.46,0.081
	c0.5,0.083,2.302,0.217,2.635,0.634c0,0,0.448,0.533,0.365,0.949c-0.083,0.417-0.094,0.95-0.094,0.95s-2.114-0.48-2.443-1.075
	l-2.83-0.72L157.13,108.558z"/>
<path fill="#FCE354" d="M157.13,108.558c0,0-18.705,14.336-23.828,14.141l3.695,13.714c3.721,1.087,10.127,4.456,17.588-2.834
	c8.872-8.67,7.976-19.871,7.328-23.134c-0.039-0.197-0.405-0.425-0.918-0.653c-0.881-0.391-2.197-0.782-3.042-1.016
	C157.462,108.641,157.13,108.558,157.13,108.558z"/>
<path opacity="0.1" fill="#513200" d="M157.13,108.558c0,0-18.705,14.336-23.828,14.141l3.695,13.714
	c3.721,1.087,10.127,4.456,17.588-2.834c8.872-8.67,7.976-19.871,7.328-23.134c-0.039-0.197-0.405-0.425-0.918-0.653
	c-0.881-0.391-2.197-0.782-3.042-1.016C157.462,108.641,157.13,108.558,157.13,108.558z"/>
<path opacity="0.1" fill="#513200" d="M97.5,131.583c0,0,0.75-20,0-27.25s3.658,33.807,3.658,33.807s-1.94-5.428-2.77-6.915
	C97.559,129.739,97.5,131.583,97.5,131.583z"/>
</svg>
