<svg version="1.1" id="Calque_1" xmlns="http://www.w3.org/2000/svg" xmlns:xlink="http://www.w3.org/1999/xlink" x="0px" y="0px"
	 width="128.667px" height="186.667px" viewBox="0 0 128.667 186.667" enable-background="new 0 0 128.667 186.667"
	 xml:space="preserve">
<path fill="#0C4D93" d="M106.333,182.879l-101.5-14.545c0,0,2.74-78.75,2.75-80c0.001-0.104-0.017-0.757-0.052-1.87
	C7.154,74.188,4.833,6.083,4.833,6.083l101.5,6.75V182.879z"/>
<polygon fill="#044387" points="123.333,172.529 106.333,182.879 106.333,12.833 123.333,8.833 "/>
<polygon fill="#77A005" points="106.333,12.833 4.833,6.083 23.333,2.583 123.333,8.833 "/>
<polygon fill="#FFFFFF" points="106.333,80.833 7.351,80.833 6.285,48.917 106.333,48.917 "/>
<g>
	<polygon fill="#7AAF08" points="106.333,12.833 4.833,6.083 5.448,24.17 106.306,26.986 	"/>
</g>
<g>
	<path fill="#FFFFFF" d="M87.917,41.986c-6.111,0-11.083-5.837-11.083-13.011s4.972-13.011,11.083-13.011
		C94.028,15.964,99,21.801,99,28.975S94.028,41.986,87.917,41.986z M87.917,16.928c-5.58,0-10.12,5.404-10.12,12.047
		s4.539,12.047,10.12,12.047c5.58,0,10.12-5.404,10.12-12.047S93.497,16.928,87.917,16.928z"/>
</g>
<polygon fill="#044387" points="11.958,89.333 28.083,93.333 11.958,92.708 7.355,94.334 7.532,86.464 "/>
<polygon fill="#7AAF08" points="106.333,12.833 106.271,27.486 123.333,23.17 123.333,8.833 "/>
<polygon fill="#05437A" points="106.583,182.727 106.333,182.879 106.083,27.207 106.583,27.207 "/>
<polygon fill="#FFFFFF" points="106.56,27.486 5.772,25.185 5.737,24.17 106.583,26.486 "/>
<polygon fill="#FFFFFF" points="106.271,27.486 106.294,26.486 123.333,22.833 123.333,23.17 "/>
<g>
	<path fill="#3B6800" d="M87.917,16.928c-5.58,0-10.12,5.404-10.12,12.047s4.539,12.047,10.12,12.047
		c5.58,0,10.12-5.404,10.12-12.047S93.497,16.928,87.917,16.928z"/>
</g>
<g>
	<path fill="#E22D2D" stroke="#E22D2D" stroke-miterlimit="10" d="M26.688,59.803c0.039,0.368-0.022,0.731-0.185,1.083
		c-0.174,0.371-0.428,0.556-0.76,0.556c-0.227,0-0.461-0.079-0.705-0.239c-0.695-0.405-1.423-0.607-2.182-0.607
		c-0.933,0-1.717,0.259-2.355,0.779c-0.637,0.521-1.093,1.251-1.366,2.195c-0.273,0.945-0.345,2.023-0.215,3.24
		c0.221,2.08,0.812,3.659,1.772,4.734c0.96,1.076,2.126,1.613,3.498,1.613c0.813,0,1.498-0.202,2.054-0.608
		c0.224-0.14,0.43-0.213,0.617-0.213c0.346,0,0.659,0.195,0.941,0.582c0.236,0.337,0.374,0.697,0.416,1.085
		c0.03,0.284,0.003,0.539-0.079,0.767c-0.082,0.23-0.216,0.405-0.403,0.528c-0.966,0.689-2.035,1.032-3.208,1.032
		c-1.305,0-2.543-0.367-3.714-1.098c-1.17-0.731-2.157-1.812-2.962-3.239c-0.804-1.428-1.314-3.157-1.53-5.183
		c-0.19-1.799-0.052-3.412,0.416-4.84c0.468-1.428,1.205-2.543,2.213-3.345c1.007-0.802,2.197-1.202,3.569-1.202
		c1.186,0,2.321,0.342,3.407,1.031C26.368,58.736,26.622,59.186,26.688,59.803z"/>
	<path fill="#E22D2D" stroke="#E22D2D" stroke-miterlimit="10" d="M38.869,69.692c-0.211,0.266-0.477,0.398-0.797,0.398h-6.595
		c0.27,1.039,0.723,1.854,1.358,2.445c0.636,0.592,1.314,0.886,2.033,0.886c0.546,0,0.965-0.066,1.258-0.198
		c0.292-0.131,0.52-0.272,0.685-0.422c0.163-0.151,0.276-0.252,0.337-0.305c0.223-0.16,0.441-0.239,0.654-0.239
		c0.28,0,0.533,0.132,0.761,0.396c0.228,0.265,0.361,0.574,0.399,0.928c0.05,0.476-0.091,0.908-0.422,1.296
		c-0.33,0.405-0.794,0.748-1.39,1.032c-0.596,0.281-1.213,0.422-1.852,0.422c-1.12,0-2.129-0.309-3.026-0.925
		c-0.899-0.618-1.631-1.468-2.199-2.552c-0.568-1.083-0.925-2.304-1.069-3.662c-0.161-1.517-0.063-2.847,0.296-3.993
		c0.358-1.147,0.897-2.023,1.619-2.632c0.72-0.608,1.528-0.912,2.421-0.912c0.88,0,1.742,0.317,2.589,0.952
		c0.846,0.635,1.56,1.49,2.141,2.566c0.581,1.074,0.937,2.237,1.07,3.491C39.17,69.084,39.081,69.428,38.869,69.692z M31.216,67.445
		h5.236l-0.02-0.185c-0.132-0.741-0.472-1.375-1.021-1.906c-0.55-0.528-1.137-0.793-1.763-0.793
		C32.102,64.562,31.292,65.524,31.216,67.445z M32.837,60.781c-0.17-0.16-0.263-0.371-0.277-0.635
		c-0.017-0.16,0.005-0.326,0.067-0.504l0.872-2.698c0.1-0.315,0.232-0.571,0.398-0.765c0.165-0.194,0.362-0.292,0.589-0.292
		c0.359,0,0.642,0.123,0.848,0.37c0.207,0.247,0.324,0.565,0.351,0.953c0.016,0.405-0.07,0.783-0.259,1.135l-1.282,2.221
		c-0.182,0.3-0.465,0.45-0.851,0.45C33.159,61.018,33.007,60.939,32.837,60.781z"/>
	<path fill="#E22D2D" stroke="#E22D2D" stroke-miterlimit="10" d="M47.006,62.103c0.305,0.3,0.479,0.652,0.522,1.059
		c0.058,0.546-0.005,0.954-0.189,1.23c-0.185,0.272-0.423,0.409-0.716,0.409c-0.199,0-0.433-0.061-0.698-0.185
		c-0.042-0.017-0.136-0.054-0.281-0.107c-0.146-0.052-0.298-0.079-0.459-0.079c-0.346,0-0.664,0.14-0.954,0.424
		c-0.29,0.281-0.508,0.709-0.653,1.283c-0.146,0.571-0.176,1.256-0.092,2.048l0.666,6.268c0.048,0.458-0.024,0.841-0.218,1.151
		c-0.194,0.309-0.464,0.462-0.811,0.462c-0.346,0-0.649-0.153-0.908-0.462c-0.26-0.31-0.414-0.693-0.462-1.151l-1.16-10.922
		c-0.049-0.458,0.024-0.841,0.218-1.151c0.194-0.307,0.463-0.462,0.81-0.462s0.65,0.155,0.909,0.462
		c0.259,0.31,0.413,0.693,0.462,1.151l0.037,0.345c0.229-0.725,0.61-1.275,1.143-1.654c0.532-0.38,1.125-0.569,1.778-0.569
		C46.349,61.653,46.701,61.805,47.006,62.103z"/>
	<path fill="#E22D2D" stroke="#E22D2D" stroke-miterlimit="10" d="M58.694,69.692c-0.211,0.266-0.477,0.398-0.797,0.398h-6.595
		c0.27,1.039,0.723,1.854,1.358,2.445c0.636,0.592,1.314,0.886,2.033,0.886c0.546,0,0.965-0.066,1.258-0.198
		c0.292-0.131,0.52-0.272,0.685-0.422c0.163-0.151,0.276-0.252,0.337-0.305c0.223-0.16,0.441-0.239,0.654-0.239
		c0.28,0,0.533,0.132,0.761,0.396c0.228,0.265,0.361,0.574,0.399,0.928c0.05,0.476-0.091,0.908-0.422,1.296
		c-0.33,0.405-0.794,0.748-1.39,1.032c-0.596,0.281-1.213,0.422-1.852,0.422c-1.12,0-2.129-0.309-3.026-0.925
		c-0.899-0.618-1.631-1.468-2.199-2.552c-0.568-1.083-0.925-2.304-1.069-3.662c-0.161-1.517-0.063-2.847,0.296-3.993
		c0.358-1.147,0.897-2.023,1.619-2.632c0.72-0.608,1.528-0.912,2.421-0.912c0.88,0,1.742,0.317,2.589,0.952
		c0.846,0.635,1.56,1.49,2.141,2.566c0.581,1.074,0.937,2.237,1.07,3.491C58.994,69.084,58.905,69.428,58.694,69.692z M51.04,67.445
		h5.236l-0.02-0.185c-0.132-0.741-0.472-1.375-1.021-1.906c-0.55-0.528-1.137-0.793-1.763-0.793
		C51.927,64.562,51.116,65.524,51.04,67.445z M52.661,60.781c-0.17-0.16-0.263-0.371-0.277-0.635
		c-0.017-0.16,0.005-0.326,0.067-0.504l0.872-2.698c0.1-0.315,0.232-0.571,0.398-0.765c0.165-0.194,0.362-0.292,0.589-0.292
		c0.359,0,0.642,0.123,0.848,0.37c0.207,0.247,0.324,0.565,0.351,0.953c0.016,0.405-0.07,0.783-0.259,1.135l-1.282,2.221
		c-0.182,0.3-0.465,0.45-0.851,0.45C52.983,61.018,52.831,60.939,52.661,60.781z"/>
	<path fill="#E22D2D" stroke="#E22D2D" stroke-miterlimit="10" d="M69.858,62.103c0.258,0.3,0.411,0.689,0.462,1.163l1.189,11.187
		c0.048,0.458-0.024,0.841-0.217,1.151c-0.194,0.309-0.464,0.462-0.811,0.462c-0.346,0-0.645-0.148-0.898-0.45
		c-0.251-0.3-0.408-0.677-0.47-1.137c-0.278,0.513-0.681,0.948-1.21,1.311c-0.528,0.36-1.104,0.541-1.73,0.541
		c-0.92,0-1.786-0.313-2.598-0.938c-0.812-0.626-1.495-1.496-2.045-2.606c-0.551-1.11-0.902-2.369-1.051-3.78
		s-0.071-2.675,0.237-3.796c0.307-1.118,0.798-1.992,1.47-2.617c0.673-0.626,1.456-0.939,2.349-0.939
		c0.639,0,1.255,0.156,1.847,0.463c0.594,0.309,1.107,0.701,1.544,1.178l-0.002-0.028c-0.049-0.458,0.023-0.841,0.217-1.15
		c0.194-0.307,0.464-0.463,0.811-0.463C69.297,61.653,69.599,61.805,69.858,62.103z M68.149,72.166
		c0.457-0.837,0.618-1.893,0.483-3.16c-0.135-1.271-0.52-2.328-1.156-3.173c-0.636-0.846-1.387-1.271-2.253-1.271
		c-0.852,0-1.507,0.425-1.964,1.271c-0.456,0.846-0.617,1.902-0.482,3.173c0.135,1.268,0.516,2.323,1.146,3.16
		c0.628,0.837,1.375,1.255,2.241,1.255C67.029,73.421,67.691,73.003,68.149,72.166z"/>
	<path fill="#E22D2D" stroke="#E22D2D" stroke-miterlimit="10" d="M76.476,75.604c-0.201,0.309-0.474,0.462-0.82,0.462
		c-0.333,0-0.629-0.153-0.888-0.462c-0.26-0.31-0.414-0.693-0.462-1.151L72.57,58.109c-0.049-0.457,0.027-0.839,0.228-1.148
		c0.201-0.309,0.474-0.463,0.82-0.463c0.333,0,0.629,0.154,0.889,0.463c0.259,0.309,0.412,0.691,0.461,1.148l1.735,16.344
		C76.752,74.911,76.677,75.294,76.476,75.604z"/>
	<path fill="#E22D2D" stroke="#E22D2D" stroke-miterlimit="10" d="M88.008,69.692c-0.212,0.266-0.477,0.398-0.797,0.398h-6.595
		c0.269,1.039,0.723,1.854,1.358,2.445c0.636,0.592,1.314,0.886,2.033,0.886c0.546,0,0.965-0.066,1.258-0.198
		c0.293-0.131,0.52-0.272,0.685-0.422c0.163-0.151,0.276-0.252,0.337-0.305c0.223-0.16,0.441-0.239,0.654-0.239
		c0.28,0,0.533,0.132,0.762,0.396c0.228,0.265,0.361,0.574,0.398,0.928c0.05,0.476-0.091,0.908-0.422,1.296
		c-0.33,0.405-0.794,0.748-1.39,1.032c-0.597,0.281-1.214,0.422-1.853,0.422c-1.12,0-2.129-0.309-3.026-0.925
		c-0.899-0.618-1.631-1.468-2.2-2.552c-0.568-1.083-0.924-2.304-1.068-3.662c-0.161-1.517-0.062-2.847,0.296-3.993
		c0.358-1.147,0.898-2.023,1.619-2.632c0.721-0.608,1.528-0.912,2.421-0.912c0.88,0,1.742,0.317,2.589,0.952
		c0.846,0.635,1.56,1.49,2.141,2.566c0.58,1.074,0.938,2.237,1.07,3.491C88.309,69.084,88.219,69.428,88.008,69.692z M80.355,67.445
		h5.236l-0.02-0.185c-0.132-0.741-0.472-1.375-1.021-1.906c-0.55-0.528-1.137-0.793-1.763-0.793
		C81.241,64.562,80.43,65.524,80.355,67.445z"/>
	<path fill="#E22D2D" stroke="#E22D2D" stroke-miterlimit="10" d="M89.945,73.079c-0.049-0.458,0.083-0.847,0.396-1.164
		c0.17-0.159,0.355-0.239,0.555-0.239c0.28,0,0.564,0.169,0.853,0.504c0.458,0.546,0.917,0.952,1.377,1.217
		c0.461,0.264,0.999,0.396,1.611,0.396c1.033-0.053,1.498-0.574,1.393-1.56c-0.054-0.511-0.272-0.899-0.652-1.163
		c-0.381-0.265-0.96-0.528-1.734-0.795c-0.803-0.281-1.462-0.563-1.978-0.846c-0.516-0.281-0.981-0.71-1.395-1.281
		c-0.415-0.574-0.673-1.345-0.776-2.315c-0.09-0.846,0.015-1.584,0.315-2.208c0.3-0.626,0.729-1.11,1.285-1.456
		c0.556-0.343,1.168-0.515,1.834-0.515c0.68,0,1.377,0.168,2.091,0.503c0.716,0.335,1.301,0.83,1.756,1.482
		c0.203,0.281,0.324,0.598,0.361,0.952c0.043,0.405-0.048,0.739-0.273,1.004c-0.166,0.194-0.369,0.292-0.608,0.292
		c-0.293,0-0.546-0.124-0.759-0.37c-0.28-0.388-0.623-0.697-1.027-0.925c-0.404-0.23-0.846-0.345-1.325-0.345
		c-1.013,0-1.467,0.486-1.364,1.456c0.041,0.387,0.168,0.702,0.38,0.937c0.211,0.239,0.468,0.425,0.768,0.556
		c0.301,0.132,0.721,0.295,1.261,0.489c0.748,0.266,1.377,0.539,1.886,0.82c0.51,0.284,0.961,0.715,1.356,1.297
		c0.395,0.581,0.643,1.348,0.744,2.302c0.092,0.863-0.02,1.617-0.339,2.261c-0.319,0.643-0.763,1.132-1.333,1.467
		c-0.571,0.334-1.176,0.503-1.815,0.503c-0.879,0-1.72-0.194-2.52-0.582c-0.801-0.387-1.487-1.015-2.057-1.878
		C90.067,73.66,89.98,73.396,89.945,73.079z"/>
</g>
</svg>
