<svg version="1.1" id="Calque_1" xmlns="http://www.w3.org/2000/svg" xmlns:xlink="http://www.w3.org/1999/xlink" x="0px" y="0px"
	 width="90.667px" height="128px" viewBox="0 0 90.667 128" enable-background="new 0 0 90.667 128" xml:space="preserve">
<path fill="#3C3C3B" d="M31.038,4.333c-7.456,0-13.5,1.567-13.5,3.5v34.958v57.042h0.005c0.054,1.921,6.073,3.474,13.495,3.474
	s13.441-1.553,13.495-3.474h0.005V44.469V7.833C44.537,5.9,38.493,4.333,31.038,4.333z"/>
<path fill="#A06B40" d="M31.038,4.333c-7.46,0-13.5,1.57-13.5,3.5v31.93v6.1c3.28,0.99,8.12,1.62,13.51,1.62s10.22-0.63,13.49-1.62
	v-6.11V7.833C44.538,5.903,38.488,4.333,31.038,4.333z"/>
<path fill="#996239" d="M48.615,97.061c-3.396-7.377-9.905-11.629-14.537-9.497c-0.48,0.221-26.691,10.432-26.691,10.432
	c4.391-2.021,10.704,2.321,14.1,9.698c3.396,7.377,2.589,14.997-1.802,17.018c-0.242,0.112-0.493,0.196-0.746,0.27l0.097,0.226
	c0,0,26.491-10.536,27.34-10.927C51.009,112.148,52.011,104.439,48.615,97.061z"/>
<g>
	<path fill="#3C3C3B" d="M85.038,82.947c-2.879-7.179-9.028-11.469-13.733-9.582L33.29,87.719c4.46-0.162,9.714,3.971,12.682,10.42
		c2.981,6.475,2.69,13.182-0.369,16.451L81.73,99.363C86.436,97.476,87.917,90.126,85.038,82.947z"/>
</g>
<polygon fill="#3C3C3B" points="34.444,102.162 31.65,103.144 30.511,99.9 28.624,100.563 29.763,103.806 26.968,104.788 
	27.631,106.675 30.425,105.693 31.564,108.937 33.451,108.274 32.312,105.031 35.107,104.049 "/>
<g>
	<path fill="#D9D9D9" d="M29.221,87.014h-7.138c-0.276,0-0.5-0.224-0.5-0.5V36.333c0-0.276,0.224-0.5,0.5-0.5h7.138
		c0.276,0,0.5,0.224,0.5,0.5v50.181C29.721,86.79,29.497,87.014,29.221,87.014z"/>
</g>
<polygon fill="#3C3C3B" points="39.557,21.805 36.459,21.805 36.459,18.208 34.366,18.208 34.366,21.805 31.267,21.805 
	31.267,23.897 34.366,23.897 34.366,27.494 36.459,27.494 36.459,23.897 39.557,23.897 "/>
<path fill="#8E5A36" d="M42.266,9.083c0,0-0.433,33,0.136,32.583l2.135-33.833C44.232,8.139,42.929,8.844,42.266,9.083z"/>
<path fill="#BFBFBF" d="M44.521,7.667c0.177,1.501-6.287,2.478-13.651,2.478S17.217,9.139,17.557,7.667
	c0.308-1.333,2.933-2.209,6.715-2.833c1.765-0.292,4.645-0.5,6.765-0.5c2.567,0,4.227,0.148,6.263,0.4
	C41.646,5.271,44.365,6.333,44.521,7.667z"/>
<path fill="#CCCCCC" d="M42.402,6.636c0,1.352-5.088,2.447-11.365,2.447S19.673,7.988,19.673,6.636c0-0.963,2.27-1.671,6.022-2.071
	c1.517-0.162,3.558-0.232,5.365-0.232c2.188,0,4.506,0.096,6.24,0.327C40.54,5.092,42.402,5.756,42.402,6.636z"/>
<path fill="#444443" d="M26.538,4.052V6.49c0,0.65,2.015,1.177,4.5,1.177s4.5-0.527,4.5-1.177V4.052H26.538z"/>
<ellipse fill="#3C3C3B" cx="31.037" cy="4.094" rx="4.5" ry="1.177"/>
<path fill="#8E5B39" d="M10.388,97.536c0,0,4.497,1.156,4.416,1.885c-0.062,0.564,19.279-9.213,19.279-9.213
	c-0.75-0.005-18.438,6.188-18.438,6.188L10.388,97.536z"/>
<ellipse transform="matrix(0.9084 -0.4182 0.4182 0.9084 -45.3123 15.9699)" fill="#935C37" cx="13.786" cy="111.384" rx="9.49" ry="14.813"/>
<ellipse transform="matrix(0.9084 -0.4182 0.4182 0.9084 -45.6262 15.8072)" fill="#919191" cx="13.258" cy="112.019" rx="8.196" ry="12.793"/>
<ellipse transform="matrix(0.9084 -0.4182 0.4182 0.9084 -45.6262 15.8072)" fill="#A3A3A3" cx="13.258" cy="112.019" rx="7.104" ry="11.089"/>
<g>
	<path fill="#A0A0A0" d="M19.894,5.871c0,0-0.145,0.078-0.398,0.215c-0.235,0.146-0.608,0.37-0.858,0.729
		c-0.12,0.184-0.123,0.391,0.012,0.579c0.134,0.191,0.372,0.348,0.623,0.493c0.512,0.284,1.129,0.488,1.752,0.649
		c0.62,0.179,1.256,0.315,1.857,0.411c0.601,0.096,1.164,0.188,1.651,0.232c0.973,0.109,1.632,0.118,1.632,0.118l0.002,0.025
		c0,0-0.657,0.054-1.642,0.005c-0.983-0.051-2.295-0.206-3.566-0.55c-0.633-0.175-1.26-0.393-1.796-0.702
		c-0.264-0.156-0.516-0.336-0.671-0.582c-0.165-0.243-0.134-0.565,0.023-0.761c0.308-0.398,0.707-0.567,0.955-0.702
		c0.263-0.116,0.413-0.182,0.413-0.182L19.894,5.871z"/>
</g>
<g>
	<path fill="#A0A0A0" d="M41.189,5.515c0,0,0.056,0.02,0.161,0.057c0.105,0.036,0.259,0.088,0.449,0.181
		c0.189,0.09,0.426,0.207,0.627,0.458c0.111,0.117,0.154,0.325,0.113,0.517c-0.06,0.186-0.185,0.344-0.33,0.463
		c-0.587,0.485-1.392,0.765-2.246,1.032c-0.861,0.254-1.793,0.463-2.732,0.627c-1.889,0.26-3.79,0.357-5.215,0.365
		c-0.712,0.011-1.306-0.047-1.72-0.068c-0.414-0.032-0.65-0.051-0.65-0.051l0.001-0.025c0,0,0.946,0.043,2.366,0.001
		c1.419-0.037,3.31-0.173,5.18-0.469c0.935-0.145,1.863-0.333,2.719-0.567c0.847-0.244,1.651-0.512,2.204-0.955
		c0.14-0.108,0.243-0.246,0.299-0.393c0.035-0.149,0.019-0.311-0.076-0.421c-0.165-0.23-0.39-0.364-0.568-0.46
		c-0.18-0.101-0.331-0.161-0.434-0.203c-0.102-0.043-0.157-0.066-0.157-0.066L41.189,5.515z"/>
</g>
<g>
	<path fill="#A0A0A0" d="M35.541,5.03c0,0,0.176,0.037,0.481,0.12c0.153,0.043,0.338,0.104,0.545,0.193
		c0.199,0.102,0.447,0.207,0.629,0.473c0.088,0.132,0.146,0.316,0.11,0.502c-0.04,0.177-0.132,0.341-0.249,0.464
		c-0.232,0.257-0.524,0.445-0.838,0.599c-0.628,0.31-1.332,0.516-2.043,0.68c-0.716,0.141-1.438,0.225-2.117,0.271
		c-0.679,0.045-1.314,0.023-1.855-0.006c-0.542-0.028-0.989-0.104-1.301-0.148c-0.311-0.052-0.488-0.082-0.488-0.082l0.003-0.025
		c0,0,0.713,0.093,1.789,0.107c1.074,0.017,2.514-0.063,3.917-0.361c0.699-0.151,1.394-0.343,2.001-0.631
		c0.3-0.145,0.584-0.312,0.797-0.531c0.227-0.207,0.306-0.535,0.148-0.761c-0.142-0.226-0.368-0.349-0.552-0.459
		c-0.194-0.1-0.369-0.172-0.516-0.226c-0.295-0.105-0.468-0.155-0.468-0.155L35.541,5.03z"/>
</g>
<g>
	<path fill="#969696" d="M5.496,110.916c0,0-0.017-0.087-0.048-0.249c-0.04-0.16-0.058-0.406-0.073-0.725
		c-0.003-0.625,0.106-1.553,0.575-2.551c0.485-0.965,1.221-2.111,2.501-2.807c0.629-0.343,1.39-0.559,2.173-0.515
		c0.784,0.039,1.545,0.34,2.173,0.773c0.615,0.451,1.157,0.984,1.578,1.571c0.444,0.574,0.799,1.184,1.116,1.782
		c0.314,0.599,0.571,1.2,0.773,1.78c0.222,0.574,0.389,1.129,0.544,1.639c0.173,0.505,0.255,0.99,0.357,1.41
		c0.102,0.42,0.163,0.792,0.22,1.097c0.112,0.609,0.176,0.956,0.176,0.956l-0.049,0.012c0,0-0.09-0.341-0.246-0.936
		c-0.079-0.298-0.168-0.661-0.3-1.07c-0.133-0.408-0.251-0.878-0.438-1.372c-0.175-0.498-0.363-1.038-0.605-1.593
		c-0.222-0.562-0.506-1.135-0.813-1.717c-0.317-0.577-0.671-1.161-1.102-1.701c-0.411-0.556-0.927-1.042-1.493-1.446
		c-0.568-0.402-1.236-0.676-1.922-0.72c-0.686-0.049-1.362,0.13-1.94,0.433c-1.171,0.615-1.942,1.647-2.439,2.56
		c-0.482,0.937-0.68,1.81-0.715,2.421c-0.008,0.305-0.01,0.545,0.018,0.709c0.019,0.164,0.029,0.252,0.029,0.252L5.496,110.916z"/>
</g>
<g>
	<path fill="#969696" d="M9.119,118.771c0,0,0.503,0.378,1.262,0.867c0.368,0.259,0.838,0.492,1.318,0.712
		c0.121,0.05,0.245,0.102,0.369,0.154l0.382,0.092c0.129,0.047,0.253,0.022,0.378,0.033c0.127,0.016,0.249,0.007,0.36-0.034
		c0.245-0.003,0.446-0.139,0.663-0.24c0.175-0.176,0.387-0.316,0.523-0.538c0.122-0.23,0.308-0.409,0.417-0.636
		c0.11-0.228,0.214-0.444,0.309-0.644c0.105-0.198,0.16-0.4,0.234-0.57c0.068-0.174,0.127-0.326,0.176-0.451
		c0.101-0.251,0.171-0.395,0.171-0.395l0.049,0.008c0,0-0.032,0.15-0.089,0.414c-0.028,0.132-0.063,0.292-0.102,0.475
		c-0.046,0.182-0.067,0.395-0.158,0.609c-0.078,0.218-0.163,0.454-0.253,0.704c-0.091,0.249-0.263,0.478-0.4,0.734
		c-0.144,0.252-0.389,0.448-0.602,0.664c-0.269,0.152-0.535,0.33-0.857,0.357c-0.154,0.045-0.31,0.048-0.466,0.025
		c-0.154-0.018-0.314-0.004-0.459-0.061l-0.438-0.126c-0.136-0.062-0.27-0.124-0.402-0.185c-0.265-0.118-0.495-0.283-0.721-0.421
		c-0.212-0.159-0.422-0.297-0.595-0.451c-0.712-0.59-1.111-1.064-1.111-1.064L9.119,118.771z"/>
</g>
<path fill="#999999" d="M14.154,117.495c0.781-1.096,0.979-3.097,0.388-5.201c-0.805-2.863-2.757-4.819-4.36-4.368
	c-0.141,0.039-3.044,1.37-3.044,1.37l1.287,2.824c0.043,0.581,0.137,1.186,0.311,1.805c0.454,1.616,1.278,2.922,2.194,3.691
	l0.462,1.013L14.154,117.495z"/>
<ellipse transform="matrix(0.9627 -0.2706 0.2706 0.9627 -30.4839 6.7639)" fill="#B2B2B2" cx="9.291" cy="113.95" rx="3.215" ry="5.2"/>
</svg>
