<svg version="1.1" id="Calque_1" xmlns="http://www.w3.org/2000/svg" xmlns:xlink="http://www.w3.org/1999/xlink" x="0px" y="0px"
	 viewBox="0 0 175.9 69.2" style="enable-background:new 0 0 175.9 69.2;" xml:space="preserve">
<style type="text/css">
	.st0{display:none;}
</style>
<g id="fond">
</g>
<g id="Calque_3">
</g>
<g>
	<path d="M170.9,19.7c-2.4-1.6-4.2-4.9-6.9-7.4C153.1,1.9,146.1,1.8,132,1.7s-22.4,6.1-26.6,9.2c-4.2,3.1-9,9.4-10.8,9.4
		s-4.2-0.4-5.9-0.4s-6.7,1-8.6-0.5c-1.1-0.8-6.4-7.9-14.6-12.9c-8.2-5-17.2-6.4-32.3-5C18,2.9,10.6,14.7,8,18c-2,2.5-3.3,2.8-5,2.9
		c-1,0.1-1.8,0.8-1.8,1.8c-0.1,3.1-0.4,9.5,0.1,9.8c0.6,0.4,2.8,2,4.8,6.5c2,4.5,5,12.1,13,20.3S44,72.7,59.2,65.7
		c15.2-7.1,18.5-19.1,21-27.3s4.1-9.5,9.1-9.5s6.2,3.9,8,11c1.7,7.1,8,19.7,19,25c11.4,5.4,24.5,6.4,36.9-1.5s17.2-21.9,18.5-25.4
		c1.2-3.5,4.2-3.9,4.2-5s0-9.5,0-10.5C175.8,21.3,173.3,21.3,170.9,19.7z M42.6,64.8C12.4,60.2,13,42.3,13,27.6
		C13,19,18.2,13.7,25.4,10S50,2.8,62,10c12,7.2,12.4,14.9,13,26.3C75.7,47.7,60.2,67.5,42.6,64.8z M134.8,64.8
		c-17.6,2.7-33.1-17.2-32.5-28.5c0.6-11.4,1-19,13-26.3c12-7.2,29.4-3.7,36.6,0s12.4,9,12.4,17.6C164.4,42.3,165,60.2,134.8,64.8z"
		/>
</g>
<g id="Calque_13">
</g>
<g id="Calque_12" class="st0">
</g>
<g id="sol">
</g>
<g id="lumière">
</g>
<g id="Calque_4" class="st0">
</g>
<g id="monstre">
</g>
<g id="feuilles">
</g>
<g id="masque">
</g>
<g id="Calque_6" class="st0">
</g>
</svg>
