<svg version="1.1" id="Calque_2" xmlns="http://www.w3.org/2000/svg" xmlns:xlink="http://www.w3.org/1999/xlink" x="0px" y="0px"
	 viewBox="0 0 154.2 56.8" stcustomyle="enable-background:new 0 0 154.2 56.8;" xml:space="preserve">
<stcustomyle type="text/css">
	.stcustom0{fill:#F59331;}
	.stcustom1{fill:#CC7B27;}
	.stcustom2{fill:#FAAF4C;}
</stcustomyle>
<g>
	<path class="stcustom0" d="M154.2,18.3c-0.1-1-2.1,0.1-3.2-1.1s-2.7-15.7-22.2-16.9C109.3-0.9,85.4,1.9,80.6,2
		c-8.1,0.2-46.4-1.2-54.8-1.2S7.3,5.9,5,13.1c-0.8,2.5-5,4.5-5,4.5c0,3,0,8.1,0,8.8c0,0.7,3.4,0.1,3.5,1.3C3.6,28.9,3.9,38,7.6,44.5
		c3.6,6.4,9.9,12.1,19.1,12.1c9.2,0,18.8,0.9,26.4-4c7.6-4.9,8.5-5.5,14.3-17.6s6.3-13.3,9.6-13.3s5.7,5.9,8.8,13.7
		c3.1,7.9,10.3,16.8,18.9,19.5c8.6,2.8,27.5,2.6,33.4-1.3c5.8-3.9,12.1-13.5,12.1-24.9c0-1.9,3.1-2.4,3.5-2.6
		C154,25.8,154.2,19.3,154.2,18.3z M12.9,9.6c1.4-1.7,2.9-2.5,4.8-2.9H65c1.1,0.5,2,1.5,2.5,3.4h-55C12.6,9.9,12.7,9.7,12.9,9.6z
		 M23.1,51.8c-1-0.2-2.1-0.7-3.2-1.3h28.3C39.8,53.1,27.4,52.8,23.1,51.8z M55.4,46.4c-0.2,0.2-0.4,0.4-0.6,0.7h-39
		c-0.9-1-1.8-2.2-2.6-3.4h44.2C56.7,44.6,56.1,45.5,55.4,46.4z M59.5,40.2H11.4c-0.5-1.1-0.8-2.3-1-3.4h50.9
		C60.7,37.9,60.1,39.1,59.5,40.2z M63.4,32.2H10.1c0-1.2-0.1-2.3-0.1-3.4h54.7C64.3,29.9,63.8,31,63.4,32.2z M65.8,25.1H9.9
		c0-1.2,0-2.3,0.1-3.4h56.7C66.4,22.8,66.1,24,65.8,25.1z M67.4,17.6H10.2c0.1-1.2,0.3-2.4,0.6-3.4h57
		C67.7,15.2,67.6,16.3,67.4,17.6z M88.6,6.7h47.3c1.9,0.4,3.4,1.3,4.8,2.9c0.1,0.2,0.3,0.3,0.4,0.5H86.2C86.6,8.1,87.5,7.1,88.6,6.7
		z M85.8,14.2h57c0.2,1,0.4,2.2,0.6,3.4H86.2C85.9,16.3,85.8,15.2,85.8,14.2z M130.5,51.8c-4.4,1-16.7,1.3-25.2-1.3h28.3
		C132.6,51.2,131.5,51.6,130.5,51.8z M137.7,47.1h-39c-0.2-0.2-0.4-0.4-0.6-0.7c-0.7-0.9-1.4-1.8-2-2.8h44.2
		C139.6,44.9,138.7,46,137.7,47.1z M142.1,40.2H94c-0.6-1.1-1.2-2.2-1.8-3.4h50.9C142.9,37.9,142.6,39.1,142.1,40.2z M143.5,32.2
		H90.2c-0.5-1.1-0.9-2.3-1.3-3.4h54.7C143.6,29.9,143.5,31,143.5,32.2z M87.7,25.1c-0.3-1.1-0.6-2.3-0.9-3.4h56.7
		c0,1.1,0.1,2.2,0.1,3.4H87.7z"/>
	<path class="stcustom1" d="M0.9,20c0-1.1,0-1.1,0-1.6s1-1.5,1.8-1.3c0.9,0.2,0.2,1.3-0.5,1.4s0.2,2.4-0.5,2.6C1.1,21.3,0.9,21,0.9,20z"/>
	<path class="stcustom1" d="M75.5,5.4c-2.9,0-4.1,13.9-4.2,15.1c-0.1,1.2,1.7-2.4,4.2-1.6C78,19.8,77,5.4,75.5,5.4z"/>
	<path class="stcustom1" d="M71.9,21.1c3-2.4,5.8-2.3,9.2-0.3c0.4,0.2,0.8-0.4,0.5-0.8c-1.5-2-3.1-2.6-4.9-2.6c-2.1,0-4.1,0.2-5.5,3
		C71.1,20.9,71.6,21.3,71.9,21.1z"/>
	<path class="stcustom2" d="M153.3,20.9c0-0.9,0-0.9,0-1.3s-1-1.2-1.8-1s-0.2,1,0.5,1.1s-0.2,1.9,0.5,2.1S153.3,21.8,153.3,20.9z"/>
	<path class="stcustom2" d="M135.9,3c-0.2-0.6-2.4-1.3-6.5-1.5C117.2,1.1,92.3,2.7,87.7,3c-1,0.1-1.6,0.6,0,0.7s30.5-1.3,39.1-1.3
		C132.5,2.4,136.2,4,135.9,3z"/>
</g>
</svg>
