<svg version="1.1" id="Calque_1" xmlns="http://www.w3.org/2000/svg" xmlns:xlink="http://www.w3.org/1999/xlink" x="0px" y="0px"
	 viewBox="0 0 175.4 56.8" stsoleilyle="enable-background:new 0 0 175.4 56.8;" xml:space="preserve">
<stsoleilyle type="text/css">
	.stsoleil0{fill:#414042;}
	.stsoleil1{fill:#D1D3D4;}
	.stsoleil2{fill:#FFFFFF;}
	.stsoleil3{fill:#2E2E2F;}
	.stsoleil4{display:none;}
</stsoleilyle>
<g id="fond">
</g>
<g id="Calque_3">
</g>
<g>
	<path class="stsoleil0" d="M1.6,13.8C1.5,10.2,1.8,8.2,1.7,6c0-0.5,0.3-0.9,0.8-0.9C7.3,4.9,21.3,1.6,32.8,1c12.3-0.7,27.3,1.4,38.4,4.5
		s15.9,3.4,18.6,3.4s11.6-2.3,17.3-3.4s16.1-3.6,29.3-3.2c12.9,0.4,26.3,1.9,36.8,5.1c0.4,0.1,0.6,0.4,0.6,0.8c0,2.1-0.1,6.7,0,7.4
		c0.1,0.8-0.3,0.8-1.5,1.3c-2.3,1-3.8-0.1-5.6,10.5S163,43,159.9,47.5c-3.2,4.5-12.2,8.5-22.5,8.5c-6.9,0-14.7,0.1-23.4-2.5
		c-8.6-2.7-14.8-13.8-16.9-21.6c-2.2-7.8-4.2-11.6-8.4-11.6s-6.4,1.8-8.2,8.5c-1.8,6.7-6.6,18.1-18.1,23.4S36.2,55,29.3,53.9
		s-14.1-4.7-16.6-13S9,21.5,7.7,18.5c-1-2.3-4.2-3.6-5.5-4C1.8,14.5,1.6,14.2,1.6,13.8z"/>
	<path d="M14.8,26.2c0-7.9,0.1-12.7,4.3-16.5S39.5,5.2,45,5.4c8.4,0.3,19,1.4,24.8,5.1s6.5,7.4,4.9,15c-1.6,7.7-3.9,21.8-19.9,25.3
		c-13.2,2.9-26.9,0-32-3.7C17.9,43.5,14.8,35.7,14.8,26.2z"/>
	<path class="stsoleil1" d="M5.4,10.6c0,2.1,4.7,2.3,5.7,0C10.2,8.7,5.4,8.2,5.4,10.6z"/>
	<path class="stsoleil2" d="M6,10.8c0-0.5,3.4,0,3.8,0.4c0.4,0.4-1.5,0.7-2.1,0.6C7.1,11.7,6,11.5,6,10.8z"/>
	<path class="stsoleil1" d="M170.6,12.5c0,2.1-4.7,2.3-5.7,0C165.8,10.6,170.6,10.1,170.6,12.5z"/>
	<path class="stsoleil2" d="M170,12.7c0-0.5-3.4,0-3.8,0.4s1.5,0.7,2.1,0.6C168.9,13.6,170,13.3,170,12.7z"/>
	<path d="M161.7,27c0-7.9-0.1-12.7-4.3-16.5C153.2,6.7,137,6,131.5,6.2c-8.4,0.3-19,1.4-24.8,5.1c-5.9,3.7-6.5,7.4-4.9,15
		s3.9,21.8,19.9,25.3c13.2,2.9,26.9,0,32-3.7C158.6,44.2,161.7,36.4,161.7,27z"/>
	<path class="stsoleil3" d="M78.8,7.6c2,1.5,4.8,10.9,3.5,16.4c2.4-4.4,9.1-4.7,11.1-0.8c-2.1-9,3.8-15,4.6-15.6c-3,0.6-7.4,1.7-9.1,1.6
		C87.1,9.1,78.8,7.6,78.8,7.6z"/>
	<path class="stsoleil0" d="M49.3,5.7C42.3,19.8,27,49.3,27,49.3s3.2,1.2,6.1,1.7C35.5,45.5,55.3,8.1,56,6.3C52.3,5.9,49.3,5.7,49.3,5.7z"
		/>
	<path class="stsoleil0" d="M139.3,6.3c-7,14.1-22.4,43.8-22.4,43.8s3.2,1.2,6.1,1.7c2.4-5.5,22.3-43.2,23.1-44.9
		C142.3,6.4,139.3,6.3,139.3,6.3z"/>
	<path class="stsoleil0" d="M36.2,51.5l13.1-26.1L37.8,51.7C37.1,51.7,36.2,51.5,36.2,51.5z"/>
	<path class="stsoleil0" d="M135.7,6.2l-14,26.3L134,6.2C134.7,6.1,135.7,6.2,135.7,6.2z"/>
</g>
<g id="Calque_13">
</g>
<g id="Calque_12" class="stsoleil4">
</g>
<g id="sol">
</g>
<g id="lumière">
</g>
<g id="Calque_4" class="stsoleil4">
	
		<image stsoleilyle="display:inline;overflow:visible;enable-background:new    ;" width="1024" height="1024" xlink:href="CC132BDB.png"  transform="matrix(0.3578 0 0 0.3578 -345.6106 -217.3577)">
	</image>
</g>
<g id="monstsoleilre">
</g>
<g id="feuilles">
</g>
<g id="masque">
</g>
<g id="Calque_6" class="stsoleil4">
</g>
</svg>
