  
<!-- Generator: Adobe Illustrator 17.0.2, SVG Export Plug-In . SVG Version: 6.00 Build 0)  -->
<!DOCTYPE svg PUBLIC "-//W3C//DTD SVG 1.1//EN" "http://www.w3.org/Graphics/SVG/1.1/DTD/svg11.dtd">
<svg version="1.1" id="Calque_1" xmlns="http://www.w3.org/2000/svg" xmlns:xlink="http://www.w3.org/1999/xlink" x="0px" y="0px"
	 width="106px" height="67.333px" viewBox="45.333 353.333 106 67.333" enable-background="new 45.333 353.333 106 67.333"
	 xml:space="preserve">
<path fill="#ABABAB" d="M90.25,386.48c-9.5,0.575-25.5,4.599-21.25,11.113s10.5,10.538,26.75,10.921s41.75-1.341,41.5-9.58
	c-0.091-2.992-6.021-7.04-15.75-9.389C110.593,386.913,95.271,386.177,90.25,386.48z"/>
<path fill="#ABABAB" d="M81.75,393c0,0,7.511,11.172,31.75,9.5c14.5-1,12.5-5.5,12.5-5.5s1.5-13,1.5-15.25s3-6-2.25-7.5
	s-11-2.75-13.75-5s-7.5-5.25-12-4s-6.75,1-9.5,5.75s-5.75,13.5-6.25,16S81.75,392,81.75,393z"/>
<path fill="#969696" d="M117.585,392.414c-5.871,0.718-20.793-1.197-26.909-3.832c-3.54-1.525-5.926-5.082-5.926-5.082
	s-1.843,6.12-2.875,8.5c-0.542,1.25,1.095,2.501,3.542,4.417c2.446,1.916,6.144,5.122,20.083,6.083
	c14.5,1,19.547-2.912,20.167-3.583c0.62-0.672,1.458-9.856,1.458-9.856S120.992,391.997,117.585,392.414z"/>
<polygon fill="#ABABAB" points="112.75,392.375 112.625,402.562 116.812,402.188 116.938,392.312 "/>
</svg>
