  
<!-- Generator: Adobe Illustrator 17.0.2, SVG Export Plug-In . SVG Version: 6.00 Build 0)  -->
<!DOCTYPE svg PUBLIC "-//W3C//DTD SVG 1.1//EN" "http://www.w3.org/Graphics/SVG/1.1/DTD/svg11.dtd">
<svg version="1.1" id="Calque_1" xmlns="http://www.w3.org/2000/svg" xmlns:xlink="http://www.w3.org/1999/xlink" x="0px" y="0px"
	 width="106px" height="67.333px" viewBox="-185.333 353.333 106 67.333" enable-background="new -185.333 353.333 106 67.333"
	 xml:space="preserve">
<g>
	<g>
		<path fill="#0E0830" d="M-148.392,403.198c-13.711-3.038-47.65,4.637-25.584,9.314c22.106,4.637,57.643,7.355,84.866-1.079
			c27.223-8.435-44.852-6.836-44.852-6.836L-148.392,403.198z"/>
		<path fill="#0E0830" d="M-161.144,359.346c-0.44-0.12-0.76,0.36-0.52,0.72c2.159,3.238,8.714,13.072,10.513,16.669
			c2.159,4.317,0,24.584,0,29.781c0,5.197,27.662,6.996,37.136,1.719c3.878-2.159-14.591-31.1-17.149-35.617
			C-134.601,366.541-155.787,360.705-161.144,359.346z"/>
		<path fill="#1D1A45" d="M-131.163,372.617c-3.438-6.116-24.664-11.912-29.981-13.272c-0.44-0.12-0.76,0.36-0.52,0.72
			c1.719,2.558,6.276,9.354,8.914,13.831c3.318,3.878,5.317,5.477,6.036,6.276c-1.359-0.959-2.758-1.679-3.997-2.159
			c0.6,2.598,0.6,7.235,0.44,12.072l0,0c0.76,8.035,5.956,21.107,22.546,21.187c5.437-0.32,10.593-1.279,13.711-3.038
			C-110.096,406.076-128.605,377.134-131.163,372.617z"/>
		<path fill="#313C62" d="M-131.043,372.617c-3.438-6.116-24.664-11.912-29.981-13.272c-0.44-0.12-0.76,0.36-0.52,0.72
			c0.04,0.08,0.08,0.16,0.16,0.24c9.154,6.676,20.747,8.674,25.544,15.55c5.636,8.075,3.957,17.429,14.671,26.143
			c2.638,2.159,5.197,3.198,7.595,3.518C-115.413,397.641-128.924,376.455-131.043,372.617z"/>
	</g>
	<path fill="#313C62" stroke="#313C62" stroke-width="1.2846" stroke-miterlimit="30" d="M-86.072,407.635
		c0.36,0.04,0.4,0.36,0.08,0.6c-1.199,0.919-6.076,2.758-14.071,3.997c3.158-0.76,8.035-2.199,11.553-3.558
		C-87.431,408.275-86.391,407.635-86.072,407.635z"/>
</g>
<g>
	<path fill="#0E0830" d="M-113.854,404.477c0.12,0.36,0.2,0.68,0.28,0.959c-0.04,0-0.08,0-0.12,0c0.36,1.439,0.28,2.438-0.32,2.798
		c-0.16,0.08-0.36,0.2-0.56,0.28c-0.04,0.04-0.12,0.04-0.16,0.08c-0.16,0.08-0.28,0.12-0.44,0.2c-0.08,0.04-0.12,0.04-0.2,0.08
		c-0.2,0.08-0.4,0.16-0.6,0.24h-0.04c-0.2,0.08-0.44,0.16-0.68,0.24c-0.08,0.04-0.12,0.04-0.2,0.08c-0.16,0.04-0.36,0.12-0.52,0.16
		c-0.08,0.04-0.12,0.04-0.2,0.08c-0.24,0.08-0.44,0.12-0.68,0.2h-0.04c-0.24,0.08-0.52,0.12-0.76,0.2c-0.04,0-0.12,0.04-0.16,0.04
		c-0.2,0.04-0.44,0.08-0.64,0.16c-0.08,0-0.12,0.04-0.2,0.04c-0.24,0.04-0.52,0.12-0.799,0.16h-0.04c-0.28,0.04-0.6,0.12-0.879,0.16
		c-0.04,0-0.08,0-0.12,0.04c-0.24,0.04-0.52,0.08-0.76,0.12c-0.04,0-0.12,0-0.16,0.04c-0.28,0.04-0.6,0.08-0.879,0.12l0,0
		c-0.32,0.04-0.64,0.08-0.959,0.12c-0.04,0-0.04,0-0.08,0c-0.28,0.04-0.6,0.08-0.879,0.08c-0.04,0-0.08,0-0.12,0
		c-0.64,0.04-1.319,0.12-1.959,0.16l0,0c-11.033,0.68-23.425-1.279-23.425-4.757c0-0.879,0.08-2.159,0.16-3.758
		c-14.871-1.719-43.812,5.317-23.025,9.714c22.106,4.637,57.643,7.355,84.866-1.079C-71.761,405.996-94.866,404.717-113.854,404.477
		z M-85.952,408.235c-1.199,0.919-6.076,2.758-14.071,3.997c3.158-0.76,8.035-2.199,11.553-3.558c1.039-0.4,2.079-1.039,2.438-0.999
		C-85.712,407.675-85.632,408.035-85.952,408.235z"/>
	<path fill="#0E0830" d="M-149.272,402.958l0.24-0.48c0.08-0.16,0.32-0.16,0.4,0l0.24,0.48c0.04,0.08,0.08,0.12,0.16,0.12l0.52,0.08
		c0.08,0,0.12,0.04,0.16,0.08l2.518,0.24c-3.158-3.957-4.637-8.794-5.117-12.632l-0.12,0.08c-0.16,4.277-0.48,8.635-0.68,11.832
		C-150.391,402.838-149.831,402.918-149.272,402.958C-149.311,402.998-149.272,402.998-149.272,402.958z"/>
	<path fill="#0E0830" d="M-152.709,373.897L-152.709,373.897c0.68,1.119,1.239,2.119,1.599,2.838c0.16,0.32,0.32,0.76,0.44,1.279
		c1.239,0.44,2.638,1.159,3.997,2.159C-147.393,379.373-149.391,377.774-152.709,373.897z"/>
	<path fill="#0E0830" d="M-127.685,411.273c-8.435-0.04-13.911-3.398-17.349-7.755l-2.518-0.24c0.08,0.08,0.08,0.2,0,0.28
		l-0.36,0.36c-0.04,0.04-0.08,0.12-0.08,0.2l0.08,0.52c0.04,0.2-0.16,0.32-0.32,0.24l-0.48-0.24c-0.08-0.04-0.16-0.04-0.2,0
		l-0.48,0.24c-0.16,0.08-0.36-0.04-0.32-0.24l0.08-0.52c0-0.08,0-0.16-0.08-0.2l-0.36-0.36c-0.12-0.12-0.08-0.36,0.12-0.4l0.52-0.08
		c0.04,0,0.12-0.04,0.16-0.08c-0.52-0.08-1.079-0.16-1.639-0.24c-0.08,1.559-0.16,2.878-0.16,3.758
		C-151.11,409.994-138.718,411.912-127.685,411.273z"/>
	<path fill="#1D1A45" d="M-156.347,368.06c1.039,1.599,2.039,3.198,2.958,4.637C-154.308,371.258-155.348,369.659-156.347,368.06
		L-156.347,368.06z"/>
	<path fill="#1D1A45" d="M-150.191,383.211c0,0.48,0,0.999,0.04,1.479l0,0C-150.151,384.21-150.191,383.69-150.191,383.211z"/>
	<path fill="#1D1A45" d="M-149.951,384.45l0.799-1.599c0.28-0.56,1.119-0.56,1.399,0l0.799,1.599c0.12,0.24,0.32,0.4,0.6,0.44
		l1.759,0.24c0.64,0.08,0.879,0.879,0.44,1.319l-1.279,1.239c-0.2,0.16-0.28,0.44-0.24,0.68l0.32,1.759
		c0.12,0.64-0.56,1.119-1.119,0.839l-1.599-0.839c-0.24-0.12-0.48-0.12-0.72,0l-1.359,0.72c0.48,3.878,1.959,8.674,5.117,12.632
		l11.073,1.079c0,0,7.555-0.16,16.869-0.12c-1.319-0.56-2.678-1.399-4.077-2.518c-2.638-2.119-4.477-4.277-5.916-6.436l-0.4,0.2
		c-0.32,0.16-0.68-0.12-0.6-0.44l0.16-0.959c0-0.08,0-0.16-0.04-0.24l-0.04-0.04c0-0.04-0.04-0.04-0.04-0.08l-0.72-0.68
		c-0.2-0.2-0.16-0.48,0.04-0.64c-1.759-3.518-2.638-7.036-3.918-10.433l-1.319-0.68c-0.24-0.12-0.48-0.12-0.72,0l-1.599,0.839
		c-0.56,0.32-1.239-0.2-1.119-0.839l0.32-1.759c0.04-0.24-0.04-0.52-0.24-0.68l-1.279-1.239c-0.48-0.44-0.2-1.239,0.44-1.319
		l1.759-0.24c0.24-0.04,0.44-0.16,0.56-0.4c-4.797-6.836-16.39-8.834-25.504-15.51c-0.04-0.08-0.12-0.16-0.16-0.24
		c-0.2-0.32,0-0.68,0.32-0.72c-0.4-0.04-0.68,0.4-0.44,0.72c0.08,0.08,0.12,0.2,0.2,0.28c0.04,0.04,0.04,0.08,0.08,0.12
		c0.04,0.08,0.08,0.16,0.16,0.2c0.04,0.04,0.04,0.08,0.08,0.12c0.04,0.08,0.12,0.16,0.16,0.24c0.04,0.04,0.04,0.08,0.08,0.12
		c0.08,0.12,0.16,0.2,0.2,0.32c0.04,0.08,0.08,0.12,0.12,0.2s0.12,0.16,0.16,0.28c0.04,0.08,0.12,0.16,0.16,0.24
		c0.04,0.04,0.04,0.08,0.08,0.12c0.08,0.12,0.12,0.2,0.2,0.32c0,0.04,0.04,0.04,0.04,0.08c0.04,0.04,0.04,0.08,0.08,0.12
		c0.36-0.36,0.999-0.28,1.239,0.2l0.799,1.599c0.12,0.24,0.32,0.4,0.6,0.44l1.759,0.24c0.64,0.08,0.879,0.879,0.44,1.319
		l-1.279,1.239c-0.04,0.04-0.08,0.08-0.12,0.12c1.039,1.599,2.039,3.198,2.958,4.637c0.24,0.4,0.48,0.799,0.72,1.159l0,0
		c3.318,3.878,5.317,5.477,6.036,6.276c-1.359-0.959-2.758-1.679-3.997-2.159c0.04,0.16,0.08,0.28,0.08,0.44c0,0.04,0,0.08,0,0.12
		c0.04,0.16,0.04,0.32,0.08,0.48v0.04c0.04,0.16,0.04,0.32,0.08,0.48c0,0.04,0,0.08,0,0.12c0.04,0.2,0.04,0.36,0.08,0.56
		c0,0.04,0,0.04,0,0.08c0,0.2,0.04,0.4,0.04,0.6v0.04c0,0.2,0.04,0.44,0.04,0.68c0,0.04,0,0.04,0,0.08
		c0.04,0.48,0.04,0.959,0.04,1.439c0,0,0,0,0,0.04c0,0.48,0,0.999,0.04,1.479C-150.071,384.65-149.991,384.53-149.951,384.45z
		 M-140.397,390.566l0.52-0.08c0.08,0,0.12-0.04,0.16-0.12l0.24-0.48c0.08-0.16,0.32-0.16,0.4,0l0.24,0.48
		c0.04,0.08,0.08,0.12,0.16,0.12l0.52,0.08c0.2,0.04,0.24,0.24,0.12,0.4l-0.36,0.36c-0.04,0.04-0.08,0.12-0.08,0.2l0.08,0.52
		c0.04,0.2-0.16,0.32-0.32,0.24l-0.48-0.24c-0.08-0.04-0.16-0.04-0.2,0l-0.48,0.24c-0.16,0.08-0.36-0.04-0.32-0.24l0.08-0.52
		c0-0.08,0-0.16-0.08-0.2l-0.36-0.36C-140.637,390.806-140.557,390.606-140.397,390.566z M-140.517,397.322l1.759-0.24
		c0.24-0.04,0.48-0.2,0.6-0.44l0.799-1.599c0.28-0.56,1.119-0.56,1.399,0l0.799,1.599c0.12,0.24,0.32,0.4,0.6,0.44l1.759,0.24
		c0.64,0.08,0.879,0.879,0.44,1.319l-1.279,1.239c-0.2,0.16-0.28,0.44-0.24,0.68l0.32,1.759c0.12,0.64-0.56,1.119-1.119,0.839
		l-1.599-0.839c-0.24-0.12-0.48-0.12-0.72,0l-1.599,0.839c-0.56,0.32-1.239-0.2-1.119-0.839l0.32-1.759
		c0.04-0.24-0.04-0.52-0.24-0.68l-1.279-1.239C-141.397,398.201-141.157,397.442-140.517,397.322z M-147.433,375.575
		c-0.32,0.16-0.68-0.12-0.6-0.44l0.16-0.959c0.04-0.12-0.04-0.28-0.12-0.36l-0.72-0.68c-0.24-0.24-0.12-0.68,0.24-0.72l0.959-0.16
		c0.12-0.04,0.24-0.12,0.32-0.24l0.44-0.879c0.16-0.32,0.6-0.32,0.76,0l0.44,0.879c0.08,0.12,0.2,0.2,0.32,0.24l0.959,0.16
		c0.36,0.04,0.48,0.48,0.24,0.72l-0.72,0.68c-0.12,0.08-0.16,0.24-0.12,0.36l0.16,0.959c0.04,0.36-0.32,0.6-0.6,0.44l-0.879-0.44
		c-0.12-0.08-0.28-0.08-0.4,0L-147.433,375.575z"/>
	<path fill="#1D1A45" d="M-152.709,373.897c-0.24-0.36-0.48-0.76-0.72-1.159C-153.189,373.137-152.949,373.537-152.709,373.897z"/>
	<path fill="#1D1A45" d="M-150.191,383.211c0-0.52-0.04-0.999-0.04-1.439C-150.231,382.211-150.191,382.691-150.191,383.211z"/>
	<path fill="#1D1A45" d="M-134.001,404.597l-11.073-1.079c3.478,4.357,8.954,7.715,17.349,7.755l0,0
		c0.64-0.04,1.319-0.08,1.959-0.16c0.04,0,0.08,0,0.12,0c0.28-0.04,0.6-0.04,0.879-0.08c0.04,0,0.04,0,0.08,0
		c0.32-0.04,0.64-0.08,0.959-0.12l0,0c0.28-0.04,0.6-0.08,0.879-0.12c0.04,0,0.12,0,0.16-0.04c0.24-0.04,0.52-0.08,0.76-0.12
		c0.04,0,0.08,0,0.12-0.04c0.28-0.04,0.6-0.12,0.879-0.16h0.04c0.28-0.04,0.52-0.12,0.799-0.16c0.08,0,0.12-0.04,0.2-0.04
		c0.2-0.04,0.44-0.08,0.64-0.16c0.04,0,0.12-0.04,0.16-0.04c0.28-0.08,0.52-0.12,0.76-0.2h0.04c0.24-0.08,0.44-0.12,0.68-0.2
		c0.08-0.04,0.12-0.04,0.2-0.08c0.16-0.04,0.36-0.12,0.52-0.16c0.08-0.04,0.12-0.04,0.2-0.08c0.24-0.08,0.44-0.16,0.68-0.24h0.04
		c0.2-0.08,0.4-0.16,0.6-0.24c0.08-0.04,0.12-0.04,0.2-0.08c0.16-0.08,0.28-0.12,0.44-0.2c0.04-0.04,0.12-0.04,0.16-0.08
		c0.2-0.08,0.36-0.2,0.56-0.28c0.6-0.32,0.68-1.319,0.32-2.798c-1.119-0.16-2.279-0.48-3.438-0.999
		C-126.406,404.397-134.001,404.597-134.001,404.597z M-123.888,408.355l-0.36,0.36c-0.04,0.04-0.08,0.12-0.08,0.2l0.08,0.52
		c0.04,0.2-0.16,0.32-0.32,0.24l-0.48-0.24c-0.08-0.04-0.16-0.04-0.2,0l-0.48,0.24c-0.16,0.08-0.36-0.04-0.32-0.24l0.08-0.52
		c0-0.08,0-0.16-0.08-0.2l-0.36-0.36c-0.12-0.12-0.08-0.36,0.12-0.4l0.52-0.08c0.08,0,0.12-0.04,0.16-0.12l0.24-0.48
		c0.08-0.16,0.32-0.16,0.4,0l0.24,0.48c0.04,0.08,0.08,0.12,0.16,0.12l0.52,0.08C-123.808,407.995-123.768,408.195-123.888,408.355z
		"/>
	<path fill="#313C62" d="M-144.914,364.383L-144.914,364.383c-6.516-2.478-13.391-4.357-16.11-5.037c-0.08,0-0.12,0-0.2,0
		c0.04,0,0.04,0,0.08,0C-158.386,360.025-151.47,361.904-144.914,364.383z"/>
	<path fill="#313C62" d="M-113.934,404.477c0.04,0,0.08,0,0.12,0c-0.12-0.4-0.28-0.839-0.44-1.319l-0.12-0.08
		C-114.214,403.598-114.054,404.077-113.934,404.477z"/>
	<path fill="#313C62" d="M-131.163,372.617c1.559,2.718,8.914,14.391,13.631,23.625l0.04-0.12
		c-4.717-9.234-12.032-20.827-13.591-23.545c-1.159-2.039-4.317-4.077-8.195-5.876l-0.04,0.04
		C-135.44,368.58-132.322,370.579-131.163,372.617z"/>
	<path fill="#313C62" d="M-113.694,405.436c0.04,0,0.08,0,0.12,0c-0.08-0.32-0.16-0.64-0.28-0.959c-0.04,0-0.08,0-0.12,0
		C-113.854,404.837-113.734,405.157-113.694,405.436z"/>
	<path fill="#313C62" d="M-161.544,360.065c0.04,0.08,0.08,0.16,0.16,0.24c9.154,6.676,20.707,8.674,25.504,15.51l0.04-0.04
		l0.799-1.599c0.28-0.56,1.119-0.56,1.399,0l0.799,1.599c0.12,0.24,0.32,0.4,0.6,0.44l1.759,0.24c0.64,0.08,0.879,0.879,0.44,1.319
		l-1.279,1.239c-0.2,0.16-0.28,0.44-0.24,0.68l0.32,1.759c0.12,0.64-0.56,1.119-1.119,0.839l-0.28-0.16
		c1.279,3.398,2.159,6.916,3.918,10.433c0.04-0.04,0.12-0.08,0.2-0.08l0.959-0.16c0.12-0.04,0.24-0.12,0.32-0.24l0.44-0.879
		c0.16-0.32,0.6-0.32,0.76,0l0.44,0.879c0.08,0.12,0.2,0.2,0.32,0.24l0.959,0.16c0.36,0.04,0.48,0.48,0.24,0.72l-0.72,0.68
		c-0.12,0.08-0.16,0.24-0.12,0.36l0.16,0.959c0.04,0.36-0.32,0.6-0.6,0.44l-0.879-0.44c-0.12-0.08-0.28-0.08-0.4,0l-0.48,0.24
		c1.439,2.159,3.318,4.317,5.916,6.436c1.399,1.119,2.758,1.919,4.077,2.518c1.039,0,2.119,0,3.158,0.04
		c-0.12-0.44-0.28-0.879-0.48-1.359l-1.439-0.76c-0.24-0.12-0.48-0.12-0.72,0l-1.599,0.839c-0.56,0.32-1.239-0.2-1.119-0.839
		l0.32-1.759c0.04-0.24-0.04-0.52-0.24-0.68l-1.279-1.239c-0.48-0.44-0.2-1.239,0.44-1.319l1.759-0.24c0.24-0.04,0.48-0.2,0.6-0.44
		l0.2-0.4c-4.717-9.274-12.072-20.907-13.631-23.625c-1.159-2.039-4.277-4.037-8.155-5.876c-0.24,0.2-0.56,0.28-0.879,0.12
		l-1.599-0.839c-0.24-0.12-0.48-0.12-0.72,0l-1.599,0.839c-0.56,0.32-1.239-0.2-1.119-0.839l0.28-1.639
		c-6.556-2.478-13.471-4.357-16.19-5.077c-0.04,0-0.04,0-0.08,0C-161.544,359.386-161.744,359.746-161.544,360.065z
		 M-129.724,385.129l0.24-0.48c0.08-0.16,0.32-0.16,0.4,0l0.24,0.48c0.04,0.08,0.08,0.12,0.16,0.12l0.52,0.08
		c0.2,0.04,0.24,0.24,0.12,0.4l-0.36,0.36c-0.04,0.04-0.08,0.12-0.08,0.2l0.08,0.52c0.04,0.2-0.16,0.32-0.32,0.24l-0.48-0.24
		c-0.08-0.04-0.16-0.04-0.2,0l-0.48,0.24c-0.16,0.08-0.36-0.04-0.32-0.24l0.08-0.52c0-0.08,0-0.16-0.08-0.2l-0.36-0.36
		c-0.12-0.12-0.08-0.36,0.12-0.4l0.52-0.08C-129.844,385.249-129.764,385.169-129.724,385.129z"/>
	<path fill="#313C62" d="M-117.092,404.477c1.159,0.52,2.319,0.839,3.438,0.999c-0.08-0.28-0.16-0.6-0.28-0.959
		C-115.013,404.477-116.053,404.477-117.092,404.477z"/>
	<path fill="#60717E" stroke="#60717E" stroke-width="1.2846" stroke-miterlimit="30" d="M-86.072,407.635
		c-0.36-0.04-1.399,0.6-2.438,0.999c-3.478,1.359-8.355,2.838-11.553,3.558c7.955-1.199,12.832-3.078,14.071-3.997
		C-85.632,408.035-85.712,407.675-86.072,407.635z"/>
	<path fill="#D8BD60" d="M-139.638,399.92c0.2,0.16,0.28,0.44,0.24,0.68l-0.32,1.759c-0.12,0.64,0.56,1.119,1.119,0.839l1.599-0.839
		c0.24-0.12,0.48-0.12,0.72,0l1.599,0.839c0.56,0.32,1.239-0.2,1.119-0.839l-0.32-1.759c-0.04-0.24,0.04-0.52,0.24-0.68l1.279-1.239
		c0.48-0.44,0.2-1.239-0.44-1.319l-1.759-0.24c-0.24-0.04-0.48-0.2-0.6-0.44l-0.799-1.599c-0.28-0.56-1.119-0.56-1.399,0
		l-0.799,1.599c-0.12,0.24-0.32,0.4-0.6,0.44l-1.759,0.24c-0.64,0.08-0.879,0.879-0.44,1.319L-139.638,399.92z"/>
	<path fill="#D8BD60" d="M-150.271,390.086L-150.271,390.086c0,0.28-0.04,0.56-0.04,0.839l0.12-0.08
		C-150.231,390.606-150.231,390.366-150.271,390.086z"/>
	<path fill="#D8BD60" d="M-150.271,390.086c0.08-1.879,0.12-3.678,0.08-5.397l0,0C-150.151,386.409-150.191,388.247-150.271,390.086
		L-150.271,390.086z"/>
	<path fill="#D8BD60" d="M-148.072,390.166l1.599,0.839c0.56,0.32,1.239-0.2,1.119-0.839l-0.32-1.759
		c-0.04-0.24,0.04-0.52,0.24-0.68l1.279-1.239c0.48-0.44,0.2-1.239-0.44-1.319l-1.759-0.24c-0.24-0.04-0.48-0.2-0.6-0.44
		l-0.799-1.599c-0.28-0.56-1.119-0.56-1.399,0l-0.799,1.599c-0.04,0.12-0.12,0.2-0.24,0.28c0,1.679-0.04,3.518-0.08,5.397l0,0
		c0.04,0.24,0.04,0.52,0.08,0.76l1.359-0.72C-148.592,390.046-148.312,390.046-148.072,390.166z"/>
	<path fill="#D8BD60" d="M-135.88,375.815c-0.12,0.2-0.32,0.36-0.56,0.4l-1.759,0.24c-0.64,0.08-0.879,0.879-0.44,1.319l1.279,1.239
		c0.2,0.16,0.28,0.44,0.24,0.68l-0.32,1.759c-0.12,0.64,0.56,1.119,1.119,0.839l1.599-0.839c0.24-0.12,0.48-0.12,0.72,0l1.319,0.68
		C-133.482,379.973-134.441,377.854-135.88,375.815L-135.88,375.815z"/>
	<path fill="#FFE071" d="M-131.283,381.492l-0.32-1.759c-0.04-0.24,0.04-0.52,0.24-0.68l1.279-1.239c0.48-0.44,0.2-1.239-0.44-1.319
		l-1.759-0.24c-0.24-0.04-0.48-0.2-0.6-0.44l-0.799-1.599c-0.28-0.56-1.119-0.56-1.399,0l-0.799,1.599l-0.04,0.04c0,0,0,0,0.04,0.04
		c1.439,2.039,2.398,4.157,3.198,6.316l0.28,0.16C-131.843,382.611-131.163,382.131-131.283,381.492z"/>
	<path fill="#D8BD60" d="M-159.785,362.824c0.999,1.519,2.239,3.358,3.438,5.237l0,0
		C-157.586,366.221-158.785,364.383-159.785,362.824z"/>
	<path fill="#D8BD60" d="M-156.267,367.94l1.279-1.239c0.48-0.44,0.2-1.239-0.44-1.319l-1.759-0.24c-0.24-0.04-0.48-0.2-0.6-0.44
		l-0.799-1.599c-0.24-0.48-0.879-0.56-1.239-0.2c0.999,1.519,2.239,3.358,3.438,5.237
		C-156.347,368.02-156.307,367.98-156.267,367.94z"/>
	<path fill="#FFE071" d="M-114.414,403.118l0.12,0.08c-0.72-1.999-1.879-4.437-3.198-7.036l-0.04,0.12
		C-116.252,398.801-115.133,401.159-114.414,403.118z"/>
	<path fill="#FFE071" d="M-117.732,396.642c-0.12,0.24-0.32,0.4-0.6,0.44l-1.759,0.24c-0.64,0.08-0.879,0.879-0.44,1.319
		l1.279,1.239c0.2,0.16,0.28,0.44,0.24,0.68l-0.32,1.759c-0.12,0.64,0.56,1.119,1.119,0.839l1.599-0.839c0.24-0.12,0.48-0.12,0.72,0
		l1.439,0.76c-0.72-1.959-1.839-4.317-3.118-6.876L-117.732,396.642z"/>
	<path fill="#FFE071" d="M-139.278,366.781C-139.278,366.741-139.278,366.741-139.278,366.781c-1.759-0.879-3.678-1.639-5.636-2.398
		v0.04C-142.995,365.142-141.077,365.942-139.278,366.781z"/>
	<path fill="#FFE071" d="M-145.194,366.061c-0.12,0.64,0.56,1.119,1.119,0.839l1.599-0.839c0.24-0.12,0.48-0.12,0.72,0l1.599,0.839
		c0.32,0.16,0.64,0.08,0.879-0.12c-1.759-0.839-3.678-1.639-5.636-2.358L-145.194,366.061z"/>
	<path fill="#D8BD60" d="M-127.965,394.284l-0.16,0.959c-0.04,0.36,0.32,0.6,0.6,0.44l0.4-0.2c-0.32-0.48-0.6-0.959-0.879-1.479
		C-127.965,394.124-127.925,394.204-127.965,394.284z"/>
	<path fill="#D8BD60" d="M-128.765,393.244l0.72,0.68c0,0,0.04,0.04,0.04,0.08c-0.24-0.44-0.52-0.919-0.72-1.359
		C-128.924,392.765-128.964,393.044-128.765,393.244z"/>
	<path fill="#FFE071" d="M-126.246,395.243l0.879,0.44c0.32,0.16,0.68-0.12,0.6-0.44l-0.16-0.959c-0.04-0.12,0.04-0.28,0.12-0.36
		l0.72-0.68c0.24-0.24,0.12-0.68-0.24-0.72l-0.959-0.16c-0.12-0.04-0.24-0.12-0.32-0.24l-0.44-0.879c-0.16-0.32-0.6-0.32-0.76,0
		l-0.44,0.879c-0.08,0.12-0.2,0.2-0.32,0.24l-0.959,0.16c-0.08,0-0.16,0.04-0.2,0.08c0.24,0.44,0.48,0.919,0.72,1.359l0.04,0.04
		c0.28,0.48,0.56,0.959,0.879,1.479l0.48-0.24C-126.526,395.203-126.366,395.203-126.246,395.243z"/>
	<path fill="#D8BD60" d="M-146.193,375.136l0.879,0.44c0.32,0.16,0.68-0.12,0.6-0.44l-0.16-0.959c-0.04-0.12,0.04-0.28,0.12-0.36
		l0.72-0.68c0.24-0.24,0.12-0.68-0.24-0.72l-0.959-0.16c-0.12-0.04-0.24-0.12-0.32-0.24l-0.44-0.879c-0.16-0.32-0.6-0.32-0.76,0
		l-0.44,0.879c-0.08,0.12-0.2,0.2-0.32,0.24l-0.959,0.16c-0.36,0.04-0.48,0.48-0.24,0.72l0.72,0.68c0.08,0.08,0.16,0.24,0.12,0.36
		l-0.16,0.959c-0.04,0.36,0.32,0.6,0.6,0.44l0.879-0.44C-146.473,375.056-146.313,375.056-146.193,375.136z"/>
	<path fill="#D8BD60" d="M-140.157,391.325c0.04,0.04,0.08,0.12,0.08,0.2l-0.08,0.52c-0.04,0.2,0.16,0.32,0.32,0.24l0.48-0.24
		c0.08-0.04,0.16-0.04,0.2,0l0.48,0.24c0.16,0.08,0.36-0.04,0.32-0.24l-0.08-0.52c0-0.08,0-0.16,0.08-0.2l0.36-0.36
		c0.12-0.12,0.08-0.36-0.12-0.4l-0.52-0.08c-0.08,0-0.12-0.04-0.16-0.12l-0.24-0.48c-0.08-0.16-0.32-0.16-0.4,0l-0.24,0.48
		c-0.04,0.08-0.08,0.12-0.16,0.12l-0.52,0.08c-0.2,0.04-0.24,0.24-0.12,0.4L-140.157,391.325z"/>
	<path fill="#B8A252" d="M-147.713,403.158l-0.52-0.08c-0.08,0-0.12-0.04-0.16-0.12l-0.24-0.48c-0.08-0.16-0.32-0.16-0.4,0
		l-0.24,0.48l-0.04,0.04c0.32,0.04,0.6,0.12,0.919,0.16l0.799,0.08C-147.633,403.198-147.673,403.198-147.713,403.158z"/>
	<path fill="#B8A252" d="M-149.311,402.998c-0.04,0.04-0.08,0.08-0.16,0.08l-0.52,0.08c-0.2,0.04-0.24,0.24-0.12,0.4l0.36,0.36
		c0.04,0.04,0.08,0.12,0.08,0.2l-0.08,0.52c-0.04,0.2,0.16,0.32,0.32,0.24l0.48-0.24c0.08-0.04,0.16-0.04,0.2,0l0.48,0.24
		c0.16,0.08,0.36-0.04,0.32-0.24l-0.08-0.52c0-0.08,0-0.16,0.08-0.2l0.36-0.36c0.08-0.08,0.08-0.2,0-0.28l-0.799-0.08
		C-148.712,403.118-148.992,403.078-149.311,402.998z"/>
	<path fill="#D8BD60" d="M-124.008,407.955l-0.52-0.08c-0.08,0-0.12-0.04-0.16-0.12l-0.24-0.48c-0.08-0.16-0.32-0.16-0.4,0
		l-0.24,0.48c-0.04,0.08-0.08,0.12-0.16,0.12l-0.52,0.08c-0.2,0.04-0.24,0.24-0.12,0.4l0.36,0.36c0.04,0.04,0.08,0.12,0.08,0.2
		l-0.08,0.52c-0.04,0.2,0.16,0.32,0.32,0.24l0.48-0.24c0.08-0.04,0.16-0.04,0.2,0l0.48,0.24c0.16,0.08,0.36-0.04,0.32-0.24
		l-0.08-0.52c0-0.08,0-0.16,0.08-0.2l0.36-0.36C-123.768,408.195-123.808,407.995-124.008,407.955z"/>
	<path fill="#FFE071" d="M-130.443,385.329c-0.2,0.04-0.24,0.24-0.12,0.4l0.36,0.36c0.04,0.04,0.08,0.12,0.08,0.2l-0.08,0.52
		c-0.04,0.2,0.16,0.32,0.32,0.24l0.48-0.24c0.08-0.04,0.16-0.04,0.2,0l0.48,0.24c0.16,0.08,0.36-0.04,0.32-0.24l-0.08-0.52
		c0-0.08,0-0.16,0.08-0.2l0.36-0.36c0.12-0.12,0.08-0.36-0.12-0.4l-0.56-0.08c-0.08,0-0.12-0.04-0.16-0.12l-0.24-0.48
		c-0.08-0.16-0.32-0.16-0.4,0l-0.24,0.48c-0.04,0.08-0.08,0.12-0.16,0.12L-130.443,385.329z"/>
</g>
<path fill="#313C62" d="M-113.854,404.477c0.12,0.36,0.799,4.117,0.2,4.477c-0.16,0.08-0.36,0.2-0.56,0.28
	c-0.04,0.04-0.12,0.04-0.16,0.08c-0.16,0.08-0.28,0.12-0.44,0.2c-0.08,0.04-0.12,0.04-0.2,0.08c-0.2,0.08-0.4,0.16-0.6,0.24h-0.04
	c-0.2,0.08-0.44,0.16-0.68,0.24c-0.08,0.04-0.12,0.04-0.2,0.08c-0.16,0.04-0.36,0.12-0.52,0.16c-0.08,0.04-0.12,0.04-0.2,0.08
	c-0.24,0.08-0.44,0.12-0.68,0.2h-0.04c-0.24,0.08-0.52,0.12-0.76,0.2c-0.04,0-0.12,0.04-0.16,0.04c-0.2,0.04-0.44,0.08-0.64,0.16
	c-0.08,0-0.12,0.04-0.2,0.04c-0.24,0.04-0.52,0.12-0.799,0.16h-0.04c-0.28,0.04-0.6,0.12-0.879,0.16c-0.04,0-0.08,0-0.12,0.04
	c-0.24,0.04-0.52,0.08-0.76,0.12c-0.04,0-0.12,0-0.16,0.04c-0.28,0.04-0.6,0.08-0.879,0.12l0,0c-0.32,0.04-0.64,0.08-0.959,0.12
	c-0.04,0-0.04,0-0.08,0c-0.28,0.04-0.6,0.08-0.879,0.08c-0.04,0-0.08,0-0.12,0c-0.64,0.04-1.319,0.12-1.959,0.16l0,0
	c-11.033,0.68-23.785-1.279-23.785-4.757c1.079,9.954,34.818,12.592,62.001,4.157C-71.761,405.996-94.866,404.717-113.854,404.477z"
	/>
<path fill="#293154" d="M-113.654,408.954c-0.16,0.08-0.36,0.2-0.56,0.28c-0.04,0.04-0.12,0.04-0.16,0.08
	c-0.16,0.08-0.28,0.12-0.44,0.2c-0.08,0.04-0.12,0.04-0.2,0.08c-0.2,0.08-0.4,0.16-0.6,0.24h-0.04c-0.2,0.08-0.44,0.16-0.68,0.24
	c-0.08,0.04-0.12,0.04-0.2,0.08c-0.16,0.04-0.36,0.12-0.52,0.16c-0.08,0.04-0.12,0.04-0.2,0.08c-0.24,0.08-0.44,0.12-0.68,0.2h-0.04
	c-0.24,0.08-0.52,0.12-0.76,0.2c-0.04,0-0.12,0.04-0.16,0.04c-0.2,0.04-0.44,0.08-0.64,0.16c-0.08,0-0.12,0.04-0.2,0.04
	c-0.24,0.04-0.52,0.12-0.799,0.16h-0.04c-0.28,0.04-0.6,0.12-0.879,0.16c-0.04,0-0.08,0-0.12,0.04c-0.24,0.04-0.52,0.08-0.76,0.12
	c-0.04,0-0.12,0-0.16,0.04c-0.28,0.04-0.6,0.08-0.879,0.12l0,0c-0.32,0.04-0.64,0.08-0.959,0.12c-0.04,0-0.04,0-0.08,0
	c-0.28,0.04-0.6,0.08-0.879,0.08c-0.04,0-0.08,0-0.12,0c-0.64,0.04-1.319,0.12-1.959,0.16l0,0
	c-11.033,0.68-23.785-1.279-23.785-4.757c1.079,9.954,34.818,12.592,62.001,4.157C-71.761,405.996-113.015,408.634-113.654,408.954z
	"/>
<path fill="#60717E" d="M-85.112,408.235c-1.199,0.919-6.076,2.758-14.071,3.997c3.158-0.76,8.035-2.199,11.553-3.558
	c1.039-0.4,2.079-1.039,2.438-0.999C-84.872,407.675-84.832,408.035-85.112,408.235z"/>
</svg>
