  
<!-- Generator: Adobe Illustrator 17.0.2, SVG Export Plug-In . SVG Version: 6.00 Build 0)  -->
<!DOCTYPE svg PUBLIC "-//W3C//DTD SVG 1.1//EN" "http://www.w3.org/Graphics/SVG/1.1/DTD/svg11.dtd">
<svg version="1.1" id="Calque_1" xmlns="http://www.w3.org/2000/svg" xmlns:xlink="http://www.w3.org/1999/xlink" x="0px" y="0px"
	 width="106px" height="67.333px" viewBox="-67.333 353.333 106 67.333" enable-background="new -67.333 353.333 106 67.333"
	 xml:space="preserve">
<g>
	<path fill="#E07000" d="M-37.587,395.538c0,0,3.368-20.773,7.366-24.743s10.257-7.318,13.908-7.774s4.146,0.004,8.158,1.448
		s10.27,3.726,13.225,9.052c2.955,5.326,3.303,10.126,4.52,13.585c1.217,3.459,1.57,8.606,1.57,8.606L-37.587,395.538z"/>
	<path fill="#CE6302" d="M-10.753,366.012c-0.016-0.07-0.037-0.155-0.059-0.252c-0.024-0.097-0.044-0.21-0.094-0.325
		c-0.043-0.117-0.091-0.243-0.146-0.376c-0.047-0.136-0.132-0.267-0.207-0.407c-0.073-0.141-0.162-0.282-0.27-0.417l-0.156-0.207
		l-0.182-0.194c-0.118-0.132-0.264-0.244-0.403-0.356c-0.137-0.114-0.302-0.198-0.45-0.287c-0.16-0.076-0.312-0.15-0.471-0.195
		c-0.152-0.058-0.308-0.082-0.446-0.112c-0.244-0.037-0.452-0.035-0.61-0.026c0.014-0.003,0.021-0.004,0.021-0.004
		s-0.101-0.002-0.271,0.011c0,0-0.003,0-0.003,0s0.001,0,0.001,0c-0.016,0.001-0.03,0.002-0.047,0.004
		c-0.203,0.02-0.496,0.05-0.837,0.127c-0.172,0.035-0.356,0.082-0.547,0.141c-0.194,0.052-0.389,0.13-0.595,0.203
		c-0.196,0.091-0.411,0.165-0.607,0.277c-0.2,0.106-0.403,0.213-0.591,0.342c-0.194,0.12-0.372,0.259-0.543,0.399
		c-0.181,0.13-0.322,0.293-0.471,0.437c-0.156,0.14-0.264,0.305-0.383,0.449c-0.123,0.142-0.211,0.292-0.29,0.431
		c-0.08,0.138-0.161,0.261-0.208,0.379c-0.049,0.118-0.091,0.22-0.126,0.305c-0.068,0.169-0.102,0.266-0.102,0.266
		s0.063-0.088,0.164-0.242c0.05-0.077,0.11-0.17,0.179-0.277c0.068-0.107,0.172-0.215,0.264-0.341
		c0.095-0.125,0.199-0.259,0.329-0.387c0.128-0.13,0.247-0.277,0.402-0.405c0.15-0.132,0.296-0.274,0.469-0.398
		c0.165-0.131,0.336-0.26,0.523-0.371c0.176-0.125,0.368-0.23,0.556-0.334c0.186-0.108,0.383-0.194,0.567-0.288
		c0.194-0.076,0.373-0.169,0.556-0.232c0.18-0.069,0.351-0.133,0.512-0.185c0.321-0.107,0.529-0.151,0.725-0.197
		c0.023-0.006,0.059-0.009,0.08-0.014c0.013,0.001,0.057-0.01,0.072-0.009c0.019,0.015,0.163,0.119,0.197,0.181
		c0.034,0.061,0.065,0.134,0.086,0.216c0.026,0.081,0.035,0.173,0.049,0.269c0.007,0.097,0.009,0.201,0.008,0.308
		c-0.008,0.108-0.008,0.218-0.026,0.332c-0.015,0.114-0.022,0.229-0.05,0.344c-0.022,0.115-0.033,0.232-0.062,0.345
		c-0.029,0.113-0.047,0.226-0.071,0.335c-0.051,0.217-0.1,0.421-0.135,0.598c-0.089,0.35-0.12,0.595-0.12,0.595
		s0.141-0.21,0.311-0.543c0.041-0.084,0.08-0.176,0.12-0.274c0.039-0.099,0.088-0.201,0.121-0.311
		c0.073-0.22,0.138-0.457,0.179-0.701c0.024-0.121,0.029-0.246,0.04-0.367c0.016-0.121-0.002-0.244-0.004-0.36
		c-0.007-0.117-0.032-0.231-0.058-0.337c-0.031-0.107-0.066-0.205-0.117-0.292c-0.044-0.088-0.103-0.163-0.163-0.221
		c-0.057-0.061-0.079-0.086-0.132-0.116c-0.003-0.001,0.127-0.001,0.235,0.024c0.108,0.018,0.225,0.057,0.353,0.088
		c0.124,0.046,0.26,0.086,0.394,0.151c0.139,0.054,0.268,0.139,0.409,0.212c0.13,0.089,0.268,0.176,0.393,0.282
		c0.125,0.106,0.255,0.209,0.362,0.335l0.173,0.176l0.15,0.191c0.049,0.064,0.099,0.126,0.15,0.187
		c0.046,0.064,0.087,0.13,0.129,0.194c0.078,0.131,0.178,0.246,0.239,0.372c0.067,0.123,0.134,0.239,0.196,0.346
		c0.065,0.106,0.11,0.209,0.157,0.298c0.045,0.09,0.085,0.169,0.117,0.233c0.067,0.129,0.109,0.203,0.109,0.203
		S-10.721,366.152-10.753,366.012z"/>
	<path opacity="0.5" fill="#CE6302" d="M-27.19,368.204c0,0-2.133,4.074-1.814,8.665c0.327,4.707,4.369,7.448,8.866,8.522
		c2.868,0.685,6.316,1.42,11.764,9.333c0.135,0.197-27.236-0.659-29.148,0.761c-0.532,0.395,2.666-15.268,5.563-21.862
		C-30.742,370.851-27.555,368.347-27.19,368.204z"/>
	<path fill="#A54E00" d="M12.72,413.795c0.172,0.31-4.319-1.021-10.083-0.812c-4.775,0.173-9.645,0.304-16.457,0.304
		c-15.037,0-25.8-0.36-25.8-0.99s12.19-1.141,27.227-1.141S10.749,410.245,12.72,413.795z"/>
	<path fill="#CE6302" d="M11.508,395.859c0,0-0.092-0.426-4.952-0.832c-4.014-0.336-22.638-1.55-30.692-1.192
		s-10.083,0.989-13.451,1.817C-40.044,396.257,12.349,396.913,11.508,395.859z"/>
	<path fill="#E07000" d="M14.11,397.259c0,0-0.348-1.522-4.346-1.674s-19.471-1.208-27.468-0.908s-19.123-0.205-20.688,1.264
		s-1.043,3.905-1.565,6.339c-0.522,2.435-3.303,11.007,1.043,10.145c4.346-0.862,22.6,0.303,26.946-0.128s17.732-1.7,20.862,0
		c3.129,1.7,6.258,2.408,5.911,0c-0.348-2.408-1.912-8.647-1.217-10.626C14.284,399.694,14.945,398.141,14.11,397.259z"/>
	<path opacity="0.2" fill="#CE6302" d="M-38.391,395.941c-1.565,1.47-1.043,3.905-1.565,6.339
		c-0.522,2.435-3.303,11.007,1.043,10.145c4.346-0.862,22.6,0.303,26.946-0.128s8.229-0.532,15.183-0.734
		c3.681-0.107-5.357-1.997-8.113-1.725C-48.011,414.1-36.827,394.472-38.391,395.941z"/>
	<g>
		<path fill="#C6E1F7" d="M-0.667,398.454c-2.78,0-5.042,1.98-5.042,4.413s2.262,4.413,5.042,4.413s5.042-1.98,5.042-4.413
			S2.113,398.454-0.667,398.454z"/>
	</g>
	<g>
		<path fill="#2F5D8C" d="M-0.667,407.889c-3.163,0-5.737-2.253-5.737-5.022c0-2.769,2.574-5.022,5.737-5.022
			s5.737,2.253,5.737,5.022C5.07,405.636,2.497,407.889-0.667,407.889z M-0.667,398.454c-2.78,0-5.042,1.98-5.042,4.413
			s2.262,4.413,5.042,4.413s5.042-1.98,5.042-4.413S2.113,398.454-0.667,398.454z"/>
	</g>
	<ellipse fill="#2F5D8C" cx="-0.667" cy="402.715" rx="3.102" ry="2.715"/>
	<path fill="#CE6302" d="M-33.06,412.02c0,0,0.02-0.143,0.055-0.395c0.036-0.25,0.072-0.609,0.109-1.039
		c0.04-0.429,0.069-0.931,0.091-1.467c0.011-0.536,0.029-1.108-0.001-1.679c-0.01-0.571-0.059-1.142-0.114-1.675
		c-0.023-0.268-0.063-0.524-0.096-0.769c-0.031-0.245-0.067-0.475-0.109-0.687c-0.037-0.213-0.072-0.409-0.102-0.582
		c-0.039-0.172-0.073-0.322-0.1-0.446c-0.054-0.248-0.08-0.392-0.08-0.392s0.061,0.134,0.158,0.373
		c0.048,0.12,0.106,0.265,0.173,0.432c0.063,0.168,0.122,0.361,0.186,0.572c0.032,0.105,0.066,0.215,0.1,0.329
		c0.026,0.115,0.054,0.234,0.082,0.357c0.054,0.245,0.121,0.503,0.154,0.775c0.039,0.271,0.093,0.549,0.109,0.836
		c0.026,0.286,0.051,0.576,0.057,0.867c0.011,0.291,0.008,0.582,0,0.868c0.001,0.287-0.034,0.567-0.05,0.839
		c-0.053,0.543-0.127,1.048-0.221,1.476c-0.085,0.429-0.195,0.78-0.266,1.025C-33.003,411.884-33.06,412.02-33.06,412.02z"/>
	<path fill="#CE6302" d="M-18.341,412.527c0,0,0.011-0.144,0.031-0.396c0.028-0.25,0.037-0.609,0.063-1.038
		c0.018-0.214,0.017-0.447,0.026-0.693c0.008-0.245,0.016-0.504,0.024-0.772c-0.002-0.268-0.003-0.544-0.005-0.825
		c0.006-0.281,0.005-0.566-0.02-0.851c-0.012-0.285-0.024-0.57-0.036-0.85c-0.005-0.281-0.038-0.556-0.067-0.822
		c-0.025-0.267-0.05-0.525-0.073-0.769c-0.011-0.123-0.021-0.242-0.031-0.357c-0.019-0.114-0.037-0.225-0.055-0.33
		c-0.074-0.424-0.117-0.781-0.156-1.031c-0.035-0.25-0.049-0.395-0.049-0.395s0.05,0.137,0.128,0.379
		c0.074,0.243,0.192,0.59,0.313,1.011c0.03,0.105,0.062,0.215,0.095,0.329c0.02,0.115,0.042,0.235,0.063,0.357
		c0.041,0.246,0.085,0.505,0.13,0.774c0.039,0.269,0.098,0.546,0.103,0.832c0.017,0.285,0.034,0.574,0.051,0.863
		c0.019,0.289,0.016,0.578,0.005,0.863c-0.011,0.285-0.021,0.565-0.031,0.836c-0.016,0.271-0.054,0.531-0.081,0.778
		c-0.027,0.247-0.054,0.481-0.098,0.694C-18.156,411.971-18.341,412.527-18.341,412.527z"/>
	<path fill="#CE6302" d="M-28.076,412.273c0,0,0.012-0.021,0.035-0.061c0.016-0.041,0.04-0.101,0.071-0.177
		c0.02-0.079,0.045-0.174,0.074-0.284c0.03-0.107,0.036-0.237,0.062-0.372c0.011-0.068,0.022-0.138,0.034-0.211
		c0.005-0.074,0.01-0.151,0.016-0.23c0.011-0.158,0.021-0.324,0.04-0.494c0.003-0.173,0.005-0.351,0.008-0.532
		c0.005-0.181,0.009-0.365,0.014-0.549c-0.009-0.369-0.019-0.739-0.013-1.086c0.007-0.347-0.023-0.672-0.018-0.952
		c-0.006-0.559,0.026-0.937,0.026-0.937s0.107,0.364,0.213,0.92c0.027,0.139,0.056,0.289,0.081,0.449
		c0.027,0.16,0.058,0.328,0.065,0.504c0.03,0.351,0.046,0.727,0.063,1.103c-0.017,0.377-0.036,0.755-0.074,1.107
		c-0.029,0.176-0.066,0.346-0.098,0.506c-0.017,0.08-0.033,0.158-0.049,0.233c-0.026,0.074-0.051,0.146-0.075,0.214
		c-0.05,0.137-0.086,0.262-0.143,0.369c-0.058,0.105-0.108,0.196-0.15,0.271c-0.054,0.072-0.1,0.124-0.128,0.16
		C-28.058,412.257-28.076,412.273-28.076,412.273z"/>
	<path fill="#CE6302" d="M6.722,411.716c0,0,0.031-0.283,0.076-0.708c0.016-0.104,0.016-0.22,0.031-0.339
		c0.009-0.12,0.026-0.246,0.034-0.377c0.008-0.131,0.011-0.266,0.025-0.403c0.017-0.136,0.019-0.276,0.017-0.415
		c0.006-0.139,0.011-0.278,0.016-0.415c0.01-0.137-0.003-0.271-0.003-0.402c-0.005-0.13-0.002-0.257,0-0.378
		c0.005-0.121-0.003-0.234-0.011-0.339c-0.029-0.42-0.012-0.713-0.012-0.713s0.121,0.266,0.25,0.685
		c0.034,0.104,0.07,0.218,0.083,0.341c0.02,0.122,0.042,0.252,0.057,0.387c0.011,0.135,0.048,0.274,0.039,0.416
		c-0.001,0.142-0.002,0.286-0.003,0.431c-0.004,0.144-0.011,0.289-0.033,0.43c-0.016,0.141-0.042,0.28-0.062,0.413
		c-0.018,0.134-0.062,0.261-0.092,0.382c-0.032,0.121-0.061,0.234-0.103,0.337C6.889,411.463,6.722,411.716,6.722,411.716z"/>
	<path fill="#CE6302" d="M-12.054,410.879c0,0-0.023-0.42-0.047-1.044c-0.011-0.311-0.024-0.674-0.037-1.063
		c0.001-0.194-0.021-0.394-0.027-0.598c-0.008-0.203-0.017-0.41-0.025-0.617c-0.015-0.206-0.03-0.412-0.044-0.615
		c-0.02-0.202-0.015-0.404-0.04-0.596c-0.026-0.192-0.044-0.378-0.062-0.555c-0.017-0.177-0.034-0.345-0.049-0.5
		c-0.116-0.608-0.16-1.032-0.16-1.032s0.178,0.386,0.395,0.993c0.085,0.306,0.161,0.669,0.241,1.058
		c0.036,0.195,0.056,0.398,0.077,0.604c0.02,0.206,0.039,0.416,0.059,0.625c0.004,0.42,0.026,0.84,0.002,1.233
		c-0.021,0.393-0.044,0.759-0.091,1.071C-11.938,410.469-12.054,410.879-12.054,410.879z"/>
	<path fill="#CE6302" d="M12.372,413.592c0,0,0.001-0.122,0.004-0.336c0.002-0.106,0.005-0.235,0.007-0.384
		c-0.002-0.148-0.006-0.316-0.003-0.497c0.011-0.363-0.012-0.788-0.007-1.24c0.002-0.226-0.023-0.46-0.026-0.697
		c-0.011-0.237-0.006-0.479-0.031-0.719c-0.019-0.24-0.038-0.481-0.057-0.717c-0.021-0.236-0.023-0.471-0.066-0.693
		c-0.03-0.224-0.059-0.441-0.087-0.647c-0.033-0.205-0.034-0.405-0.083-0.58c-0.081-0.354-0.131-0.655-0.174-0.865
		c-0.039-0.211-0.057-0.334-0.057-0.334s0.052,0.113,0.135,0.314c0.078,0.202,0.203,0.489,0.331,0.841
		c0.076,0.174,0.104,0.372,0.156,0.578c0.046,0.207,0.094,0.426,0.144,0.652c0.054,0.226,0.082,0.463,0.103,0.703
		c0.024,0.241,0.048,0.485,0.072,0.73c0.02,0.245,0.01,0.49,0.017,0.731c0.001,0.241,0.003,0.479-0.01,0.708
		c-0.035,0.458-0.057,0.886-0.121,1.25c-0.048,0.364-0.117,0.665-0.163,0.876C12.411,413.475,12.372,413.592,12.372,413.592z"/>
	<path fill="#CE6302" d="M-9.069,411.969c0,0,0.015-0.112,0.027-0.304c0.011-0.095,0.01-0.213,0.015-0.346
		c0.003-0.134,0.014-0.283,0.007-0.448c-0.003-0.165-0.007-0.342-0.005-0.529c-0.01-0.188-0.02-0.386-0.031-0.59
		c-0.009-0.409-0.061-0.845-0.097-1.28c-0.011-0.218-0.031-0.436-0.064-0.65c-0.031-0.214-0.049-0.426-0.073-0.63
		c-0.027-0.204-0.035-0.404-0.062-0.591c-0.03-0.187-0.053-0.364-0.073-0.528c-0.086-0.656-0.107-1.102-0.107-1.102
		s0.159,0.421,0.343,1.067c0.097,0.322,0.199,0.7,0.264,1.112c0.035,0.206,0.078,0.418,0.109,0.634
		c0.038,0.216,0.064,0.437,0.08,0.659c0.015,0.222,0.03,0.444,0.045,0.662c0.023,0.218,0.005,0.435,0.003,0.643
		c-0.004,0.209-0.01,0.41-0.025,0.601c-0.02,0.191-0.045,0.371-0.068,0.537c-0.016,0.166-0.058,0.317-0.087,0.45
		c-0.03,0.133-0.058,0.249-0.092,0.343C-9.021,411.867-9.069,411.969-9.069,411.969z"/>
	<path fill="#CE6302" d="M3.795,395.129c0,0,0.012-0.072,0.034-0.207c0.012-0.135,0.029-0.334,0.052-0.586
		c0.005-0.253,0.011-0.561,0.018-0.914c0.007-0.352-0.031-0.751-0.038-1.185c-0.008-0.217-0.015-0.442-0.023-0.676
		c-0.019-0.234-0.038-0.475-0.058-0.724c-0.038-0.496-0.079-1.02-0.121-1.561c-0.047-0.541-0.13-1.099-0.186-1.667
		c-0.061-0.568-0.124-1.144-0.186-1.721c-0.159-1.151-0.319-2.302-0.451-3.383c-0.064-0.541-0.138-1.063-0.216-1.557
		c-0.072-0.495-0.139-0.963-0.202-1.394c-0.124-0.864-0.204-1.588-0.271-2.093c-0.057-0.507-0.09-0.796-0.09-0.796
		s0.069,0.284,0.19,0.782c0.111,0.499,0.285,1.21,0.467,2.068c0.09,0.429,0.188,0.894,0.291,1.385
		c0.104,0.492,0.209,1.011,0.286,1.552c0.176,1.08,0.344,2.234,0.514,3.388c0.057,0.58,0.113,1.16,0.169,1.732
		c0.054,0.571,0.108,1.133,0.141,1.678c0.018,0.546,0.035,1.074,0.051,1.575c0.006,0.25,0.012,0.494,0.018,0.729
		c-0.009,0.236-0.018,0.464-0.026,0.683c-0.02,0.437-0.024,0.838-0.067,1.192c-0.043,0.354-0.08,0.662-0.11,0.915
		c-0.047,0.254-0.097,0.45-0.125,0.583C3.817,395.059,3.795,395.129,3.795,395.129z"/>
</g>
</svg>
