<?xml version="1.0" encoding="utf-8"?>
<!-- Generator: Adobe Illustrator 17.0.2, SVG Export Plug-In . SVG Version: 6.00 Build 0)  -->
<!DOCTYPE svg PUBLIC "-//W3C//DTD SVG 1.1//EN" "http://www.w3.org/Graphics/SVG/1.1/DTD/svg11.dtd">
<svg version="1.1" xmlns="http://www.w3.org/2000/svg" xmlns:xlink="http://www.w3.org/1999/xlink" x="0px" y="0px"
	 width="1759.5px" height="821.603px" viewBox="0 0 1759.5 821.603" enable-background="new 0 0 1759.5 821.603"
	 xml:space="preserve">
<g id="fond">
</g>
<g id="Calque_1">
</g>
<g id="sol">
</g>
<g id="lumière">
</g>
<g id="feuilles">
</g>
<g id="masque">
	<path display="none" fill="#B42238" d="M593.396,123.067c14.853,0.247,29.621-3.273,42.431-10.794
		c22.303-13.094,73.663-18.312,127.721-1.722c84.453,25.917,137.773-7.71,207.264,2.386
		c69.113,10.041,118.857-15.458,168.754-28.388c31.609-8.191,123.406-23.684,229.671-20.134
		c139.709,4.666,266.048,32.681,390.263,20.134c194.84-19.68,89.54-108.22,89.54-108.22L686.073-27.116L-79.453-37.717
		l-78.687,148.268l209.442,13.72c55.113,3.61,110.448,1.754,165.195-5.543l64.933-8.654c36.237-4.829,72.882-5.818,109.326-2.951
		L593.396,123.067z"/>
	<path display="none" opacity="0.3" fill="#B42238" d="M593.396,131.066c14.853,0.247,29.621-3.273,42.431-10.794
		c22.303-13.094,73.663-18.312,127.721-1.722c84.453,25.917,137.773-7.71,207.264,2.386
		c69.113,10.041,118.857-15.458,168.754-28.388c31.609-8.191,123.406-23.684,229.671-20.134
		c139.709,4.666,266.048,32.681,390.263,20.134c194.84-19.68,89.54-108.22,89.54-108.22L686.073-19.117L-79.453-29.719
		l-78.687,148.268l209.442,13.72c55.113,3.61,110.448,1.754,165.195-5.543l64.933-8.654c36.237-4.829,72.882-5.818,109.326-2.951
		L593.396,131.066z"/>
	<path display="none" opacity="0.3" fill="#B42238" d="M593.396,142.47c14.853,0.247,29.621-3.273,42.431-10.794
		c22.303-13.094,73.663-18.312,127.721-1.722c84.453,25.917,137.773-7.71,207.264,2.386
		c69.113,10.041,118.857-15.458,168.754-28.388c31.609-8.191,123.406-23.684,229.671-20.134
		c139.709,4.666,266.048,32.681,390.263,20.134c194.84-19.68,89.54-108.22,89.54-108.22L686.073-7.713L-79.453-18.315
		l-78.687,148.268l209.442,13.72c55.113,3.61,110.448,1.754,165.195-5.543l64.933-8.654c36.237-4.829,72.882-5.818,109.326-2.951
		L593.396,142.47z"/>
	<path fill="#B42238" d="M544.875,701.922c31.542,1.007,62.968,4.38,94.01,10.059c52.33,9.574,100.592,14.103,152.09,14.103
		c64.709,0,125.453-12.056,189.117-9.635c50.42,1.917,239.38,13.825,346.917,13.825c84.201,0,184.362-22.729,276.894-22.729
		c145.54,0,270.354,22.729,270.354,22.729l-27.664,144.953l-706.964,9.224l-437.202,22.137l-192.423-59.6l-538.276-22.692
		l-12.714-141.079l107.142,11.666c97.243,10.588,195.091,14.594,292.875,11.989L544.875,701.922z"/>
	<path opacity="0.3" fill="#B42238" d="M544.875,694.124c31.542,1.007,62.968,4.38,94.01,10.059
		c52.33,9.574,100.592,14.103,152.09,14.103c64.709,0,125.453-12.056,189.117-9.635c50.42,1.917,239.38,13.825,346.917,13.825
		c84.201,0,184.362-22.729,276.894-22.729c145.54,0,270.354,22.729,270.354,22.729l-27.664,144.953l-706.964,9.224l-437.202,22.137
		l-192.423-59.6l-538.276-22.692l-12.714-141.079l107.142,11.666c97.243,10.588,195.091,14.594,292.875,11.989L544.875,694.124z"/>
	<path opacity="0.3" fill="#B42238" d="M544.875,683.242c31.542,1.007,62.968,4.38,94.01,10.059
		c52.33,9.574,100.592,14.103,152.09,14.103c64.709,0,125.453-12.056,189.117-9.635c50.42,1.917,239.38,13.825,346.917,13.825
		c84.201,0,184.362-22.729,276.894-22.729c145.54,0,270.354,22.729,270.354,22.729l-27.664,144.953l-706.964,9.224l-437.202,22.137
		l-192.423-59.6l-538.276-22.692l-12.714-141.079l107.142,11.666c97.243,10.588,195.091,14.594,292.875,11.989L544.875,683.242z"/>
</g>
</svg>
