<svg xmlns="http://www.w3.org/2000/svg" width="330" height="360" viewBox="0 0 330 360">
  <defs>
    <style>
      .clsmarcel-1 {
        fill: #d9e5ec;
      }

      .clsmarcel-2 {
        fill: #b6cbd8;
      }
    </style>
  </defs>
  <title>Accessoires</title>
  <g id="mariniere">
    <g>
      <g>
        <path class="clsmarcel-1" d="M300.94,0h-9V53.92h0a83.89,83.89,0,0,1-7.37,34.37,84.75,84.75,0,0,1-30,50.38c-11.19,9-23.2,17.73-34.83,25.81-17.06,11.85-30.55,16-57.75,16h-.93c-25.42,0-42.58-5.05-60.07-18.06-10.45-7.78-21-16.13-30.62-24.57A84.38,84.38,0,0,1,43.52,91.35a84.19,84.19,0,0,1-8-35.89V0h-9A72.71,72.71,0,0,0,0,5V81.86a113.74,113.74,0,0,0,7.07,39.47l4.47,12.11a114,114,0,0,1,7.06,39.47L19.2,184C24.58,227.28,35,277.37,75,302.33,109.72,324,213.62,326.1,243.06,263.25c.42-.91.84-1.82,1.25-2.74,0,41.06-28.56,75.55-67.22,85.33-6.58,1.62-11.73,2.18-15.46,3.28,12.1,5.89,23.73,9.46,34.3,10.18,54-2.19,100-9.45,100-20.43,0-2.48,7.08-107.94,6.25-157.57A113.91,113.91,0,0,1,315,126.94h0a114.08,114.08,0,0,0,12.81-52.47V5.12A72.52,72.52,0,0,0,300.94,0Z"/>
        <path class="clsmarcel-2" d="M177.09,345.84c38.66-9.78,67.22-44.27,67.22-85.33-.41.92-.83,1.83-1.25,2.74C213.62,326.1,109.72,324,75,302.33c-40-25-50.42-75-55.8-118.36l8.09,150.25c0,21.11,92.25,28.18,168.64,25.08-10.57-.72-22.2-4.29-34.3-10.18C165.36,348,170.51,347.46,177.09,345.84Z"/>
        <path class="clsmarcel-2" d="M70.4,137.84c9.67,8.44,20.17,16.79,30.62,24.57,17.49,13,34.65,18.06,60.07,18.06H162c27.2,0,40.69-4.14,57.75-16,11.63-8.08,23.64-16.86,34.83-25.81a84.75,84.75,0,0,0,30-50.38,84.05,84.05,0,0,1-25.75,32.47c-11.73,9-24.34,17.72-36.54,25.8-17.89,11.85-32,16-60.58,16h-1c-26.67,0-44.67-5.05-63-18.07-11-7.78-22-16.12-32.12-24.57A83.25,83.25,0,0,1,43.52,91.35,84.38,84.38,0,0,0,70.4,137.84Z"/>
      </g>
      <ellipse class="clsmarcel-2" cx="41.93" cy="139.16" rx="5.67" ry="12.99"/>
      <ellipse class="clsmarcel-2" cx="55.86" cy="159.26" rx="5.67" ry="3.54" transform="translate(-112.25 174.12) rotate(-75.72)"/>
      <ellipse class="clsmarcel-2" cx="41.46" cy="175.82" rx="8.03" ry="5.67" transform="translate(-139.11 181.02) rotate(-78.38)"/>
      <ellipse class="clsmarcel-2" cx="275.45" cy="291.79" rx="12.99" ry="5.67" transform="translate(-104.26 421.54) rotate(-65.52)"/>
      <ellipse class="clsmarcel-2" cx="254.44" cy="304.3" rx="5.67" ry="3.54" transform="translate(-90.13 500.79) rotate(-79.79)"/>
      <ellipse class="clsmarcel-2" cx="260.68" cy="325.34" rx="8.03" ry="5.67" transform="translate(-114.54 507.04) rotate(-77.14)"/>
    </g>
  </g>
</svg>
