<svg xmlns="http://www.w3.org/2000/svg" width="420" height="360" viewBox="0 0 420 360">
  <defs>
    <style>
      .clsmariniere-1, .clsmariniere-3 {
        fill: #edebdd;
      }

      .clsmariniere-2, .clsmariniere-4 {
        fill: #1c1632;
      }

      .clsmariniere-3, .clsmariniere-4, .clsmariniere-6 {
        opacity: 0.5;
      }

      .clsmariniere-5 {
        fill: none;
      }
    </style>
  </defs>
  <title>Accessoires</title>
  <g id="mariniere">
    <g>
      <path class="clsmariniere-1" d="M397.26,19.58A71.71,71.71,0,0,0,347.93,0h-9V15.24A167.3,167.3,0,0,0,397.26,19.58Z"/>
      <path class="clsmariniere-1" d="M338.93,235.52v15.42a32.55,32.55,0,0,0,.28,4.37,164.85,164.85,0,0,0,80.75.25c-.06-3.5-.17-10.57-.32-20.05A163.49,163.49,0,0,1,338.93,235.52Z"/>
      <path class="clsmariniere-1" d="M338.93,115.52v19.72a165,165,0,0,0,79.18.77c-.1-6.83-.2-13.56-.29-20.06A163.36,163.36,0,0,1,338.93,115.52Z"/>
      <path class="clsmariniere-1" d="M338.93,75.52V95.24a165.06,165.06,0,0,0,78.61.9c-.1-7.32-.19-14.08-.26-20.06A163.38,163.38,0,0,1,338.93,75.52Z"/>
      <path class="clsmariniere-1" d="M338.93,195.52v19.72c27.09,6.76,53.89,7,80.4.48-.1-6.27-.2-13-.31-20.05A163.61,163.61,0,0,1,338.93,195.52Z"/>
      <path class="clsmariniere-1" d="M338.93,155.52v19.72a165,165,0,0,0,79.78.63c-.1-6.6-.2-13.32-.3-20.05A163.56,163.56,0,0,1,338.93,155.52Z"/>
      <path class="clsmariniere-1" d="M338.93,35.52V55.24a165,165,0,0,0,78.13,1c0-.73,0-1.4,0-2a15.89,15.89,0,0,0-.79-5,70.86,70.86,0,0,0-5.18-11.78A163,163,0,0,1,338.93,35.52Z"/>
      <path class="clsmariniere-2" d="M397.26,19.58a167.3,167.3,0,0,1-58.33-4.34V35.52a163,163,0,0,0,72.15,1.9A72.21,72.21,0,0,0,397.26,19.58Z"/>
      <path class="clsmariniere-2" d="M338.93,55.24V75.52a163.38,163.38,0,0,0,78.35.56c-.11-8.36-.18-15.18-.22-19.83A165,165,0,0,1,338.93,55.24Z"/>
      <path class="clsmariniere-2" d="M338.93,95.24v20.28a163.36,163.36,0,0,0,78.89.43c-.1-6.91-.19-13.56-.28-19.81A165.06,165.06,0,0,1,338.93,95.24Z"/>
      <path class="clsmariniere-2" d="M338.93,135.24v20.28a163.56,163.56,0,0,0,79.48.3c-.1-6.63-.2-13.27-.3-19.81A165,165,0,0,1,338.93,135.24Z"/>
      <path class="clsmariniere-2" d="M338.93,175.24v20.28a163.61,163.61,0,0,0,80.09.15c-.1-6.39-.2-13-.31-19.8A165,165,0,0,1,338.93,175.24Z"/>
      <path class="clsmariniere-2" d="M338.93,215.24v20.28a163.49,163.49,0,0,0,80.71,0c-.09-5.79-.2-12.47-.31-19.79C392.82,222.23,366,222,338.93,215.24Z"/>
      <path class="clsmariniere-2" d="M339.21,255.31c2.33,17.43,19.46,13.53,40.25,13.53h0c22.39,0,40.54,3.51,40.54-10.82,0,0,0-.85,0-2.46A164.85,164.85,0,0,1,339.21,255.31Z"/>
    </g>
    <g>
      <path class="clsmariniere-1" d="M2.18,115.73c-.09,6.37-.18,13-.28,19.65a164.61,164.61,0,0,0,79.17-.16V115.08A163.51,163.51,0,0,1,2.18,115.73Z"/>
      <path class="clsmariniere-1" d="M1.6,155.59c-.1,6.59-.2,13.18-.3,19.65a164.73,164.73,0,0,0,79.77,0V155.08A163.54,163.54,0,0,1,1.6,155.59Z"/>
      <path class="clsmariniere-1" d="M81.07,15.22V0h-9A71.74,71.74,0,0,0,23.23,19.11,162.61,162.61,0,0,0,81.07,15.22Z"/>
      <path class="clsmariniere-1" d="M1,195.45c-.11,6.88-.21,13.48-.31,19.63a164.83,164.83,0,0,0,80.39.14V195.08A163.59,163.59,0,0,1,1,195.45Z"/>
      <path class="clsmariniere-1" d="M9,37.21a71.44,71.44,0,0,0-5.29,12,15.89,15.89,0,0,0-.79,5c0,.43,0,.9,0,1.39a164.58,164.58,0,0,0,78.13-.4V35.08A163.49,163.49,0,0,1,9,37.21Z"/>
      <path class="clsmariniere-1" d="M2.73,75.85c-.08,5.87-.17,12.49-.26,19.66a164.51,164.51,0,0,0,78.6-.29V75.08A163.5,163.5,0,0,1,2.73,75.85Z"/>
      <path class="clsmariniere-1" d="M.36,235.29c-.14,9-.25,15.92-.31,19.63a165,165,0,0,0,80.75.37,34.05,34.05,0,0,0,.27-4.35V235.08A163.61,163.61,0,0,1,.36,235.29Z"/>
      <path class="clsmariniere-2" d="M81.07,35.08V15.22a162.61,162.61,0,0,1-57.84,3.89A72.42,72.42,0,0,0,9,37.21,163.49,163.49,0,0,0,81.07,35.08Z"/>
      <path class="clsmariniere-2" d="M2.94,55.62c0,4.61-.11,11.59-.21,20.23a163.5,163.5,0,0,0,78.34-.77V55.22A164.58,164.58,0,0,1,2.94,55.62Z"/>
      <path class="clsmariniere-2" d="M2.47,95.51c-.09,6.36-.19,13.16-.29,20.22a163.51,163.51,0,0,0,78.89-.65V95.22A164.51,164.51,0,0,1,2.47,95.51Z"/>
      <path class="clsmariniere-2" d="M1.9,135.38c-.1,6.67-.2,13.45-.3,20.21a163.54,163.54,0,0,0,79.47-.51V135.22A164.61,164.61,0,0,1,1.9,135.38Z"/>
      <path class="clsmariniere-2" d="M1.3,175.24c-.11,6.91-.21,13.69-.31,20.21a163.59,163.59,0,0,0,80.08-.37V175.22A164.73,164.73,0,0,1,1.3,175.24Z"/>
      <path class="clsmariniere-2" d="M.68,215.08c-.12,7.48-.22,14.3-.32,20.21a163.61,163.61,0,0,0,80.71-.21V215.22A164.83,164.83,0,0,1,.68,215.08Z"/>
      <path class="clsmariniere-2" d="M.05,254.92c0,2,0,3.1,0,3.1,0,14.33,18.15,10.82,40.54,10.82h0c20.8,0,37.94,3.9,40.26-13.55A165,165,0,0,1,.05,254.92Z"/>
      <path class="clsmariniere-3" d="M3,54.23a15.89,15.89,0,0,1,.79-5c9.59-28.6,3.13,219.64,36.8,219.64h0C18.15,268.84,0,272.35,0,258,0,258,2.78,85.46,3,54.23Z"/>
      <path class="clsmariniere-4" d="M70.86,12.52C48.15,7.58,26.68,22.5,23,46.67h0C34.69,27.59,49.23,16.72,70.86,12.52Z"/>
    </g>
    <g>
      <path class="clsmariniere-5" d="M149,142.28l59.76,29.93L261.13,143A948,948,0,0,1,149,142.28Z"/>
      <path class="clsmariniere-1" d="M356.42,94v15.69c.31-12.58.51-20.2.51-20.2l-32.85,18.34C343.91,104.27,356.42,99.61,356.42,94Z"/>
      <path class="clsmariniere-1" d="M261.13,143l-52.39,29.24L149,142.28c-46.93-3.35-83.58-11-84.88-23.69V333.51c0,36.92,287.54,31.94,287.54,4.77,0-30.15,2.92-153,4.42-214C351.91,133.76,311.05,140.31,261.13,143Z"/>
      <path class="clsmariniere-2" d="M356.42,109.68c-.1,4.31-.23,9.2-.36,14.57a4,4,0,0,0,.36-1.6Z"/>
      <path class="clsmariniere-2" d="M149,142.28,64.1,99.76v18.83C65.4,131.32,102.05,138.93,149,142.28Z"/>
      <path class="clsmariniere-2" d="M356.42,94c0,5.62-12.51,10.28-32.34,13.83L261.13,143c49.92-2.66,90.78-9.21,94.93-18.72.13-5.37.26-10.26.36-14.57Z"/>
    </g>
    <path class="clsmariniere-2" d="M352.3,322.65c0,27.17-288.06,32.15-288.06-4.76V289.22c0,36.92,288.06,31.94,288.06,4.77Z"/>
    <path class="clsmariniere-2" d="M352.92,272.65c0,27.17-288.68,32.15-288.68-4.76V239.22c0,36.92,288.68,31.94,288.68,4.77Z"/>
    <path class="clsmariniere-2" d="M354.38,222.65c0,27.17-290.14,32.15-290.14-4.76V189.22c0,36.92,290.14,31.94,290.14,4.77Z"/>
    <path class="clsmariniere-2" d="M355.67,172.65c0,27.17-291.62,32.15-291.62-4.76V139.22c0,36.92,291.62,31.94,291.62,4.77Z"/>
    <path class="clsmariniere-3" d="M183.18,186.59,64.1,99.76v21.08C105,149.55,147,173.31,175.15,188.26l8.78,4.6c15.49,8,25,12.52,25,12.52l-20.35-14.83Z"/>
    <path class="clsmariniere-3" d="M290.46,257.85c-.41.94-.83,1.88-1.26,2.8-29.6,64.39-116.76,75-162.08,20.48-30.55-36.72-55.31-81.8-63-124.76V333.51c0,21.76,97.71,29.23,178.64,25.62-10.87-.59-22.89-4.29-35.41-10.5,3.75-1.13,8.93-1.7,15.55-3.36A90.28,90.28,0,0,0,290.46,257.85Z"/>
    <path class="clsmariniere-1" d="M73.76,59.76c26.66,37.95,106.07,91.23,135,103.87C231.33,150,324.29,95,350.68,55.45,363,74.9,370.48,88,363.77,98.38s-146.65,107-154.81,107-133.54-82-148.68-104.63S73.76,59.76,73.76,59.76Z"/>
    <g class="clsmariniere-6">
      <path class="clsmariniere-2" d="M70.55,74.25a55.65,55.65,0,0,0-.65,9.14q0,4.55.38,9.07c.23,3,.58,6,1,9a74.67,74.67,0,0,0,1.85,9A25.09,25.09,0,0,1,69,102a44,44,0,0,1-1.7-9.3,43.5,43.5,0,0,1,.29-9.47A22.6,22.6,0,0,1,70.55,74.25Z"/>
    </g>
    <g class="clsmariniere-6">
      <path class="clsmariniere-2" d="M81.29,82a55.65,55.65,0,0,0-.65,9.14q0,4.55.38,9.07c.23,3,.58,6,1,9a72.79,72.79,0,0,0,1.85,9,25.09,25.09,0,0,1-4.14-8.5,44,44,0,0,1-1.7-9.3A43.5,43.5,0,0,1,78.32,91,22.6,22.6,0,0,1,81.29,82Z"/>
    </g>
    <g class="clsmariniere-6">
      <path class="clsmariniere-2" d="M90.85,88.9a55.77,55.77,0,0,0-.65,9.15q0,4.53.38,9.06c.23,3,.57,6,1,9a73,73,0,0,0,1.85,9,25,25,0,0,1-4.14-8.49,44,44,0,0,1-1.7-9.31,43.4,43.4,0,0,1,.29-9.46A22.6,22.6,0,0,1,90.85,88.9Z"/>
    </g>
    <g class="clsmariniere-6">
      <path class="clsmariniere-2" d="M101.59,96.67a55.85,55.85,0,0,0-.65,9.15q0,4.55.38,9.06c.23,3,.57,6,1,9a73,73,0,0,0,1.85,9,25,25,0,0,1-4.14-8.49,44,44,0,0,1-1.7-9.31,43.42,43.42,0,0,1,.29-9.46A22.6,22.6,0,0,1,101.59,96.67Z"/>
    </g>
    <g class="clsmariniere-6">
      <path class="clsmariniere-2" d="M112.23,104.34a55.65,55.65,0,0,0-.65,9.14q0,4.55.38,9.07c.23,3,.57,6,1,9a73,73,0,0,0,1.85,9,25.13,25.13,0,0,1-4.14-8.49,44.11,44.11,0,0,1-1.7-9.31,43.5,43.5,0,0,1,.29-9.47A22.6,22.6,0,0,1,112.23,104.34Z"/>
    </g>
    <g class="clsmariniere-6">
      <path class="clsmariniere-2" d="M123,112.11a55.69,55.69,0,0,0-.65,9.15q0,4.53.38,9.06c.23,3,.57,6,1,9a73,73,0,0,0,1.85,9,25,25,0,0,1-4.14-8.49,44,44,0,0,1-1.7-9.31,43.38,43.38,0,0,1,.29-9.46A22.6,22.6,0,0,1,123,112.11Z"/>
    </g>
    <g class="clsmariniere-6">
      <path class="clsmariniere-2" d="M132.53,119a55.65,55.65,0,0,0-.65,9.14q0,4.55.38,9.06c.23,3,.57,6,1,9a73.17,73.17,0,0,0,1.85,9,25.09,25.09,0,0,1-4.14-8.5,44,44,0,0,1-1.7-9.31,43.42,43.42,0,0,1,.28-9.46A22.67,22.67,0,0,1,132.53,119Z"/>
    </g>
    <g class="clsmariniere-6">
      <path class="clsmariniere-2" d="M143.27,126.77a55.65,55.65,0,0,0-.65,9.14q0,4.54.38,9.07c.23,3,.57,6,1,9a72.79,72.79,0,0,0,1.85,9,25.09,25.09,0,0,1-4.14-8.5,44,44,0,0,1-1.7-9.3,43.49,43.49,0,0,1,.28-9.47A22.78,22.78,0,0,1,143.27,126.77Z"/>
    </g>
    <g class="clsmariniere-6">
      <path class="clsmariniere-2" d="M155,133.94a56.79,56.79,0,0,0-.64,9.15q0,4.53.38,9.06c.22,3,.57,6,1,9a73.07,73.07,0,0,0,1.86,9,25,25,0,0,1-4.14-8.49A45.11,45.11,0,0,1,152,142.92,22.92,22.92,0,0,1,155,133.94Z"/>
    </g>
    <g class="clsmariniere-6">
      <path class="clsmariniere-2" d="M165.69,141.71a56.87,56.87,0,0,0-.64,9.15q0,4.54.38,9.06c.22,3,.57,6,1,9a73.07,73.07,0,0,0,1.86,9,25,25,0,0,1-4.14-8.49,45.11,45.11,0,0,1-1.42-18.77A22.92,22.92,0,0,1,165.69,141.71Z"/>
    </g>
    <g class="clsmariniere-6">
      <path class="clsmariniere-2" d="M176.68,148.6a54.55,54.55,0,0,0-.64,9.14q0,4.55.38,9.07c.22,3,.57,6,1,9a74.67,74.67,0,0,0,1.85,9,24.88,24.88,0,0,1-4.13-8.5,42.78,42.78,0,0,1-1.7-9.3,43.49,43.49,0,0,1,.28-9.47A22.92,22.92,0,0,1,176.68,148.6Z"/>
    </g>
    <g class="clsmariniere-6">
      <path class="clsmariniere-2" d="M187.42,156.37a54.55,54.55,0,0,0-.64,9.14q0,4.55.38,9.07c.22,3,.57,6,1,9a74.91,74.91,0,0,0,1.85,9,24.92,24.92,0,0,1-4.13-8.49,42.87,42.87,0,0,1-1.7-9.31,43.49,43.49,0,0,1,.28-9.47A22.92,22.92,0,0,1,187.42,156.37Z"/>
    </g>
    <g class="clsmariniere-6">
      <path class="clsmariniere-2" d="M199.41,162.8a55.65,55.65,0,0,0-.65,9.14q0,4.55.39,9.06c.22,3,.57,6,1,9a75.07,75.07,0,0,0,1.85,9,25.09,25.09,0,0,1-4.14-8.5,44,44,0,0,1-1.7-9.31,43.42,43.42,0,0,1,.29-9.46A22.5,22.5,0,0,1,199.41,162.8Z"/>
    </g>
    <g class="clsmariniere-6">
      <path class="clsmariniere-2" d="M347.65,73.65a22.76,22.76,0,0,1,3,9,42.87,42.87,0,0,1,.28,9.47,43.37,43.37,0,0,1-1.69,9.3,25.09,25.09,0,0,1-4.14,8.5,74.67,74.67,0,0,0,1.85-9c.42-3,.77-6,1-9s.36-6,.39-9.07A55.65,55.65,0,0,0,347.65,73.65Z"/>
    </g>
    <g class="clsmariniere-6">
      <path class="clsmariniere-2" d="M336.91,81.42a22.76,22.76,0,0,1,3,9,42.87,42.87,0,0,1,.28,9.47,43.46,43.46,0,0,1-1.69,9.31,25.13,25.13,0,0,1-4.14,8.49,74.91,74.91,0,0,0,1.85-9c.42-3,.77-6,1-9s.36-6,.39-9.07A55.65,55.65,0,0,0,336.91,81.42Z"/>
    </g>
    <g class="clsmariniere-6">
      <path class="clsmariniere-2" d="M327.35,88.3a22.6,22.6,0,0,1,3,9,43.42,43.42,0,0,1,.29,9.46,44,44,0,0,1-1.7,9.31,25,25,0,0,1-4.14,8.49,74.91,74.91,0,0,0,1.85-9c.42-3,.77-6,1-9s.35-6,.38-9.06A55.85,55.85,0,0,0,327.35,88.3Z"/>
    </g>
    <g class="clsmariniere-6">
      <path class="clsmariniere-2" d="M316.61,96.08a22.5,22.5,0,0,1,3,9,43.42,43.42,0,0,1,.29,9.46,44,44,0,0,1-1.7,9.31,25.09,25.09,0,0,1-4.14,8.5,73.17,73.17,0,0,0,1.85-9c.42-3,.77-6,1-9s.35-6,.38-9.06A55.65,55.65,0,0,0,316.61,96.08Z"/>
    </g>
    <g class="clsmariniere-6">
      <path class="clsmariniere-2" d="M306,103.74a22.6,22.6,0,0,1,3,9,43.38,43.38,0,0,1,.29,9.46,44,44,0,0,1-1.7,9.31,25,25,0,0,1-4.14,8.49,74.91,74.91,0,0,0,1.85-9c.42-3,.77-6,1-9s.36-6,.39-9.06A55.69,55.69,0,0,0,306,103.74Z"/>
    </g>
    <g class="clsmariniere-6">
      <path class="clsmariniere-2" d="M295.23,111.51a22.6,22.6,0,0,1,3,9,43.4,43.4,0,0,1,.29,9.46,44,44,0,0,1-1.7,9.31,25,25,0,0,1-4.14,8.49,74.91,74.91,0,0,0,1.85-9c.42-3,.77-6,1-9s.36-6,.39-9.06A55.77,55.77,0,0,0,295.23,111.51Z"/>
    </g>
    <g class="clsmariniere-6">
      <path class="clsmariniere-2" d="M285.67,118.4a22.6,22.6,0,0,1,3,9,43.5,43.5,0,0,1,.29,9.47,44,44,0,0,1-1.7,9.3,25.09,25.09,0,0,1-4.14,8.5,72.79,72.79,0,0,0,1.85-9c.43-3,.77-6,1-9s.36-6,.38-9.07A55.65,55.65,0,0,0,285.67,118.4Z"/>
    </g>
    <g class="clsmariniere-6">
      <path class="clsmariniere-2" d="M274.93,126.17a22.6,22.6,0,0,1,3,9,43.5,43.5,0,0,1,.29,9.47,44,44,0,0,1-1.7,9.3,25.09,25.09,0,0,1-4.14,8.5,72.79,72.79,0,0,0,1.85-9c.43-3,.77-6,1-9s.36-6,.38-9.07A55.65,55.65,0,0,0,274.93,126.17Z"/>
    </g>
    <g class="clsmariniere-6">
      <path class="clsmariniere-2" d="M263.24,133.34a22.77,22.77,0,0,1,3,9,43.42,43.42,0,0,1,.28,9.46,44,44,0,0,1-1.7,9.31,25,25,0,0,1-4.14,8.49,73,73,0,0,0,1.85-9c.43-3,.77-6,1-9s.36-6,.38-9.06A55.85,55.85,0,0,0,263.24,133.34Z"/>
    </g>
    <g class="clsmariniere-6">
      <path class="clsmariniere-2" d="M252.5,141.12a22.67,22.67,0,0,1,3,9,43.42,43.42,0,0,1,.28,9.46,44,44,0,0,1-1.7,9.31,25.09,25.09,0,0,1-4.14,8.5,73.17,73.17,0,0,0,1.85-9c.43-3,.77-6,1-9s.36-6,.38-9.06A55.65,55.65,0,0,0,252.5,141.12Z"/>
    </g>
    <g class="clsmariniere-6">
      <path class="clsmariniere-2" d="M241.52,148a22.92,22.92,0,0,1,3,9,45.14,45.14,0,0,1-1.42,18.78,24.76,24.76,0,0,1-4.14,8.49,73.07,73.07,0,0,0,1.86-9c.42-3,.77-6,1-9s.36-6,.38-9.07A54.55,54.55,0,0,0,241.52,148Z"/>
    </g>
    <g class="clsmariniere-6">
      <path class="clsmariniere-2" d="M230.78,155.77a22.92,22.92,0,0,1,3,9,45.11,45.11,0,0,1-1.42,18.77,24.68,24.68,0,0,1-4.14,8.49,73.07,73.07,0,0,0,1.86-9c.42-3,.77-6,1-9s.36-6,.38-9.06A54.6,54.6,0,0,0,230.78,155.77Z"/>
    </g>
    <g class="clsmariniere-6">
      <path class="clsmariniere-2" d="M218.79,162.2a22.76,22.76,0,0,1,3,9,42.87,42.87,0,0,1,.28,9.47,43.37,43.37,0,0,1-1.69,9.3,25.09,25.09,0,0,1-4.14,8.5,74.67,74.67,0,0,0,1.85-9c.42-3,.77-6,1-9s.36-6,.39-9.07A55.65,55.65,0,0,0,218.79,162.2Z"/>
    </g>
  </g>
</svg>
