<svg xmlns="http://www.w3.org/2000/svg" width="420" height="360" viewBox="0 0 420 360">
  <defs>
    <style>
      .clspull-1-pull {
        fill: #74b8b3;
      }

      .clspull-2-pull {
        fill: #6daea9;
      }

      .clspull-3-pull {
        fill: #459a8d;
        opacity: 0.62;
      }

      .clspull-4-pull {
        fill: #3e8b7f;
      }

      .clspull-5-pull {
        fill: #d82d3d;
      }

      .clspull-6-pull {
        fill: #f9c78e;
      }

      .clspull-7-pull {
        fill: #77beb8;
      }

      .clspull-8-pull {
        fill: #4cab9c;
      }

      .clspull-9-pull {
        opacity: 0.47;
      }

      .clspull-10-pull {
        fill: #9cd4da;
      }

      .clspull-11-pull {
        fill: #7dc8c2;
      }

      .clspull-12-pull {
        fill: #00a19a;
      }
    </style>
  </defs>
  <title>Accessoires</title>
  <g id="pull">
    <g>
      <path class="clspull-1-pull" d="M417.05,56.73a15.93,15.93,0,0,0-.79-5A72.1,72.1,0,0,0,347.93,2.5h-9V253.44c0,22.44,18.15,17.91,40.53,17.91h0c22.39,0,40.54,3.5,40.54-10.82C420,260.53,417.22,88,417.05,56.73Z"/>
      <path class="clspull-2-pull" d="M3,54.23a15.89,15.89,0,0,1,.79-5A72.1,72.1,0,0,1,72.07,0h9V250.94c0,22.43-18.15,17.9-40.53,17.9h0C18.15,268.84,0,272.35,0,258,0,258,2.78,85.46,3,54.23Z"/>
      <path class="clspull-3-pull" d="M3,54a15.89,15.89,0,0,1,.79-5c9.59-28.6,3.13,219.65,36.8,219.65h0C18.15,268.59,0,272.09,0,257.76,0,257.76,2.78,85.2,3,54Z"/>
      <path class="clspull-4-pull" d="M67.88,11.62C45.17,6.69,23.7,21.61,20,45.78h0C31.71,26.7,46.25,15.83,67.88,11.62Z"/>
      <ellipse class="clspull-5-pull" cx="87.58" cy="129.95" rx="5.61" ry="12.88"/>
      <ellipse class="clspull-5-pull" cx="101.37" cy="149.86" rx="5.62" ry="3.5" transform="translate(-68.8 211.33) rotate(-75.79)"/>
      <ellipse class="clspull-5-pull" cx="87.12" cy="166.28" rx="7.96" ry="5.61" transform="translate(-93.24 218.34) rotate(-78.45)"/>
      <path class="clspull-6-pull" d="M110.49,268.64a26.8,26.8,0,0,1,13.11.2c-1.71-3.51-3.32-7.16-4.8-11C114.71,260.63,111.38,265.08,110.49,268.64Z"/>
      <path class="clspull-7-pull" d="M64.1,99.76V333.51c0,36.92,287.54,31.94,287.54,4.77,0-40.55,5.29-248.8,5.29-248.8L208.74,172.21Z"/>
      <path class="clspull-8-pull" d="M64.1,120.84C134.78,170.52,209,205.38,209,205.38L64.1,99.76Z"/>
      <g class="clspull-9-pull">
        <path class="clspull-10-pull" d="M64.1,141.71l8.83,2.79c2.94.95,5.86,1.94,8.85,2.75l8.89,2.54c1.48.45,3,.83,4.47,1.19l4.49,1.12c11.92,3.15,24,5.55,36.11,7.77,6.08,1,12.14,2,18.25,2.79l4.57.62c1.52.21,3.05.41,4.58.55l9.18,1c12.24,1.12,24.52,2,36.82,2.22a530.78,530.78,0,0,0,73.7-3.36c12.23-1.42,24.43-3.2,36.54-5.48s24.18-4.91,36.06-8.32c-5.79,2.16-11.71,4-17.66,5.66s-12,3.22-18,4.63q-18.1,4.14-36.55,6.68c-12.27,1.75-24.62,2.9-37,3.67s-24.79.84-37.2.61l-9.29-.33c-3.1-.15-6.2-.36-9.29-.54-1.55-.1-3.1-.18-4.64-.3l-4.64-.41c-3.09-.29-6.18-.49-9.26-.88l-9.24-1.12c-1.54-.18-3.07-.39-4.6-.64l-4.6-.69c-6.15-.84-12.23-2.07-18.32-3.2A393.62,393.62,0,0,1,64.1,141.71Z"/>
      </g>
      <g class="clspull-9-pull">
        <path class="clspull-10-pull" d="M64.1,156l8.83,2.79c2.94.94,5.86,1.93,8.85,2.74l8.89,2.55c1.48.44,3,.82,4.47,1.19l4.49,1.11c11.92,3.15,24,5.55,36.11,7.77,6.08,1,12.14,2,18.25,2.79l4.57.62c1.52.22,3.05.41,4.58.55l9.18,1c12.24,1.12,24.52,2,36.82,2.21a530.78,530.78,0,0,0,73.7-3.36c12.23-1.42,24.43-3.2,36.54-5.48s24.18-4.91,36.06-8.32c-5.79,2.16-11.71,4-17.66,5.66s-12,3.22-18,4.63q-18.1,4.14-36.55,6.68c-12.27,1.75-24.62,2.9-37,3.67s-24.79.85-37.2.61l-9.29-.33c-3.1-.15-6.2-.36-9.29-.54-1.55-.1-3.1-.17-4.64-.3l-4.64-.41c-3.09-.29-6.18-.49-9.26-.88l-9.24-1.12c-1.54-.17-3.07-.39-4.6-.64l-4.6-.69c-6.15-.84-12.23-2.07-18.32-3.2A394.4,394.4,0,0,1,64.1,156Z"/>
      </g>
      <path class="clspull-8-pull" d="M64.1,156.37c17,94.57,116.54,199.4,178.64,202.76-80.93,3.61-178.64-3.86-178.64-25.62Z"/>
      <path class="clspull-8-pull" d="M199.65,186.38a60.31,60.31,0,0,0-60.25,60.36C147.64,220.34,172,195.94,199.65,186.38Z"/>
      <g class="clspull-9-pull">
        <path class="clspull-10-pull" d="M64.1,170.34l8.83,2.79c2.94.94,5.86,1.93,8.85,2.74l8.89,2.55c1.48.44,3,.82,4.47,1.19l4.49,1.12c11.92,3.14,24,5.54,36.11,7.76,6.08,1,12.14,2,18.25,2.79l4.57.62c1.52.22,3.05.41,4.58.56l9.18,1c12.24,1.12,24.52,2,36.82,2.21a529.24,529.24,0,0,0,73.7-3.36c12.23-1.42,24.43-3.19,36.54-5.47s24.18-4.92,36.06-8.33c-5.79,2.16-11.71,4-17.66,5.67s-12,3.21-18,4.62q-18.1,4.14-36.55,6.68c-12.27,1.75-24.62,2.9-37,3.67s-24.79.85-37.2.61l-9.29-.33c-3.1-.14-6.2-.36-9.29-.54-1.55-.1-3.1-.17-4.64-.3l-4.64-.41c-3.09-.29-6.18-.49-9.26-.88l-9.24-1.12c-1.54-.17-3.07-.39-4.6-.63l-4.6-.7c-6.15-.83-12.23-2.07-18.32-3.2A394.4,394.4,0,0,1,64.1,170.34Z"/>
      </g>
      <g class="clspull-9-pull">
        <path class="clspull-10-pull" d="M64.1,184.65l8.83,2.79c2.94.95,5.86,1.94,8.85,2.74l8.89,2.55c1.48.44,3,.82,4.47,1.19L99.63,195c11.92,3.14,24,5.55,36.11,7.76,6.08,1,12.14,2,18.25,2.79l4.57.62c1.52.22,3.05.41,4.58.56l9.18,1c12.24,1.12,24.52,2,36.82,2.21a529.24,529.24,0,0,0,73.7-3.36c12.23-1.42,24.43-3.19,36.54-5.47s24.18-4.92,36.06-8.33c-5.79,2.16-11.71,4-17.66,5.67s-12,3.21-18,4.62q-18.1,4.14-36.55,6.68c-12.27,1.75-24.62,2.9-37,3.67s-24.79.85-37.2.61l-9.29-.32c-3.1-.15-6.2-.37-9.29-.55-1.55-.1-3.1-.17-4.64-.3l-4.64-.41c-3.09-.29-6.18-.49-9.26-.88l-9.24-1.12c-1.54-.17-3.07-.39-4.6-.63l-4.6-.7c-6.15-.83-12.23-2.07-18.32-3.2A393.59,393.59,0,0,1,64.1,184.65Z"/>
      </g>
      <g class="clspull-9-pull">
        <path class="clspull-10-pull" d="M64.1,199l8.83,2.79c2.94.95,5.86,1.94,8.85,2.74L90.67,207c1.48.44,3,.83,4.47,1.19l4.49,1.12c11.92,3.15,24,5.55,36.11,7.77,6.08.95,12.14,2,18.25,2.78l4.57.62c1.52.22,3.05.41,4.58.56l9.18,1c12.24,1.12,24.52,2,36.82,2.21a529.24,529.24,0,0,0,73.7-3.36c12.23-1.42,24.43-3.19,36.54-5.47s24.18-4.92,36.06-8.32c-5.79,2.16-11.71,4-17.66,5.66s-12,3.21-18,4.62q-18.1,4.14-36.55,6.68c-12.27,1.75-24.62,2.9-37,3.67s-24.79.85-37.2.61l-9.29-.32c-3.1-.15-6.2-.37-9.29-.55-1.55-.1-3.1-.17-4.64-.3l-4.64-.41c-3.09-.29-6.18-.49-9.26-.88l-9.24-1.12c-1.54-.17-3.07-.39-4.6-.63l-4.6-.7c-6.15-.83-12.23-2.07-18.32-3.2A393.59,393.59,0,0,1,64.1,199Z"/>
      </g>
      <g class="clspull-9-pull">
        <path class="clspull-10-pull" d="M64.1,213.27l8.83,2.79c2.94.95,5.86,1.94,8.85,2.74l8.89,2.55c1.48.44,3,.83,4.47,1.19l4.49,1.12c11.92,3.15,24,5.55,36.11,7.77,6.08.95,12.14,2,18.25,2.78l4.57.62c1.52.22,3.05.41,4.58.56l9.18,1c12.24,1.12,24.52,2,36.82,2.21a530.77,530.77,0,0,0,73.7-3.35c12.23-1.43,24.43-3.2,36.54-5.48s24.18-4.91,36.06-8.32c-5.79,2.16-11.71,4-17.66,5.66s-12,3.21-18,4.62q-18.1,4.14-36.55,6.68c-12.27,1.75-24.62,2.91-37,3.67s-24.79.85-37.2.61l-9.29-.32c-3.1-.15-6.2-.37-9.29-.55-1.55-.1-3.1-.17-4.64-.3l-4.64-.4c-3.09-.3-6.18-.5-9.26-.88l-9.24-1.13c-1.54-.17-3.07-.39-4.6-.63l-4.6-.7c-6.15-.83-12.23-2.06-18.32-3.2A393.59,393.59,0,0,1,64.1,213.27Z"/>
      </g>
      <g class="clspull-9-pull">
        <path class="clspull-10-pull" d="M64.1,227.58l8.83,2.79c2.94.95,5.86,1.94,8.85,2.74l8.89,2.55c1.48.45,3,.83,4.47,1.19L99.63,238c11.92,3.15,24,5.55,36.11,7.77,6.08,1,12.14,2,18.25,2.78l4.57.62c1.52.22,3.05.41,4.58.56l9.18,1c12.24,1.12,24.52,2,36.82,2.21a529.23,529.23,0,0,0,73.7-3.35c12.23-1.43,24.43-3.2,36.54-5.48s24.18-4.91,36.06-8.32c-5.79,2.16-11.71,4-17.66,5.66s-12,3.21-18,4.63q-18.1,4.14-36.55,6.68c-12.27,1.75-24.62,2.9-37,3.66s-24.79.85-37.2.61l-9.29-.32c-3.1-.15-6.2-.37-9.29-.55-1.55-.1-3.1-.17-4.64-.3l-4.64-.4c-3.09-.3-6.18-.49-9.26-.88l-9.24-1.13c-1.54-.17-3.07-.39-4.6-.63l-4.6-.69c-6.15-.84-12.23-2.07-18.32-3.2A394.43,394.43,0,0,1,64.1,227.58Z"/>
      </g>
      <path class="clspull-8" d="M124.85,271.36c-4.92,1.88-10.43,6.66-10.8,11.29a9.35,9.35,0,0,1,7.57-2.3,90.33,90.33,0,0,0,63.43,64.56c5.21,1.39,10,5,11.22,6.62,2.39-.34,3.28-3.52,4.41-5.8,3.07,1.94,8.42,3.64,10.47,5.35,3.41-3.29,10.17-3.29,20.23-5.81A90.28,90.28,0,0,0,299,257.85C261.37,344.14,165.13,349.93,124.85,271.36Z"/>
      <g class="clspull-9-pull">
        <path class="clspull-10-pull" d="M64.1,241.89l8.83,2.79c2.94.95,5.86,1.94,8.85,2.75L90.67,250c1.48.45,3,.83,4.47,1.19l4.49,1.12c11.92,3.15,24,5.55,36.11,7.77,6.08,1,12.14,2,18.25,2.79l4.57.62c1.52.21,3.05.41,4.58.55l9.18,1c12.24,1.12,24.52,2,36.82,2.22a530.78,530.78,0,0,0,73.7-3.36c12.23-1.43,24.43-3.2,36.54-5.48s24.18-4.91,36.06-8.32c-5.79,2.16-11.71,4-17.66,5.66s-12,3.22-18,4.63q-18.1,4.14-36.55,6.68c-12.27,1.75-24.62,2.9-37,3.66s-24.79.85-37.2.62l-9.29-.33c-3.1-.15-6.2-.36-9.29-.54-1.55-.11-3.1-.18-4.64-.3l-4.64-.41c-3.09-.3-6.18-.49-9.26-.88l-9.24-1.13c-1.54-.17-3.07-.38-4.6-.63l-4.6-.69c-6.15-.84-12.23-2.07-18.32-3.2A393.62,393.62,0,0,1,64.1,241.89Z"/>
      </g>
      <g class="clspull-9-pull">
        <path class="clspull-10-pull" d="M64.1,256.2,72.93,259c2.94.95,5.86,1.94,8.85,2.75l8.89,2.55c1.48.44,3,.82,4.47,1.18l4.49,1.12c11.92,3.15,24,5.55,36.11,7.77,6.08,1,12.14,2,18.25,2.79l4.57.62c1.52.21,3.05.41,4.58.55l9.18,1c12.24,1.12,24.52,2,36.82,2.22a530.78,530.78,0,0,0,73.7-3.36c12.23-1.42,24.43-3.2,36.54-5.48s24.18-4.91,36.06-8.32c-5.79,2.16-11.71,4-17.66,5.66s-12,3.22-18,4.63q-18.1,4.14-36.55,6.68c-12.27,1.75-24.62,2.9-37,3.67s-24.79.84-37.2.61l-9.29-.33c-3.1-.15-6.2-.36-9.29-.54-1.55-.1-3.1-.18-4.64-.3l-4.64-.41c-3.09-.29-6.18-.49-9.26-.88L162.68,282c-1.54-.18-3.07-.39-4.6-.64l-4.6-.69c-6.15-.84-12.23-2.07-18.32-3.2A393.62,393.62,0,0,1,64.1,256.2Z"/>
      </g>
      <g class="clspull-9-pull">
        <path class="clspull-10-pull" d="M64.1,270.52l8.83,2.79c2.94.94,5.86,1.93,8.85,2.74l8.89,2.55c1.48.44,3,.82,4.47,1.19l4.49,1.12c11.92,3.14,24,5.54,36.11,7.76,6.08,1,12.14,2,18.25,2.79l4.57.62c1.52.22,3.05.41,4.58.55l9.18,1c12.24,1.12,24.52,2,36.82,2.21a530.78,530.78,0,0,0,73.7-3.36c12.23-1.42,24.43-3.2,36.54-5.48s24.18-4.91,36.06-8.32c-5.79,2.16-11.71,4-17.66,5.66s-12,3.22-18,4.63q-18.1,4.14-36.55,6.68c-12.27,1.75-24.62,2.9-37,3.67s-24.79.85-37.2.61l-9.29-.33c-3.1-.14-6.2-.36-9.29-.54-1.55-.1-3.1-.17-4.64-.3l-4.64-.41c-3.09-.29-6.18-.49-9.26-.88l-9.24-1.12c-1.54-.17-3.07-.39-4.6-.64l-4.6-.69c-6.15-.84-12.23-2.07-18.32-3.2A394.4,394.4,0,0,1,64.1,270.52Z"/>
      </g>
      <g class="clspull-9-pull">
        <path class="clspull-10-pull" d="M64.1,284.83l8.83,2.79c2.94.95,5.86,1.93,8.85,2.74l8.89,2.55c1.48.44,3,.82,4.47,1.19l4.49,1.12c11.92,3.14,24,5.54,36.11,7.76,6.08,1,12.14,2,18.25,2.79l4.57.62c1.52.22,3.05.41,4.58.56l9.18,1c12.24,1.12,24.52,2,36.82,2.21a529.24,529.24,0,0,0,73.7-3.36c12.23-1.42,24.43-3.19,36.54-5.47s24.18-4.92,36.06-8.33c-5.79,2.16-11.71,4-17.66,5.67s-12,3.21-18,4.62q-18.1,4.14-36.55,6.68c-12.27,1.75-24.62,2.9-37,3.67s-24.79.85-37.2.61l-9.29-.32c-3.1-.15-6.2-.37-9.29-.55-1.55-.1-3.1-.17-4.64-.3l-4.64-.41c-3.09-.29-6.18-.49-9.26-.88l-9.24-1.12c-1.54-.17-3.07-.39-4.6-.63l-4.6-.7c-6.15-.83-12.23-2.07-18.32-3.2A394.4,394.4,0,0,1,64.1,284.83Z"/>
      </g>
      <g class="clspull-9-pull">
        <path class="clspull-10-pull" d="M64.1,299.14l8.83,2.79c2.94.95,5.86,1.94,8.85,2.74l8.89,2.55c1.48.44,3,.82,4.47,1.19l4.49,1.12c11.92,3.15,24,5.55,36.11,7.76,6.08,1,12.14,2,18.25,2.79l4.57.62c1.52.22,3.05.41,4.58.56l9.18,1c12.24,1.12,24.52,2,36.82,2.21a529.24,529.24,0,0,0,73.7-3.36c12.23-1.42,24.43-3.19,36.54-5.47s24.18-4.92,36.06-8.33c-5.79,2.16-11.71,4-17.66,5.67s-12,3.21-18,4.62q-18.1,4.14-36.55,6.68c-12.27,1.75-24.62,2.9-37,3.67s-24.79.85-37.2.61l-9.29-.32c-3.1-.15-6.2-.37-9.29-.55-1.55-.1-3.1-.17-4.64-.3l-4.64-.41c-3.09-.29-6.18-.49-9.26-.88L162.68,325c-1.54-.17-3.07-.39-4.6-.63l-4.6-.7c-6.15-.83-12.23-2.07-18.32-3.2A393.59,393.59,0,0,1,64.1,299.14Z"/>
      </g>
      <g class="clspull-9-pull">
        <path class="clspull-10-pull" d="M64.1,313.45l8.83,2.79c2.94.95,5.86,1.94,8.85,2.74l8.89,2.55c1.48.44,3,.83,4.47,1.19l4.49,1.12c11.92,3.15,24,5.55,36.11,7.77,6.08.95,12.14,2,18.25,2.78l4.57.62c1.52.22,3.05.41,4.58.56l9.18,1c12.24,1.12,24.52,2,36.82,2.21a529.24,529.24,0,0,0,73.7-3.36c12.23-1.42,24.43-3.19,36.54-5.47s24.18-4.92,36.06-8.32c-5.79,2.16-11.71,4-17.66,5.66s-12,3.21-18,4.62q-18.1,4.14-36.55,6.68c-12.27,1.75-24.62,2.9-37,3.67s-24.79.85-37.2.61l-9.29-.32c-3.1-.15-6.2-.37-9.29-.55-1.55-.1-3.1-.17-4.64-.3l-4.64-.41c-3.09-.29-6.18-.49-9.26-.88l-9.24-1.12c-1.54-.17-3.07-.39-4.6-.63l-4.6-.7c-6.15-.83-12.23-2.07-18.32-3.2A393.59,393.59,0,0,1,64.1,313.45Z"/>
      </g>
      <g class="clspull-9-pull">
        <path class="clspull-10-pull" d="M64.1,327.76l8.83,2.79c2.94.95,5.86,1.94,8.85,2.74l8.89,2.55c1.48.44,3,.83,4.47,1.19l4.49,1.12c11.92,3.15,24,5.55,36.11,7.77,6.08.95,12.14,2,18.25,2.78l4.57.62c1.52.22,3.05.41,4.58.56l9.18,1c12.24,1.12,24.52,2,36.82,2.21a529.23,529.23,0,0,0,73.7-3.35c12.23-1.43,24.43-3.2,36.54-5.48s24.18-4.91,36.06-8.32c-5.79,2.16-11.71,4-17.66,5.66s-12,3.21-18,4.62q-18.1,4.14-36.55,6.68c-12.27,1.75-24.62,2.91-37,3.67s-24.79.85-37.2.61l-9.29-.32c-3.1-.15-6.2-.37-9.29-.55-1.55-.1-3.1-.17-4.64-.3l-4.64-.4c-3.09-.3-6.18-.5-9.26-.88l-9.24-1.13c-1.54-.17-3.07-.39-4.6-.63l-4.6-.7c-6.15-.83-12.23-2.06-18.32-3.19A394.43,394.43,0,0,1,64.1,327.76Z"/>
      </g>
      <path class="clspull-11-pull" d="M73.76,59.76c26.66,37.95,106.07,91.23,135,103.87C231.33,150,324.29,95,350.68,55.45,363,74.9,370.48,88,363.77,98.38s-146.65,107-154.81,107-133.54-82-148.68-104.63S73.76,59.76,73.76,59.76Z"/>
      <path class="clspull-12-pull" d="M70.55,74.25a55.59,55.59,0,0,0-.62,9.14q0,4.55.39,9.06c.22,3,.57,6,1,9a77.38,77.38,0,0,0,1.83,9A24.9,24.9,0,0,1,69,102a43.38,43.38,0,0,1-1.71-9.31,42.88,42.88,0,0,1,.29-9.47A22.54,22.54,0,0,1,70.55,74.25Z"/>
      <path class="clspull-12-pull" d="M81.29,82a55.66,55.66,0,0,0-.62,9.14q0,4.55.39,9.06c.22,3,.57,6,1,9a77.38,77.38,0,0,0,1.83,9,24.81,24.81,0,0,1-4.16-8.49A43.38,43.38,0,0,1,78,100.46,42.88,42.88,0,0,1,78.29,91,22.54,22.54,0,0,1,81.29,82Z"/>
      <path class="clspull-12-pull" d="M90.85,88.9a55.78,55.78,0,0,0-.62,9.15c0,3,.16,6,.39,9.06s.57,6,1,9a76.54,76.54,0,0,0,1.83,9,24.81,24.81,0,0,1-4.16-8.49,42.19,42.19,0,0,1-1.71-9.31,42.81,42.81,0,0,1,.29-9.46A22.64,22.64,0,0,1,90.85,88.9Z"/>
      <path class="clspull-12-pull" d="M101.59,96.67a55.78,55.78,0,0,0-.62,9.15c0,3,.16,6,.39,9.06s.57,6,1,9a76.54,76.54,0,0,0,1.83,9,24.77,24.77,0,0,1-4.16-8.48,42.4,42.4,0,0,1-1.71-9.31,42.88,42.88,0,0,1,.29-9.47A22.64,22.64,0,0,1,101.59,96.67Z"/>
      <path class="clspull-12-pull" d="M112.23,104.34a55.71,55.71,0,0,0-.62,9.15q0,4.53.39,9.06c.22,3,.57,6,1,9a77.38,77.38,0,0,0,1.83,9,24.81,24.81,0,0,1-4.16-8.49,42.19,42.19,0,0,1-1.71-9.31,42.88,42.88,0,0,1,.29-9.47A22.6,22.6,0,0,1,112.23,104.34Z"/>
      <path class="clspull-12-pull" d="M123,112.11a55.78,55.78,0,0,0-.62,9.15q0,4.53.39,9.06c.22,3,.57,6,1,9a77.38,77.38,0,0,0,1.83,9,24.81,24.81,0,0,1-4.16-8.49,42.19,42.19,0,0,1-1.71-9.31,42.88,42.88,0,0,1,.29-9.47A22.6,22.6,0,0,1,123,112.11Z"/>
      <path class="clspull-12-pull" d="M132.53,119a55.59,55.59,0,0,0-.62,9.14q0,4.55.39,9.06c.22,3,.57,6,1,9a77.38,77.38,0,0,0,1.83,9,24.93,24.93,0,0,1-4.17-8.49A44.91,44.91,0,0,1,129.53,128,22.54,22.54,0,0,1,132.53,119Z"/>
      <path class="clspull-12-pull" d="M143.27,126.77a55.59,55.59,0,0,0-.62,9.14q0,4.54.39,9.06c.22,3,.57,6,1,9a77.38,77.38,0,0,0,1.83,9,24.84,24.84,0,0,1-4.17-8.49,44.91,44.91,0,0,1-1.41-18.78A22.54,22.54,0,0,1,143.27,126.77Z"/>
      <path class="clspull-12-pull" d="M155,133.94a56.88,56.88,0,0,0-.61,9.15c0,3,.16,6,.39,9.06s.57,6,1,9a75,75,0,0,0,1.83,9,24.66,24.66,0,0,1-4.17-8.49A44.91,44.91,0,0,1,152,142.91,22.79,22.79,0,0,1,155,133.94Z"/>
      <path class="clspull-12-pull" d="M165.69,141.71a56.88,56.88,0,0,0-.61,9.15c0,3,.16,6,.39,9.06s.56,6,1,9a74.56,74.56,0,0,0,1.83,9,24.7,24.7,0,0,1-4.17-8.48,44.95,44.95,0,0,1-1.41-18.78A22.78,22.78,0,0,1,165.69,141.71Z"/>
      <path class="clspull-12-pull" d="M176.68,148.6a56.78,56.78,0,0,0-.62,9.14q0,4.55.39,9.06c.23,3,.57,6,1,9a75.3,75.3,0,0,0,1.82,9,24.81,24.81,0,0,1-4.16-8.49,44.7,44.7,0,0,1-1.42-18.78A22.54,22.54,0,0,1,176.68,148.6Z"/>
      <path class="clspull-12-pull" d="M187.42,156.37a56.83,56.83,0,0,0-.62,9.15q0,4.53.39,9.06c.23,3,.57,6,1,9a75.3,75.3,0,0,0,1.82,9,24.81,24.81,0,0,1-4.16-8.49,44.7,44.7,0,0,1-1.42-18.78A22.6,22.6,0,0,1,187.42,156.37Z"/>
      <path class="clspull-12-pull" d="M199.41,162.8a55.59,55.59,0,0,0-.62,9.14q0,4.55.39,9.06c.22,3,.57,6,1,9a77.12,77.12,0,0,0,1.83,9,24.9,24.9,0,0,1-4.16-8.49,43.38,43.38,0,0,1-1.71-9.31,42.88,42.88,0,0,1,.29-9.47A22.54,22.54,0,0,1,199.41,162.8Z"/>
      <path class="clspull-12-pull" d="M347.65,73.65a22.54,22.54,0,0,1,3,9,42.88,42.88,0,0,1,.29,9.47,43.38,43.38,0,0,1-1.71,9.31,24.81,24.81,0,0,1-4.16,8.49,75.3,75.3,0,0,0,1.82-9c.42-3,.77-6,1-9s.36-6,.39-9.06A55.66,55.66,0,0,0,347.65,73.65Z"/>
      <path class="clspull-12-pull" d="M336.91,81.42a22.6,22.6,0,0,1,3,9,42.88,42.88,0,0,1,.29,9.47,43.38,43.38,0,0,1-1.71,9.31,24.81,24.81,0,0,1-4.16,8.49,75.3,75.3,0,0,0,1.82-9c.42-3,.77-6,1-9s.36-6,.39-9.06A55.71,55.71,0,0,0,336.91,81.42Z"/>
      <path class="clspull-12-pull" d="M327.35,88.3a22.64,22.64,0,0,1,3,9,42.88,42.88,0,0,1,.29,9.47,43.61,43.61,0,0,1-1.71,9.31,24.77,24.77,0,0,1-4.16,8.48,76.54,76.54,0,0,0,1.83-9c.41-3,.76-6,1-9s.36-6,.39-9.06A55.78,55.78,0,0,0,327.35,88.3Z"/>
      <path class="clspull-12-pull" d="M316.61,96.08a22.54,22.54,0,0,1,3,9,42.88,42.88,0,0,1,.29,9.47,43.38,43.38,0,0,1-1.71,9.31,24.9,24.9,0,0,1-4.16,8.49,77.38,77.38,0,0,0,1.83-9c.41-3,.76-6,1-9s.36-6,.39-9.06A55.59,55.59,0,0,0,316.61,96.08Z"/>
      <path class="clspull-12-pull" d="M306,103.74a22.65,22.65,0,0,1,3,9,42.88,42.88,0,0,1,.29,9.47,43.38,43.38,0,0,1-1.71,9.31,24.81,24.81,0,0,1-4.16,8.49,77.38,77.38,0,0,0,1.83-9c.41-3,.76-6,1-9s.36-6,.39-9.06A55.78,55.78,0,0,0,306,103.74Z"/>
      <path class="clspull-12-pull" d="M295.23,111.51a22.64,22.64,0,0,1,3,9,42.79,42.79,0,0,1,.29,9.46,43.38,43.38,0,0,1-1.71,9.31,24.81,24.81,0,0,1-4.16,8.49,76.54,76.54,0,0,0,1.83-9c.41-3,.76-6,1-9s.36-6,.39-9.06A55.78,55.78,0,0,0,295.23,111.51Z"/>
      <path class="clspull-12-pull" d="M285.67,118.4a22.54,22.54,0,0,1,3,9,42.88,42.88,0,0,1,.29,9.47,42.19,42.19,0,0,1-1.71,9.31,24.81,24.81,0,0,1-4.16,8.49,77.38,77.38,0,0,0,1.83-9c.41-3,.76-6,1-9s.36-6,.39-9.06A55.59,55.59,0,0,0,285.67,118.4Z"/>
      <path class="clspull-12-pull" d="M274.93,126.17a22.54,22.54,0,0,1,3,9,42.88,42.88,0,0,1,.29,9.47,42.19,42.19,0,0,1-1.71,9.31,24.81,24.81,0,0,1-4.16,8.49,77.38,77.38,0,0,0,1.83-9c.41-3,.76-6,1-9s.36-6,.39-9.06A55.66,55.66,0,0,0,274.93,126.17Z"/>
      <path class="clspull-12-pull" d="M263.24,133.34a22.64,22.64,0,0,1,3,9,44.91,44.91,0,0,1-1.41,18.78,24.79,24.79,0,0,1-4.17,8.48,76.54,76.54,0,0,0,1.83-9c.41-3,.76-6,1-9s.36-6,.39-9.06A55.78,55.78,0,0,0,263.24,133.34Z"/>
      <path class="clspull-12-pull" d="M252.5,141.12a22.54,22.54,0,0,1,3,9,44.91,44.91,0,0,1-1.41,18.78,24.93,24.93,0,0,1-4.17,8.49,77.12,77.12,0,0,0,1.83-9c.41-3,.76-6,1-9s.36-6,.39-9.06A55.59,55.59,0,0,0,252.5,141.12Z"/>
      <path class="clspull-12-pull" d="M241.52,148a22.75,22.75,0,0,1,3,9,44.13,44.13,0,0,1,.29,9.47,43.38,43.38,0,0,1-1.71,9.31,24.66,24.66,0,0,1-4.17,8.49,73.43,73.43,0,0,0,1.83-9c.42-3,.76-6,1-9s.36-6,.39-9.06A58,58,0,0,0,241.52,148Z"/>
      <path class="clspull-12-pull" d="M230.78,155.77a22.81,22.81,0,0,1,3,9,44.13,44.13,0,0,1,.29,9.47,43.38,43.38,0,0,1-1.71,9.31,24.66,24.66,0,0,1-4.17,8.49,73.43,73.43,0,0,0,1.83-9c.42-3,.76-6,1-9s.36-6,.39-9.06A58.07,58.07,0,0,0,230.78,155.77Z"/>
      <path class="clspull-12-pull" d="M218.79,162.2a22.54,22.54,0,0,1,3,9,42.88,42.88,0,0,1,.29,9.47,43.38,43.38,0,0,1-1.71,9.31,24.81,24.81,0,0,1-4.16,8.49,75.3,75.3,0,0,0,1.82-9c.42-3,.77-6,1-9s.36-6,.39-9.06A55.59,55.59,0,0,0,218.79,162.2Z"/>
    </g>
  </g>
</svg>
