<svg xmlns="http://www.w3.org/2000/svg" xmlns:xlink="http://www.w3.org/1999/xlink" viewBox="0 0 1759.5 821.6"><defs><style>.cls-1{fill:#6a7c39;}.cls-2{fill:#607234;}.cls-3{fill:url(#Dégradé_sans_nom_26);}.cls-4{fill:url(#Dégradé_sans_nom_26-2);}.cls-37,.cls-5{fill:#fff;}.cls-5{opacity:0.31;}.cls-6{fill:url(#Dégradé_sans_nom_26-3);}.cls-7{fill:url(#Dégradé_sans_nom_26-4);}.cls-8{fill:url(#Dégradé_sans_nom_26-5);}.cls-9{fill:url(#Dégradé_sans_nom_26-6);}.cls-10{fill:url(#Dégradé_sans_nom_26-7);}.cls-11{fill:url(#Dégradé_sans_nom_26-8);}.cls-12{fill:url(#Dégradé_sans_nom_26-9);}.cls-13{fill:url(#Dégradé_sans_nom_26-10);}.cls-14{fill:url(#Dégradé_sans_nom_26-11);}.cls-15{fill:url(#Dégradé_sans_nom_26-12);}.cls-16{fill:url(#Dégradé_sans_nom_26-13);}.cls-17{fill:url(#Dégradé_sans_nom_39);}.cls-18{fill:url(#Dégradé_sans_nom_39-2);}.cls-19{fill:url(#Dégradé_sans_nom_39-3);}.cls-20{fill:url(#Dégradé_sans_nom_39-4);}.cls-21{fill:url(#Dégradé_sans_nom_39-5);}.cls-22{fill:url(#Dégradé_sans_nom_39-6);}.cls-23{fill:url(#Dégradé_sans_nom_39-7);}.cls-24{fill:#a79783;}.cls-25{fill:#463f36;}.cls-26{fill:#f79f49;}.cls-27{fill:#faaf4c;}.cls-28{fill:#fbb84d;}.cls-29{fill:#744c2c;}.cls-30{fill:url(#Dégradé_sans_nom_7);}.cls-31{fill:#f59331;}.cls-32{fill:#aa7980;}.cls-33{fill:#b07e84;}.cls-34{fill:url(#Dégradé_sans_nom_7-2);}.cls-35{fill:url(#Dégradé_sans_nom_7-3);}.cls-36{fill:url(#Dégradé_sans_nom_7-4);}.cls-37{opacity:0.38;}.cls-38{fill:#c09797;}.cls-39{fill:#657637;}.cls-40{fill:#9b9d56;}.cls-41{fill:#d6ad51;}.cls-42{fill:#7c8f45;}.cls-43{fill:#9a857a;}.cls-44{fill:#a18e7d;}.cls-45{fill:#163100;}.cls-46,.cls-49{fill:#2a4613;}.cls-47{fill:#81a83a;}.cls-48{fill:#96c144;}.cls-49{stroke:#163100;stroke-miterlimit:10;stroke-width:1.31px;}.cls-50{fill:#3f5d28;}</style><linearGradient id="Dégradé_sans_nom_26" x1="1116.92" y1="57.02" x2="1116.92" y2="520.89" gradientUnits="userSpaceOnUse"><stop offset="0" stop-color="#6a7c39"/><stop offset="0.38" stop-color="#647039"/><stop offset="1" stop-color="#3d362e"/></linearGradient><linearGradient id="Dégradé_sans_nom_26-2" x1="731.48" y1="82.81" x2="731.48" y2="520.89" xlink:href="#Dégradé_sans_nom_26"/><linearGradient id="Dégradé_sans_nom_26-3" x1="1025.09" y1="64.55" x2="1025.09" y2="520.89" xlink:href="#Dégradé_sans_nom_26"/><linearGradient id="Dégradé_sans_nom_26-4" x1="641.29" y1="77.09" x2="641.29" y2="520.89" xlink:href="#Dégradé_sans_nom_26"/><linearGradient id="Dégradé_sans_nom_26-5" x1="534.98" y1="82.81" x2="534.98" y2="520.89" xlink:href="#Dégradé_sans_nom_26"/><linearGradient id="Dégradé_sans_nom_26-6" x1="10.4" y1="82.81" x2="10.4" y2="520.89" xlink:href="#Dégradé_sans_nom_26"/><linearGradient id="Dégradé_sans_nom_26-7" x1="189.55" y1="82.81" x2="189.55" y2="520.89" xlink:href="#Dégradé_sans_nom_26"/><linearGradient id="Dégradé_sans_nom_26-8" x1="443.15" y1="64.55" x2="443.15" y2="520.89" xlink:href="#Dégradé_sans_nom_26"/><linearGradient id="Dégradé_sans_nom_26-9" x1="99.35" y1="77.09" x2="99.35" y2="520.89" xlink:href="#Dégradé_sans_nom_26"/><linearGradient id="Dégradé_sans_nom_26-10" x1="854.95" y1="51.54" x2="854.95" y2="520.89" xlink:href="#Dégradé_sans_nom_26"/><linearGradient id="Dégradé_sans_nom_26-11" x1="958.01" y1="90.55" x2="958.01" y2="520.89" xlink:href="#Dégradé_sans_nom_26"/><linearGradient id="Dégradé_sans_nom_26-12" x1="335.94" y1="64.55" x2="335.94" y2="520.89" xlink:href="#Dégradé_sans_nom_26"/><linearGradient id="Dégradé_sans_nom_26-13" x1="266.85" y1="90.55" x2="266.85" y2="520.89" xlink:href="#Dégradé_sans_nom_26"/><linearGradient id="Dégradé_sans_nom_39" x1="1714.67" y1="57.02" x2="1714.67" y2="520.89" gradientUnits="userSpaceOnUse"><stop offset="0" stop-color="#607234"/><stop offset="0.38" stop-color="#647039"/><stop offset="1" stop-color="#3d362e"/></linearGradient><linearGradient id="Dégradé_sans_nom_39-2" x1="1190.09" y1="43.57" x2="1190.09" y2="520.89" xlink:href="#Dégradé_sans_nom_39"/><linearGradient id="Dégradé_sans_nom_39-3" x1="1369.24" y1="24.17" x2="1369.24" y2="520.89" xlink:href="#Dégradé_sans_nom_39"/><linearGradient id="Dégradé_sans_nom_39-4" x1="1622.84" y1="47.59" x2="1622.84" y2="520.89" xlink:href="#Dégradé_sans_nom_39"/><linearGradient id="Dégradé_sans_nom_39-5" x1="1279.04" y1="32.17" x2="1279.04" y2="520.89" xlink:href="#Dégradé_sans_nom_39"/><linearGradient id="Dégradé_sans_nom_39-6" x1="1515.63" y1="43.57" x2="1515.63" y2="520.89" xlink:href="#Dégradé_sans_nom_39"/><linearGradient id="Dégradé_sans_nom_39-7" x1="1446.54" y1="32.17" x2="1446.54" y2="520.89" xlink:href="#Dégradé_sans_nom_39"/><linearGradient id="Dégradé_sans_nom_7" x1="718.25" y1="521.49" x2="718.25" y2="440.39" gradientUnits="userSpaceOnUse"><stop offset="0" stop-color="#a87b53"/><stop offset="0.18" stop-color="#966b45"/><stop offset="0.44" stop-color="#835a37"/><stop offset="0.71" stop-color="#784f2f"/><stop offset="1" stop-color="#744c2c"/></linearGradient><linearGradient id="Dégradé_sans_nom_7-2" x1="1031.2" y1="269.18" x2="1031.2" y2="228.93" gradientTransform="translate(12.98 374.47) rotate(-5.95)" xlink:href="#Dégradé_sans_nom_7"/><linearGradient id="Dégradé_sans_nom_7-3" x1="1008.49" y1="280.76" x2="1008.49" y2="240.51" gradientTransform="translate(12.98 374.47) rotate(-5.95)" xlink:href="#Dégradé_sans_nom_7"/><linearGradient id="Dégradé_sans_nom_7-4" x1="1056.22" y1="281.47" x2="1056.22" y2="241.23" gradientTransform="translate(12.98 374.47) rotate(-5.95)" xlink:href="#Dégradé_sans_nom_7"/></defs><title>decor</title><g id="fond"><rect class="cls-1" x="-12.24" y="-27.31" width="1792" height="851.6"/><path class="cls-2" d="M1146.92,117.35c-116.92,59.73-100.06,90.24-203.17,90.24S836.61,293.92,885,331.45s-6.66,86.36,44.18,184S1901.37,657,1914.57,657.13s-56.77-672-56.77-672L1519.86-142Z"/><path class="cls-2" d="M597.69,223.07c52.87-19.58,74.68-57.77,94.62,0s19.16,31.7,39.17,55.51,28.75,27.11,37.56,52.87,63.92,49.46,65.74,73.36-5,140.36-5,140.36L597.69,557Z"/><path class="cls-3" d="M1136.27,446.08c3.19-27.89,4.18-127.08,1.15-140.89s3.64-34.22,1.83-55.72S1130,172.08,1130,142s1.73-76.76-.3-82.44-31.45,0-31.45,0c2.23,42.92-4,73-4,77.26s3.9,19.7,4.43,26.49-.53,47.54,0,59.89,7.46,27.17,5.17,46.93,4.41,74.09,1.64,98.79c-2.12,18.91-5.58,102.68-6.83,152h38.59C1136.7,492.34,1134.59,460.8,1136.27,446.08Z"/><path class="cls-4" d="M750.83,450.24C754,423.9,755,330.23,752,317.18s3.64-32.31,1.83-52.62-9.22-73.09-9.22-101.51,1.73-72.49-.3-77.86-31.45,0-31.45,0c2.23,40.54-4,68.92-4,73s3.9,18.61,4.43,25-.53,44.9,0,56.56,7.46,25.66,5.17,44.32,4.41,70,1.64,93.3c-2.12,17.86-5.58,97-6.83,143.53h38.59C751.26,493.92,749.15,464.14,750.83,450.24Z"/><path class="cls-5" d="M834.78,275H707.51c-20.74,0-19.78-16.36,0-16.36h29.57c12.12,0,12.12-13.07,0-13.07H725c-11.07,0-11-12.12,0-12.12h88.12c12.12,0,12.67,12.12-1.65,12.12s-8,.75-5.63,5.83S834.78,275,834.78,275Z"/><path class="cls-5" d="M997.1,383h127.27c20.74,0,19.77-16.36,0-16.36H1094.8c-12.12,0-12.12-13.07,0-13.07h12.11c11.07,0,11-12.11,0-12.11h-88.12c-12.12,0-12.67,12.11,1.65,12.11s8,.76,5.63,5.83S997.1,383,997.1,383Z"/><path class="cls-6" d="M1055.6,479.37c-.92-37.15.49-113.61,3.39-153.57s-1.93-123.64-2.42-150,0-67.58-1.94-93-64.36-16.9-64.36-16.9c.84,42.89,5,139.85,3.34,174.53s-3.39,53.82.39,76.74-1.28,69.27,0,111.72c.85,28.2-.64,64.62-1.27,92h64C1056.57,507.62,1055.94,493.09,1055.6,479.37Z"/><path class="cls-7" d="M671.8,491.92c-.92-37.16.48-113.61,3.39-153.57s-1.94-123.64-2.42-150,0-67.57-1.94-93-64.36-16.9-64.36-16.9c.83,42.88,5,139.84,3.34,174.53s-3.4,53.82.39,76.74-1.28,69.27,0,111.72c.72,24.07-.26,54.13-1,79.44h63.42C672.41,511.3,672,501.41,671.8,491.92Z"/><path class="cls-8" d="M554.33,450.24c3.19-26.34,4.18-120,1.15-133.06s3.64-32.31,1.83-52.62-9.22-73.09-9.22-101.51,1.73-72.49-.3-77.86-31.45,0-31.45,0c2.23,40.54-4,68.92-4,73s3.9,18.61,4.43,25-.53,44.9,0,56.56,7.46,25.66,5.17,44.32,4.41,70,1.64,93.3c-2.12,17.86-5.58,97-6.83,143.53h38.59C554.76,493.92,552.65,464.14,554.33,450.24Z"/><path class="cls-9" d="M29.75,450.24c3.19-26.34,4.18-120,1.15-133.06s3.64-32.31,1.82-52.62S23.5,191.47,23.5,163.05s1.73-72.49-.3-77.86-31.45,0-31.45,0c2.24,40.54-4,68.92-4,73s3.89,18.61,4.43,25-.54,44.9,0,56.56,7.46,25.66,5.16,44.32S1.76,354-1,377.36c-2.12,17.86-5.58,97-6.82,143.53H30.76C30.18,493.92,28.06,464.14,29.75,450.24Z"/><path class="cls-10" d="M208.89,450.24c3.19-26.34,4.19-120,1.15-133.06s3.65-32.31,1.83-52.62-9.22-73.09-9.22-101.51,1.73-72.49-.3-77.86-31.45,0-31.45,0c2.23,40.54-4,68.92-4,73s3.89,18.61,4.42,25-.53,44.9,0,56.56,7.47,25.66,5.17,44.32,4.41,70,1.64,93.3c-2.12,17.86-5.58,97-6.82,143.53H209.9C209.32,493.92,207.21,464.14,208.89,450.24Z"/><path class="cls-11" d="M473.66,479.37c-.92-37.15.49-113.61,3.39-153.57s-1.93-123.64-2.42-150,0-67.58-1.94-93-64.36-16.9-64.36-16.9c.84,42.89,5,139.85,3.34,174.53s-3.39,53.82.39,76.74-1.28,69.27,0,111.72c.85,28.2-.64,64.62-1.27,92h64C474.63,507.62,474,493.09,473.66,479.37Z"/><path class="cls-12" d="M129.86,491.92c-.92-37.16.49-113.61,3.39-153.57s-1.94-123.64-2.42-150,0-67.57-1.94-93-64.36-16.9-64.36-16.9c.83,42.88,5,139.84,3.34,174.53s-3.39,53.82.39,76.74S67,399,68.26,441.45c.73,24.07-.25,54.13-1,79.44h63.42C130.47,511.3,130.1,501.41,129.86,491.92Z"/><path class="cls-13" d="M902.69,466.37c-1.44-37.16.76-113.62,5.3-153.57s-3-123.64-3.79-150,0-67.57-3-93-100.7-16.89-100.7-16.89c1.31,42.88,7.84,139.84,5.22,174.53s-5.3,53.82.62,76.74-2,69.27,0,111.71c1.55,33-1.9,77.16-2.35,105H904.38C904.92,504.58,903.4,484.74,902.69,466.37Z"/><path class="cls-14" d="M977.35,458c3.19-26.34,4.19-120,1.15-133.06s3.65-32.31,1.83-52.62-9.22-73.09-9.22-101.51,1.73-72.49-.3-77.85-31.45,0-31.45,0c2.24,40.53-4,68.91-4,73s3.89,18.6,4.43,25-.54,44.9,0,56.57,7.46,25.65,5.16,44.31,4.41,70,1.64,93.3c-2,16.91-5.21,88.68-6.6,135.79h38.16C977.42,496.15,975.83,470.56,977.35,458Z"/><path class="cls-15" d="M366.45,479.37c-.92-37.15.48-113.61,3.39-153.57s-1.94-123.64-2.43-150,0-67.58-1.93-93-64.37-16.9-64.37-16.9c.84,42.89,5,139.85,3.34,174.53s-3.39,53.82.39,76.74-1.28,69.27,0,111.72c.85,28.2-.64,64.62-1.26,92h64C367.41,507.62,366.79,493.09,366.45,479.37Z"/><path class="cls-16" d="M286.2,458c3.19-26.34,4.18-120,1.15-133.06s3.64-32.31,1.82-52.62S280,199.21,280,170.79s1.73-72.49-.3-77.85-31.45,0-31.45,0c2.24,40.53-4,68.91-4,73s3.89,18.6,4.43,25-.54,44.9,0,56.57,7.46,25.65,5.16,44.31,4.41,70,1.64,93.3c-2,16.91-5.21,88.68-6.6,135.79H287C286.26,496.15,284.67,470.56,286.2,458Z"/><path class="cls-17" d="M1734,446.08c3.19-27.89,4.18-127.08,1.15-140.89s3.64-34.22,1.83-55.72-9.22-77.39-9.22-107.48,1.73-76.76-.3-82.44-31.45,0-31.45,0c2.23,42.92-4,73-4,77.26s3.9,19.7,4.43,26.49-.53,47.54,0,59.89,7.46,27.17,5.17,46.93,4.41,74.09,1.64,98.79c-2.12,18.91-5.58,102.68-6.83,152H1735C1734.45,492.34,1732.34,460.8,1734,446.08Z"/><path class="cls-18" d="M1209.44,443.91c3.19-28.69,4.18-130.76,1.15-145s3.64-35.21,1.82-57.34-9.22-79.63-9.22-110.6,1.73-79-.3-84.83-31.45,0-31.45,0c2.24,44.17-4,75.09-4,79.51s3.89,20.27,4.43,27.26-.54,48.92,0,61.62,7.46,28,5.16,48.29,4.41,76.24,1.64,101.65c-2.12,19.47-5.58,105.67-6.82,156.39h38.59C1209.87,491.51,1207.75,459.05,1209.44,443.91Z"/><path class="cls-19" d="M1388.58,440.78c3.19-29.86,4.19-136.07,1.15-150.87s3.65-36.64,1.83-59.66-9.22-82.87-9.22-115.09,1.73-82.2-.3-88.28-31.45,0-31.45,0c2.23,46-4,78.14-4,82.73s3.89,21.1,4.43,28.37-.54,50.91,0,64.13,7.46,29.09,5.16,50.25,4.41,79.34,1.64,105.79c-2.12,20.25-5.58,110-6.82,162.74h38.58C1389,490.31,1386.9,456.54,1388.58,440.78Z"/><path class="cls-20" d="M1653.35,477.83c-.92-38.54.49-117.83,3.39-159.28s-1.93-128.23-2.42-155.6,0-70.08-1.94-96.42S1588,49,1588,49c.84,44.47,5,145,3.34,181s-3.39,55.82.39,79.59-1.28,71.85,0,115.87c.85,29.25-.64,67-1.27,95.41h64C1654.32,507.13,1653.69,492.05,1653.35,477.83Z"/><path class="cls-21" d="M1309.55,489c-.92-40.92.49-125.12,3.39-169.12s-1.93-136.15-2.42-165.21,0-74.42-1.94-102.38-64.36-18.61-64.36-18.61c.84,47.23,5,154,3.34,192.2s-3.39,59.27.39,84.51-1.28,76.28,0,123c.73,26.51-.25,59.62-1,87.49h63.42C1310.16,510.33,1309.79,499.44,1309.55,489Z"/><path class="cls-22" d="M1546.14,477.46c-.92-38.86.48-118.83,3.39-160.62s-1.94-129.33-2.43-156.93,0-70.68-1.93-97.24S1480.8,45,1480.8,45c.84,44.85,5,146.27,3.34,182.55s-3.39,56.3.39,80.27-1.28,72.45,0,116.85c.85,29.5-.64,67.59-1.26,96.22h64C1547.1,507,1546.48,491.81,1546.14,477.46Z"/><path class="cls-23" d="M1465.89,449.44c3.19-29.9,4.18-136.29,1.15-151.1s3.64-36.7,1.82-59.76-9.22-83-9.22-115.28,1.74-82.32-.29-88.42-31.46,0-31.46,0c2.24,46-4,78.26-4,82.87s3.89,21.13,4.43,28.41-.54,51,0,64.23,7.46,29.14,5.16,50.33,4.41,79.47,1.64,106c-2,19.2-5.21,100.71-6.6,154.21h38.16C1466,492.8,1464.36,463.73,1465.89,449.44Z"/><ellipse class="cls-24" cx="659.92" cy="383.7" rx="3.38" ry="5.38"/><ellipse class="cls-24" cx="1292.58" cy="437.73" rx="3.38" ry="5.38"/><circle class="cls-24" cx="737.26" cy="415.78" r="3.56"/><circle class="cls-24" cx="1505.84" cy="387.39" r="3.56"/><circle class="cls-24" cx="658.44" cy="396.34" r="0.77"/><circle class="cls-24" cx="1446.54" cy="365.64" r="0.77"/><circle class="cls-24" cx="1281.73" cy="421.13" r="0.77"/><circle class="cls-24" cx="1034.66" cy="353.04" r="0.77"/><path class="cls-25" d="M608.61,463.14c20.6-9.87,57.18-35.5,64.21-44.66,3.85-4.15,1.26-7.32.37-6.1-6.88,9.37-56.57,43.1-64.58,46.07C605.41,459.63,606,464.41,608.61,463.14Z"/><path class="cls-25" d="M1248.63,415.35c20.6-9.87,57.18-35.5,64.21-44.66,3.85-4.16,1.26-7.32.37-6.1-6.88,9.37-56.57,43.1-64.58,46.07C1245.43,411.84,1246,416.61,1248.63,415.35Z"/></g><g id="Calque_1" data-name="Calque 1"><path class="cls-26" d="M611.36,521.49H819.83c-2.19-23.78-7.51-50.77-29.08-54.37s-23.46-20.64-26.27-33.46-24-25.31-53.68-8.42c-20.95-12.82-53,5-45.11,32.46-16.26,1.25-26.29,12.14-30,31.9S620.61,521.49,611.36,521.49Z"/><path class="cls-27" d="M611.36,521.49H819.83c-2.19-23.78-44.53-31.91-56.4-50.29-21.81-33.75-70.26-23.31-84.31-3.73-4.61,6.43-11.21,4.93-18.56,7.87-8.79,3.51-22.51,1.64-24.91,14.26C631.9,509.36,620.61,521.49,611.36,521.49Z"/><path class="cls-28" d="M616.84,521.49c20.81,0,42-44.28,74-37.75s21.7-3.82,51,1.27,74.2,27.12,74.68,36.48Z"/><polygon class="cls-29" points="700.05 465.81 714.96 496.21 714.96 481.01 700.05 465.81"/><polygon class="cls-29" points="725.71 450.49 718.25 461.44 719.77 468.32 725.71 450.49"/><polygon class="cls-30" points="710.8 521.49 718.25 440.39 725.71 521.49 710.8 521.49"/><circle class="cls-28" cx="745.81" cy="432.13" r="4.99"/><circle class="cls-28" cx="677.04" cy="449.26" r="2"/><circle class="cls-31" cx="747.27" cy="477.48" r="3.46"/><circle class="cls-27" cx="686.07" cy="503.23" r="5.46"/><path class="cls-32" d="M1017.33,520.47s115.93,37.54,105.56-3.8-38.74-39.87-44-27.26c-29.48-63.06-37.52-28.62-34.1,7.75-16.68-32.4-36.91-3.33-27.42,23.31"/><path class="cls-33" d="M1019.35,526.83c-5.45-15.74,8.48-23.24,21.39-15.29,12-10.85,22.13-13.7,35.85-7.72,8-9.54,30.61-13.15,45.18,8.76s0,28.52,0,28.52l-72.21-5Z"/><polygon class="cls-34" points="1062.85 535.66 1062.36 495.25 1070.21 534.89 1062.85 535.66"/><polygon class="cls-35" points="1041.47 549.53 1040.98 509.12 1048.83 548.77 1041.47 549.53"/><polygon class="cls-36" points="1089.01 545.3 1088.52 504.89 1096.37 544.53 1089.01 545.3"/><circle class="cls-37" cx="697.52" cy="313.68" r="5.21"/><circle class="cls-37" cx="104.56" cy="378.32" r="5.21"/><circle class="cls-37" cx="375.97" cy="273.03" r="5.21"/><circle class="cls-37" cx="914.65" cy="222.85" r="5.21"/><circle class="cls-37" cx="1024.78" cy="311.73" r="9.88"/><circle class="cls-37" cx="1651.6" cy="233.43" r="9.88"/><circle class="cls-37" cx="166.91" cy="182.13" r="9.88"/><circle class="cls-37" cx="754.13" cy="149.06" r="9.88"/><circle class="cls-37" cx="1076.24" cy="210.42" r="4.94"/><circle class="cls-37" cx="22.16" cy="237.03" r="4.94"/><circle class="cls-37" cx="834.78" cy="280.19" r="2.36"/><circle class="cls-37" cx="1614.4" cy="134.68" r="2.36"/><circle class="cls-37" cx="1120.3" cy="114.06" r="2.36"/><circle class="cls-37" cx="1404.16" cy="280.19" r="2.36"/><circle class="cls-37" cx="157.03" cy="217.64" r="2.36"/><circle class="cls-37" cx="428.39" cy="308.47" r="2.36"/><circle class="cls-37" cx="99.35" cy="273.03" r="2.36"/><circle class="cls-37" cx="189.55" cy="390.74" r="2.36"/><path class="cls-38" d="M1027.58,485.3c-4,1.69-8.18,6-8.6,9.33s5.12-4.44,7.79-6.27C1028.4,487.25,1030.77,484,1027.58,485.3Z"/><path class="cls-38" d="M1051.12,457.21c-2.63,3.44-4.14,9.24-2.85,12.35s2.25-6.39,3.67-9.3C1052.8,458.5,1053.23,454.46,1051.12,457.21Z"/><path class="cls-38" d="M1090.14,484c-3.6.71-7.81,3.53-8.73,6.22s5-2.78,7.53-3.82C1090.48,485.77,1093,483.45,1090.14,484Z"/></g><g id="sol"><path class="cls-1" d="M614.51,594.74v112.8h525.06V589.69C1012.17,548.09,711.48,560.36,614.51,594.74Z"/><path class="cls-39" d="M1031.64,520.75c-125.54-.41-319.08-1.92-345.57-7.29-19.81-4-39-2.16-53.27.7a328.4,328.4,0,0,1-65.58,6.62L208.87,507.11q-58.41-2.22-116.85.81l-135.28,7c-34.33,1.78-54.48,39.39-37,69h0a45.7,45.7,0,0,0,28.87,21.21c75,17.58,359.78,73.31,664.07-9.9,1.2-.33,2.37-.7,3.53-1.12,99.19-35.4,391.35-45.6,519.87-5.52,2.43.76,64.58,11.41,67.11,11.74l694.84,89c33.37,4.39,59.88-27.56,49.42-59.54l-47.13-144.05c-6.54-20-22.19-9.89-43.19-8.29h0c-17.32,25.38-235.68,20.49-341.54,17.37S1160,507.14,1160,507.14a293.16,293.16,0,0,0-35,4.82A481.62,481.62,0,0,1,1031.64,520.75Z"/><ellipse class="cls-40" cx="883.26" cy="626.57" rx="234.08" ry="42.56"/><ellipse class="cls-41" cx="883.26" cy="626.57" rx="183.02" ry="33.28"/><ellipse class="cls-28" cx="883.26" cy="626.57" rx="144.32" ry="26.24"/><ellipse class="cls-42" cx="660.66" cy="532.56" rx="7.97" ry="4.09"/><ellipse class="cls-42" cx="142.14" cy="549.66" rx="7.97" ry="4.09"/><circle class="cls-42" cx="669.6" cy="541.93" r="0.97"/><ellipse class="cls-42" cx="1022.3" cy="531.48" rx="5.28" ry="2.15"/><ellipse class="cls-42" cx="1646.32" cy="546.71" rx="5.28" ry="2.15"/><ellipse class="cls-42" cx="352.09" cy="542.89" rx="5.28" ry="2.15"/><ellipse class="cls-42" cx="1078.38" cy="548.49" rx="2.8" ry="0.65"/><ellipse class="cls-42" cx="443.15" cy="581.64" rx="2.8" ry="0.65"/><ellipse class="cls-42" cx="1446.54" cy="539.43" rx="2.8" ry="0.65"/><ellipse class="cls-42" cx="1479.51" cy="607.85" rx="2.8" ry="0.65"/><ellipse class="cls-42" cx="1075.38" cy="535.14" rx="13.14" ry="3.66"/><ellipse class="cls-42" cx="1678.89" cy="541.1" rx="13.14" ry="3.66"/><ellipse class="cls-42" cx="322.79" cy="535.14" rx="13.14" ry="3.66"/><ellipse class="cls-42" cx="1313.87" cy="584.59" rx="13.14" ry="3.66"/><path class="cls-43" d="M684,555.74c-2.34-3.19,4.55-22.31,12.06-22.22s14.42,4,19.75,7.1,2.57,15.51-4.54,17.49S688.3,561.66,684,555.74Z"/><path class="cls-44" d="M687.34,556.14c-2.12-2.88,4.1-20.12,10.87-20s13,3.64,17.83,6.4,2.31,14-4.1,15.78S691.26,561.49,687.34,556.14Z"/><path class="cls-24" d="M691.71,556.67c-1.81-2.48,3.53-17.31,9.35-17.24s11.19,3.13,15.33,5.51,2,12-3.53,13.57S695.08,561.27,691.71,556.67Z"/><path class="cls-43" d="M1481.27,590.67c-2.34-3.19,4.54-22.31,12-22.22s14.43,4,19.76,7.1,2.57,15.51-4.54,17.49S1485.62,596.59,1481.27,590.67Z"/><path class="cls-44" d="M1484.65,591.07c-2.11-2.88,4.1-20.12,10.88-20s13,3.64,17.82,6.4,2.32,14-4.1,15.78S1488.57,596.42,1484.65,591.07Z"/><path class="cls-24" d="M1489,591.6c-1.82-2.48,3.52-17.3,9.35-17.24s11.19,3.13,15.33,5.51,2,12-3.53,13.57S1492.4,596.2,1489,591.6Z"/></g><g id="feuilles"><circle class="cls-45" cx="1117.83" cy="652.12" r="19.56"/><circle class="cls-45" cx="1020.33" cy="671.69" r="6.11"/><circle class="cls-45" cx="1085.68" cy="610.32" r="2.47"/><circle class="cls-45" cx="1101.47" cy="569.83" r="4.28"/><path class="cls-45" d="M1117.16,664.37a77.51,77.51,0,0,1-13.91-26.08,55.13,55.13,0,0,1-2.35-14.7,30.78,30.78,0,0,1,3.19-14.81c.6-1.25,1.17-2,1.67-3.08s1-2,1.4-3.06a51,51,0,0,0,2.12-6.51,63,63,0,0,0,2-13.69,49.5,49.5,0,0,0-1.39-13.82,28,28,0,0,0-6.39-12.33,28.55,28.55,0,0,1,7.39,12,51,51,0,0,1,2.48,14.1,65.51,65.51,0,0,1-1,14.38,56.67,56.67,0,0,1-1.74,7.08c-.39,1.17-.8,2.33-1.29,3.47s-1.13,2.35-1.47,3.26a26.18,26.18,0,0,0-1.73,12.74,49.66,49.66,0,0,0,3.08,13,70.5,70.5,0,0,0,14.26,22.58Z"/><path class="cls-46" d="M1103,615.76c-3.18-17.65-11.29-24.6-19.39-21.41s18.3,18,24.92,40"/><path class="cls-47" d="M1110,593.15c2-10.44,6.81-14.51,11.59-12.59s-10.93,10.6-15,23.56"/><path class="cls-46" d="M1131.11,763.71c-28.7-23.63-50.38-69.23-68.75-108.06-.11-.25,11.41-7.41,11.3-7.66s-13,4.69-13.14,4.44c-9-19.12-17-36-24-46.89a1.3,1.3,0,0,1,1.57-1.91c39.84,16.16,90,40.13,120,79.24C1189,723.29,1176.92,801.44,1131.11,763.71Z"/><path class="cls-45" d="M1053.29,617.33c50.12,32.49,87.72,97.93,97.93,133.67C1139.15,696.7,1117.34,654.93,1053.29,617.33Z"/><path class="cls-45" d="M1121.42,734.15a117.33,117.33,0,0,0-30.27-33.5,83.31,83.31,0,0,0-19.71-10.92c-7-2.62-14.41-4-21.54-3-1.62.22-3.91.74-6,1s-4.16.42-6.24.52a93.71,93.71,0,0,1-12.33-.37,110.85,110.85,0,0,1-23.86-4.95,87.22,87.22,0,0,1-21.85-10.46c-6.65-4.53-12.59-10.36-16.23-17.5,4.16,6.85,10.39,12.09,17.17,16a84.44,84.44,0,0,0,21.88,8.56,107.28,107.28,0,0,0,23.2,3,87.17,87.17,0,0,0,11.56-.5c1.9-.23,3.79-.5,5.63-.89s3.47-.86,5.77-1.38a45.42,45.42,0,0,1,13-.77,61.7,61.7,0,0,1,12.58,2.37,92.88,92.88,0,0,1,22.88,10.53,129.77,129.77,0,0,1,36.14,34.51Z"/><path class="cls-46" d="M1060.52,681.16c-27.31-13.22-34.93-29.58-26.06-41.33s21,38,53.78,58.79"/><path class="cls-47" d="M1020.49,682.3c-17.9-1.54-26.73,4.48-25.77,13.15s22.22-13,45.17-13.65"/><path class="cls-46" d="M622.47,683.22c-2.09-13.41,1.46-30.36,3.46-35.15S625.18,675.17,622.47,683.22Z"/><path class="cls-46" d="M628.41,675.93c-2.09-13.4,1.45-30.36,3.45-35.14S631.11,667.89,628.41,675.93Z"/><path class="cls-46" d="M633.46,669.9c-2.09-13.4,1.46-30.36,3.46-35.14S636.17,661.86,633.46,669.9Z"/><path class="cls-46" d="M639,661.54c-2.09-13.4,1.46-30.36,3.46-35.14S641.7,653.5,639,661.54Z"/><path class="cls-46" d="M644.17,655.48c-2.09-13.4,1.46-30.36,3.45-35.14S646.87,647.44,644.17,655.48Z"/><path class="cls-46" d="M649.37,650c-2.09-13.4,1.46-30.36,3.46-35.15S652.08,642,649.37,650Z"/><path class="cls-46" d="M654.76,645.24c-1.92-12.3,1.34-27.87,3.17-32.26S657.25,637.86,654.76,645.24Z"/><path class="cls-46" d="M660.68,638.52c-1.68-10.79,1.17-24.43,2.78-28.28S662.85,632.05,660.68,638.52Z"/><path class="cls-46" d="M666.08,630.52c-1.24-8,.87-18.08,2.06-20.93S667.69,625.73,666.08,630.52Z"/><path class="cls-46" d="M668.13,628.09c1.14-8,6.11-17,8.08-19.42S671.07,624,668.13,628.09Z"/><path class="cls-46" d="M668.49,628.5c4.94-6.39,13.73-11.8,16.61-12.9S673.08,626.38,668.49,628.5Z"/><path class="cls-48" d="M602.1,689.32c25.22,2.72,56.58-5.4,65.34-9.56S616.88,683.56,602.1,689.32Z"/><path class="cls-46" d="M615.19,677.59c25.22,2.72,56.58-5.4,65.34-9.55S630,671.83,615.19,677.59Z"/><path class="cls-46" d="M633.23,668.33c13.56.14,29.83-5.82,34.28-8.48S640.8,664.5,633.23,668.33Z"/><path class="cls-46" d="M640.7,661.66c13.57.13,29.84-5.82,34.28-8.49S648.27,657.82,640.7,661.66Z"/><path class="cls-46" d="M646,655.66c13.56.14,29.83-5.82,34.28-8.48S653.53,651.83,646,655.66Z"/><path class="cls-46" d="M650.62,649.72c13.57.14,29.84-5.82,34.28-8.48S658.19,645.89,650.62,649.72Z"/><path class="cls-46" d="M654.56,643.7c12.45.13,27.39-5.34,31.47-7.79S661.51,640.18,654.56,643.7Z"/><path class="cls-46" d="M660.36,636.88c10.92.11,24-4.68,27.59-6.83S666.45,633.79,660.36,636.88Z"/><path class="cls-46" d="M667.49,630.38c8.08.08,17.77-3.47,20.42-5S672,628.09,667.49,630.38Z"/><path class="cls-49" d="M578.29,713.66c43-23.42,78-68.46,89.38-85.52,6.18-9.26-51.71,74.62-94.57,78.81C535.48,710.63,578.29,713.66,578.29,713.66Z"/><path class="cls-50" d="M569.28,696.91c22.72-19,61.63-29.36,94.75-38.08.22-.05,4.14,10,4.35,10s-1.77-10.89-1.56-10.95c16.31-4.29,30.74-8,40.27-12a1,1,0,0,1,1.26,1.52c-18.49,28.86-44.61,64.67-79.64,82.45C592.49,748.23,533,727.3,569.28,696.91Z"/><path class="cls-45" d="M695.39,657.32c-32.79,34.54-89.58,54.44-119.08,57.21C620.63,713,656.56,702,695.39,657.32Z"/><circle class="cls-45" cx="706.17" cy="716.4" r="3.32"/><circle class="cls-45" cx="740.01" cy="668.63" r="5.77"/><path class="cls-45" d="M623.57,709.91a93.41,93.41,0,0,0,36-.69,66.21,66.21,0,0,0,16.86-6.14,35.69,35.69,0,0,0,13.08-11.36c.71-1.09,1.6-2.74,2.53-4.08s1.93-2.73,3-4a74.83,74.83,0,0,1,6.67-7.21,88.22,88.22,0,0,1,15.44-11.76,69.67,69.67,0,0,1,17.7-7.66c6.2-1.63,12.81-2.16,19-.61a37.81,37.81,0,0,0-18.6,2A67.15,67.15,0,0,0,718.59,667a84.6,84.6,0,0,0-14,12.35,68.05,68.05,0,0,0-5.75,7.21c-.85,1.26-1.68,2.53-2.41,3.85s-1.29,2.53-2.18,4.18A42,42,0,0,1,680,709.12a73.8,73.8,0,0,1-18.28,8.25,103.27,103.27,0,0,1-39.63,3.69Z"/><path class="cls-46" d="M687.25,701c22.21-9.51,36-5.54,38.45,5.93s-33.84-7.21-63.43,1.61"/><path class="cls-46" d="M707.48,676.35c10.28-10,11.27-18.41,5.56-22.36s-3.81,20.14-15.4,34.28"/><path class="cls-45" d="M606.84,57.47a185.76,185.76,0,0,1,23.28,3.67c7.73,1.86,15.5,4.31,22.76,8.44A48.82,48.82,0,0,1,663,77.13a38.73,38.73,0,0,1,7.59,10.33,40.6,40.6,0,0,1,3.82,12,56.51,56.51,0,0,1,.52,12.15,78.5,78.5,0,0,1-1.65,11.73l-.65,2.85-.31,1.34c-.11.43-.19.86-.28,1.29a40.47,40.47,0,0,0-.68,5.26,26.92,26.92,0,0,0,1.18,10.27,14.75,14.75,0,0,0,6,7.84,21.31,21.31,0,0,0,10,3,38.86,38.86,0,0,0,5.5,0l1.41-.09a9.26,9.26,0,0,1,1.58,0,10.54,10.54,0,0,1,3,.68c3.8,1.46,6.66,4.23,9.16,7.09a54.81,54.81,0,0,1,6.42,9.4,54.21,54.21,0,0,0-7.07-8.8c-2.64-2.61-5.66-5-9.07-6a8.92,8.92,0,0,0-2.54-.37,7.44,7.44,0,0,0-1.25.09l-1.41.21a43.25,43.25,0,0,1-5.83.48,24.32,24.32,0,0,1-11.72-2.62,17.78,17.78,0,0,1-4.93-3.93,20.21,20.21,0,0,1-3.34-5.34,31.52,31.52,0,0,1-2.37-12,43.57,43.57,0,0,1,.3-6c.06-.5.12-1,.2-1.5l.22-1.45.4-2.72a71.88,71.88,0,0,0,.68-10.82c-.12-7.13-1.56-14.1-5-19.72S654.11,81.88,648,79a75.09,75.09,0,0,0-20.2-5.69A171.67,171.67,0,0,0,606,71.62Z"/><circle class="cls-45" cx="682.45" cy="119.44" r="1.04"/><circle class="cls-45" cx="706.94" cy="149.06" r="3.67"/><circle class="cls-45" cx="651.16" cy="123.6" r="5.21"/><circle class="cls-45" cx="679.36" cy="144.97" r="2.05"/><circle class="cls-45" cx="689.73" cy="161.63" r="1.22"/><path class="cls-46" d="M667.8,114.91c-.06,14.31,5.29,20.93,12.11,19.61s-11.74-16.8-13.75-35"/><path class="cls-47" d="M675.13,149.23c3,4.39,2.72,7.53.35,8.54s.12-7.6-3-13.6"/></g></svg>