<svg version="1.1" id="Calque_1" xmlns="http://www.w3.org/2000/svg" xmlns:xlink="http://www.w3.org/1999/xlink" x="0px" y="0px"
	 width="375px" height="667px" viewBox="0 0 375 667" enable-background="new 0 0 375 667" xml:space="preserve">
<g>
	<defs>
		<rect id="SVGID_1_" width="375" height="667"/>
	</defs>
	<clipPath id="SVGID_2_">
		<use xlink:href="#SVGID_1_"  display="none" overflow="visible"/>
	</clipPath>
	<rect x="-537.543" y="-22.171" clip-path="url(#SVGID_2_)" fill="#6A7C39" width="1462.69" height="691.356"/>
	<path clip-path="url(#SVGID_2_)" fill="#607234" d="M408.603,95.269c-95.436,48.492-81.672,73.254-165.836,73.254
		s-87.448,70.088-47.943,100.56s-5.436,70.103,36.058,149.379s793.522,114.931,804.301,115.015
		c10.779,0.085-46.341-545.577-46.341-545.577l-275.84-103.156L408.603,95.269z"/>
	<path clip-path="url(#SVGID_2_)" fill="#607234" d="M-39.701,181.097c43.159-15.899,60.963-46.901,77.237,0
		s15.637,25.733,31.973,45.064s23.464,22.002,30.657,42.922c7.193,20.92,52.168,40.153,53.658,59.551
		c1.49,19.398-4.105,113.951-4.105,113.951l-189.421,9.584V181.097z"/>
	<linearGradient id="SVGID_3_" gradientUnits="userSpaceOnUse" x1="384.1172" y1="46.2892" x2="384.1172" y2="422.8761">
		<stop  offset="0" style="stop-color:#6A7C39"/>
		<stop  offset="0.3846" style="stop-color:#647039"/>
		<stop  offset="1" style="stop-color:#3D362E"/>
	</linearGradient>
	<path clip-path="url(#SVGID_2_)" fill="url(#SVGID_3_)" d="M399.908,362.137c2.603-22.636,3.415-103.161,0.938-114.376
		c-2.477-11.215,2.975-27.779,1.492-45.236s-7.526-62.826-7.526-87.256s1.413-62.314-0.244-66.929c-1.657-4.615-25.671,0-25.671,0
		c1.823,34.848-3.26,59.242-3.26,62.726c0,3.485,3.178,15.992,3.616,21.506c0.437,5.514-0.437,38.597,0,48.622
		c0.437,10.025,6.089,22.055,4.215,38.095c-1.874,16.04,3.6,60.151,1.339,80.201c-1.731,15.355-4.556,83.362-5.57,123.385h31.494
		C400.258,399.693,398.533,374.087,399.908,362.137z"/>
	<linearGradient id="SVGID_4_" gradientUnits="userSpaceOnUse" x1="69.5091" y1="67.2264" x2="69.5091" y2="422.8761">
		<stop  offset="0" style="stop-color:#6A7C39"/>
		<stop  offset="0.3846" style="stop-color:#647039"/>
		<stop  offset="1" style="stop-color:#3D362E"/>
	</linearGradient>
	<path clip-path="url(#SVGID_2_)" fill="url(#SVGID_4_)" d="M85.3,365.514c2.603-21.378,3.415-97.426,0.938-108.017
		c-2.477-10.591,2.975-26.235,1.492-42.721s-7.526-59.333-7.526-82.405s1.413-58.849-0.244-63.208c-1.657-4.359-25.671,0-25.671,0
		c1.824,32.911-3.26,55.948-3.26,59.239c0,3.291,3.178,15.103,3.616,20.31c0.437,5.207-0.437,36.451,0,45.919
		c0.437,9.468,6.089,20.829,4.215,35.977c-1.874,15.148,3.6,56.807,1.339,75.742c-1.731,14.501-4.556,78.728-5.57,116.525h31.495
		C85.65,400.982,83.925,376.8,85.3,365.514z"/>
	<path opacity="0.31" clip-path="url(#SVGID_2_)" fill="#FFFFFF" d="M153.824,223.234c-65.856,0-86.961,0-103.887,0
		s-16.139-13.281,0-13.281s14.251,0,24.142,0s9.89-10.61,0-10.61s-0.857,0-9.89,0s-8.991-9.837,0-9.837s62.04,0,71.93,0
		s10.34,9.837-1.349,9.837s-6.541,0.611-4.592,4.731C132.127,208.194,153.824,223.234,153.824,223.234z"/>
	<path opacity="0.31" clip-path="url(#SVGID_2_)" fill="#FFFFFF" d="M286.309,310.941c65.856,0,86.961,0,103.887,0
		c16.926,0,16.139-13.281,0-13.281s-14.251,0-24.142,0s-9.89-10.61,0-10.61s0.857,0,9.89,0s8.991-9.837,0-9.837s-62.04,0-71.93,0
		s-10.34,9.837,1.349,9.837c11.689,0,6.541,0.611,4.592,4.731C308.007,295.9,286.309,310.941,286.309,310.941z"/>
	<linearGradient id="SVGID_5_" gradientUnits="userSpaceOnUse" x1="309.162" y1="52.4018" x2="309.162" y2="422.8761">
		<stop  offset="0" style="stop-color:#6A7C39"/>
		<stop  offset="0.3846" style="stop-color:#647039"/>
		<stop  offset="1" style="stop-color:#3D362E"/>
	</linearGradient>
	<path clip-path="url(#SVGID_2_)" fill="url(#SVGID_5_)" d="M334.065,389.168c-0.751-30.164,0.395-92.234,2.767-124.672
		s-1.581-100.374-1.977-121.795c-0.395-21.421,0-54.86-1.581-75.475c-1.581-20.615-52.535-13.715-52.535-13.715
		c0.681,34.813,4.088,113.527,2.726,141.686c-1.363,28.159-2.77,43.695,0.319,62.3c3.088,18.605-1.044,56.237,0,90.695
		c0.694,22.897-0.522,52.463-1.035,74.684h52.231C334.854,412.1,334.342,400.302,334.065,389.168z"/>
	<linearGradient id="SVGID_6_" gradientUnits="userSpaceOnUse" x1="-4.1104" y1="62.5875" x2="-4.1104" y2="422.8761">
		<stop  offset="0" style="stop-color:#6A7C39"/>
		<stop  offset="0.3846" style="stop-color:#647039"/>
		<stop  offset="1" style="stop-color:#3D362E"/>
	</linearGradient>
	<path clip-path="url(#SVGID_2_)" fill="url(#SVGID_6_)" d="M20.792,399.353c-0.751-30.164,0.395-92.234,2.767-124.672
		s-1.581-100.374-1.977-121.795c-0.395-21.421,0-54.86-1.581-75.475C18.42,56.797-32.533,63.697-32.533,63.697
		c0.681,34.813,4.088,113.527,2.726,141.686c-1.363,28.159-2.77,43.695,0.319,62.3c3.088,18.605-1.044,56.237,0,90.695
		c0.592,19.544-0.207,43.95-0.773,64.498h51.762C21.288,415.089,20.984,407.063,20.792,399.353z"/>
	<linearGradient id="SVGID_7_" gradientUnits="userSpaceOnUse" x1="-90.8808" y1="67.2264" x2="-90.8808" y2="422.8761">
		<stop  offset="0" style="stop-color:#6A7C39"/>
		<stop  offset="0.3846" style="stop-color:#647039"/>
		<stop  offset="1" style="stop-color:#3D362E"/>
	</linearGradient>
	<path clip-path="url(#SVGID_2_)" fill="url(#SVGID_7_)" d="M-75.09,365.514c2.603-21.378,3.415-97.426,0.938-108.017
		c-2.477-10.591,2.975-26.235,1.492-42.721s-7.526-59.333-7.526-82.405s1.413-58.849-0.244-63.208c-1.657-4.359-25.671,0-25.671,0
		c1.823,32.911-3.26,55.948-3.26,59.239c0,3.291,3.178,15.103,3.616,20.31c0.437,5.207-0.437,36.451,0,45.919
		c0.437,9.468,6.089,20.829,4.215,35.977c-1.874,15.148,3.6,56.807,1.339,75.742c-1.731,14.501-4.556,78.728-5.57,116.525h31.494
		C-74.74,400.982-76.465,376.8-75.09,365.514z"/>
	<linearGradient id="SVGID_8_" gradientUnits="userSpaceOnUse" x1="-519.062" y1="67.2264" x2="-519.062" y2="422.8761">
		<stop  offset="0" style="stop-color:#6A7C39"/>
		<stop  offset="0.3846" style="stop-color:#647039"/>
		<stop  offset="1" style="stop-color:#3D362E"/>
	</linearGradient>
	<path clip-path="url(#SVGID_2_)" fill="url(#SVGID_8_)" d="M-503.272,365.514c2.603-21.378,3.415-97.426,0.938-108.017
		c-2.477-10.591,2.975-26.235,1.492-42.721s-7.526-59.333-7.526-82.405s1.413-58.849-0.244-63.208c-1.657-4.359-25.671,0-25.671,0
		c1.823,32.911-3.26,55.948-3.26,59.239c0,3.291,3.178,15.103,3.616,20.31c0.437,5.207-0.437,36.451,0,45.919
		c0.437,9.468,6.089,20.829,4.215,35.977c-1.874,15.148,3.6,56.807,1.339,75.742c-1.731,14.501-4.556,78.728-5.57,116.525h31.495
		C-502.921,400.982-504.646,376.8-503.272,365.514z"/>
	<linearGradient id="SVGID_9_" gradientUnits="userSpaceOnUse" x1="-372.8376" y1="67.2264" x2="-372.8376" y2="422.8761">
		<stop  offset="0" style="stop-color:#6A7C39"/>
		<stop  offset="0.3846" style="stop-color:#647039"/>
		<stop  offset="1" style="stop-color:#3D362E"/>
	</linearGradient>
	<path clip-path="url(#SVGID_2_)" fill="url(#SVGID_9_)" d="M-357.047,365.514c2.603-21.378,3.415-97.426,0.938-108.017
		c-2.477-10.591,2.975-26.235,1.492-42.721s-7.526-59.333-7.526-82.405s1.413-58.849-0.244-63.208c-1.657-4.359-25.671,0-25.671,0
		c1.824,32.911-3.26,55.948-3.26,59.239c0,3.291,3.178,15.103,3.616,20.31c0.437,5.207-0.437,36.451,0,45.919
		c0.437,9.468,6.089,20.829,4.215,35.977c-1.874,15.148,3.6,56.807,1.339,75.742c-1.731,14.501-4.556,78.728-5.57,116.525h31.495
		C-356.697,400.982-358.422,376.8-357.047,365.514z"/>
	<linearGradient id="SVGID_10_" gradientUnits="userSpaceOnUse" x1="-165.8359" y1="52.4018" x2="-165.8359" y2="422.8761">
		<stop  offset="0" style="stop-color:#6A7C39"/>
		<stop  offset="0.3846" style="stop-color:#647039"/>
		<stop  offset="1" style="stop-color:#3D362E"/>
	</linearGradient>
	<path clip-path="url(#SVGID_2_)" fill="url(#SVGID_10_)" d="M-140.933,389.168c-0.751-30.164,0.395-92.234,2.767-124.672
		c2.372-32.438-1.581-100.374-1.977-121.795c-0.395-21.421,0-54.86-1.581-75.475c-1.581-20.615-52.535-13.715-52.535-13.715
		c0.681,34.813,4.088,113.527,2.726,141.686c-1.363,28.159-2.77,43.695,0.319,62.3c3.088,18.605-1.044,56.237,0,90.695
		c0.694,22.897-0.522,52.463-1.035,74.684h52.231C-140.144,412.1-140.656,400.302-140.933,389.168z"/>
	<linearGradient id="SVGID_11_" gradientUnits="userSpaceOnUse" x1="-446.457" y1="62.5875" x2="-446.457" y2="422.8761">
		<stop  offset="0" style="stop-color:#6A7C39"/>
		<stop  offset="0.3846" style="stop-color:#647039"/>
		<stop  offset="1" style="stop-color:#3D362E"/>
	</linearGradient>
	<path clip-path="url(#SVGID_2_)" fill="url(#SVGID_11_)" d="M-421.554,399.353c-0.751-30.164,0.395-92.234,2.767-124.672
		c2.372-32.438-1.581-100.374-1.977-121.795c-0.395-21.421,0-54.86-1.581-75.475c-1.581-20.615-52.535-13.715-52.535-13.715
		c0.681,34.813,4.088,113.527,2.726,141.686c-1.363,28.159-2.77,43.695,0.319,62.3c3.088,18.605-1.044,56.237,0,90.695
		c0.592,19.544-0.207,43.95-0.773,64.498h51.762C-421.058,415.089-421.362,407.063-421.554,399.353z"/>
	<linearGradient id="SVGID_12_" gradientUnits="userSpaceOnUse" x1="170.2882" y1="41.8437" x2="170.2882" y2="422.8761">
		<stop  offset="0" style="stop-color:#6A7C39"/>
		<stop  offset="0.3846" style="stop-color:#647039"/>
		<stop  offset="1" style="stop-color:#3D362E"/>
	</linearGradient>
	<path clip-path="url(#SVGID_2_)" fill="url(#SVGID_12_)" d="M209.252,378.61c-1.176-30.164,0.619-92.234,4.33-124.672
		s-2.474-100.374-3.093-121.795c-0.618-21.421,0-54.86-2.474-75.475c-2.474-20.615-82.198-13.715-82.198-13.715
		c1.066,34.813,6.397,113.527,4.265,141.686c-2.132,28.159-4.333,43.695,0.499,62.3c4.832,18.605-1.634,56.237,0,90.695
		c1.269,26.763-1.545,62.64-1.912,85.242h81.965C211.072,409.633,209.833,393.526,209.252,378.61z"/>
	<linearGradient id="SVGID_13_" gradientUnits="userSpaceOnUse" x1="254.4052" y1="73.5105" x2="254.4052" y2="422.8761">
		<stop  offset="0" style="stop-color:#6A7C39"/>
		<stop  offset="0.3846" style="stop-color:#647039"/>
		<stop  offset="1" style="stop-color:#3D362E"/>
	</linearGradient>
	<path clip-path="url(#SVGID_2_)" fill="url(#SVGID_13_)" d="M270.196,371.798c2.603-21.378,3.415-97.426,0.938-108.017
		c-2.477-10.591,2.975-26.235,1.492-42.721s-7.526-59.333-7.526-82.405s1.413-58.849-0.244-63.208c-1.657-4.359-25.671,0-25.671,0
		c1.823,32.911-3.26,55.948-3.26,59.239c0,3.291,3.178,15.103,3.616,20.31c0.437,5.207-0.437,36.451,0,45.919
		c0.437,9.468,6.089,20.829,4.215,35.977s3.6,56.806,1.339,75.742c-1.639,13.726-4.256,71.995-5.391,110.241h31.151
		C270.246,402.79,268.952,382.012,270.196,371.798z"/>
	<linearGradient id="SVGID_14_" gradientUnits="userSpaceOnUse" x1="-253.3499" y1="52.4018" x2="-253.3499" y2="422.8761">
		<stop  offset="0" style="stop-color:#6A7C39"/>
		<stop  offset="0.3846" style="stop-color:#647039"/>
		<stop  offset="1" style="stop-color:#3D362E"/>
	</linearGradient>
	<path clip-path="url(#SVGID_2_)" fill="url(#SVGID_14_)" d="M-228.447,389.168c-0.751-30.164,0.395-92.234,2.767-124.672
		c2.372-32.438-1.581-100.374-1.977-121.795c-0.395-21.421,0-54.86-1.581-75.475c-1.581-20.615-52.535-13.715-52.535-13.715
		c0.681,34.813,4.088,113.527,2.726,141.686c-1.363,28.159-2.77,43.695,0.319,62.3c3.088,18.605-1.044,56.237,0,90.695
		c0.694,22.897-0.522,52.463-1.035,74.684h52.231C-227.658,412.1-228.17,400.302-228.447,389.168z"/>
	<linearGradient id="SVGID_15_" gradientUnits="userSpaceOnUse" x1="-309.7393" y1="73.5105" x2="-309.7393" y2="422.8761">
		<stop  offset="0" style="stop-color:#6A7C39"/>
		<stop  offset="0.3846" style="stop-color:#647039"/>
		<stop  offset="1" style="stop-color:#3D362E"/>
	</linearGradient>
	<path clip-path="url(#SVGID_2_)" fill="url(#SVGID_15_)" d="M-293.949,371.798c2.603-21.378,3.415-97.426,0.938-108.017
		c-2.477-10.591,2.975-26.235,1.492-42.721s-7.526-59.333-7.526-82.405s1.413-58.849-0.244-63.208c-1.657-4.359-25.671,0-25.671,0
		c1.823,32.911-3.26,55.948-3.26,59.239c0,3.291,3.178,15.103,3.616,20.31c0.437,5.207-0.437,36.451,0,45.919
		c0.437,9.468,6.089,20.829,4.215,35.977c-1.874,15.148,3.6,56.806,1.339,75.742c-1.639,13.726-4.256,71.995-5.391,110.241h31.151
		C-293.899,402.79-295.193,382.012-293.949,371.798z"/>
	<linearGradient id="SVGID_16_" gradientUnits="userSpaceOnUse" x1="872.0195" y1="46.2892" x2="872.0195" y2="422.8761">
		<stop  offset="0" style="stop-color:#607234"/>
		<stop  offset="0.3846" style="stop-color:#647039"/>
		<stop  offset="1" style="stop-color:#3D362E"/>
	</linearGradient>
	<path clip-path="url(#SVGID_2_)" fill="url(#SVGID_16_)" d="M887.81,362.137c2.603-22.636,3.415-103.161,0.938-114.376
		c-2.477-11.215,2.975-27.779,1.492-45.236c-1.483-17.456-7.526-62.826-7.526-87.256s1.413-62.314-0.244-66.929
		c-1.657-4.615-25.671,0-25.671,0c1.823,34.848-3.26,59.242-3.26,62.726c0,3.485,3.178,15.992,3.616,21.506
		c0.437,5.514-0.437,38.597,0,48.622s6.089,22.055,4.215,38.095c-1.874,16.04,3.6,60.151,1.339,80.201
		c-1.732,15.355-4.556,83.362-5.57,123.385h31.494C888.16,399.693,886.435,374.087,887.81,362.137z"/>
	<linearGradient id="SVGID_17_" gradientUnits="userSpaceOnUse" x1="443.8382" y1="35.3733" x2="443.8382" y2="422.8761">
		<stop  offset="0" style="stop-color:#607234"/>
		<stop  offset="0.3846" style="stop-color:#647039"/>
		<stop  offset="1" style="stop-color:#3D362E"/>
	</linearGradient>
	<path clip-path="url(#SVGID_2_)" fill="url(#SVGID_17_)" d="M459.629,360.377c2.603-23.292,3.415-106.151,0.938-117.691
		c-2.477-11.54,2.975-28.585,1.492-46.547s-7.526-64.647-7.526-89.785s1.413-64.12-0.244-68.869c-1.657-4.749-25.671,0-25.671,0
		c1.823,35.858-3.26,60.959-3.26,64.545c0,3.586,3.178,16.456,3.616,22.129c0.437,5.674-0.437,39.716,0,50.031
		c0.437,10.316,6.089,22.695,4.215,39.2c-1.874,16.505,3.6,61.894,1.339,82.526c-1.731,15.8-4.556,85.779-5.57,126.961h31.495
		C459.979,399.021,458.254,372.673,459.629,360.377z"/>
	<linearGradient id="SVGID_18_" gradientUnits="userSpaceOnUse" x1="590.0627" y1="19.6217" x2="590.0627" y2="422.8761">
		<stop  offset="0" style="stop-color:#607234"/>
		<stop  offset="0.3846" style="stop-color:#647039"/>
		<stop  offset="1" style="stop-color:#3D362E"/>
	</linearGradient>
	<path clip-path="url(#SVGID_2_)" fill="url(#SVGID_18_)" d="M605.853,357.836c2.603-24.239,3.415-110.466,0.938-122.475
		c-2.477-12.009,2.975-29.746,1.492-48.439c-1.484-18.692-7.526-67.275-7.526-93.435s1.413-66.726-0.244-71.669
		c-1.657-4.942-25.671,0-25.671,0c1.824,37.316-3.26,63.437-3.26,67.168c0,3.732,3.178,17.125,3.616,23.029
		c0.437,5.904-0.437,41.33,0,52.065c0.437,10.735,6.089,23.617,4.215,40.793c-1.874,17.176,3.6,64.41,1.339,85.88
		c-1.731,16.442-4.556,89.266-5.57,132.122h31.495C606.204,398.051,604.479,370.632,605.853,357.836z"/>
	<linearGradient id="SVGID_19_" gradientUnits="userSpaceOnUse" x1="797.0643" y1="38.6365" x2="797.0643" y2="422.8761">
		<stop  offset="0" style="stop-color:#607234"/>
		<stop  offset="0.3846" style="stop-color:#647039"/>
		<stop  offset="1" style="stop-color:#3D362E"/>
	</linearGradient>
	<path clip-path="url(#SVGID_2_)" fill="url(#SVGID_19_)" d="M821.967,387.915c-0.751-31.285,0.395-95.661,2.767-129.304
		c2.372-33.643-1.581-104.103-1.977-126.321c-0.395-22.217,0-56.898-1.581-78.279c-1.581-21.381-52.535-14.225-52.535-14.225
		c0.681,36.106,4.088,117.745,2.726,146.95c-1.363,29.205-2.769,45.319,0.319,64.615c3.088,19.296-1.044,58.327,0,94.065
		c0.694,23.748-0.522,54.413-1.035,77.459h52.231C822.756,411.699,822.244,399.464,821.967,387.915z"/>
	<linearGradient id="SVGID_20_" gradientUnits="userSpaceOnUse" x1="516.4432" y1="26.1155" x2="516.4432" y2="422.8761">
		<stop  offset="0" style="stop-color:#607234"/>
		<stop  offset="0.3846" style="stop-color:#647039"/>
		<stop  offset="1" style="stop-color:#3D362E"/>
	</linearGradient>
	<path clip-path="url(#SVGID_2_)" fill="url(#SVGID_20_)" d="M541.346,396.972c-0.751-33.218,0.395-101.571,2.767-137.292
		c2.372-35.722-1.581-110.535-1.977-134.124c-0.395-23.59,0-60.413-1.581-83.115c-1.581-22.702-52.535-15.104-52.535-15.104
		c0.681,38.337,4.088,125.019,2.726,156.029c-1.363,31.009-2.77,48.119,0.319,68.607c3.088,20.488-1.044,61.93,0,99.876
		c0.592,21.523-0.207,48.399-0.773,71.027h51.762C541.842,414.301,541.538,405.462,541.346,396.972z"/>
	<linearGradient id="SVGID_21_" gradientUnits="userSpaceOnUse" x1="709.5504" y1="35.3733" x2="709.5504" y2="422.8761">
		<stop  offset="0" style="stop-color:#607234"/>
		<stop  offset="0.3846" style="stop-color:#647039"/>
		<stop  offset="1" style="stop-color:#3D362E"/>
	</linearGradient>
	<path clip-path="url(#SVGID_2_)" fill="url(#SVGID_21_)" d="M734.453,387.618c-0.751-31.551,0.395-96.473,2.767-130.402
		s-1.581-104.987-1.977-127.393c-0.395-22.406,0-57.381-1.581-78.944c-1.581-21.563-52.535-14.346-52.535-14.346
		c0.681,36.413,4.088,118.745,2.726,148.198c-1.363,29.453-2.77,45.704,0.319,65.164c3.088,19.46-1.044,58.822,0,94.864
		c0.694,23.95-0.522,54.875-1.035,78.117h52.231C735.242,411.604,734.73,399.265,734.453,387.618z"/>
	<linearGradient id="SVGID_22_" gradientUnits="userSpaceOnUse" x1="653.1609" y1="26.1155" x2="653.1609" y2="422.8761">
		<stop  offset="0" style="stop-color:#607234"/>
		<stop  offset="0.3846" style="stop-color:#647039"/>
		<stop  offset="1" style="stop-color:#3D362E"/>
	</linearGradient>
	<path clip-path="url(#SVGID_2_)" fill="url(#SVGID_22_)" d="M668.951,364.869c2.603-24.278,3.415-110.642,0.938-122.671
		c-2.477-12.028,2.975-29.794,1.492-48.516c-1.484-18.722-7.526-67.382-7.526-93.584s1.413-66.833-0.244-71.783s-25.671,0-25.671,0
		c1.823,37.375-3.26,63.538-3.26,67.275c0,3.737,3.178,17.152,3.616,23.066c0.437,5.914-0.437,41.396,0,52.148
		c0.437,10.752,6.089,23.655,4.215,40.858c-1.874,17.203,3.6,64.513,1.339,86.017c-1.639,15.588-4.256,81.762-5.391,125.196h31.151
		C669.001,400.066,667.708,376.469,668.951,364.869z"/>
	<ellipse clip-path="url(#SVGID_2_)" fill="#A79783" cx="11.092" cy="311.5" rx="2.759" ry="4.369"/>
	<ellipse clip-path="url(#SVGID_2_)" fill="#A79783" cx="527.491" cy="355.365" rx="2.759" ry="4.369"/>
	<ellipse clip-path="url(#SVGID_2_)" fill="#A79783" cx="74.223" cy="337.538" rx="2.903" ry="2.888"/>
	<ellipse clip-path="url(#SVGID_2_)" fill="#A79783" cx="701.564" cy="314.493" rx="2.903" ry="2.888"/>
	<circle clip-path="url(#SVGID_2_)" fill="#A79783" cx="9.884" cy="321.757" r="0.629"/>
	<circle clip-path="url(#SVGID_2_)" fill="#A79783" cx="653.161" cy="296.838" r="0.629"/>
	<circle clip-path="url(#SVGID_2_)" fill="#A79783" cx="518.639" cy="341.885" r="0.629"/>
	<circle clip-path="url(#SVGID_2_)" fill="#A79783" cx="316.966" cy="286.604" r="0.629"/>
	<path clip-path="url(#SVGID_2_)" fill="#463F36" d="M-30.784,375.992c16.811-8.017,46.674-28.824,52.409-36.259
		c3.141-3.371,1.031-5.941,0.301-4.951c-5.616,7.609-46.17,34.992-52.71,37.399C-33.394,373.142-32.934,377.017-30.784,375.992z"/>
	<path clip-path="url(#SVGID_2_)" fill="#463F36" d="M491.62,337.193c16.811-8.017,46.674-28.824,52.409-36.259
		c3.141-3.371,1.031-5.941,0.301-4.951c-5.616,7.609-46.17,34.992-52.71,37.399C489.01,334.343,489.47,338.219,491.62,337.193z"/>
	<path clip-path="url(#SVGID_2_)" fill="#F79F49" d="M-28.538,423.364h170.153c-1.787-19.309-6.125-41.221-23.736-44.14
		c-17.61-2.919-19.142-16.762-21.439-27.17c-2.297-10.408-19.57-20.541-43.816-6.833c-17.1-10.408-43.276,4.068-36.819,26.354
		c-13.272,1.015-21.459,9.858-24.522,25.897C-11.778,413.511-20.992,423.364-28.538,423.364z"/>
	<path clip-path="url(#SVGID_2_)" fill="#FAAF4C" d="M-28.538,423.364h170.153c-1.787-19.309-36.344-25.911-46.033-40.826
		c-17.798-27.4-57.343-18.93-68.812-3.033c-3.769,5.224-9.151,4.005-15.155,6.388c-7.176,2.849-18.375,1.332-20.331,11.579
		C-11.778,413.511-20.992,423.364-28.538,423.364z"/>
	<path clip-path="url(#SVGID_2_)" fill="#FBB84D" d="M-24.07,423.364c16.988,0,34.319-35.953,60.393-30.648s17.711-3.1,41.613,1.026
		s60.564,22.023,60.959,29.622C123.882,423.364-24.07,423.364-24.07,423.364z"/>
	<polygon clip-path="url(#SVGID_2_)" fill="#744C2C" points="43.852,378.16 56.022,402.834 56.022,390.497 	"/>
	<polygon clip-path="url(#SVGID_2_)" fill="#744C2C" points="64.795,365.723 58.71,374.608 59.944,380.193 	"/>
	<linearGradient id="SVGID_23_" gradientUnits="userSpaceOnUse" x1="58.7101" y1="423.3636" x2="58.7101" y2="357.5177">
		<stop  offset="0" style="stop-color:#A87B53"/>
		<stop  offset="0.1828" style="stop-color:#966B45"/>
		<stop  offset="0.4441" style="stop-color:#835A37"/>
		<stop  offset="0.7133" style="stop-color:#784F2F"/>
		<stop  offset="1" style="stop-color:#744C2C"/>
	</linearGradient>
	<polygon clip-path="url(#SVGID_2_)" fill="url(#SVGID_23_)" points="52.625,423.364 58.71,357.518 64.795,423.364 	"/>
	<ellipse clip-path="url(#SVGID_2_)" fill="#FBB84D" cx="81.201" cy="350.813" rx="4.074" ry="4.052"/>
	<ellipse clip-path="url(#SVGID_2_)" fill="#FBB84D" cx="25.071" cy="364.721" rx="1.629" ry="1.621"/>
	<ellipse clip-path="url(#SVGID_2_)" fill="#F59331" cx="82.394" cy="387.633" rx="2.823" ry="2.808"/>
	<ellipse clip-path="url(#SVGID_2_)" fill="#FAAF4C" cx="32.443" cy="408.535" rx="4.457" ry="4.433"/>
	<path clip-path="url(#SVGID_2_)" fill="#AA7980" d="M302.821,422.536c0,0,94.631,30.472,86.168-3.092s-31.625-32.366-35.951-22.129
		c-24.065-51.193-30.624-23.233-27.835,6.292C311.588,377.301,295.076,400.904,302.821,422.536"/>
	<path clip-path="url(#SVGID_2_)" fill="#B07E84" d="M304.477,427.696c-4.45-12.782,6.918-18.868,17.457-12.413
		c9.797-8.81,18.058-11.121,29.264-6.27c6.489-7.745,24.984-10.671,36.873,7.112c11.888,17.783,0,23.155,0,23.155l-58.936-4.072
		L304.477,427.696z"/>
	
		<linearGradient id="SVGID_24_" gradientUnits="userSpaceOnUse" x1="358.2281" y1="430.673" x2="358.2281" y2="397.9975" gradientTransform="matrix(0.9946 -0.1037 0.1037 0.9946 -57.9674 43.3485)">
		<stop  offset="0" style="stop-color:#A87B53"/>
		<stop  offset="0.1828" style="stop-color:#966B45"/>
		<stop  offset="0.4441" style="stop-color:#835A37"/>
		<stop  offset="0.7133" style="stop-color:#784F2F"/>
		<stop  offset="1" style="stop-color:#744C2C"/>
	</linearGradient>
	<polygon clip-path="url(#SVGID_2_)" fill="url(#SVGID_24_)" points="339.982,434.866 339.579,402.059 345.988,434.243 	"/>
	
		<linearGradient id="SVGID_25_" gradientUnits="userSpaceOnUse" x1="339.7029" y1="440.0649" x2="339.7029" y2="407.3894" gradientTransform="matrix(0.9946 -0.1037 0.1037 0.9946 -57.9674 43.3485)">
		<stop  offset="0" style="stop-color:#A87B53"/>
		<stop  offset="0.1828" style="stop-color:#966B45"/>
		<stop  offset="0.4441" style="stop-color:#835A37"/>
		<stop  offset="0.7133" style="stop-color:#784F2F"/>
		<stop  offset="1" style="stop-color:#744C2C"/>
	</linearGradient>
	<polygon clip-path="url(#SVGID_2_)" fill="url(#SVGID_25_)" points="322.531,446.128 322.128,413.321 328.537,445.505 	"/>
	
		<linearGradient id="SVGID_26_" gradientUnits="userSpaceOnUse" x1="378.6554" y1="440.6666" x2="378.6554" y2="407.991" gradientTransform="matrix(0.9946 -0.1037 0.1037 0.9946 -57.9674 43.3485)">
		<stop  offset="0" style="stop-color:#A87B53"/>
		<stop  offset="0.1828" style="stop-color:#966B45"/>
		<stop  offset="0.4441" style="stop-color:#835A37"/>
		<stop  offset="0.7133" style="stop-color:#784F2F"/>
		<stop  offset="1" style="stop-color:#744C2C"/>
	</linearGradient>
	<polygon clip-path="url(#SVGID_2_)" fill="url(#SVGID_26_)" points="361.336,442.687 360.933,409.88 367.342,442.065 	"/>
	<ellipse opacity="0.38" clip-path="url(#SVGID_2_)" fill="#FFFFFF" cx="41.789" cy="254.654" rx="4.253" ry="4.23"/>
	<ellipse opacity="0.38" clip-path="url(#SVGID_2_)" fill="#FFFFFF" cx="-442.204" cy="307.13" rx="4.253" ry="4.23"/>
	<ellipse opacity="0.38" clip-path="url(#SVGID_2_)" fill="#FFFFFF" cx="-220.674" cy="221.656" rx="4.253" ry="4.23"/>
	<ellipse opacity="0.38" clip-path="url(#SVGID_2_)" fill="#FFFFFF" cx="219.012" cy="180.919" rx="4.253" ry="4.23"/>
	<ellipse opacity="0.38" clip-path="url(#SVGID_2_)" fill="#FFFFFF" cx="308.902" cy="253.072" rx="8.064" ry="8.021"/>
	<ellipse opacity="0.38" clip-path="url(#SVGID_2_)" fill="#FFFFFF" cx="820.537" cy="189.506" rx="8.064" ry="8.021"/>
	<ellipse opacity="0.38" clip-path="url(#SVGID_2_)" fill="#FFFFFF" cx="-391.318" cy="147.855" rx="8.064" ry="8.021"/>
	<ellipse opacity="0.38" clip-path="url(#SVGID_2_)" fill="#FFFFFF" cx="87.99" cy="121.008" rx="8.064" ry="8.021"/>
	<ellipse opacity="0.38" clip-path="url(#SVGID_2_)" fill="#FFFFFF" cx="350.908" cy="170.822" rx="4.032" ry="4.01"/>
	<ellipse opacity="0.38" clip-path="url(#SVGID_2_)" fill="#FFFFFF" cx="-509.465" cy="192.425" rx="4.032" ry="4.01"/>
	<ellipse opacity="0.38" clip-path="url(#SVGID_2_)" fill="#FFFFFF" cx="153.824" cy="227.464" rx="1.924" ry="1.914"/>
	<ellipse opacity="0.38" clip-path="url(#SVGID_2_)" fill="#FFFFFF" cx="790.175" cy="109.34" rx="1.924" ry="1.914"/>
	<ellipse opacity="0.38" clip-path="url(#SVGID_2_)" fill="#FFFFFF" cx="386.876" cy="92.595" rx="1.924" ry="1.914"/>
	<ellipse opacity="0.38" clip-path="url(#SVGID_2_)" fill="#FFFFFF" cx="618.565" cy="227.464" rx="1.924" ry="1.914"/>
	<ellipse opacity="0.38" clip-path="url(#SVGID_2_)" fill="#FFFFFF" cx="-399.382" cy="176.689" rx="1.924" ry="1.914"/>
	<ellipse opacity="0.38" clip-path="url(#SVGID_2_)" fill="#FFFFFF" cx="-177.883" cy="250.424" rx="1.924" ry="1.914"/>
	<ellipse opacity="0.38" clip-path="url(#SVGID_2_)" fill="#FFFFFF" cx="-446.457" cy="221.656" rx="1.924" ry="1.914"/>
	<ellipse opacity="0.38" clip-path="url(#SVGID_2_)" fill="#FFFFFF" cx="-372.838" cy="317.213" rx="1.924" ry="1.914"/>
	<path clip-path="url(#SVGID_2_)" fill="#C09797" d="M311.191,393.984c-3.263,1.372-6.676,4.856-7.017,7.567
		c-0.341,2.71,4.178-3.6,6.359-5.082C311.858,395.567,313.795,392.889,311.191,393.984z"/>
	<path clip-path="url(#SVGID_2_)" fill="#C09797" d="M330.409,371.173c-2.153,2.799-3.384,7.507-2.33,10.03s1.838-5.185,2.995-7.547
		C331.778,372.22,332.127,368.94,330.409,371.173z"/>
	<path clip-path="url(#SVGID_2_)" fill="#C09797" d="M362.255,392.937c-2.939,0.57-6.372,2.863-7.127,5.046
		c-0.756,2.183,4.086-2.256,6.149-3.105C362.53,394.362,364.6,392.482,362.255,392.937z"/>
	<g clip-path="url(#SVGID_2_)">
		<path fill="#6A7C39" d="M-25.966,482.827v91.578h428.564v-95.678C298.611,444.954,53.183,454.914-25.966,482.827z"/>
		<path fill="#657637" d="M314.507,422.763c-102.469-0.336-260.448-1.565-282.064-5.925c-16.176-3.263-31.852-1.753-43.485,0.572
			c-17.629,3.524-35.548,5.421-53.53,5.372l-292.491-11.093c-31.787-1.206-63.613-0.986-95.38,0.657l-110.419,5.712
			c-28.018,1.449-44.469,31.977-30.169,55.986l0,0c5.175,8.689,13.68,14.909,23.566,17.214
			c61.233,14.275,293.666,59.518,542.038-8.033c0.972-0.264,1.928-0.573,2.877-0.909c80.963-28.74,319.433-37.017,424.33-4.483
			c1.991,0.618,52.712,9.263,54.781,9.534l567.154,72.277c27.234,3.559,48.871-22.375,40.331-48.341l-38.462-116.942
			c-5.345-16.25-18.112-8.024-35.253-6.727l0,0c-14.143,20.605-192.375,16.63-278.781,14.103
			c-86.406-2.527-290.303,9.972-290.303,9.972c-9.597,0.726-19.138,2.052-28.579,3.915
			C375.779,418.562,348.132,422.873,314.507,422.763z"/>
	</g>
	<ellipse clip-path="url(#SVGID_2_)" fill="#9B9D56" cx="193.396" cy="508.668" rx="191.064" ry="34.552"/>
	<ellipse clip-path="url(#SVGID_2_)" fill="#D6AD51" cx="193.396" cy="508.668" rx="149.388" ry="27.015"/>
	<ellipse clip-path="url(#SVGID_2_)" fill="#FBB84D" cx="193.396" cy="508.668" rx="117.795" ry="21.302"/>
	<ellipse clip-path="url(#SVGID_2_)" fill="#7C8F45" cx="11.701" cy="432.346" rx="6.503" ry="3.321"/>
	<ellipse clip-path="url(#SVGID_2_)" fill="#7C8F45" cx="-411.531" cy="446.232" rx="6.503" ry="3.321"/>
	<circle clip-path="url(#SVGID_2_)" fill="#7C8F45" cx="18.995" cy="439.95" r="0.791"/>
	<ellipse clip-path="url(#SVGID_2_)" fill="#7C8F45" cx="306.879" cy="431.472" rx="4.312" ry="1.748"/>
	<ellipse clip-path="url(#SVGID_2_)" fill="#7C8F45" cx="816.225" cy="443.831" rx="4.312" ry="1.748"/>
	<ellipse clip-path="url(#SVGID_2_)" fill="#7C8F45" cx="-240.163" cy="440.737" rx="4.312" ry="1.748"/>
	<ellipse clip-path="url(#SVGID_2_)" fill="#7C8F45" cx="352.655" cy="445.282" rx="2.285" ry="0.524"/>
	<ellipse clip-path="url(#SVGID_2_)" fill="#7C8F45" cx="-165.836" cy="472.189" rx="2.285" ry="0.524"/>
	<ellipse clip-path="url(#SVGID_2_)" fill="#7C8F45" cx="653.161" cy="437.926" rx="2.285" ry="0.524"/>
	<ellipse clip-path="url(#SVGID_2_)" fill="#7C8F45" cx="680.072" cy="493.474" rx="2.285" ry="0.524"/>
	<ellipse clip-path="url(#SVGID_2_)" fill="#7C8F45" cx="350.203" cy="434.444" rx="10.729" ry="2.972"/>
	<ellipse clip-path="url(#SVGID_2_)" fill="#7C8F45" cx="842.81" cy="439.28" rx="10.729" ry="2.972"/>
	<ellipse clip-path="url(#SVGID_2_)" fill="#7C8F45" cx="-264.079" cy="434.444" rx="10.729" ry="2.972"/>
	<ellipse clip-path="url(#SVGID_2_)" fill="#7C8F45" cx="544.866" cy="474.589" rx="10.729" ry="2.972"/>
	<g clip-path="url(#SVGID_2_)">
		<path fill="#9A857A" d="M30.712,451.163c-1.91-2.59,3.709-18.108,9.838-18.037s11.773,3.273,16.128,5.763
			c4.354,2.49,2.097,12.595-3.709,14.199S34.26,455.975,30.712,451.163z"/>
		<path fill="#A18E7D" d="M33.473,451.492c-1.723-2.337,3.347-16.338,8.876-16.273c5.529,0.064,10.622,2.953,14.551,5.199
			s1.892,11.364-3.347,12.811S36.674,455.834,33.473,451.492z"/>
		<path fill="#A79783" d="M37.044,451.919c-1.482-2.009,2.878-14.048,7.632-13.993c4.754,0.055,9.133,2.539,12.511,4.47
			s1.626,9.771-2.878,11.015C49.806,454.657,39.797,455.652,37.044,451.919z"/>
	</g>
	<g clip-path="url(#SVGID_2_)">
		<path fill="#9A857A" d="M681.506,479.52c-1.91-2.59,3.709-18.108,9.838-18.037c6.128,0.071,11.773,3.273,16.128,5.763
			c4.354,2.49,2.097,12.595-3.709,14.199C697.957,483.049,685.055,484.332,681.506,479.52z"/>
		<path fill="#A18E7D" d="M684.268,479.85c-1.723-2.337,3.347-16.338,8.876-16.273c5.529,0.064,10.622,2.953,14.551,5.199
			s1.892,11.364-3.347,12.811S687.469,484.192,684.268,479.85z"/>
		<path fill="#A79783" d="M687.839,480.277c-1.482-2.009,2.878-14.048,7.632-13.993s9.133,2.539,12.511,4.47
			c3.378,1.931,1.627,9.771-2.878,11.015C700.6,483.014,690.591,484.01,687.839,480.277z"/>
	</g>
	<linearGradient id="SVGID_27_" gradientUnits="userSpaceOnUse" x1="199.4738" y1="52.4018" x2="199.4738" y2="508.6682">
		<stop  offset="0" style="stop-color:#FFC83B;stop-opacity:0.3"/>
		<stop  offset="1" style="stop-color:#FFC83B;stop-opacity:0"/>
	</linearGradient>
	<polygon clip-path="url(#SVGID_2_)" fill="url(#SVGID_27_)" points="138.895,52.402 44.008,508.668 354.94,508.668 235.925,52.402 
			"/>
	<ellipse clip-path="url(#SVGID_2_)" fill="#163100" cx="384.854" cy="529.413" rx="15.968" ry="15.882"/>
	<ellipse clip-path="url(#SVGID_2_)" fill="#163100" cx="305.275" cy="545.296" rx="4.988" ry="4.961"/>
	<ellipse clip-path="url(#SVGID_2_)" fill="#163100" cx="358.616" cy="495.478" rx="2.015" ry="2.004"/>
	<ellipse clip-path="url(#SVGID_2_)" fill="#163100" cx="371.504" cy="462.603" rx="3.496" ry="3.477"/>
	<g clip-path="url(#SVGID_2_)">
		<path fill="#163100" d="M383.658,539.787c0,0-0.216-0.287-0.621-0.825c-0.409-0.562-0.991-1.275-1.764-2.386
			c-0.76-1.146-1.769-2.53-2.672-4.134c-0.974-1.584-1.949-3.446-2.933-5.506c-0.961-2.074-1.921-4.358-2.714-6.859
			c-0.198-0.624-0.398-1.257-0.601-1.898c-0.165-0.654-0.332-1.316-0.501-1.985c-0.374-1.323-0.563-2.739-0.837-4.143
			c-0.391-2.858-0.58-5.856-0.33-8.925c0.308-3.063,1.069-6.212,2.609-9.063l0.52-0.972l0.527-0.94l0.526-0.939l0.41-0.888
			c0.572-1.143,1.034-2.457,1.505-3.725c0.855-2.585,1.469-5.226,1.904-7.818c0.369-2.597,0.637-5.144,0.61-7.563
			c0.048-2.424-0.185-4.708-0.496-6.803c-0.144-1.051-0.424-2.026-0.614-2.977c-0.236-0.936-0.559-1.795-0.811-2.624
			c-0.634-1.599-1.24-2.995-1.931-4.033c-0.593-1.107-1.256-1.836-1.673-2.364c-0.422-0.526-0.648-0.806-0.648-0.806
			s0.249,0.258,0.717,0.743c0.464,0.489,1.203,1.167,1.902,2.228c0.798,0.994,1.543,2.35,2.344,3.936
			c0.334,0.819,0.747,1.678,1.078,2.619c0.284,0.953,0.665,1.943,0.912,3.01c0.517,2.128,0.973,4.477,1.154,6.99
			c0.256,2.512,0.221,5.178,0.081,7.937c-0.207,2.754-0.599,5.597-1.265,8.461c-0.386,1.425-0.737,2.847-1.312,4.328l-0.402,1.099
			l-0.439,0.983l-0.44,0.984l-0.027,0.061l-0.014,0.031l-0.056,0.11l-0.044,0.11l-0.089,0.22l-0.179,0.438
			c-0.987,2.314-1.385,4.903-1.41,7.474c0.029,2.589,0.425,5.149,0.985,7.589c0.362,1.211,0.622,2.413,1.065,3.553
			c0.201,0.573,0.399,1.139,0.595,1.699c0.232,0.549,0.46,1.091,0.686,1.626c0.897,2.137,1.934,4.082,2.948,5.834
			c1.038,1.74,2.042,3.302,3.03,4.617c0.943,1.373,1.849,2.373,2.551,3.27c0.741,0.892,1.479,1.654,1.909,2.144
			c0.452,0.499,0.694,0.766,0.694,0.766L383.658,539.787z"/>
	</g>
	<path clip-path="url(#SVGID_2_)" fill="#2A4613" d="M372.72,499.893c-2.599-14.333-9.213-19.972-15.828-17.387
		c-6.615,2.585,14.936,14.646,20.343,32.464"/>
	<path clip-path="url(#SVGID_2_)" fill="#81A83A" d="M378.447,481.535c1.611-8.475,5.557-11.782,9.461-10.218
		c3.904,1.564-8.919,8.6-12.211,19.125"/>
	<path clip-path="url(#SVGID_2_)" fill="#2A4613" d="M395.693,620.002c-23.422-19.185-41.118-56.206-56.109-87.731
		c-0.096-0.201,9.313-6.011,9.217-6.211c-0.096-0.202-10.631,3.802-10.727,3.601c-7.377-15.521-13.865-29.268-19.603-38.067
		c-0.562-0.861,0.329-1.935,1.286-1.549c32.515,13.119,73.458,32.58,97.93,64.328C442.982,587.187,433.084,650.629,395.693,620.002z
		"/>
	<path clip-path="url(#SVGID_2_)" fill="#163100" d="M332.176,501.169c40.913,26.374,71.597,79.5,79.931,108.512
		C402.258,565.598,384.453,531.688,332.176,501.169z"/>
	<g clip-path="url(#SVGID_2_)">
		<path fill="#163100" d="M386.77,596.835c0,0-0.321-0.519-0.922-1.492c-0.641-1.048-1.384-2.203-2.51-3.86
			c-2.254-3.285-5.694-7.885-10.512-12.805c-2.404-2.459-5.15-4.993-8.229-7.451c-3.073-2.466-6.51-4.802-10.224-6.904
			c-3.726-2.065-7.757-3.848-11.984-5.031c-4.218-1.15-8.644-1.695-12.893-1.153l-3.512,0.566l-2.006,0.26l-1.928,0.168
			c-2.56,0.179-5.09,0.197-7.582,0.109c-4.982-0.2-9.809-0.853-14.398-1.802c-4.588-0.956-8.932-2.231-12.945-3.705
			c-4.006-1.498-7.674-3.218-10.906-5.066c-3.233-1.846-6.026-3.825-8.317-5.785c-2.297-1.957-4.079-3.892-5.437-5.56
			c-1.317-1.706-2.231-3.122-2.794-4.121c-0.548-1.005-0.841-1.541-0.841-1.541s0.339,0.506,0.974,1.456
			c0.647,0.938,1.679,2.257,3.117,3.807c1.48,1.514,3.386,3.238,5.78,4.93c2.389,1.696,5.256,3.359,8.526,4.852
			c3.269,1.495,6.937,2.824,10.899,3.91c3.969,1.062,8.226,1.901,12.658,2.412c4.432,0.505,9.038,0.702,13.654,0.469
			c2.305-0.128,4.61-0.356,6.874-0.722l1.686-0.302l1.592-0.352l1.754-0.456l1.887-0.472c5.368-1.19,10.852-0.983,15.983-0.075
			c5.138,0.944,9.973,2.587,14.44,4.557c4.449,2.004,8.569,4.297,12.275,6.751c3.713,2.447,7.049,5.008,10,7.523
			c5.91,5.03,10.266,9.862,13.166,13.36c1.443,1.747,2.653,3.316,3.283,4.166c0.686,0.914,1.053,1.402,1.053,1.402L386.77,596.835z"
			/>
	</g>
	<path clip-path="url(#SVGID_2_)" fill="#2A4613" d="M338.074,552.983c-22.286-10.731-28.51-24.012-21.268-33.55
		s17.186,30.858,43.901,47.724"/>
	<path clip-path="url(#SVGID_2_)" fill="#81A83A" d="M305.408,553.906c-14.611-1.247-21.821,3.639-21.037,10.675
		c0.784,7.036,18.14-10.534,36.872-11.077"/>
	<path clip-path="url(#SVGID_2_)" fill="#2A4613" d="M-19.471,554.654c-1.706-10.881,1.191-24.648,2.821-28.53
		C-15.021,522.242-17.262,548.126-19.471,554.654z"/>
	<path clip-path="url(#SVGID_2_)" fill="#2A4613" d="M-14.627,548.738c-1.706-10.881,1.191-24.648,2.821-28.53
		C-10.177,516.326-12.419,542.209-14.627,548.738z"/>
	<path clip-path="url(#SVGID_2_)" fill="#2A4613" d="M-10.498,543.844c-1.706-10.881,1.191-24.648,2.821-28.53
		C-6.048,511.432-8.29,537.315-10.498,543.844z"/>
	<path clip-path="url(#SVGID_2_)" fill="#2A4613" d="M-5.987,537.059c-1.706-10.881,1.191-24.648,2.821-28.53
		C-1.537,504.647-3.778,530.53-5.987,537.059z"/>
	<path clip-path="url(#SVGID_2_)" fill="#2A4613" d="M-1.762,532.137c-1.706-10.881,1.191-24.648,2.821-28.53
		C2.688,499.725,0.446,525.608-1.762,532.137z"/>
	<path clip-path="url(#SVGID_2_)" fill="#2A4613" d="M2.486,527.695c-1.706-10.881,1.191-24.648,2.821-28.53
		C6.937,495.282,4.695,521.166,2.486,527.695z"/>
	<path clip-path="url(#SVGID_2_)" fill="#2A4613" d="M6.886,523.823c-1.566-9.987,1.093-22.624,2.589-26.188
		C10.971,494.072,8.913,517.831,6.886,523.823z"/>
	<path clip-path="url(#SVGID_2_)" fill="#2A4613" d="M11.714,518.369c-1.373-8.756,0.959-19.836,2.27-22.96
		S13.491,513.115,11.714,518.369z"/>
	<path clip-path="url(#SVGID_2_)" fill="#2A4613" d="M16.126,511.877c-1.016-6.48,0.71-14.68,1.68-16.992
		S17.441,507.989,16.126,511.877z"/>
	<path clip-path="url(#SVGID_2_)" fill="#2A4613" d="M17.795,509.901c0.93-6.493,4.987-13.835,6.594-15.764
		C25.996,492.206,20.195,506.563,17.795,509.901z"/>
	<path clip-path="url(#SVGID_2_)" fill="#2A4613" d="M18.094,510.235c4.031-5.191,11.202-9.584,13.558-10.474
		C34.006,498.871,21.836,508.51,18.094,510.235z"/>
	<path clip-path="url(#SVGID_2_)" fill="#96C144" d="M-36.1,559.609c20.585,2.209,46.185-4.388,53.332-7.758
		C24.378,548.482-24.034,554.93-36.1,559.609z"/>
	<path clip-path="url(#SVGID_2_)" fill="#2A4613" d="M-25.417,550.089c20.585,2.209,46.185-4.388,53.332-7.758
		C35.062,538.961-13.351,545.41-25.417,550.089z"/>
	<path clip-path="url(#SVGID_2_)" fill="#2A4613" d="M-10.69,542.571c11.071,0.111,24.351-4.725,27.979-6.889
		S-4.512,539.456-10.69,542.571z"/>
	<path clip-path="url(#SVGID_2_)" fill="#2A4613" d="M-4.589,537.153c11.071,0.111,24.351-4.725,27.979-6.889
		S1.588,534.038-4.589,537.153z"/>
	<path clip-path="url(#SVGID_2_)" fill="#2A4613" d="M-0.301,532.286c11.071,0.111,24.351-4.725,27.979-6.889
		S5.876,529.171-0.301,532.286z"/>
	<path clip-path="url(#SVGID_2_)" fill="#2A4613" d="M3.506,527.463c11.071,0.111,24.351-4.725,27.979-6.889
		C35.113,518.411,9.683,524.349,3.506,527.463z"/>
	<path clip-path="url(#SVGID_2_)" fill="#2A4613" d="M6.724,522.575c10.162,0.101,22.352-4.337,25.682-6.323
		S12.394,519.716,6.724,522.575z"/>
	<path clip-path="url(#SVGID_2_)" fill="#2A4613" d="M11.455,517.037c8.91,0.089,19.597-3.803,22.516-5.544
		S16.426,514.531,11.455,517.037z"/>
	<path clip-path="url(#SVGID_2_)" fill="#2A4613" d="M17.277,511.759c6.594,0.066,14.503-2.814,16.664-4.103
		C36.102,506.368,20.956,509.904,17.277,511.759z"/>
	<path clip-path="url(#SVGID_2_)" fill="#2A4613" stroke="#163100" stroke-width="1.305" stroke-miterlimit="10" d="
		M-55.535,579.369c35.055-19.011,63.666-55.581,72.957-69.428c5.045-7.519-42.208,60.578-77.19,63.979
		C-90.48,576.907-55.535,579.369-55.535,579.369z"/>
	<path clip-path="url(#SVGID_2_)" fill="#3F5D28" d="M-62.885,565.774c18.543-15.454,50.304-23.838,77.339-30.915
		c0.173-0.045,3.375,8.139,3.547,8.094c0.173-0.045-1.442-8.844-1.27-8.889c13.309-3.482,25.091-6.53,32.864-9.716
		c0.761-0.312,1.477,0.54,1.033,1.229c-15.092,23.43-36.414,52.503-65.011,66.939C-43.939,607.437-92.487,590.446-62.885,565.774z"
		/>
	<path clip-path="url(#SVGID_2_)" fill="#163100" d="M40.046,533.631c-26.766,28.039-73.117,44.193-97.198,46.448
		C-20.972,578.846,8.353,569.923,40.046,533.631z"/>
	<path clip-path="url(#SVGID_2_)" fill="#163100" d="M47.354,579.338c-1.251,0.82-1.597,2.494-0.773,3.738
		c0.825,1.245,2.507,1.589,3.759,0.768c1.251-0.82,1.597-2.494,0.773-3.738C50.289,578.862,48.606,578.518,47.354,579.338z"/>
	<path clip-path="url(#SVGID_2_)" fill="#163100" d="M73.874,538.906c-2.171,1.423-2.771,4.327-1.34,6.487
		c1.431,2.159,4.351,2.756,6.522,1.333c2.171-1.423,2.771-4.327,1.34-6.487S76.045,537.483,73.874,538.906z"/>
	<g clip-path="url(#SVGID_2_)">
		<path fill="#163100" d="M-18.595,575.258c0,0,0.48,0.073,1.381,0.209c0.45,0.068,1.005,0.152,1.658,0.25
			c0.63,0.082,1.457,0.25,2.183,0.296c1.536,0.121,3.342,0.393,5.594,0.432c2.22,0.13,4.732,0.097,7.469-0.031
			c2.733-0.164,5.7-0.445,8.781-1.024c0.772-0.144,1.554-0.289,2.346-0.437c0.778-0.195,1.566-0.392,2.362-0.592
			c1.618-0.349,3.17-0.946,4.807-1.44c3.174-1.181,6.365-2.63,9.316-4.517c2.892-1.934,5.532-4.297,7.423-7.124l0.364-0.526
			l0.183-0.263l0.092-0.132l0.125-0.21l0.768-1.248l0.895-1.342l0.909-1.247c1.233-1.632,2.548-3.159,3.907-4.608
			c2.732-2.883,5.656-5.433,8.633-7.685c5.961-4.493,12.162-7.757,17.778-9.671c2.803-0.965,5.455-1.596,7.832-1.938
			c2.377-0.347,4.472-0.398,6.183-0.336c1.713,0.104,3.041,0.299,3.935,0.484c0.89,0.197,1.365,0.302,1.365,0.302
			s-0.481-0.062-1.384-0.177c-0.901-0.103-2.233-0.175-3.917-0.126c-1.683,0.092-3.717,0.328-5.987,0.872
			c-2.27,0.539-4.772,1.381-7.383,2.553c-5.229,2.328-10.889,6.005-16.155,10.78c-2.628,2.389-5.162,5.046-7.44,7.935
			c-1.131,1.449-2.201,2.95-3.165,4.5l-0.7,1.169l-0.621,1.138l-0.644,1.295l-0.04,0.082l-0.02,0.041
			c-0.034,0.064,0.024-0.042,0.009-0.014l-0.098,0.179l-0.197,0.357l-0.396,0.715c-2.093,3.847-5.094,7.027-8.327,9.639
			c-3.282,2.554-6.808,4.556-10.323,6.234c-1.787,0.734-3.526,1.569-5.295,2.131c-0.88,0.306-1.751,0.609-2.611,0.909
			c-0.873,0.247-1.735,0.492-2.586,0.733c-3.409,0.965-6.697,1.584-9.75,2.046c-3.054,0.426-5.878,0.715-8.388,0.801
			c-2.48,0.18-4.79,0.077-6.647,0.076c-0.973,0.007-1.647-0.077-2.331-0.104c-0.659-0.039-1.22-0.073-1.674-0.1
			c-0.909-0.054-1.394-0.083-1.394-0.083L-18.595,575.258z"/>
	</g>
	<path clip-path="url(#SVGID_2_)" fill="#2A4613" d="M33.404,569.09c18.13-7.715,29.407-4.496,31.386,4.817
		s-27.627-5.851-51.778,1.305"/>
	<path clip-path="url(#SVGID_2_)" fill="#2A4613" d="M49.915,549.08c8.388-8.082,9.203-14.945,4.542-18.154
		c-4.661-3.208-3.113,16.348-12.574,27.829"/>
	<g clip-path="url(#SVGID_2_)">
		<path fill="#163100" d="M-32.091,45.332c0,0,0.574,0.067,1.65,0.192c0.544,0.065,1.215,0.145,2.004,0.239
			c0.824,0.109,1.772,0.234,2.833,0.373c2.093,0.305,4.625,0.69,7.539,1.264c2.909,0.551,6.2,1.315,9.769,2.36
			c3.566,1.057,7.424,2.426,11.376,4.389c3.942,1.944,7.987,4.614,11.53,8.189c1.761,1.8,3.338,3.856,4.703,6.065
			c1.333,2.237,2.372,4.647,3.175,7.117c1.483,4.978,1.898,10.138,1.519,15.057c-0.097,1.231-0.183,2.461-0.374,3.665l-0.248,1.81
			l-0.331,1.781l-0.339,1.772l-0.413,1.741l-0.404,1.692l-0.206,0.831l-0.164,0.728c-0.848,4.071-0.972,8.334,0.108,11.972
			c0.536,1.82,1.411,3.444,2.581,4.783c1.187,1.319,2.679,2.333,4.32,3.033c1.643,0.703,3.421,1.086,5.179,1.276
			c1.76,0.186,3.509,0.218,5.191,0.099c0.443-0.024,0.882-0.048,1.316-0.072c0.222-0.002,0.4-0.023,0.655-0.009l0.753,0.05
			c0.936,0.121,1.793,0.375,2.589,0.695c1.57,0.678,2.869,1.581,3.972,2.524c2.206,1.893,3.752,3.853,4.958,5.491
			c1.196,1.649,2.03,3.009,2.579,3.945c0.548,0.937,0.809,1.453,0.809,1.453s-0.31-0.488-0.943-1.366
			c-0.633-0.876-1.59-2.144-2.92-3.65c-1.334-1.493-3.041-3.263-5.281-4.836c-1.114-0.784-2.386-1.482-3.771-1.928
			c-0.694-0.203-1.418-0.337-2.135-0.361l-0.497,0.012c-0.164,0-0.405,0.045-0.606,0.066c-0.409,0.062-0.823,0.125-1.241,0.189
			c-1.756,0.294-3.628,0.446-5.594,0.427c-1.963-0.025-4.042-0.253-6.133-0.913c-2.083-0.654-4.177-1.768-5.947-3.393
			c-1.755-1.637-3.141-3.729-4.052-5.99c-1.827-4.557-2.102-9.522-1.583-14.402l0.121-0.954l0.125-0.847l0.234-1.676l0.227-1.637
			l0.151-1.64l0.146-1.639l0.064-1.634c0.07-1.091,0.035-2.17,0.018-3.247c-0.075-4.308-0.887-8.45-2.356-12.077
			c-0.792-1.787-1.716-3.458-2.819-4.959c-1.14-1.475-2.388-2.821-3.781-3.991c-2.812-2.316-6.021-4.059-9.335-5.305
			c-3.306-1.26-6.648-2.106-9.801-2.716c-3.159-0.602-6.119-1.001-8.782-1.242c-2.652-0.263-5.002-0.392-6.93-0.486
			c-0.952-0.034-1.802-0.064-2.541-0.09c-0.777-0.018-1.437-0.033-1.973-0.045c-1.083-0.022-1.661-0.033-1.661-0.033L-32.091,45.332
			z"/>
	</g>
	<circle clip-path="url(#SVGID_2_)" fill="#163100" cx="29.482" cy="96.965" r="0.851"/>
	<ellipse clip-path="url(#SVGID_2_)" fill="#163100" cx="49.476" cy="121.008" rx="2.993" ry="2.977"/>
	<ellipse clip-path="url(#SVGID_2_)" fill="#163100" cx="3.949" cy="100.345" rx="4.25" ry="4.227"/>
	<ellipse clip-path="url(#SVGID_2_)" fill="#163100" cx="26.961" cy="117.687" rx="1.67" ry="1.661"/>
	<ellipse clip-path="url(#SVGID_2_)" fill="#163100" cx="35.431" cy="131.218" rx="0.995" ry="0.989"/>
	<path clip-path="url(#SVGID_2_)" fill="#2A4613" d="M17.53,93.287c-0.052,11.616,4.314,16.992,9.878,15.919
		c5.565-1.073-9.579-13.641-11.221-28.395"/>
	<path clip-path="url(#SVGID_2_)" fill="#81A83A" d="M23.507,121.151c2.441,3.56,2.222,6.114,0.287,6.934s0.096-6.172-2.479-11.046"
		/>
	<path display="none" clip-path="url(#SVGID_2_)" fill="#B42238" d="M-43.204,99.909c12.123,0.201,24.178-2.657,34.634-8.763
		C9.634,80.516,51.556,76.28,95.68,89.748c68.933,21.04,112.455-6.259,169.175,1.937c56.412,8.152,97.015-12.549,137.742-23.046
		c25.801-6.65,100.728-19.227,187.465-16.346c114.035,3.788,217.156,26.531,318.544,16.346
		c159.035-15.977,73.085-87.856,73.085-87.856L32.443-22.013l-624.846-8.607l-64.227,120.368l170.953,11.138
		c44.985,2.931,90.151,1.424,134.837-4.5l53-7.025c29.577-3.921,59.488-4.724,89.235-2.396L-43.204,99.909z"/>
	<path display="none" opacity="0.3" clip-path="url(#SVGID_2_)" fill="#B42238" d="M-43.204,106.403
		c12.123,0.201,24.178-2.657,34.634-8.763C9.634,87.01,51.556,82.774,95.68,96.242c68.933,21.04,112.455-6.259,169.175,1.937
		c56.412,8.152,97.015-12.549,137.742-23.046c25.801-6.65,100.728-19.227,187.465-16.346
		c114.035,3.788,217.156,26.531,318.544,16.346c159.035-15.977,73.085-87.856,73.085-87.856L32.443-15.52l-624.846-8.607
		l-64.227,120.368l170.953,11.138c44.985,2.931,90.151,1.424,134.837-4.5l53-7.025c29.577-3.921,59.488-4.724,89.235-2.396
		L-43.204,106.403z"/>
	<path display="none" opacity="0.3" clip-path="url(#SVGID_2_)" fill="#B42238" d="M-43.204,115.661
		c12.123,0.201,24.178-2.657,34.634-8.763C9.634,96.268,51.556,92.032,95.68,105.5c68.933,21.04,112.455-6.259,169.175,1.937
		c56.412,8.152,97.015-12.549,137.742-23.046c25.801-6.65,100.728-19.227,187.465-16.346
		c114.035,3.788,217.156,26.531,318.544,16.346c159.035-15.977,73.085-87.856,73.085-87.856L32.443-6.262l-624.846-8.607
		L-656.631,105.5l170.953,11.138c44.985,2.931,90.151,1.424,134.837-4.5l53-7.025c29.577-3.921,59.488-4.724,89.235-2.396
		L-43.204,115.661z"/>
	<path display="none" clip-path="url(#SVGID_2_)" fill="#B42238" d="M-82.807,569.84c25.745,0.818,51.396,3.555,76.734,8.166
		c42.713,7.773,82.107,11.449,124.141,11.449c52.817,0,102.399-9.788,154.364-7.822c41.155,1.557,195.389,11.223,283.165,11.223
		c68.727,0,150.482-18.452,226.009-18.452c118.794,0,220.671,18.452,220.671,18.452l-22.58,117.677l-577.046,7.488L45.791,735.992
		l-157.062-48.385l-439.358-18.422l-10.377-114.532l87.453,9.471c79.373,8.596,159.239,11.848,239.053,9.733L-82.807,569.84z"/>
	<path display="none" opacity="0.3" clip-path="url(#SVGID_2_)" fill="#B42238" d="M-82.807,563.509
		c25.745,0.818,51.396,3.556,76.734,8.166c42.713,7.773,82.107,11.449,124.141,11.449c52.817,0,102.399-9.788,154.364-7.822
		c41.155,1.557,195.389,11.224,283.165,11.224c68.727,0,150.482-18.452,226.009-18.452c118.794,0,220.671,18.452,220.671,18.452
		l-22.58,117.677l-577.046,7.488L45.791,729.662l-157.062-48.385l-439.358-18.422l-10.377-114.532l87.453,9.471
		c79.373,8.596,159.239,11.848,239.053,9.733L-82.807,563.509z"/>
	<path display="none" opacity="0.3" clip-path="url(#SVGID_2_)" fill="#B42238" d="M-82.807,554.675
		c25.745,0.818,51.396,3.556,76.734,8.166c42.713,7.773,82.107,11.449,124.141,11.449c52.817,0,102.399-9.788,154.364-7.822
		c41.155,1.557,195.389,11.224,283.165,11.224c68.727,0,150.482-18.452,226.009-18.452c118.794,0,220.671,18.452,220.671,18.452
		l-22.58,117.677l-577.046,7.488L45.791,720.828l-157.062-48.385l-439.358-18.422l-10.377-114.532l87.453,9.471
		c79.373,8.596,159.239,11.848,239.053,9.733L-82.807,554.675z"/>
</g>
</svg>
