<svg xmlns="http://www.w3.org/2000/svg" width="545" height="300" viewBox="0 0 545 300">
  <defs>
    <style>
      .cls-1-botte {
        fill: #fd0;
        stroke: #fd0;
        stroke-miterlimit: 30;
        stroke-width: 3.37px;
      }

      .cls-2-botte {
        fill: #e5b600;
      }

      .cls-3-botte {
        fill: #fff;
      }

      .cls-4-botte {
        fill: #f7f7f8;
      }
    </style>
  </defs>
  <title>Accessoires</title>
  <g id="bottes_jaunes">
    <g>
      <path class="cls-1-botte" d="M69.24,0V229.07H272.75v-143A283.5,283.5,0,0,1,69.24,0Z"/>
      <path class="cls-2-botte" d="M69.24,147.27C112.6,142,170,148.83,215,173.14"/>
      <path class="cls-1-botte" d="M134.71,159.58c-36.81,0-68.06,6.15-91,16.91-26.56,12.45-42,31.08-42,53.57,0,24,14.11,42.51,42,54,20.5,8.44,48.44,13.06,83.73,13.22h3.94c89.88-.38,141.74-25.62,141.74-67.21C273.11,188.15,214.12,159.58,134.71,159.58Z"/>
      <path class="cls-2-botte" d="M272.75,231.45c-25.82,47.69-93.21,55.24-138.38,55.24C84.52,286.69,21.3,278,0,231.45c0,24,15.81,43.49,43.7,55,20.5,8.43,48.44,13.06,83.73,13.22h3.94c89.88-.38,142.85-28.62,142.85-66.94Z"/>
      <path class="cls-3-botte" d="M273.05,214.69c-25.83,47.69-93.22,55.24-138.39,55.24-49.85,0-110.62-9.37-131.92-56A46.45,46.45,0,0,0,.6,222.64c4.54,18.28,20.49,37.6,43.39,47,20.5,8.44,48.44,13.07,83.73,13.23h3.94c89.88-.38,142.85-28.63,142.85-66.94Z"/>
      <rect class="cls-4-botte" x="67.99" y="95.38" width="199.13" height="12.07"/>
      <rect class="cls-4-botte" x="67.99" y="115.28" width="199.13" height="12.07"/>
      <path class="cls-1-botte" d="M475.76.35V229.42H272.25v-143A283.46,283.46,0,0,0,475.76.35Z"/>
      <path class="cls-2-botte" d="M475.76,147.62C432.4,142.3,375,149.18,330,173.49"/>
      <path class="cls-1-botte" d="M410.29,159.93c36.81,0,68.06,6.15,91,16.91,26.56,12.45,42,31.08,42,53.57,0,24-14.11,42.51-42,54-20.5,8.44-48.44,13.06-83.73,13.22h-3.94c-89.88-.38-141.74-25.62-141.74-67.21C271.89,188.5,330.88,159.93,410.29,159.93Z"/>
      <path class="cls-2-botte" d="M272.25,231.8c25.82,47.69,93.21,55.25,138.38,55.25,49.85,0,113.07-8.66,134.37-55.25,0,24-15.81,43.49-43.7,55-20.5,8.43-48.44,13.06-83.73,13.22h-3.94c-89.88-.38-142.85-28.62-142.85-66.94Z"/>
      <path class="cls-3-botte" d="M272,215c25.83,47.69,93.22,55.24,138.39,55.24,49.85,0,110.62-9.37,131.92-56A46.45,46.45,0,0,1,544.4,223c-4.54,18.28-20.49,37.6-43.39,47-20.5,8.43-48.44,13.06-83.73,13.22h-3.94c-89.88-.38-142.85-28.62-142.85-66.94Z"/>
      <rect class="cls-4-botte" x="280.25" y="95.73" width="196.76" height="12.07"/>
      <rect class="cls-4-botte" x="280.25" y="115.63" width="196.76" height="12.07"/>
    </g>
  </g>
</svg>
