<svg version="1.1" id="Calque_1" xmlns="http://www.w3.org/2000/svg" xmlns:xlink="http://www.w3.org/1999/xlink" x="0px" y="0px"
	 width="32.5px" height="24px" viewBox="644.445 236.64 32.5 24" enable-background="new 644.445 236.64 32.5 24"
	 xml:space="preserve">
<g>
	<path fill="#B61F34" d="M669.688,249.023c-0.138-0.069-0.31,0.034-0.345,0.207l0,0c-0.207,0.999-0.896,1.654-1.413,2.033
		c-2.412,1.826-5.34,2.136-7.89,2.171c-0.172,0-0.379,0-0.551,0c-0.758,0-1.757-0.034-2.722-0.31
		c-1.482-0.413-2.894-1.275-4.031-2.584c-0.345-0.379-0.551-0.861-0.689-1.378c-0.034-0.172-0.207-0.241-0.345-0.207
		c-1.998,0.792-3.239,1.895-3.239,3.066c0,2.481,5.478,4.514,12.231,4.514s12.231-2.033,12.231-4.514
		C672.892,250.918,671.686,249.85,669.688,249.023z"/>
	<path fill="#B61F34" d="M663.038,240.582c1.206-0.896,2.929-0.827,3.928,0.482c0.379,0.517,0.655,1.137,0.861,1.792
		c0.517,1.619,0.827,3.377,0.896,5.134c0,0.31,0,0.586-0.034,0.896c-0.138,0.689-0.62,1.171-1.103,1.55
		c-2.205,1.688-4.927,1.998-7.511,2.033c-1.034,0.034-2.102,0-3.101-0.276c-1.378-0.379-2.653-1.206-3.687-2.377
		c-0.448-0.517-0.655-1.24-0.551-1.998l0.448-3.549c0.103-0.861,0.241-1.723,0.482-2.515c0.276-0.792,0.689-1.55,1.309-1.929
		c1.034-0.689,2.377-0.172,3.273,0.792c0.345,0.379,0.655,0.792,1.034,1.103c0.586,0.448,1.344,0.551,1.998,0.276
		C661.901,241.684,662.418,241.03,663.038,240.582z"/>
</g>
</svg>
