<svg version="1.1" xmlns="http://www.w3.org/2000/svg" xmlns:xlink="http://www.w3.org/1999/xlink" x="0px" y="0px"
	 viewBox="0 0 32.5 24" fill="#B61F34">
<stxyle type="text/css">
	.stx0{fill:#B61F34;}
	.stx1{fill:#B61F34;}
</stxyle>
<g id="Calque_2">
	<rect x="7.9" y="21.2" class="stx0" width="20.6" height="0.3"/>
	<g>
		<path class="stx1" d="M18.8,4.9c0-0.1,0-0.2,0-0.3H9.1c0,0.3,0,0.6,0,1h9.7C18.8,5.3,18.8,5.1,18.8,4.9z"/>
		<path class="stx1" d="M22.8,16.7c-2.2-0.4-4-0.9-4-3.2c0-1.7,0-5.4,0-6.9H9.1c0,5.4,0,13.6,0,13.9c0,1.9,0.3,1.9,1.5,1.9
			c0,0,3.7,0,3.8,0c0-0.1,0-0.4,0-0.4s1.3,0.2,3.1,0.3c2.2,0.1,3.4,0.1,4.5,0.1h3.5c0.7,0,1.2-0.5,1.2-1.2v-2.1
			C26.8,17.6,25,17.1,22.8,16.7z"/>
		<path class="stx1" d="M18.8,1.9H9.1c0,0,0,0.7,0,1.8h9.7C18.8,2.9,18.8,2.7,18.8,1.9z"/>
	</g>
</g>
<g id="Calque_3">
	<g>
		<path class="stx0" d="M21.8,22.2c-1.1,0-2.3,0-4.2-0.1c-1.8-0.1-3.1-0.3-3.1-0.3c0,0,0,0,0,0c-0.1,0-0.1,0-0.2,0.1
			c-0.1,0.1-0.1,0.1-0.1,0.2l0,0.1h-3.5c-1,0-1.2,0-1.2-1.5c0.6,0,1.9,0,3.6,0c4.6,0.1,11.5,0.1,13.5,0.1c0,0.2,0,0.4,0,0.4
			c0,0.5-0.4,0.9-0.9,0.9H21.8z"/>
		<path class="stx1" d="M9.7,20.9c0.7,0,1.8,0,3.3,0c4.4,0.1,10.9,0.1,13.2,0.1c0,0.1,0,0.1,0,0.1c0,0.3-0.3,0.6-0.6,0.6h-3.5l-0.2,0
			l-0.2,0c-1.1,0-2.3,0-4.2-0.1c-1.8-0.1-3.1-0.3-3.1-0.3c0,0-0.1,0-0.1,0c-0.1,0-0.3,0.1-0.4,0.1c-0.1,0.1-0.1,0.1-0.2,0.2h-3.3
			C9.8,21.8,9.7,21.8,9.7,20.9 M9.1,20.3c0,1.9,0.3,2.1,1.5,2.1c0,0,3.7,0,3.8,0c0-0.1,0-0.4,0-0.4s1.3,0.2,3.1,0.3
			c2,0.1,3.2,0.1,4.2,0.1c0.1,0,0.2,0,0.4,0h3.5c0.7,0,1.2-0.5,1.2-1.2c0,0,0-0.6,0-0.7C24.5,20.5,9.6,20.3,9.1,20.3L9.1,20.3z"/>
	</g>
</g>
</svg>
