<svg version="1.1" id="Calque_1" xmlns="http://www.w3.org/2000/svg" xmlns:xlink="http://www.w3.org/1999/xlink" x="0px" y="0px"
	 width="32.5px" height="24px" viewBox="691.445 236.64 32.5 24" enable-background="new 691.445 236.64 32.5 24"
	 xml:space="preserve">
<path fill="#921427" d="M722.28,246.883l-0.645,0.258c0.129,9.809-8.906,9.164-11.358,5.034c-0.645-1.033-0.904-2.839-1.033-5.292
	l0.387-0.774c-1.033-0.774-2.84-0.774-3.872,0l0.387,0.774c-0.129,2.452-0.387,4.13-1.033,5.292
	c-1.678,2.969-8.389,4.388-10.713-0.387c-0.387-0.774-0.645-2.323-0.645-4.517l-0.645-0.258v-2.065
	c4.905-1.549,7.615-1.807,12.132-0.129c1.678-0.774,3.098-0.774,4.646,0c4.517-1.678,7.357-1.42,12.132,0.129v2.065L722.28,246.883z
	"/>
<path fill="#FFFFFF" d="M713.503,244.688c-3.485-0.258-3.485,3.227-2.452,5.421C711.438,247.915,711.954,246.108,713.503,244.688z"
	/>
<path fill="#FFFFFF" d="M697.628,244.688c-3.485-0.258-3.485,3.227-2.452,5.421C695.563,247.915,696.079,246.108,697.628,244.688z"
	/>
</svg>
